<?xml version="1.0" encoding="UTF-8"?> <!-- Generator: Adobe Illustrator 25.1.0, SVG Export Plug-In . SVG Version: 6.00 Build 0) --> <svg xmlns="http://www.w3.org/2000/svg" xmlns:xlink="http://www.w3.org/1999/xlink" version="1.1" id="Layer_1" x="0px" y="0px" viewBox="0 0 711 685.5" style="enable-background:new 0 0 711 685.5;" xml:space="preserve"> <style type="text/css"> .st0{opacity:0.59;fill:#E7E7E7;enable-background:new ;} .st1{opacity:0.53;fill-rule:evenodd;clip-rule:evenodd;fill:#E7E7E7;enable-background:new ;} .st2{opacity:0.68;fill-rule:evenodd;clip-rule:evenodd;fill:#F2F2F2;enable-background:new ;} .st3{fill-rule:evenodd;clip-rule:evenodd;fill:#E6E6E6;} .st4{opacity:0.53;fill-rule:evenodd;clip-rule:evenodd;fill:#E6E6E6;enable-background:new ;} .st5{fill:#F05A2A;} .st6{fill:#F8EC3A;} .st7{fill:#FFFFFF;} .st8{fill:#FF4081;} .st9{fill:#FFD740;} .st10{fill:#40C4FF;} .st11{fill:#399439;} .st12{fill:#FE912A;} .st13{fill:#EF4335;} .st14{fill:#DD3A78;} .st15{fill:#E0B83B;} .st16{fill:#39AED8;} .st17{fill:#317C31;} .st18{fill:#FA7903;} .st19{fill:#D33C35;} .st20{fill:url(#SVGID_1_);} .st21{fill:url(#SVGID_2_);} .st22{fill:none;stroke:#403F41;stroke-width:3.8983;stroke-linecap:round;stroke-miterlimit:10;} .st23{fill:#A6A8AB;} .st24{fill:#221F1F;} .st25{fill:none;stroke:#403F41;stroke-width:3.2521;stroke-linecap:round;stroke-miterlimit:10;} .st26{opacity:0.34;fill:#FFFFFF;enable-background:new ;} .st27{fill:#403F41;} .st28{enable-background:new ;} .st29{font-family:'Raleway-ExtraBold';} .st30{font-size:20px;} </style> <path class="st0" d="M604.6,41.9c-1.9,0-3.7,0.3-5.5,0.8c0-0.3,0-0.5,0-0.8c0-16.8-13.6-30.4-30.4-30.4c-15.4,0-28,11.4-30.1,26.2 c-2.6-0.9-5.4-1.4-8.4-1.4c-14,0-25.3,11.3-25.3,25.3c0,12.7,9.3,23.2,21.4,25c2.6,10.9,12.4,19,24.1,19c9.5,0,17.8-5.4,21.9-13.2 c3.2,4.6,8.5,7.7,14.6,7.7c9.8,0,17.7-7.9,17.7-17.7c0-0.9-0.1-1.7-0.2-2.5c0.1,0,0.1,0,0.2,0c10.5,0,19-8.5,19-19 S615.1,41.9,604.6,41.9z"></path> <path class="st0" d="M282,284.6c-1.5,0-3,0.2-4.3,0.7c0-0.2,0-0.4,0-0.7c0-8.5-6.9-15.3-15.3-15.3c-4.9,0-9.3,2.3-12.1,5.9 c-2.4-2.2-5.6-3.6-9.1-3.6c-5.4,0-10.1,3.2-12.2,7.8c-1.5-0.6-3-0.9-4.7-0.9c-7.2,0-13,5.8-13,13s5.8,13,13,13c1,0,2-0.1,3-0.3 c-0.1,0.6-0.1,1.1-0.1,1.7c0,8.2,6.7,14.9,14.9,14.9c4.5,0,8.6-2,11.3-5.2c2.4,3.6,6.5,6,11.1,6c5.6,0,10.4-3.5,12.4-8.4 c1.6,0.6,3.4,1,5.2,1c8.1,0,14.7-6.6,14.7-14.7C296.7,291.2,290.1,284.6,282,284.6z M255,298.8c-0.2-0.4-0.4-0.8-0.7-1.1 c0.4,0.2,0.8,0.4,1.2,0.6C255.4,298.5,255.2,298.6,255,298.8z"></path> <path class="st0" d="M165,102.3c-4.1-11.8-16.9-19.8-31.4-18.7c-11.8,0.9-21.6,7.5-26.1,16.6c-4.3-4.8-11.2-7.7-18.7-7.1 c-12.1,0.9-21.3,10.3-20.5,21.1c0.1,0.9,0.2,1.9,0.5,2.8c-0.1,0-0.2,0-0.3,0c-13,1-22.9,11.1-22.1,22.7s12.1,20.2,25.1,19.2 c2.4-0.2,4.6-0.7,6.7-1.4c0,0.3,0,0.6,0,0.9c1.4,18.5,19.4,32.2,40.2,30.7c19.1-1.4,33.9-15.1,35.3-31.6c3.3,0.8,6.9,1.1,10.5,0.8 c17.4-1.3,30.6-14.8,29.4-30.2C192.6,113.9,180.2,103.2,165,102.3z"></path> <path class="st1" d="M0.4,685.5h331.2c0.8-0.4,1.6-0.8,2.3-1.2c0.4,0.4,0.8,0.8,1.3,1.2h6.3h27.8h6.3c0.4-0.4,0.8-0.8,1.3-1.2 c0.8,0.4,1.5,0.8,2.3,1.2h331.2c0.4-1.7,0.6-3.4,0.6-5.2c0-14.9-13.6-27.6-32.8-32.8c1.8-2.8,2.8-5.8,2.8-9 c0-12.4-14.7-22.4-32.9-22.4c-15.6,0-28.7,7.4-32,17.3c-1.3-13.7-18.1-24.6-38.6-24.6c-6.9,0-13.4,1.2-19,3.4 c-4.9-6-14.2-10-24.9-10c-4.8,0-9.4,0.8-13.3,2.2c-2.8-7.2-12.5-12.6-24-12.6c-0.3,0-0.6,0-0.9,0c-1.1-12.6-16.4-22.6-35.2-22.6 c-16.1,0-29.7,7.3-33.9,17.4c-4.2-1.3-8.9-2-13.8-2c-3.7,0-7.3,0.4-10.7,1.2c-3.6-1.6-7.8-2.5-12.4-2.5c-12.4,0-22.5,6.7-23.1,15 c-3.8-2.2-8.2-3.8-13-4.9c-3.6-6.8-13.2-11.7-24.5-11.7c-6.1,0-11.7,1.4-16.1,3.8c-5.2-3-12-4.9-19.5-4.9c-3.8,0-7.5,0.5-10.8,1.4 c-5.9-7.7-17.7-12.9-31.3-12.9c-19.2,0-34.7,10.4-35.3,23.3c-1.1-0.1-2.2-0.1-3.4-0.1c-12.5,0-23.7,3.8-31.3,9.8 c-1.2-0.1-2.3-0.2-3.5-0.2c-4.8,0-9.3,0.8-13.3,2.2c-4.3-2.9-10.3-4.8-16.9-4.8c-9.8,0-18.1,4-21.9,9.7c-16.7,2.4-29.4,12.1-30.5,24 c-3.4-9.9-16.4-17.3-32-17.3c-18.2,0-32.9,10-32.9,22.4c0,3.2,1,6.3,2.8,9C13.7,652.2,0.1,665,0.1,679.9C-0.2,682,0,683.8,0.4,685.5 L0.4,685.5z M577.1,669.4L577.1,669.4L577.1,669.4L577.1,669.4L577.1,669.4z M133.7,669.4L133.7,669.4L133.7,669.4L133.7,669.4z"></path> <g> <path class="st2" d="M457.2,684.4H262.3c40.9-44.1,75.1-117.8,78.2-239c0.2-7.6,0.1-15.5,0-23.5c0,0-0.4-3.3-0.6-5.9h19.9h19.9 c-0.2,2.6-0.6,5.9-0.6,5.9c-0.1,8-0.2,15.9,0,23.5C382.2,566.6,416.3,640.4,457.2,684.4z"></path> <path class="st3" d="M338.2,413.2c-0.3,10.5-1.8,99.9-9.3,145.1s-24.4,101.2-24.4,101.2c17-52.8,39.9-132.3,40.6-183.5 c0.7,39.1-11.3,145.7-10.2,144.1c15.5-47.4,20.5-118.9,20.8-148.5l4.1,85.4l4.1-85.4c0.3,29.5,5.3,101.1,20.8,148.5 c1.1,1.6-11-104.9-10.2-144.1c0.8,51.2,23.6,130.7,40.6,183.5c0,0-16.8-56-24.4-101.2c-7.5-45.2-9.6-134.6-9.9-145.1L338.2,413.2 L338.2,413.2z"></path> <path class="st4" d="M284,668.9c2.8-0.4,24.4-40.4,29.7-53.8c5.3-13.4,8.7-29.7,8.6-27.8c-1.6,25.9-14.4,59.4-14.4,59.3 c1.2-1.2,15.3-31.1,21.8-49.9c6.5-18.8,11.1-39.7,11.1-36.2c0,24.8-5.8,54.2-17.6,92.2c1.9-2.4,16.7-32.7,20.4-44.9 s5.1-15.7,5.1-15.7c-1.1,32.7-11.7,65-11.1,64.3c13.4-15.2,21.3-87.9,22.6-90.7c1.3,2.8,9.2,75.5,22.6,90.7 c0.6,0.6-10-31.6-11.1-64.3c0,0,1.4,3.5,5.1,15.7c3.7,12.2,18.6,42.4,20.4,44.9c-11.8-38-17.6-67.4-17.6-92.2 c0-3.5,4.6,17.4,11.1,36.2s20.6,48.7,21.8,49.9c0.1,0.1-12.8-33.5-14.4-59.3c-0.1-1.9,3.2,14.4,8.6,27.8 c5.3,13.4,26.9,53.4,29.7,53.8l-76.2,6.8L284,668.9z"></path> </g> <g> <path class="st5" d="M363,392.5c-13.3,0.3-24.6,15.3-24.3,25.9s26.3,50.8,26.3,50.8c7.3-18.4,23.9-41.7,23.7-52.1 C388.3,406.7,376.3,392.1,363,392.5z"></path> <path class="st6" d="M363,393.3c-10.8,0.3-20.1,12.5-19.9,21.2c0.2,8.7,21.5,41.6,21.5,41.6c6-15,19.6-34,19.3-42.6 C383.7,404.9,373.9,393,363,393.3z"></path> <path class="st7" d="M363,393.2c-8.4,0.2-15.5,9.6-15.3,16.3c0.2,6.7,16.5,32,16.5,32c4.6-11.6,15.1-26.2,14.9-32.8 C379,402.1,371.4,393,363,393.2z"></path> </g> <g> <path class="st5" d="M352.9,398c-8.7-1.7-18.2,6.3-19.6,13.3c-1.4,6.9,9.6,36.8,9.6,36.8c7.4-10.9,21.6-23.5,22.9-30.4 C367.3,410.9,361.6,399.7,352.9,398z"></path> <path class="st6" d="M352.8,398.5c-7.1-1.4-14.9,5.2-16,10.8c-1.1,5.7,7.9,30.1,7.9,30.1c6.1-8.9,17.7-19.2,18.8-24.8 C364.6,409,359.9,399.9,352.8,398.5z"></path> <path class="st7" d="M352.8,398.4c-5.5-1.1-11.5,4-12.3,8.4c-0.9,4.4,6.1,23.2,6.1,23.2c4.7-6.9,13.6-14.8,14.5-19.1 C361.9,406.6,358.3,399.5,352.8,398.4z"></path> </g> <g> <path class="st5" d="M356.9,395.9c-5.1,2.2-7.2,9.9-5.4,14s18.3,15.7,18.3,15.7c0-8.4,2.8-20.1,1-24.2 C369.1,397.4,362,393.7,356.9,395.9z"></path> <path class="st6" d="M357,396.2c-4.2,1.8-5.9,8.1-4.4,11.4c1.5,3.4,15,12.9,15,12.9c0-6.8,2.3-16.4,0.8-19.7 C367,397.5,361.2,394.4,357,396.2z"></path> <path class="st7" d="M357,396.2c-3.2,1.4-4.5,6.2-3.4,8.8c1.1,2.6,11.6,9.9,11.6,9.9c0-5.3,1.7-12.7,0.6-15.2 C364.7,397.1,360.3,394.8,357,396.2z"></path> </g> <path class="st8" d="M102.5,262c1.2,67,28.2,127.7,71.4,172.6l73.4-73.4c-24.5-26.1-39.9-60.9-41.1-99.2H102.5z"></path> <path class="st9" d="M102.5,252.8h103.8c1.2-38.3,16.6-73.1,41.1-99.1L174,80.3C130.7,125.1,103.7,185.8,102.5,252.8z"></path> <path class="st10" d="M253.9,147.1c26.1-24.5,60.8-39.9,99.1-41.1V2.3c-67,1.2-127.7,28.2-172.5,71.4L253.9,147.1z"></path> <path class="st11" d="M362.3,106.1c38.3,1.1,73.1,16.5,99.1,41.1l73.4-73.4C490,30.5,429.3,3.5,362.3,2.3V106.1z"></path> <path class="st12" d="M468,361.2l73.4,73.4c43.3-44.9,70.3-105.6,71.4-172.6H509.1C508,300.4,492.6,335.1,468,361.2z"></path> <path class="st13" d="M468,153.6c24.5,26.1,39.9,60.8,41.1,99.1h103.8c-1.2-67-28.2-127.7-71.5-172.5L468,153.6z"></path> <path class="st14" d="M206.3,262c1.1,38.4,16.5,73.1,41.1,99.2l15.1-15.1c-20.7-22.2-33.7-51.6-34.8-84.1H206.3z"></path> <path class="st15" d="M206.3,252.8h21.4c1.1-32.4,14.2-61.8,34.8-84l-15.1-15.1C222.9,179.7,207.5,214.5,206.3,252.8z"></path> <path class="st16" d="M269.1,162.3c22.2-20.7,51.6-33.7,84-34.8v-21.4c-38.3,1.1-73.1,16.5-99.1,41.1L269.1,162.3z"></path> <path class="st17" d="M362.3,127.5c32.4,1.1,61.8,14.1,84,34.8l15.1-15.1c-26.1-24.5-60.8-39.9-99.1-41.1V127.5z"></path> <path class="st18" d="M452.9,346.1l15.1,15.1c24.5-26.1,39.9-60.9,41.1-99.2h-21.4C486.6,294.5,473.6,323.9,452.9,346.1z"></path> <path class="st19" d="M452.8,168.8c20.7,22.2,33.7,51.6,34.8,84H509c-1.2-38.3-16.6-73.1-41.1-99.1L452.8,168.8z"></path> <polygon class="st19" points="463.6,212.2 491.6,215.6 480.5,189.7 "></polygon> <polygon class="st17" points="400.4,150.2 422.6,132.8 396.4,122.3 "></polygon> <polygon class="st16" points="311.8,151 315.3,123 289.3,134 "></polygon> <polygon class="st15" points="221.9,218.1 249.8,214.2 232.5,192 "></polygon> <polygon class="st14" points="233.7,325.2 250.6,302.7 222.7,299.3 "></polygon> <polygon class="st18" points="481.8,323 492.3,296.8 464.4,300.7 "></polygon> <linearGradient id="SVGID_1_" gradientUnits="userSpaceOnUse" x1="286.6445" y1="447.95" x2="428.8445" y2="447.95" gradientTransform="matrix(1 0 0 -1 0 672)"> <stop offset="0" style="stop-color:#1CBBE9"></stop> <stop offset="1" style="stop-color:#2176FF"></stop> </linearGradient> <path class="st20" d="M357.7,176.2c-39.3,0-71.1,31.9-71.1,71.1c52.6,51,60.4,6.9,71.1,6.8c20.5-0.2,34.1,42.2,71.1-6.8 C428.8,208,397,176.2,357.7,176.2z"></path> <linearGradient id="SVGID_2_" gradientUnits="userSpaceOnUse" x1="286.5445" y1="386.5267" x2="428.7682" y2="386.5267" gradientTransform="matrix(1 0 0 -1 0 672)"> <stop offset="0" style="stop-color:#1CBBE9"></stop> <stop offset="1" style="stop-color:#2176FF"></stop> </linearGradient> <path class="st21" d="M286.5,247.3c7.8,44.4,29.2,49.8,40.9,96.2c25.4,16.9,23.4,13,64.3,3.3c5.8-42.7,37-68.5,37-99.5 C430.8,200.9,292.4,210,286.5,247.3z"></path> <g> <path class="st22" d="M325.5,260.8c0,0,13.5,31,17.6,42.4c4.1,11.5,4.2,38.9,4.2,38.9"></path> <path class="st22" d="M394.8,260.8c0,0-13.5,31-17.6,42.4c-4.1,11.5-4.2,38.9-4.2,38.9"></path> </g> <path class="st23" d="M335.2,387c0,6.7,4.4,12.2,9.8,12.2h29.4c5.4,0,9.8-5.5,9.8-12.2v-22h-48.9L335.2,387L335.2,387z"></path> <path class="st24" d="M323,373.7c0,6.8,5.5,12.2,12.2,12.2H384c6.7,0,12.2-5.5,12.2-12.2v-35.6H323V373.7z"></path> <g> <path class="st25" d="M338.9,262.8c-3.9,0-7.1,4.2-7.1,9.3c0,5.1,3.2,9.3,7.1,9.3c3.9,0,7.1-4.2,7.1-9.3S342.8,262.8,338.9,262.8z"></path> <path class="st25" d="M353.1,262.8c-3.9,0-7.1,4.2-7.1,9.3c0,5.1,3.2,9.3,7.1,9.3c3.9,0,7.1-4.2,7.1-9.3 C360.2,267,357,262.8,353.1,262.8z"></path> <path class="st25" d="M367.3,262.8c-3.9,0-7.1,4.2-7.1,9.3c0,5.1,3.2,9.3,7.1,9.3c3.9,0,7.1-4.2,7.1-9.3 C374.3,267,371.2,262.8,367.3,262.8z"></path> <path class="st25" d="M381.4,262.8c-3.9,0-7.1,4.2-7.1,9.3c0,5.1,3.2,9.3,7.1,9.3c3.9,0,7.1-4.2,7.1-9.3S385.4,262.8,381.4,262.8z"></path> </g> <path class="st26" d="M395.7,195.7c-11.6-8.4-42.9-19.4-60.5-6.5c-17.5,12.9-0.5,23,12.1,24.5c18,2.1,45.1,7.8,54.5,30.4 c12.6,30.2,2.2,52.6,4.6,47.1c6.6-15.6,13.7-24.4,15.5-41.1C423.7,233.3,411.8,207.5,395.7,195.7z"></path> <path class="st27" d="M397.1,344h-75.3c-0.9,0-1.7,0.8-1.7,1.8v3.1c0,1,0.7,1.8,1.7,1.8h75.3c0.9,0,1.7-0.8,1.7-1.8v-3.1 C398.8,344.8,398,344,397.1,344z"></path> <path class="st27" d="M397.1,354.5h-75.3c-0.9,0-1.7,0.8-1.7,1.8v3.1c0,1,0.7,1.8,1.7,1.8h75.3c0.9,0,1.7-0.8,1.7-1.8v-3.1 C398.8,355.3,398,354.5,397.1,354.5z"></path> <path class="st27" d="M397.3,365H322c-0.9,0-1.7,0.8-1.7,1.8v3.1c0,1,0.7,1.8,1.7,1.8h75.3c0.9,0,1.7-0.8,1.7-1.8v-3.1 C399,365.8,398.2,365,397.3,365z"></path> <g> <g class="st28"> <path class="st7" d="M164.7,340.6c0.1,0,0.2,0,0.5,0s0.6,0,1,0s0.7,0,1.1,0s0.7,0,0.9,0c1.4,0,2.5,0.3,3.4,0.8s1.5,1.1,1.9,2 c0.4,0.8,0.6,1.8,0.6,3s-0.2,2.2-0.7,3.1c-0.4,0.9-1.1,1.5-2,2s-2,0.7-3.4,0.7h-3.4v-11.6H164.7z M167,342.5v7.8h1.1 c0.7,0,1.3-0.1,1.8-0.4s1-0.7,1.3-1.3c0.3-0.6,0.5-1.4,0.5-2.3s-0.1-1.6-0.4-2.2s-0.7-1-1.2-1.2c-0.5-0.3-1.2-0.4-1.9-0.4H167z"></path> <path class="st7" d="M178.3,352.4c-0.5,0-1-0.1-1.4-0.3s-0.8-0.5-1-0.9s-0.4-0.8-0.4-1.4c0-0.9,0.3-1.6,1-2.1s1.7-0.7,3.2-0.7h1 v-0.5c0-0.4-0.1-0.7-0.3-0.9c-0.2-0.2-0.6-0.3-1-0.3c-0.3,0-0.7,0.1-1,0.2c-0.3,0.2-0.5,0.4-0.6,0.8h-1.9c0-0.6,0.2-1.1,0.5-1.5 s0.7-0.7,1.3-0.9c0.5-0.2,1.2-0.3,1.8-0.3c0.8,0,1.5,0.1,2,0.3c0.5,0.2,0.9,0.5,1.1,0.9s0.3,0.9,0.3,1.4v5.8h-2l-0.2-1.4 c-0.3,0.6-0.6,1-1.1,1.2C179.4,352.2,178.9,352.4,178.3,352.4z M179.1,350.8c0.2,0,0.4,0,0.6-0.1s0.4-0.2,0.5-0.3s0.3-0.3,0.4-0.4 c0.1-0.2,0.1-0.3,0.1-0.5v-1.2h-0.8c-0.4,0-0.8,0.1-1.1,0.1s-0.6,0.2-0.8,0.4c-0.2,0.2-0.3,0.5-0.3,0.8c0,0.4,0.1,0.7,0.4,0.9 S178.7,350.8,179.1,350.8z"></path> <path class="st7" d="M190.1,345.5h-1.8v4.4c0,0.2,0,0.4,0.1,0.5s0.1,0.2,0.2,0.2s0.2,0,0.4,0h1.1v1.4c-0.1,0-0.3,0.1-0.5,0.1 s-0.5,0.1-0.9,0.1c-0.7,0-1.3-0.1-1.7-0.3c-0.4-0.2-0.7-0.4-0.8-0.8s-0.2-0.7-0.2-1.2v-4.5h-1.3v-1.6h1.4l0.6-2.5h1.7v2.5h1.8v1.7 H190.1z"></path> <path class="st7" d="M194.2,352.4c-0.5,0-1-0.1-1.4-0.3s-0.8-0.5-1-0.9s-0.4-0.8-0.4-1.4c0-0.9,0.3-1.6,1-2.1s1.7-0.7,3.2-0.7h1 v-0.5c0-0.4-0.1-0.7-0.3-0.9c-0.2-0.2-0.6-0.3-1-0.3c-0.3,0-0.7,0.1-1,0.2c-0.3,0.2-0.5,0.4-0.6,0.8h-1.9c0-0.6,0.2-1.1,0.5-1.5 s0.7-0.7,1.3-0.9c0.5-0.2,1.2-0.3,1.8-0.3c0.8,0,1.5,0.1,2,0.3c0.5,0.2,0.9,0.5,1.1,0.9s0.3,0.9,0.3,1.4v5.8h-2l-0.2-1.4 c-0.3,0.6-0.6,1-1.1,1.2C195.3,352.2,194.8,352.4,194.2,352.4z M195,350.8c0.2,0,0.4,0,0.6-0.1s0.4-0.2,0.5-0.3s0.3-0.3,0.4-0.4 c0.1-0.2,0.1-0.3,0.1-0.5v-1.2h-0.8c-0.4,0-0.8,0.1-1.1,0.1s-0.6,0.2-0.8,0.4c-0.2,0.2-0.3,0.5-0.3,0.8c0,0.4,0.1,0.7,0.4,0.9 S194.6,350.8,195,350.8z"></path> </g> </g> <g> <g class="st28"> <path class="st7" d="M150.5,360.5c0.9,0,1.6,0.2,2.3,0.5s1.2,0.8,1.6,1.4s0.7,1.3,0.7,2h-2.4c-0.1-0.4-0.2-0.8-0.4-1.1 c-0.2-0.3-0.5-0.6-0.8-0.7c-0.3-0.2-0.7-0.3-1.2-0.3s-1,0.1-1.4,0.4s-0.7,0.7-0.9,1.3c-0.2,0.6-0.3,1.3-0.3,2.3 c0,1.4,0.2,2.5,0.7,3.1s1.1,1,1.9,1c0.4,0,0.8-0.1,1.2-0.3c0.3-0.2,0.6-0.5,0.8-0.8s0.3-0.7,0.4-1.1h2.4c-0.1,0.5-0.2,1.1-0.4,1.6 c-0.2,0.5-0.5,0.9-0.8,1.3c-0.4,0.4-0.8,0.7-1.4,0.9c-0.6,0.2-1.3,0.3-2.1,0.3c-1.1,0-2-0.3-2.8-0.8s-1.4-1.2-1.8-2.1 s-0.6-2-0.6-3.2s0.2-2.3,0.6-3.1s1-1.5,1.8-2C148.5,360.7,149.4,360.5,150.5,360.5z"></path> <path class="st7" d="M160.5,372.4c-0.8,0-1.5-0.2-2.1-0.5s-1.1-0.8-1.4-1.5s-0.5-1.4-0.5-2.3s0.2-1.6,0.5-2.3 c0.3-0.7,0.8-1.2,1.4-1.5c0.6-0.4,1.3-0.5,2.1-0.5s1.5,0.2,2.1,0.5c0.6,0.4,1.1,0.9,1.4,1.5s0.5,1.4,0.5,2.3 c0,0.8-0.2,1.6-0.5,2.2s-0.8,1.1-1.4,1.5C162.1,372.2,161.4,372.4,160.5,372.4z M160.5,370.6c0.4,0,0.7-0.1,1-0.4 c0.3-0.2,0.4-0.6,0.5-0.9c0.1-0.4,0.2-0.8,0.2-1.3c0-0.4-0.1-0.9-0.2-1.2c-0.1-0.4-0.3-0.7-0.5-0.9c-0.3-0.2-0.6-0.4-1-0.4 s-0.7,0.1-1,0.3s-0.4,0.5-0.6,0.9c-0.1,0.4-0.2,0.8-0.2,1.3c0,0.4,0.1,0.8,0.2,1.2c0.1,0.4,0.3,0.7,0.5,1 C159.7,370.5,160.1,370.6,160.5,370.6z"></path> <path class="st7" d="M168.7,372.3c-0.6,0-1.1-0.1-1.4-0.2c-0.4-0.1-0.6-0.3-0.8-0.6c-0.2-0.2-0.3-0.5-0.3-0.8s-0.1-0.6-0.1-0.9 v-9.6h2.3v9.3c0,0.3,0.1,0.6,0.2,0.7s0.4,0.3,0.7,0.3h0.4v1.4c-0.2,0.1-0.3,0.1-0.5,0.1S168.9,372.3,168.7,372.3z"></path> <path class="st7" d="M173.9,372.3c-0.6,0-1.1-0.1-1.4-0.2c-0.4-0.1-0.6-0.3-0.8-0.6c-0.2-0.2-0.3-0.5-0.3-0.8s-0.1-0.6-0.1-0.9 v-9.6h2.3v9.3c0,0.3,0.1,0.6,0.2,0.7s0.4,0.3,0.7,0.3h0.4v1.4c-0.2,0.1-0.3,0.1-0.5,0.1S174.1,372.3,173.9,372.3z"></path> <path class="st7" d="M178.4,368.6c0,0.4,0.1,0.8,0.2,1.1s0.3,0.6,0.6,0.7c0.3,0.2,0.6,0.3,1,0.3s0.8-0.1,1.1-0.3s0.5-0.5,0.6-0.8 h2.1c-0.1,0.6-0.3,1.1-0.7,1.5s-0.8,0.7-1.4,1s-1.1,0.3-1.7,0.3c-0.8,0-1.5-0.2-2.2-0.5c-0.6-0.3-1.1-0.8-1.5-1.5 c-0.3-0.6-0.5-1.4-0.5-2.2c0-0.8,0.2-1.6,0.5-2.2c0.3-0.7,0.8-1.2,1.4-1.6s1.3-0.6,2.2-0.6c0.8,0,1.6,0.2,2.1,0.5 c0.6,0.4,1,0.8,1.3,1.5c0.3,0.6,0.4,1.4,0.4,2.2v0.6H178.4z M178.4,367.2h3.4c0-0.3-0.1-0.6-0.2-0.9s-0.3-0.5-0.6-0.7 c-0.2-0.2-0.6-0.2-0.9-0.2c-0.4,0-0.7,0.1-0.9,0.3c-0.3,0.2-0.4,0.4-0.6,0.7S178.4,366.9,178.4,367.2z"></path> <path class="st7" d="M189.1,363.8c0.7,0,1.3,0.1,1.8,0.4s0.9,0.7,1.2,1.1c0.3,0.5,0.5,1,0.5,1.6h-1.9c0-0.2-0.1-0.4-0.2-0.7 s-0.3-0.4-0.5-0.5s-0.5-0.2-0.8-0.2c-0.5,0-1,0.2-1.3,0.6s-0.5,1.1-0.5,1.9s0.2,1.4,0.5,1.9s0.8,0.7,1.4,0.7 c0.3,0,0.6-0.1,0.8-0.2c0.2-0.2,0.4-0.3,0.5-0.6c0.1-0.2,0.2-0.4,0.2-0.6h1.9c0,0.6-0.2,1.1-0.5,1.5c-0.3,0.5-0.7,0.8-1.2,1.1 s-1.1,0.4-1.8,0.4c-0.8,0-1.5-0.2-2.1-0.5s-1.1-0.8-1.4-1.5c-0.3-0.6-0.5-1.4-0.5-2.3s0.2-1.6,0.5-2.3c0.3-0.7,0.8-1.2,1.4-1.5 C187.6,363.9,188.3,363.8,189.1,363.8z"></path> <path class="st7" d="M199.2,365.5h-1.8v4.4c0,0.2,0,0.4,0.1,0.5s0.1,0.2,0.2,0.2s0.2,0,0.4,0h1.1v1.4c-0.1,0-0.3,0.1-0.5,0.1 s-0.5,0.1-0.9,0.1c-0.7,0-1.3-0.1-1.7-0.3c-0.4-0.2-0.7-0.4-0.8-0.8s-0.2-0.7-0.2-1.2v-4.5h-1.3v-1.6h1.4l0.6-2.5h1.7v2.5h1.8v1.7 H199.2z"></path> <path class="st7" d="M203.3,360.6v2.1H201v-2.1H203.3z M203.3,363.9v8.3h-2.2v-8.3H203.3z"></path> <path class="st7" d="M209,372.4c-0.8,0-1.5-0.2-2.1-0.5s-1.1-0.8-1.4-1.5s-0.5-1.4-0.5-2.3s0.2-1.6,0.5-2.3 c0.3-0.7,0.8-1.2,1.4-1.5c0.6-0.4,1.3-0.5,2.1-0.5s1.5,0.2,2.1,0.5c0.6,0.4,1.1,0.9,1.4,1.5s0.5,1.4,0.5,2.3 c0,0.8-0.2,1.6-0.5,2.2s-0.8,1.1-1.4,1.5C210.6,372.2,209.8,372.4,209,372.4z M209,370.6c0.4,0,0.7-0.1,1-0.4 c0.3-0.2,0.4-0.6,0.5-0.9c0.1-0.4,0.2-0.8,0.2-1.3c0-0.4-0.1-0.9-0.2-1.2c-0.1-0.4-0.3-0.7-0.5-0.9c-0.3-0.2-0.6-0.4-1-0.4 s-0.7,0.1-1,0.3s-0.4,0.5-0.6,0.9c-0.1,0.4-0.2,0.8-0.2,1.3c0,0.4,0.1,0.8,0.2,1.2c0.1,0.4,0.3,0.7,0.5,1 C208.2,370.5,208.6,370.6,209,370.6z"></path> <path class="st7" d="M214.5,372.2v-8.3h2.3v1.2c0.1-0.2,0.3-0.4,0.5-0.6s0.5-0.3,0.8-0.5c0.3-0.1,0.7-0.2,1.1-0.2 c0.5,0,1,0.1,1.4,0.3c0.4,0.2,0.8,0.5,1.1,0.9s0.4,1,0.4,1.7v5.5h-2.3V367c0-0.4-0.1-0.8-0.4-1s-0.6-0.3-1-0.3 c-0.3,0-0.5,0-0.7,0.1s-0.4,0.2-0.6,0.4c-0.1,0.2-0.2,0.4-0.2,0.7v5.3H214.5z"></path> </g> </g> <text transform="matrix(1 0 0 1 259.186 300.44)" class="st29 st30">1</text> <text transform="matrix(1 0 0 1 445.7054 300.4396)" class="st29 st30">6</text> <text transform="matrix(1 0 0 1 258.9858 226.6323)" class="st29 st30">2</text> <text transform="matrix(1 0 0 1 443.2904 226.6327)" class="st29 st30">5</text> <text transform="matrix(1 0 0 1 308.5609 170.1505)" class="st29 st30">3</text> <text transform="matrix(1 0 0 1 392.0277 168.9459)" class="st29 st30">4</text> <g> <g class="st28"> <path class="st7" d="M497.6,335.4h2.3V347h-2.3V335.4z"></path> <path class="st7" d="M502.2,347v-8.3h2.3v1.2c0.1-0.2,0.3-0.4,0.5-0.6s0.5-0.3,0.8-0.5c0.3-0.1,0.7-0.2,1.1-0.2 c0.5,0,1,0.1,1.4,0.3c0.4,0.2,0.8,0.5,1.1,0.9s0.4,1,0.4,1.7v5.5h-2.3v-5.2c0-0.4-0.1-0.8-0.4-1c-0.3-0.2-0.6-0.3-1-0.3 c-0.3,0-0.5,0-0.7,0.1s-0.4,0.2-0.6,0.4c-0.1,0.2-0.2,0.4-0.2,0.7v5.3H502.2z"></path> <path class="st7" d="M516.7,340.3h-1.8v4.4c0,0.2,0,0.4,0.1,0.5s0.1,0.2,0.2,0.2c0.1,0,0.2,0,0.4,0h1.1v1.4 c-0.1,0-0.3,0.1-0.5,0.1s-0.5,0.1-0.9,0.1c-0.7,0-1.3-0.1-1.7-0.3c-0.4-0.2-0.7-0.4-0.8-0.8s-0.2-0.7-0.2-1.2v-4.5h-1.3v-1.6h1.4 l0.6-2.5h1.7v2.5h1.8L516.7,340.3L516.7,340.3z"></path> <path class="st7" d="M520.4,343.4c0,0.4,0.1,0.8,0.2,1.1s0.3,0.6,0.6,0.7c0.3,0.2,0.6,0.3,1,0.3s0.8-0.1,1.1-0.3s0.5-0.5,0.6-0.8 h2.1c-0.1,0.6-0.3,1.1-0.7,1.5s-0.8,0.7-1.4,1s-1.1,0.3-1.7,0.3c-0.8,0-1.5-0.2-2.2-0.5c-0.6-0.3-1.1-0.8-1.5-1.5 c-0.3-0.6-0.5-1.4-0.5-2.2c0-0.8,0.2-1.6,0.5-2.2c0.3-0.7,0.8-1.2,1.4-1.6c0.6-0.4,1.3-0.6,2.2-0.6c0.8,0,1.6,0.2,2.1,0.5 c0.6,0.4,1,0.8,1.3,1.5c0.3,0.6,0.4,1.4,0.4,2.2v0.6H520.4z M520.4,342h3.4c0-0.3-0.1-0.6-0.2-0.9c-0.1-0.3-0.3-0.5-0.6-0.7 c-0.2-0.2-0.6-0.2-0.9-0.2c-0.4,0-0.7,0.1-0.9,0.3c-0.3,0.2-0.4,0.4-0.6,0.7S520.4,341.7,520.4,342z"></path> <path class="st7" d="M531.4,349.7c-1.5,0-2.6-0.2-3.4-0.6c-0.8-0.4-1.1-0.9-1.1-1.5c0-0.3,0.1-0.5,0.2-0.7 c0.1-0.2,0.3-0.3,0.5-0.5c0.2-0.1,0.4-0.2,0.6-0.3c0.2-0.1,0.3-0.1,0.3-0.1c-0.1,0-0.2-0.1-0.4-0.2s-0.3-0.2-0.4-0.4 c-0.1-0.2-0.2-0.4-0.2-0.6c0-0.3,0.1-0.6,0.4-0.8c0.3-0.2,0.7-0.4,1.3-0.5c-0.5-0.3-1-0.6-1.2-1s-0.4-0.9-0.4-1.3 c0-0.5,0.2-1,0.5-1.4s0.8-0.7,1.4-0.9c0.6-0.2,1.3-0.3,2-0.3c0.6,0,1,0.1,1.4,0.2s0.7,0.3,1,0.5c0.1,0,0.3-0.1,0.5-0.2 s0.4-0.2,0.7-0.3c0.2-0.1,0.5-0.2,0.7-0.3c0.2-0.1,0.4-0.2,0.6-0.3v1.8l-1.4,0.2c0.1,0.1,0.1,0.3,0.1,0.5s0,0.3,0,0.4 c0,0.5-0.1,0.9-0.4,1.3c-0.3,0.4-0.7,0.8-1.3,1s-1.2,0.4-2.1,0.4c-0.1,0-0.2,0-0.4,0s-0.3,0-0.4,0c-0.3,0-0.5,0.1-0.6,0.1 c-0.1,0.1-0.2,0.1-0.2,0.2s0.1,0.2,0.4,0.3c0.2,0,0.6,0.1,1.1,0.1c0.2,0,0.4,0,0.7,0s0.6,0,1,0.1c1,0.1,1.8,0.3,2.3,0.7 c0.5,0.4,0.7,1,0.7,1.6c0,0.8-0.4,1.4-1.1,1.9C534,349.5,532.9,349.7,531.4,349.7z M531.8,348.4c0.7,0,1.1-0.1,1.4-0.2 c0.3-0.2,0.4-0.4,0.4-0.7c0-0.3-0.1-0.5-0.3-0.6s-0.5-0.2-0.9-0.3l-1.9-0.1c-0.2,0-0.5,0-0.7,0.1s-0.3,0.2-0.4,0.4 s-0.2,0.3-0.2,0.5c0,0.3,0.2,0.6,0.6,0.8C530.2,348.3,530.9,348.4,531.8,348.4z M531.3,342.6c0.4,0,0.8-0.1,1.1-0.4 c0.3-0.2,0.4-0.6,0.4-1s-0.1-0.8-0.4-1c-0.3-0.3-0.6-0.4-1.1-0.4c-0.4,0-0.8,0.1-1.1,0.4s-0.4,0.6-0.4,1s0.1,0.7,0.4,1 S530.9,342.6,531.3,342.6z"></path> <path class="st7" d="M537.6,347v-8.3h2.2v2c0.1-0.4,0.3-0.8,0.6-1.1s0.5-0.6,0.9-0.7s0.7-0.3,1.2-0.3c0.1,0,0.1,0,0.2,0 c0.1,0,0.1,0,0.1,0v2.2c0,0-0.1,0-0.2,0c-0.1,0-0.1,0-0.2,0c-0.5,0-0.9,0-1.2,0c-0.3,0.1-0.6,0.2-0.8,0.3 c-0.2,0.2-0.3,0.3-0.4,0.6c-0.1,0.2-0.1,0.5-0.1,0.8v4.5H537.6z"></path> <path class="st7" d="M546.5,347.2c-0.5,0-1-0.1-1.4-0.3s-0.8-0.5-1-0.9s-0.4-0.8-0.4-1.4c0-0.9,0.3-1.6,1-2.1s1.7-0.7,3.2-0.7h1 v-0.5c0-0.4-0.1-0.7-0.3-0.9c-0.2-0.2-0.6-0.3-1-0.3c-0.3,0-0.7,0.1-1,0.2c-0.3,0.2-0.5,0.4-0.6,0.8h-1.9c0-0.6,0.2-1.1,0.5-1.5 s0.7-0.7,1.3-0.9c0.5-0.2,1.2-0.3,1.8-0.3c0.8,0,1.5,0.1,2,0.3c0.5,0.2,0.9,0.5,1.1,0.9c0.2,0.4,0.3,0.9,0.3,1.4v5.8h-2l-0.2-1.4 c-0.3,0.6-0.6,1-1.1,1.2C547.6,347,547.1,347.2,546.5,347.2z M547.3,345.6c0.2,0,0.4,0,0.6-0.1c0.2-0.1,0.4-0.2,0.5-0.3 s0.3-0.3,0.4-0.4c0.1-0.2,0.1-0.3,0.1-0.5V343h-0.8c-0.4,0-0.8,0.1-1.1,0.1s-0.6,0.2-0.8,0.4c-0.2,0.2-0.3,0.5-0.3,0.8 c0,0.4,0.1,0.7,0.4,0.9S546.9,345.6,547.3,345.6z"></path> <path class="st7" d="M558.3,340.3h-1.8v4.4c0,0.2,0,0.4,0.1,0.5s0.1,0.2,0.2,0.2c0.1,0,0.2,0,0.4,0h1.1v1.4 c-0.1,0-0.3,0.1-0.5,0.1s-0.5,0.1-0.9,0.1c-0.7,0-1.3-0.1-1.7-0.3c-0.4-0.2-0.7-0.4-0.8-0.8s-0.2-0.7-0.2-1.2v-4.5h-1.3v-1.6h1.4 l0.6-2.5h1.7v2.5h1.8L558.3,340.3L558.3,340.3z"></path> <path class="st7" d="M562.4,335.4v2.1h-2.3v-2.1H562.4z M562.4,338.7v8.3h-2.2v-8.3H562.4z"></path> <path class="st7" d="M568.1,347.2c-0.8,0-1.5-0.2-2.1-0.5s-1.1-0.8-1.4-1.5s-0.5-1.4-0.5-2.3s0.2-1.6,0.5-2.3 c0.3-0.7,0.8-1.2,1.4-1.5c0.6-0.4,1.3-0.5,2.1-0.5s1.5,0.2,2.1,0.5c0.6,0.4,1.1,0.9,1.4,1.5c0.3,0.6,0.5,1.4,0.5,2.3 c0,0.8-0.2,1.6-0.5,2.2s-0.8,1.1-1.4,1.5C569.6,347,568.9,347.2,568.1,347.2z M568.1,345.4c0.4,0,0.7-0.1,1-0.4 c0.3-0.2,0.4-0.6,0.5-0.9c0.1-0.4,0.2-0.8,0.2-1.3c0-0.4-0.1-0.9-0.2-1.2c-0.1-0.4-0.3-0.7-0.5-0.9c-0.3-0.2-0.6-0.4-1-0.4 s-0.7,0.1-1,0.3s-0.4,0.5-0.6,0.9c-0.1,0.4-0.2,0.8-0.2,1.3c0,0.4,0.1,0.8,0.2,1.2c0.1,0.4,0.3,0.7,0.5,1 C567.3,345.3,567.6,345.4,568.1,345.4z"></path> <path class="st7" d="M573.6,347v-8.3h2.3v1.2c0.1-0.2,0.3-0.4,0.5-0.6s0.5-0.3,0.8-0.5c0.3-0.1,0.7-0.2,1.1-0.2 c0.5,0,1,0.1,1.4,0.3c0.4,0.2,0.8,0.5,1.1,0.9s0.4,1,0.4,1.7v5.5h-2.3v-5.2c0-0.4-0.1-0.8-0.4-1c-0.3-0.2-0.6-0.3-1-0.3 c-0.3,0-0.5,0-0.7,0.1s-0.4,0.2-0.6,0.4c-0.1,0.2-0.2,0.4-0.2,0.7v5.3H573.6z"></path> </g> </g> <g> <g class="st28"> <path class="st7" d="M153.1,193.2c0.1,0,0.2,0,0.5,0s0.6,0,1,0s0.7,0,1.1,0s0.7,0,0.9,0c1.4,0,2.5,0.3,3.4,0.8s1.5,1.1,1.9,2 c0.4,0.8,0.6,1.8,0.6,3s-0.2,2.2-0.7,3.1c-0.4,0.9-1.1,1.5-2,2s-2,0.7-3.4,0.7H153v-11.6H153.1z M155.4,195.1v7.8h1.1 c0.7,0,1.3-0.1,1.8-0.4c0.5-0.3,1-0.7,1.3-1.3s0.5-1.4,0.5-2.3c0-0.9-0.1-1.6-0.4-2.2s-0.7-1-1.2-1.2c-0.5-0.3-1.2-0.4-1.9-0.4 L155.4,195.1L155.4,195.1z"></path> <path class="st7" d="M166.7,204.9c-0.5,0-1-0.1-1.4-0.3s-0.8-0.5-1-0.9s-0.4-0.8-0.4-1.4c0-0.9,0.3-1.6,1-2.1s1.7-0.7,3.2-0.7h1 V199c0-0.4-0.1-0.7-0.3-0.9c-0.2-0.2-0.6-0.3-1-0.3c-0.3,0-0.7,0.1-1,0.2c-0.3,0.2-0.5,0.4-0.6,0.8h-1.9c0-0.6,0.2-1.1,0.5-1.5 s0.7-0.7,1.3-0.9c0.5-0.2,1.2-0.3,1.8-0.3c0.8,0,1.5,0.1,2,0.3s0.9,0.5,1.1,0.9s0.3,0.9,0.3,1.4v5.8h-2l-0.2-1.4 c-0.3,0.6-0.6,1-1.1,1.2C167.8,204.8,167.3,204.9,166.7,204.9z M167.5,203.4c0.2,0,0.4,0,0.6-0.1s0.4-0.2,0.5-0.3s0.3-0.3,0.4-0.4 c0.1-0.2,0.1-0.3,0.1-0.5v-1.2h-0.8c-0.4,0-0.8,0.1-1.1,0.1s-0.6,0.2-0.8,0.4c-0.2,0.2-0.3,0.5-0.3,0.8c0,0.4,0.1,0.7,0.4,0.9 S167.1,203.4,167.5,203.4z"></path> <path class="st7" d="M178.5,198.1h-1.8v4.4c0,0.2,0,0.4,0.1,0.5s0.1,0.2,0.2,0.2s0.2,0,0.4,0h1.1v1.4c-0.1,0-0.3,0.1-0.5,0.1 s-0.5,0.1-0.9,0.1c-0.7,0-1.3-0.1-1.7-0.3c-0.4-0.2-0.7-0.4-0.8-0.8s-0.2-0.7-0.2-1.2V198H173v-1.6h1.4l0.6-2.5h1.7v2.5h1.8V198.1 z"></path> <path class="st7" d="M182.6,204.9c-0.5,0-1-0.1-1.4-0.3s-0.8-0.5-1-0.9s-0.4-0.8-0.4-1.4c0-0.9,0.3-1.6,1-2.1s1.7-0.7,3.2-0.7h1 V199c0-0.4-0.1-0.7-0.3-0.9c-0.2-0.2-0.6-0.3-1-0.3c-0.3,0-0.7,0.1-1,0.2c-0.3,0.2-0.5,0.4-0.6,0.8h-1.9c0-0.6,0.2-1.1,0.5-1.5 s0.7-0.7,1.3-0.9c0.5-0.2,1.2-0.3,1.8-0.3c0.8,0,1.5,0.1,2,0.3s0.9,0.5,1.1,0.9s0.3,0.9,0.3,1.4v5.8h-2l-0.2-1.4 c-0.3,0.6-0.6,1-1.1,1.2C183.7,204.8,183.2,204.9,182.6,204.9z M183.4,203.4c0.2,0,0.4,0,0.6-0.1s0.4-0.2,0.5-0.3s0.3-0.3,0.4-0.4 c0.1-0.2,0.1-0.3,0.1-0.5v-1.2h-0.8c-0.4,0-0.8,0.1-1.1,0.1s-0.6,0.2-0.8,0.4c-0.2,0.2-0.3,0.5-0.3,0.8c0,0.4,0.1,0.7,0.4,0.9 S183,203.4,183.4,203.4z"></path> </g> </g> <g> <g class="st28"> <path class="st7" d="M136.2,213.2h2.3v11.6h-2.3V213.2z"></path> <path class="st7" d="M140.8,224.8v-8.3h2.3v1.2c0.1-0.2,0.3-0.4,0.5-0.6c0.2-0.2,0.5-0.3,0.8-0.5c0.3-0.1,0.7-0.2,1.1-0.2 c0.5,0,1,0.1,1.4,0.3s0.8,0.5,1.1,0.9s0.4,1,0.4,1.7v5.5h-2.3v-5.2c0-0.4-0.1-0.8-0.4-1s-0.6-0.3-1-0.3c-0.3,0-0.5,0-0.7,0.1 s-0.4,0.2-0.6,0.4c-0.1,0.2-0.2,0.4-0.2,0.7v5.3L140.8,224.8L140.8,224.8z"></path> <path class="st7" d="M154.1,227.5c-1.5,0-2.6-0.2-3.4-0.6c-0.8-0.4-1.1-0.9-1.1-1.5c0-0.3,0.1-0.5,0.2-0.7s0.3-0.3,0.5-0.5 c0.2-0.1,0.4-0.2,0.6-0.3s0.3-0.1,0.3-0.1c-0.1,0-0.2-0.1-0.4-0.2c-0.2-0.1-0.3-0.2-0.4-0.4s-0.2-0.4-0.2-0.6 c0-0.3,0.1-0.6,0.4-0.8s0.7-0.4,1.3-0.5c-0.5-0.3-1-0.6-1.2-1s-0.4-0.9-0.4-1.3c0-0.5,0.2-1,0.5-1.4s0.8-0.7,1.4-0.9 s1.3-0.3,2-0.3c0.6,0,1,0.1,1.4,0.2c0.4,0.1,0.7,0.3,1,0.5c0.1,0,0.3-0.1,0.5-0.2c0.2-0.1,0.4-0.2,0.7-0.3 c0.2-0.1,0.5-0.2,0.7-0.3s0.4-0.2,0.6-0.3v1.8l-1.4,0.2c0.1,0.1,0.1,0.3,0.1,0.5s0,0.3,0,0.4c0,0.5-0.1,0.9-0.4,1.3 c-0.3,0.4-0.7,0.8-1.3,1s-1.2,0.4-2.1,0.4c-0.1,0-0.2,0-0.4,0c-0.2,0-0.3,0-0.4,0c-0.3,0-0.5,0.1-0.6,0.1 c-0.1,0.1-0.2,0.1-0.2,0.2c0,0.1,0.1,0.2,0.4,0.3c0.2,0,0.6,0.1,1.1,0.1c0.2,0,0.4,0,0.7,0c0.3,0,0.6,0,1,0.1 c1,0.1,1.8,0.3,2.3,0.7s0.7,1,0.7,1.6c0,0.8-0.4,1.4-1.1,1.9C156.7,227.2,155.6,227.5,154.1,227.5z M154.5,226.2 c0.7,0,1.1-0.1,1.4-0.2c0.3-0.2,0.4-0.4,0.4-0.7s-0.1-0.5-0.3-0.6s-0.5-0.2-0.9-0.3l-1.9-0.1c-0.2,0-0.5,0-0.7,0.1 s-0.3,0.2-0.4,0.4s-0.2,0.3-0.2,0.5c0,0.3,0.2,0.6,0.6,0.8C153,226.1,153.6,226.2,154.5,226.2z M154.1,220.4 c0.4,0,0.8-0.1,1.1-0.4c0.3-0.2,0.4-0.6,0.4-1s-0.1-0.8-0.4-1c-0.3-0.3-0.6-0.4-1.1-0.4c-0.4,0-0.8,0.1-1.1,0.4 c-0.3,0.3-0.4,0.6-0.4,1s0.1,0.7,0.4,1S153.6,220.4,154.1,220.4z"></path> <path class="st7" d="M162.3,221.2c0,0.4,0.1,0.8,0.2,1.1s0.3,0.6,0.6,0.7c0.3,0.2,0.6,0.3,1,0.3s0.8-0.1,1.1-0.3s0.5-0.5,0.6-0.8 h2.1c-0.1,0.6-0.3,1.1-0.7,1.5s-0.8,0.7-1.4,1s-1.1,0.3-1.7,0.3c-0.8,0-1.5-0.2-2.2-0.5c-0.6-0.3-1.1-0.8-1.5-1.5 c-0.3-0.6-0.5-1.4-0.5-2.2s0.2-1.6,0.5-2.2c0.3-0.7,0.8-1.2,1.4-1.6c0.6-0.4,1.3-0.6,2.2-0.6c0.8,0,1.6,0.2,2.1,0.5 c0.6,0.4,1,0.8,1.3,1.5c0.3,0.6,0.4,1.4,0.4,2.2v0.6H162.3z M162.2,219.8h3.4c0-0.3-0.1-0.6-0.2-0.9c-0.1-0.3-0.3-0.5-0.6-0.7 c-0.2-0.2-0.6-0.2-0.9-0.2c-0.4,0-0.7,0.1-0.9,0.3c-0.3,0.2-0.4,0.4-0.6,0.7S162.2,219.5,162.2,219.8z"></path> <path class="st7" d="M172.7,224.9c-0.6,0-1.1-0.1-1.7-0.3s-1-0.5-1.4-0.9s-0.6-0.9-0.7-1.6h2c0.1,0.3,0.2,0.5,0.4,0.7 s0.4,0.3,0.6,0.4s0.5,0.1,0.7,0.1c0.4,0,0.8-0.1,1.1-0.2c0.3-0.1,0.4-0.4,0.4-0.7c0-0.2-0.1-0.4-0.2-0.5c-0.2-0.1-0.4-0.2-0.8-0.3 l-1.5-0.3c-0.7-0.2-1.3-0.4-1.8-0.8c-0.4-0.4-0.7-0.9-0.7-1.6c0-0.5,0.1-0.9,0.4-1.3c0.3-0.4,0.7-0.7,1.2-0.9s1.2-0.3,1.9-0.3 c1,0,1.8,0.2,2.4,0.7c0.6,0.4,0.9,1.1,0.9,1.9h-2c-0.1-0.3-0.2-0.6-0.5-0.7c-0.3-0.2-0.6-0.3-1-0.3s-0.7,0.1-1,0.2 c-0.3,0.1-0.4,0.4-0.4,0.7c0,0.2,0.1,0.4,0.3,0.5c0.2,0.1,0.5,0.2,1,0.3l1.3,0.3c0.5,0.1,0.8,0.3,1.1,0.5c0.3,0.2,0.5,0.4,0.7,0.6 c0.2,0.2,0.3,0.5,0.3,0.7c0.1,0.2,0.1,0.4,0.1,0.6c0,0.5-0.1,1-0.4,1.4s-0.7,0.7-1.2,0.9C174,224.8,173.4,224.9,172.7,224.9z"></path> <path class="st7" d="M182.9,218.1H181v4.4c0,0.2,0,0.4,0.1,0.5s0.1,0.2,0.2,0.2s0.2,0,0.4,0h1.1v1.4c-0.1,0-0.3,0.1-0.5,0.1 s-0.5,0.1-0.9,0.1c-0.7,0-1.3-0.1-1.7-0.3c-0.4-0.2-0.7-0.4-0.8-0.8s-0.2-0.7-0.2-1.2V218h-1.3v-1.6h1.4l0.6-2.5h1.7v2.5h1.8 L182.9,218.1L182.9,218.1z"></path> <path class="st7" d="M187,213.2v2.1h-2.3v-2.1H187z M186.9,216.5v8.3h-2.2v-8.3H186.9z"></path> <path class="st7" d="M192.6,224.9c-0.8,0-1.5-0.2-2.1-0.5s-1.1-0.8-1.4-1.5s-0.5-1.4-0.5-2.3s0.2-1.6,0.5-2.3s0.8-1.2,1.4-1.5 c0.6-0.4,1.3-0.5,2.1-0.5s1.5,0.2,2.1,0.5c0.6,0.4,1.1,0.9,1.4,1.5s0.5,1.4,0.5,2.3c0,0.8-0.2,1.6-0.5,2.2 c-0.3,0.6-0.8,1.1-1.4,1.5C194.2,224.7,193.4,224.9,192.6,224.9z M192.6,223.2c0.4,0,0.7-0.1,1-0.4c0.3-0.2,0.4-0.6,0.5-0.9 c0.1-0.4,0.2-0.8,0.2-1.3c0-0.4-0.1-0.9-0.2-1.2c-0.1-0.4-0.3-0.7-0.5-0.9c-0.3-0.2-0.6-0.4-1-0.4s-0.7,0.1-1,0.3 s-0.4,0.5-0.6,0.9c-0.1,0.4-0.2,0.8-0.2,1.3c0,0.4,0.1,0.8,0.2,1.2s0.3,0.7,0.5,1C191.8,223.1,192.2,223.2,192.6,223.2z"></path> <path class="st7" d="M198.2,224.8v-8.3h2.3v1.2c0.1-0.2,0.3-0.4,0.5-0.6c0.2-0.2,0.5-0.3,0.8-0.5c0.3-0.1,0.7-0.2,1.1-0.2 c0.5,0,1,0.1,1.4,0.3s0.8,0.5,1.1,0.9s0.4,1,0.4,1.7v5.5h-2.3v-5.2c0-0.4-0.1-0.8-0.4-1s-0.6-0.3-1-0.3c-0.3,0-0.5,0-0.7,0.1 s-0.4,0.2-0.6,0.4c-0.1,0.2-0.2,0.4-0.2,0.7v5.3L198.2,224.8L198.2,224.8z"></path> </g> </g> <g> <g class="st28"> <path class="st7" d="M490.6,194h2.3v11.6h-2.3V194z"></path> <path class="st7" d="M498.8,205.7c-0.8,0-1.5-0.2-2.1-0.5s-1.1-0.8-1.4-1.5s-0.5-1.4-0.5-2.3s0.2-1.6,0.5-2.3s0.8-1.2,1.4-1.5 c0.6-0.4,1.3-0.5,2.1-0.5s1.5,0.2,2.1,0.5c0.6,0.4,1.1,0.9,1.4,1.5c0.3,0.6,0.5,1.4,0.5,2.3c0,0.8-0.2,1.6-0.5,2.2 c-0.3,0.6-0.8,1.1-1.4,1.5C500.3,205.5,499.6,205.7,498.8,205.7z M498.8,204c0.4,0,0.7-0.1,1-0.4c0.3-0.2,0.4-0.6,0.5-0.9 c0.1-0.4,0.2-0.8,0.2-1.3c0-0.4-0.1-0.9-0.2-1.2c-0.1-0.4-0.3-0.7-0.5-0.9c-0.3-0.2-0.6-0.4-1-0.4s-0.7,0.1-1,0.3 s-0.4,0.5-0.6,0.9c-0.1,0.4-0.2,0.8-0.2,1.3c0,0.4,0.1,0.8,0.2,1.2c0.1,0.4,0.3,0.7,0.5,1C498,203.9,498.3,204,498.8,204z"></path> <path class="st7" d="M503.6,196.1V194h9.3v2.1h-3.4v9.5h-2.3v-9.5H503.6z"></path> <path class="st7" d="M517,205.6l4.1-11.6h2.5l4.1,11.6h-2.3l-0.9-2.7h-4.2l-1,2.7H517z M520.8,200.8h3.1l-1.5-4.6L520.8,200.8z"></path> <path class="st7" d="M529.2,208.1v-10.8h2.3v1.2c0.1-0.2,0.3-0.4,0.5-0.5c0.2-0.2,0.4-0.3,0.6-0.4s0.5-0.2,0.7-0.3 c0.3-0.1,0.5-0.1,0.8-0.1c0.6,0,1.2,0.2,1.6,0.5c0.5,0.3,0.9,0.8,1.1,1.4c0.3,0.6,0.4,1.4,0.4,2.4s-0.1,1.8-0.4,2.5 c-0.3,0.6-0.7,1.1-1.2,1.4c-0.5,0.3-1.1,0.5-1.8,0.5c-0.3,0-0.5,0-0.8-0.1c-0.2-0.1-0.5-0.2-0.7-0.3s-0.4-0.3-0.5-0.4 s-0.3-0.4-0.4-0.5v3.8h-2.2V208.1z M533.3,204c0.5,0,0.9-0.2,1.3-0.6c0.3-0.4,0.5-1.1,0.5-2c0-0.8-0.2-1.4-0.5-1.9 s-0.8-0.7-1.3-0.7c-0.6,0-1.1,0.2-1.3,0.7c-0.3,0.5-0.4,1.1-0.4,1.8c0,0.5,0.1,0.9,0.2,1.3c0.1,0.4,0.3,0.7,0.6,1 S532.9,204,533.3,204z"></path> <path class="st7" d="M538.8,208.1v-10.8h2.3v1.2c0.1-0.2,0.3-0.4,0.5-0.5c0.2-0.2,0.4-0.3,0.6-0.4s0.5-0.2,0.7-0.3 c0.3-0.1,0.5-0.1,0.8-0.1c0.6,0,1.2,0.2,1.6,0.5c0.5,0.3,0.9,0.8,1.1,1.4c0.3,0.6,0.4,1.4,0.4,2.4s-0.1,1.8-0.4,2.5 c-0.3,0.6-0.7,1.1-1.2,1.4c-0.5,0.3-1.1,0.5-1.8,0.5c-0.3,0-0.5,0-0.8-0.1c-0.2-0.1-0.5-0.2-0.7-0.3s-0.4-0.3-0.5-0.4 s-0.3-0.4-0.4-0.5v3.8h-2.2V208.1z M543,204c0.5,0,0.9-0.2,1.3-0.6c0.3-0.4,0.5-1.1,0.5-2c0-0.8-0.2-1.4-0.5-1.9s-0.8-0.7-1.3-0.7 c-0.6,0-1.1,0.2-1.3,0.7c-0.3,0.5-0.4,1.1-0.4,1.8c0,0.5,0.1,0.9,0.2,1.3c0.1,0.4,0.3,0.7,0.6,1S542.6,204,543,204z"></path> <path class="st7" d="M551.1,205.7c-0.6,0-1.1-0.1-1.4-0.2c-0.4-0.1-0.6-0.3-0.8-0.6c-0.2-0.2-0.3-0.5-0.3-0.8s-0.1-0.6-0.1-0.9 v-9.6h2.3v9.3c0,0.3,0.1,0.6,0.2,0.7s0.4,0.3,0.7,0.3h0.4v1.4c-0.2,0.1-0.3,0.1-0.5,0.1S551.3,205.7,551.1,205.7z"></path> <path class="st7" d="M556.1,194v2.1h-2.3V194H556.1z M556.1,197.3v8.3h-2.2v-8.3H556.1z"></path> <path class="st7" d="M561.7,197.1c0.7,0,1.3,0.1,1.8,0.4c0.5,0.3,0.9,0.7,1.2,1.1c0.3,0.5,0.5,1,0.5,1.6h-1.9 c0-0.2-0.1-0.4-0.2-0.7s-0.3-0.4-0.5-0.5s-0.5-0.2-0.8-0.2c-0.5,0-1,0.2-1.3,0.6c-0.3,0.4-0.5,1.1-0.5,1.9c0,0.8,0.2,1.4,0.5,1.9 s0.8,0.7,1.4,0.7c0.3,0,0.6-0.1,0.8-0.2c0.2-0.2,0.4-0.3,0.5-0.6c0.1-0.2,0.2-0.4,0.2-0.6h1.9c0,0.6-0.2,1.1-0.5,1.5 c-0.3,0.5-0.7,0.8-1.2,1.1s-1.1,0.4-1.8,0.4c-0.8,0-1.5-0.2-2.1-0.5s-1.1-0.8-1.4-1.5c-0.3-0.6-0.5-1.4-0.5-2.3 c0-0.9,0.2-1.6,0.5-2.3s0.8-1.2,1.4-1.5C560.2,197.3,560.9,197.1,561.7,197.1z"></path> <path class="st7" d="M569.2,205.7c-0.5,0-1-0.1-1.4-0.3s-0.8-0.5-1-0.9s-0.4-0.8-0.4-1.4c0-0.9,0.3-1.6,1-2.1s1.7-0.7,3.2-0.7h1 v-0.5c0-0.4-0.1-0.7-0.3-0.9s-0.6-0.3-1-0.3c-0.3,0-0.7,0.1-1,0.2c-0.3,0.2-0.5,0.4-0.6,0.8h-1.9c0-0.6,0.2-1.1,0.5-1.5 s0.7-0.7,1.3-0.9c0.5-0.2,1.2-0.3,1.8-0.3c0.8,0,1.5,0.1,2,0.3s0.9,0.5,1.1,0.9c0.2,0.4,0.3,0.9,0.3,1.4v5.8h-2l-0.2-1.4 c-0.3,0.6-0.6,1-1.1,1.2C570.3,205.6,569.8,205.7,569.2,205.7z M570,204.2c0.2,0,0.4,0,0.6-0.1c0.2-0.1,0.4-0.2,0.5-0.3 s0.3-0.3,0.4-0.4c0.1-0.2,0.1-0.3,0.1-0.5v-1.2h-0.8c-0.4,0-0.8,0.1-1.1,0.1s-0.6,0.2-0.8,0.4s-0.3,0.5-0.3,0.8 c0,0.4,0.1,0.7,0.4,0.9S569.6,204.2,570,204.2z"></path> <path class="st7" d="M581,198.9h-1.8v4.4c0,0.2,0,0.4,0.1,0.5s0.1,0.2,0.2,0.2c0.1,0,0.2,0,0.4,0h1.1v1.4c-0.1,0-0.3,0.1-0.5,0.1 s-0.5,0.1-0.9,0.1c-0.7,0-1.3-0.1-1.7-0.3s-0.7-0.4-0.8-0.8s-0.2-0.7-0.2-1.2v-4.5h-1.3v-1.6h1.4l0.6-2.5h1.7v2.5h1.8L581,198.9 L581,198.9z"></path> <path class="st7" d="M585.1,194v2.1h-2.3V194H585.1z M585.1,197.3v8.3h-2.2v-8.3H585.1z"></path> <path class="st7" d="M590.8,205.7c-0.8,0-1.5-0.2-2.1-0.5s-1.1-0.8-1.4-1.5s-0.5-1.4-0.5-2.3s0.2-1.6,0.5-2.3s0.8-1.2,1.4-1.5 c0.6-0.4,1.3-0.5,2.1-0.5s1.5,0.2,2.1,0.5c0.6,0.4,1.1,0.9,1.4,1.5c0.3,0.6,0.5,1.4,0.5,2.3c0,0.8-0.2,1.6-0.5,2.2 c-0.3,0.6-0.8,1.1-1.4,1.5C592.3,205.5,591.6,205.7,590.8,205.7z M590.8,204c0.4,0,0.7-0.1,1-0.4c0.3-0.2,0.4-0.6,0.5-0.9 c0.1-0.4,0.2-0.8,0.2-1.3c0-0.4-0.1-0.9-0.2-1.2c-0.1-0.4-0.3-0.7-0.5-0.9c-0.3-0.2-0.6-0.4-1-0.4s-0.7,0.1-1,0.3 s-0.4,0.5-0.6,0.9c-0.1,0.4-0.2,0.8-0.2,1.3c0,0.4,0.1,0.8,0.2,1.2c0.1,0.4,0.3,0.7,0.5,1C590,203.9,590.3,204,590.8,204z"></path> <path class="st7" d="M596.3,205.6v-8.3h2.3v1.2c0.1-0.2,0.3-0.4,0.5-0.6c0.2-0.2,0.5-0.3,0.8-0.5c0.3-0.1,0.7-0.2,1.1-0.2 c0.5,0,1,0.1,1.4,0.3s0.8,0.5,1.1,0.9s0.4,1,0.4,1.7v5.5h-2.3v-5.2c0-0.4-0.1-0.8-0.4-1c-0.3-0.2-0.6-0.3-1-0.3 c-0.3,0-0.5,0-0.7,0.1s-0.4,0.2-0.6,0.4c-0.1,0.2-0.2,0.4-0.2,0.7v5.3L596.3,205.6L596.3,205.6z"></path> </g> </g> <g> <g class="st28"> <path class="st7" d="M494.6,214c0.1,0,0.2,0,0.5,0s0.6,0,1,0s0.7,0,1.1,0c0.4,0,0.7,0,0.9,0c1.4,0,2.5,0.3,3.4,0.8s1.5,1.1,1.9,2 s0.6,1.8,0.6,3s-0.2,2.2-0.7,3.1c-0.4,0.9-1.1,1.5-2,2s-2,0.7-3.4,0.7h-3.4V214H494.6z M496.9,215.9v7.8h1.1 c0.7,0,1.3-0.1,1.8-0.4c0.5-0.3,1-0.7,1.3-1.3s0.5-1.4,0.5-2.3c0-0.9-0.1-1.6-0.4-2.2s-0.7-1-1.2-1.2c-0.5-0.3-1.2-0.4-1.9-0.4 L496.9,215.9L496.9,215.9z"></path> <path class="st7" d="M507.7,222c0,0.4,0.1,0.8,0.2,1.1s0.3,0.6,0.6,0.7s0.6,0.3,1,0.3s0.8-0.1,1.1-0.3s0.5-0.5,0.6-0.8h2.1 c-0.1,0.6-0.3,1.1-0.7,1.5s-0.8,0.7-1.4,1s-1.1,0.3-1.7,0.3c-0.8,0-1.5-0.2-2.2-0.5c-0.6-0.3-1.1-0.8-1.5-1.5 c-0.3-0.6-0.5-1.4-0.5-2.2s0.2-1.6,0.5-2.2c0.3-0.7,0.8-1.2,1.4-1.6c0.6-0.4,1.3-0.6,2.2-0.6c0.8,0,1.5,0.2,2.1,0.5 c0.6,0.4,1,0.8,1.3,1.5c0.3,0.6,0.4,1.4,0.4,2.2v0.6H507.7z M507.7,220.6h3.4c0-0.3-0.1-0.6-0.2-0.9c-0.1-0.3-0.3-0.5-0.6-0.7 c-0.2-0.2-0.6-0.2-0.9-0.2c-0.4,0-0.7,0.1-0.9,0.3c-0.3,0.2-0.4,0.4-0.6,0.7C507.8,220,507.7,220.3,507.7,220.6z"></path> <path class="st7" d="M522,217.3l-3.1,8.3h-1.7l-3.1-8.3h2.1l1.8,5.3h0.1l1.8-5.3H522z"></path> <path class="st7" d="M525.2,222c0,0.4,0.1,0.8,0.2,1.1s0.3,0.6,0.6,0.7s0.6,0.3,1,0.3s0.8-0.1,1.1-0.3s0.5-0.5,0.6-0.8h2.1 c-0.1,0.6-0.3,1.1-0.7,1.5s-0.8,0.7-1.4,1s-1.1,0.3-1.7,0.3c-0.8,0-1.5-0.2-2.2-0.5c-0.6-0.3-1.1-0.8-1.5-1.5 c-0.3-0.6-0.5-1.4-0.5-2.2s0.2-1.6,0.5-2.2c0.3-0.7,0.8-1.2,1.4-1.6c0.6-0.4,1.3-0.6,2.2-0.6c0.8,0,1.5,0.2,2.1,0.5 c0.6,0.4,1,0.8,1.3,1.5c0.3,0.6,0.4,1.4,0.4,2.2v0.6H525.2z M525.1,220.6h3.4c0-0.3-0.1-0.6-0.2-0.9c-0.1-0.3-0.3-0.5-0.6-0.7 c-0.2-0.2-0.6-0.2-0.9-0.2c-0.4,0-0.7,0.1-0.9,0.3c-0.3,0.2-0.4,0.4-0.6,0.7C525.2,220,525.1,220.3,525.1,220.6z"></path> <path class="st7" d="M535,225.7c-0.6,0-1.1-0.1-1.4-0.2c-0.4-0.1-0.6-0.3-0.8-0.6c-0.2-0.2-0.3-0.5-0.3-0.8s-0.1-0.6-0.1-0.9v-9.6 h2.3v9.3c0,0.3,0.1,0.6,0.2,0.7s0.4,0.3,0.7,0.3h0.4v1.4c-0.2,0.1-0.3,0.1-0.5,0.1C535.3,225.7,535.1,225.7,535,225.7z"></path> <path class="st7" d="M541.1,225.7c-0.8,0-1.5-0.2-2.1-0.5s-1.1-0.8-1.4-1.5s-0.5-1.4-0.5-2.3s0.2-1.6,0.5-2.3s0.8-1.2,1.4-1.5 c0.6-0.4,1.3-0.5,2.1-0.5s1.5,0.2,2.1,0.5c0.6,0.4,1.1,0.9,1.4,1.5c0.3,0.6,0.5,1.4,0.5,2.3c0,0.8-0.2,1.6-0.5,2.2 c-0.3,0.6-0.8,1.1-1.4,1.5C542.6,225.5,541.9,225.7,541.1,225.7z M541.1,224c0.4,0,0.7-0.1,1-0.4c0.3-0.2,0.4-0.6,0.5-0.9 c0.1-0.4,0.2-0.8,0.2-1.3c0-0.4-0.1-0.9-0.2-1.2c-0.1-0.4-0.3-0.7-0.5-0.9c-0.3-0.2-0.6-0.4-1-0.4s-0.7,0.1-1,0.3 s-0.4,0.5-0.6,0.9s-0.2,0.8-0.2,1.3c0,0.4,0.1,0.8,0.2,1.2c0.1,0.4,0.3,0.7,0.5,1C540.3,223.9,540.7,224,541.1,224z"></path> <path class="st7" d="M546.6,228.1v-10.8h2.3v1.2c0.1-0.2,0.3-0.4,0.5-0.5c0.2-0.2,0.4-0.3,0.6-0.4s0.5-0.2,0.7-0.3 c0.3-0.1,0.5-0.1,0.8-0.1c0.6,0,1.2,0.2,1.6,0.5c0.5,0.3,0.9,0.8,1.1,1.4c0.3,0.6,0.4,1.4,0.4,2.4s-0.1,1.8-0.4,2.5 c-0.3,0.6-0.7,1.1-1.2,1.4c-0.5,0.3-1.1,0.5-1.8,0.5c-0.3,0-0.5,0-0.8-0.1c-0.2-0.1-0.5-0.2-0.7-0.3s-0.4-0.3-0.5-0.4 s-0.3-0.4-0.4-0.5v3.8h-2.2V228.1z M550.8,224c0.5,0,0.9-0.2,1.3-0.6c0.3-0.4,0.5-1.1,0.5-2c0-0.8-0.2-1.4-0.5-1.9 s-0.8-0.7-1.3-0.7c-0.6,0-1.1,0.2-1.3,0.7c-0.3,0.5-0.4,1.1-0.4,1.8c0,0.5,0.1,0.9,0.2,1.3c0.1,0.4,0.3,0.7,0.6,1 C550,223.9,550.4,224,550.8,224z"></path> <path class="st7" d="M556.3,225.6v-8.3h2.3v1.2c0.2-0.4,0.6-0.7,1-0.9c0.4-0.3,1-0.4,1.6-0.4c0.3,0,0.6,0.1,0.9,0.2 c0.3,0.1,0.6,0.2,0.8,0.4s0.5,0.4,0.6,0.7c0.3-0.4,0.6-0.7,1.1-0.9c0.4-0.3,0.9-0.4,1.5-0.4c0.3,0,0.6,0.1,0.9,0.2 c0.3,0.1,0.6,0.3,0.9,0.5s0.5,0.5,0.6,0.9c0.2,0.4,0.2,0.9,0.2,1.4v5.5h-2.3v-5.2c0-0.3-0.1-0.6-0.2-0.8s-0.3-0.3-0.5-0.4 c-0.2-0.1-0.4-0.1-0.6-0.1c-0.2,0-0.4,0-0.6,0.1c-0.2,0.1-0.4,0.2-0.5,0.4s-0.2,0.4-0.2,0.7v5.3h-2.3v-5.4c0-0.3-0.1-0.5-0.2-0.6 c-0.1-0.2-0.3-0.3-0.5-0.4c-0.2-0.1-0.4-0.1-0.6-0.1c-0.2,0-0.4,0-0.6,0.1c-0.2,0.1-0.4,0.2-0.5,0.4s-0.2,0.4-0.2,0.7v5.3 L556.3,225.6L556.3,225.6z"></path> <path class="st7" d="M572.5,222c0,0.4,0.1,0.8,0.2,1.1s0.3,0.6,0.6,0.7c0.3,0.2,0.6,0.3,1,0.3s0.8-0.1,1.1-0.3s0.5-0.5,0.6-0.8 h2.1c-0.1,0.6-0.3,1.1-0.7,1.5s-0.8,0.7-1.4,1s-1.1,0.3-1.7,0.3c-0.8,0-1.5-0.2-2.2-0.5c-0.6-0.3-1.1-0.8-1.5-1.5 c-0.3-0.6-0.5-1.4-0.5-2.2s0.2-1.6,0.5-2.2s0.8-1.2,1.4-1.6s1.3-0.6,2.2-0.6s1.6,0.2,2.1,0.5c0.6,0.4,1,0.8,1.3,1.5 s0.4,1.4,0.4,2.2v0.6H572.5z M572.5,220.6h3.4c0-0.3-0.1-0.6-0.2-0.9c-0.1-0.3-0.3-0.5-0.6-0.7c-0.2-0.2-0.6-0.2-0.9-0.2 c-0.4,0-0.7,0.1-0.9,0.3c-0.3,0.2-0.4,0.4-0.6,0.7C572.6,220,572.5,220.3,572.5,220.6z"></path> <path class="st7" d="M579.7,225.6v-8.3h2.3v1.2c0.1-0.2,0.3-0.4,0.5-0.6c0.2-0.2,0.5-0.3,0.8-0.5c0.3-0.1,0.7-0.2,1.1-0.2 c0.5,0,1,0.1,1.4,0.3s0.8,0.5,1.1,0.9s0.4,1,0.4,1.7v5.5H585v-5.2c0-0.4-0.1-0.8-0.4-1c-0.3-0.2-0.6-0.3-1-0.3 c-0.3,0-0.5,0-0.7,0.1s-0.4,0.2-0.6,0.4c-0.1,0.2-0.2,0.4-0.2,0.7v5.3L579.7,225.6L579.7,225.6z"></path> <path class="st7" d="M594.2,218.9h-1.8v4.4c0,0.2,0,0.4,0.1,0.5s0.1,0.2,0.2,0.2c0.1,0,0.2,0,0.4,0h1.1v1.4 c-0.1,0-0.3,0.1-0.5,0.1s-0.5,0.1-0.9,0.1c-0.7,0-1.3-0.1-1.7-0.3s-0.7-0.4-0.8-0.8c-0.2-0.3-0.2-0.7-0.2-1.2v-4.5h-1.3v-1.6h1.4 l0.6-2.5h1.7v2.5h1.8L594.2,218.9L594.2,218.9z"></path> </g> </g> <g> <g class="st28"> <path class="st7" d="M222.3,74.8c0.1,0,0.2,0,0.5,0s0.6,0,1,0s0.7,0,1.1,0s0.7,0,0.9,0c1.4,0,2.5,0.3,3.4,0.8s1.5,1.1,1.9,2 c0.4,0.8,0.6,1.8,0.6,3s-0.2,2.2-0.7,3.1c-0.4,0.9-1.1,1.5-2,2s-2,0.7-3.4,0.7h-3.4V74.8H222.3z M224.7,76.7v7.8h1.1 c0.7,0,1.3-0.1,1.8-0.4s1-0.7,1.3-1.3c0.3-0.6,0.5-1.4,0.5-2.3s-0.1-1.6-0.4-2.2s-0.7-1-1.2-1.2c-0.5-0.3-1.2-0.4-1.9-0.4H224.7z"></path> <path class="st7" d="M236,86.5c-0.5,0-1-0.1-1.4-0.3s-0.8-0.5-1-0.9s-0.4-0.8-0.4-1.4c0-0.9,0.3-1.6,1-2.1s1.7-0.7,3.2-0.7h1v-0.5 c0-0.4-0.1-0.7-0.3-0.9c-0.2-0.2-0.6-0.3-1-0.3c-0.3,0-0.7,0.1-1,0.2c-0.3,0.2-0.5,0.4-0.6,0.8h-1.9c0-0.6,0.2-1.1,0.5-1.5 s0.7-0.7,1.3-0.9c0.5-0.2,1.2-0.3,1.8-0.3c0.8,0,1.5,0.1,2,0.3c0.5,0.2,0.9,0.5,1.1,0.9s0.3,0.9,0.3,1.4v5.8h-2l-0.2-1.4 c-0.3,0.6-0.6,1-1.1,1.2C237,86.4,236.5,86.5,236,86.5z M236.7,85c0.2,0,0.4,0,0.6-0.1s0.4-0.2,0.5-0.3s0.3-0.3,0.4-0.4 c0.1-0.2,0.1-0.3,0.1-0.5v-1.2h-0.8c-0.4,0-0.8,0.1-1.1,0.1s-0.6,0.2-0.8,0.4c-0.2,0.2-0.3,0.5-0.3,0.8c0,0.4,0.1,0.7,0.4,0.9 S236.4,85,236.7,85z"></path> <path class="st7" d="M247.8,79.7H246v4.4c0,0.2,0,0.4,0.1,0.5s0.1,0.2,0.2,0.2s0.2,0,0.4,0h1.1v1.4c-0.1,0-0.3,0.1-0.5,0.1 s-0.5,0.1-0.9,0.1c-0.7,0-1.3-0.1-1.7-0.3c-0.4-0.2-0.7-0.4-0.8-0.8s-0.2-0.7-0.2-1.2v-4.5h-1.3V78h1.4l0.6-2.5h1.7V78h1.8v1.7 H247.8z"></path> <path class="st7" d="M251.9,86.5c-0.5,0-1-0.1-1.4-0.3s-0.8-0.5-1-0.9s-0.4-0.8-0.4-1.4c0-0.9,0.3-1.6,1-2.1s1.7-0.7,3.2-0.7h1 v-0.5c0-0.4-0.1-0.7-0.3-0.9c-0.2-0.2-0.6-0.3-1-0.3c-0.3,0-0.7,0.1-1,0.2c-0.3,0.2-0.5,0.4-0.6,0.8h-1.9c0-0.6,0.2-1.1,0.5-1.5 s0.7-0.7,1.3-0.9c0.5-0.2,1.2-0.3,1.8-0.3c0.8,0,1.5,0.1,2,0.3c0.5,0.2,0.9,0.5,1.1,0.9s0.3,0.9,0.3,1.4v5.8h-2l-0.2-1.4 c-0.3,0.6-0.6,1-1.1,1.2C253,86.4,252.5,86.5,251.9,86.5z M252.7,85c0.2,0,0.4,0,0.6-0.1s0.4-0.2,0.5-0.3s0.3-0.3,0.4-0.4 c0.1-0.2,0.1-0.3,0.1-0.5v-1.2h-0.8c-0.4,0-0.8,0.1-1.1,0.1s-0.6,0.2-0.8,0.4c-0.2,0.2-0.3,0.5-0.3,0.8c0,0.4,0.1,0.7,0.4,0.9 S252.3,85,252.7,85z"></path> <path class="st7" d="M262.4,86.3V74.8h4.3c0.8,0,1.6,0.1,2.3,0.4s1.2,0.7,1.6,1.3s0.6,1.3,0.6,2.1c0,0.8-0.2,1.4-0.5,2 s-0.8,1-1.4,1.3s-1.3,0.4-2.2,0.4h-2.2v4.1h-2.5V86.3z M264.7,80.4h2.2c0.6,0,1.1-0.2,1.4-0.6s0.6-0.8,0.6-1.4s-0.2-1-0.6-1.4 c-0.4-0.3-0.9-0.5-1.4-0.5h-2.1v3.9H264.7z"></path> <path class="st7" d="M272.5,86.3V78h2.2v2c0.1-0.4,0.3-0.8,0.6-1.1s0.5-0.6,0.9-0.7s0.7-0.3,1.2-0.3c0.1,0,0.1,0,0.2,0 s0.1,0,0.1,0v2.2c0,0-0.1,0-0.2,0s-0.1,0-0.2,0c-0.5,0-0.9,0-1.2,0c-0.3,0.1-0.6,0.2-0.8,0.3c-0.2,0.2-0.3,0.3-0.4,0.6 c-0.1,0.2-0.1,0.5-0.1,0.8v4.5H272.5z"></path> <path class="st7" d="M282.6,86.5c-0.8,0-1.5-0.2-2.1-0.5s-1.1-0.8-1.4-1.5s-0.5-1.4-0.5-2.3s0.2-1.6,0.5-2.3 c0.3-0.7,0.8-1.2,1.4-1.5c0.6-0.4,1.3-0.5,2.1-0.5s1.5,0.2,2.1,0.5c0.6,0.4,1.1,0.9,1.4,1.5c0.3,0.6,0.5,1.4,0.5,2.3 c0,0.8-0.2,1.6-0.5,2.2s-0.8,1.1-1.4,1.5C284.1,86.3,283.4,86.5,282.6,86.5z M282.6,84.8c0.4,0,0.7-0.1,1-0.4 c0.3-0.2,0.4-0.6,0.5-0.9c0.1-0.4,0.2-0.8,0.2-1.3c0-0.4-0.1-0.9-0.2-1.2c-0.1-0.4-0.3-0.7-0.5-0.9c-0.3-0.2-0.6-0.4-1-0.4 s-0.7,0.1-1,0.3s-0.4,0.5-0.6,0.9c-0.1,0.4-0.2,0.8-0.2,1.3c0,0.4,0.1,0.8,0.2,1.2c0.1,0.4,0.3,0.7,0.5,1 C281.8,84.6,282.1,84.8,282.6,84.8z"></path> <path class="st7" d="M291.7,77.9c0.7,0,1.3,0.1,1.8,0.4s0.9,0.7,1.2,1.1c0.3,0.5,0.5,1,0.5,1.6h-1.9c0-0.2-0.1-0.4-0.2-0.7 s-0.3-0.4-0.5-0.5s-0.5-0.2-0.8-0.2c-0.5,0-1,0.2-1.3,0.6s-0.5,1.1-0.5,1.9s0.2,1.4,0.5,1.9s0.8,0.7,1.4,0.7 c0.3,0,0.6-0.1,0.8-0.2c0.2-0.2,0.4-0.3,0.5-0.6c0.1-0.2,0.2-0.4,0.2-0.6h1.9c0,0.6-0.2,1.1-0.5,1.5c-0.3,0.5-0.7,0.8-1.2,1.1 s-1.1,0.4-1.8,0.4c-0.8,0-1.5-0.2-2.1-0.5s-1.1-0.8-1.4-1.5c-0.3-0.6-0.5-1.4-0.5-2.3s0.2-1.6,0.5-2.3c0.3-0.7,0.8-1.2,1.4-1.5 C290.2,78.1,290.9,77.9,291.7,77.9z"></path> <path class="st7" d="M298.7,82.7c0,0.4,0.1,0.8,0.2,1.1s0.3,0.6,0.6,0.7c0.3,0.2,0.6,0.3,1,0.3s0.8-0.1,1.1-0.3s0.5-0.5,0.6-0.8 h2.1c-0.1,0.6-0.3,1.1-0.7,1.5s-0.8,0.7-1.4,1s-1.1,0.3-1.7,0.3c-0.8,0-1.5-0.2-2.2-0.5c-0.6-0.3-1.1-0.8-1.5-1.5 c-0.3-0.6-0.5-1.4-0.5-2.2c0-0.8,0.2-1.6,0.5-2.2c0.3-0.7,0.8-1.2,1.4-1.6c0.6-0.4,1.3-0.6,2.2-0.6c0.8,0,1.6,0.2,2.1,0.5 c0.6,0.4,1,0.8,1.3,1.5c0.3,0.6,0.4,1.4,0.4,2.2v0.6H298.7z M298.7,81.3h3.4c0-0.3-0.1-0.6-0.2-0.9c-0.1-0.3-0.3-0.5-0.6-0.7 c-0.2-0.2-0.6-0.2-0.9-0.2c-0.4,0-0.7,0.1-0.9,0.3c-0.3,0.2-0.4,0.4-0.6,0.7S298.7,81,298.7,81.3z"></path> <path class="st7" d="M309.1,86.5c-0.6,0-1.1-0.1-1.7-0.3s-1-0.5-1.4-0.9s-0.6-0.9-0.7-1.6h2c0.1,0.3,0.2,0.5,0.4,0.7 s0.4,0.3,0.6,0.4s0.5,0.1,0.7,0.1c0.4,0,0.8-0.1,1.1-0.2s0.4-0.4,0.4-0.7c0-0.2-0.1-0.4-0.2-0.5c-0.2-0.1-0.4-0.2-0.8-0.3 l-1.5-0.3c-0.7-0.2-1.3-0.4-1.8-0.8c-0.4-0.4-0.7-0.9-0.7-1.6c0-0.5,0.1-0.9,0.4-1.3c0.3-0.4,0.7-0.7,1.2-0.9 c0.5-0.2,1.2-0.3,1.9-0.3c1,0,1.8,0.2,2.4,0.7c0.6,0.4,0.9,1.1,0.9,1.9h-2c-0.1-0.3-0.2-0.6-0.5-0.7c-0.3-0.2-0.6-0.3-1-0.3 s-0.7,0.1-1,0.2s-0.4,0.4-0.4,0.7c0,0.2,0.1,0.4,0.3,0.5s0.5,0.2,1,0.3l1.3,0.3c0.5,0.1,0.8,0.3,1.1,0.5s0.5,0.4,0.7,0.6 s0.3,0.5,0.3,0.7c0.1,0.2,0.1,0.4,0.1,0.6c0,0.5-0.1,1-0.4,1.4s-0.7,0.7-1.2,0.9C310.4,86.4,309.8,86.5,309.1,86.5z"></path> <path class="st7" d="M317.5,86.5c-0.6,0-1.1-0.1-1.7-0.3s-1-0.5-1.4-0.9s-0.6-0.9-0.7-1.6h2c0.1,0.3,0.2,0.5,0.4,0.7 s0.4,0.3,0.6,0.4s0.5,0.1,0.7,0.1c0.4,0,0.8-0.1,1.1-0.2s0.4-0.4,0.4-0.7c0-0.2-0.1-0.4-0.2-0.5c-0.2-0.1-0.4-0.2-0.8-0.3 l-1.5-0.3c-0.7-0.2-1.3-0.4-1.8-0.8c-0.4-0.4-0.7-0.9-0.7-1.6c0-0.5,0.1-0.9,0.4-1.3c0.3-0.4,0.7-0.7,1.2-0.9 c0.5-0.2,1.2-0.3,1.9-0.3c1,0,1.8,0.2,2.4,0.7c0.6,0.4,0.9,1.1,0.9,1.9h-2c-0.1-0.3-0.2-0.6-0.5-0.7c-0.3-0.2-0.6-0.3-1-0.3 s-0.7,0.1-1,0.2s-0.4,0.4-0.4,0.7c0,0.2,0.1,0.4,0.3,0.5s0.5,0.2,1,0.3l1.3,0.3c0.5,0.1,0.8,0.3,1.1,0.5s0.5,0.4,0.7,0.6 s0.3,0.5,0.3,0.7c0.1,0.2,0.1,0.4,0.1,0.6c0,0.5-0.1,1-0.4,1.4s-0.7,0.7-1.2,0.9C318.8,86.4,318.2,86.5,317.5,86.5z"></path> <path class="st7" d="M325,74.8v2.1h-2.3v-2.1H325z M325,78.1v8.3h-2.2v-8.3H325z"></path> <path class="st7" d="M327.1,86.3V78h2.3v1.2c0.1-0.2,0.3-0.4,0.5-0.6s0.5-0.3,0.8-0.5c0.3-0.1,0.7-0.2,1.1-0.2 c0.5,0,1,0.1,1.4,0.3c0.4,0.2,0.8,0.5,1.1,0.9s0.4,1,0.4,1.7v5.5h-2.3v-5.2c0-0.4-0.1-0.8-0.4-1c-0.3-0.2-0.6-0.3-1-0.3 c-0.3,0-0.5,0-0.7,0.1s-0.4,0.2-0.6,0.4c-0.1,0.2-0.2,0.4-0.2,0.7v5.3H327.1z"></path> <path class="st7" d="M340.4,89.1c-1.5,0-2.6-0.2-3.4-0.6c-0.8-0.4-1.1-0.9-1.1-1.5c0-0.3,0.1-0.5,0.2-0.7c0.1-0.2,0.3-0.3,0.5-0.5 c0.2-0.1,0.4-0.2,0.6-0.3c0.2-0.1,0.3-0.1,0.3-0.1c-0.1,0-0.2-0.1-0.4-0.2s-0.3-0.2-0.4-0.4c-0.1-0.2-0.2-0.4-0.2-0.6 c0-0.3,0.1-0.6,0.4-0.8c0.3-0.2,0.7-0.4,1.3-0.5c-0.5-0.3-1-0.6-1.2-1s-0.4-0.9-0.4-1.3c0-0.5,0.2-1,0.5-1.4s0.8-0.7,1.4-0.9 c0.6-0.2,1.3-0.3,2-0.3c0.6,0,1,0.1,1.4,0.2s0.7,0.3,1,0.5c0.1,0,0.3-0.1,0.5-0.2s0.4-0.2,0.7-0.3c0.2-0.1,0.5-0.2,0.7-0.3 c0.2-0.1,0.4-0.2,0.6-0.3v1.8l-1.4,0.2c0.1,0.1,0.1,0.3,0.1,0.5s0,0.3,0,0.4c0,0.5-0.1,0.9-0.4,1.3c-0.3,0.4-0.7,0.8-1.3,1 s-1.2,0.4-2.1,0.4c-0.1,0-0.2,0-0.4,0s-0.3,0-0.4,0c-0.3,0-0.5,0.1-0.6,0.1c-0.1,0.1-0.2,0.1-0.2,0.2s0.1,0.2,0.4,0.3 c0.2,0,0.6,0.1,1.1,0.1c0.2,0,0.4,0,0.7,0s0.6,0,1,0.1c1,0.1,1.8,0.3,2.3,0.7c0.5,0.4,0.7,1,0.7,1.6c0,0.8-0.4,1.4-1.1,1.9 C343,88.8,341.9,89.1,340.4,89.1z M340.8,87.8c0.7,0,1.1-0.1,1.4-0.2c0.3-0.2,0.4-0.4,0.4-0.7c0-0.3-0.1-0.5-0.3-0.6 s-0.5-0.2-0.9-0.3l-1.9-0.1c-0.2,0-0.5,0-0.7,0.1s-0.3,0.2-0.4,0.4s-0.2,0.3-0.2,0.5c0,0.3,0.2,0.6,0.6,0.8 C339.2,87.7,339.9,87.8,340.8,87.8z M340.3,82c0.4,0,0.8-0.1,1.1-0.4c0.3-0.2,0.4-0.6,0.4-1s-0.1-0.8-0.4-1 c-0.3-0.3-0.6-0.4-1.1-0.4c-0.4,0-0.8,0.1-1.1,0.4s-0.4,0.6-0.4,1s0.1,0.7,0.4,1S339.9,82,340.3,82z"></path> </g> </g> <g> <g class="st28"> <path class="st7" d="M237.5,106.5c-0.5,0-1-0.1-1.4-0.3s-0.8-0.5-1-0.9s-0.4-0.8-0.4-1.4c0-0.9,0.3-1.6,1-2.1s1.7-0.7,3.2-0.7h1 v-0.5c0-0.4-0.1-0.7-0.3-0.9c-0.2-0.2-0.6-0.3-1-0.3c-0.3,0-0.7,0.1-1,0.2c-0.3,0.2-0.5,0.4-0.6,0.8h-1.9c0-0.6,0.2-1.1,0.5-1.5 s0.7-0.7,1.3-0.9c0.5-0.2,1.2-0.3,1.8-0.3c0.8,0,1.5,0.1,2,0.3c0.5,0.2,0.9,0.5,1.1,0.9s0.3,0.9,0.3,1.4v5.8h-2l-0.2-1.4 c-0.3,0.6-0.6,1-1.1,1.2C238.6,106.4,238.1,106.5,237.5,106.5z M238.3,105c0.2,0,0.4,0,0.6-0.1s0.4-0.2,0.5-0.3s0.3-0.3,0.4-0.4 c0.1-0.2,0.1-0.3,0.1-0.5v-1.2h-0.8c-0.4,0-0.8,0.1-1.1,0.1s-0.6,0.2-0.8,0.4c-0.2,0.2-0.3,0.5-0.3,0.8c0,0.4,0.1,0.7,0.4,0.9 S237.9,105,238.3,105z"></path> <path class="st7" d="M244.3,106.3V98h2.3v1.2c0.1-0.2,0.3-0.4,0.5-0.6s0.5-0.3,0.8-0.5c0.3-0.1,0.7-0.2,1.1-0.2 c0.5,0,1,0.1,1.4,0.3c0.4,0.2,0.8,0.5,1.1,0.9s0.4,1,0.4,1.7v5.5h-2.3v-5.2c0-0.4-0.1-0.8-0.4-1s-0.6-0.3-1-0.3 c-0.3,0-0.5,0-0.7,0.1s-0.4,0.2-0.6,0.4c-0.1,0.2-0.2,0.4-0.2,0.7v5.3H244.3z"></path> <path class="st7" d="M256.9,106.5c-1.1,0-2-0.4-2.6-1.1c-0.6-0.8-0.9-1.8-0.9-3.2c0-0.9,0.1-1.6,0.4-2.2s0.6-1.1,1.1-1.5 c0.5-0.3,1.1-0.5,1.8-0.5c0.3,0,0.6,0,0.8,0.1c0.3,0.1,0.5,0.2,0.7,0.3s0.4,0.3,0.6,0.4c0.2,0.2,0.3,0.3,0.4,0.5v-4.7h2.3v11.9 h-1.7l-0.3-1.7c-0.1,0.2-0.2,0.5-0.3,0.7c-0.1,0.2-0.3,0.4-0.5,0.6s-0.5,0.3-0.8,0.4S257.3,106.5,256.9,106.5z M257.4,104.8 c0.6,0,1-0.2,1.3-0.6s0.4-1.1,0.4-2.1c0-0.6-0.1-1-0.2-1.4s-0.3-0.7-0.6-0.8s-0.6-0.3-1-0.3c-0.5,0-0.9,0.2-1.3,0.6 c-0.4,0.4-0.5,1-0.5,1.9s0.2,1.6,0.5,2C256.4,104.6,256.9,104.8,257.4,104.8z"></path> <path class="st7" d="M266.3,106.3l4.1-11.6h2.5l4.1,11.6h-2.3l-0.9-2.7h-4.2l-1,2.7H266.3z M270.2,101.6h3.1l-1.5-4.6L270.2,101.6 z"></path> <path class="st7" d="M278.5,106.3V98h2.3v1.2c0.1-0.2,0.3-0.4,0.5-0.6s0.5-0.3,0.8-0.5c0.3-0.1,0.7-0.2,1.1-0.2 c0.5,0,1,0.1,1.4,0.3c0.4,0.2,0.8,0.5,1.1,0.9s0.4,1,0.4,1.7v5.5h-2.3v-5.2c0-0.4-0.1-0.8-0.4-1c-0.3-0.2-0.6-0.3-1-0.3 c-0.3,0-0.5,0-0.7,0.1s-0.4,0.2-0.6,0.4c-0.1,0.2-0.2,0.4-0.2,0.7v5.3H278.5z"></path> <path class="st7" d="M290.4,106.5c-0.5,0-1-0.1-1.4-0.3s-0.8-0.5-1-0.9s-0.4-0.8-0.4-1.4c0-0.9,0.3-1.6,1-2.1s1.7-0.7,3.2-0.7h1 v-0.5c0-0.4-0.1-0.7-0.3-0.9c-0.2-0.2-0.6-0.3-1-0.3c-0.3,0-0.7,0.1-1,0.2c-0.3,0.2-0.5,0.4-0.6,0.8H288c0-0.6,0.2-1.1,0.5-1.5 s0.7-0.7,1.3-0.9c0.5-0.2,1.2-0.3,1.8-0.3c0.8,0,1.5,0.1,2,0.3c0.5,0.2,0.9,0.5,1.1,0.9c0.2,0.4,0.3,0.9,0.3,1.4v5.8h-2l-0.2-1.4 c-0.3,0.6-0.6,1-1.1,1.2C291.5,106.4,291,106.5,290.4,106.5z M291.2,105c0.2,0,0.4,0,0.6-0.1c0.2-0.1,0.4-0.2,0.5-0.3 s0.3-0.3,0.4-0.4c0.1-0.2,0.1-0.3,0.1-0.5v-1.2H292c-0.4,0-0.8,0.1-1.1,0.1s-0.6,0.2-0.8,0.4c-0.2,0.2-0.3,0.5-0.3,0.8 c0,0.4,0.1,0.7,0.4,0.9S290.8,105,291.2,105z"></path> <path class="st7" d="M299.8,106.5c-0.6,0-1.1-0.1-1.4-0.2c-0.4-0.1-0.6-0.3-0.8-0.6c-0.2-0.2-0.3-0.5-0.3-0.8s-0.1-0.6-0.1-0.9 v-9.6h2.3v9.3c0,0.3,0.1,0.6,0.2,0.7s0.4,0.3,0.7,0.3h0.4v1.4c-0.2,0.1-0.3,0.1-0.5,0.1S300,106.5,299.8,106.5z"></path> <path class="st7" d="M303.7,109c-0.6,0-1.1-0.1-1.5-0.3v-1.5h0.8c0.4,0,0.6,0,0.9-0.1c0.2-0.1,0.4-0.1,0.5-0.2s0.2-0.2,0.2-0.3 s0.1-0.2,0.1-0.2l0.2-0.5l-3.2-7.9h2.3l2,5.4l2-5.4h2.3l-3.4,8.3c-0.3,0.7-0.6,1.2-0.9,1.6c-0.3,0.4-0.7,0.6-1,0.8 C304.5,108.9,304.1,109,303.7,109z"></path> <path class="st7" d="M314.6,106.5c-0.6,0-1.1-0.1-1.7-0.3s-1-0.5-1.4-0.9s-0.6-0.9-0.7-1.6h2c0.1,0.3,0.2,0.5,0.4,0.7 s0.4,0.3,0.6,0.4s0.5,0.1,0.7,0.1c0.4,0,0.8-0.1,1.1-0.2s0.4-0.4,0.4-0.7c0-0.2-0.1-0.4-0.2-0.5c-0.2-0.1-0.4-0.2-0.8-0.3 l-1.5-0.3c-0.7-0.2-1.3-0.4-1.8-0.8c-0.4-0.4-0.7-0.9-0.7-1.6c0-0.5,0.1-0.9,0.4-1.3c0.3-0.4,0.7-0.7,1.2-0.9 c0.5-0.2,1.2-0.3,1.9-0.3c1,0,1.8,0.2,2.4,0.7c0.6,0.4,0.9,1.1,0.9,1.9h-2c-0.1-0.3-0.2-0.6-0.5-0.7c-0.3-0.2-0.6-0.3-1-0.3 s-0.7,0.1-1,0.2s-0.4,0.4-0.4,0.7c0,0.2,0.1,0.4,0.3,0.5s0.5,0.2,1,0.3l1.3,0.3c0.5,0.1,0.8,0.3,1.1,0.5s0.5,0.4,0.7,0.6 s0.3,0.5,0.3,0.7c0.1,0.2,0.1,0.4,0.1,0.6c0,0.5-0.1,1-0.4,1.4s-0.7,0.7-1.2,0.9C315.9,106.4,315.3,106.5,314.6,106.5z"></path> <path class="st7" d="M322.1,94.8v2.1h-2.3v-2.1H322.1z M322.1,98.1v8.3h-2.2v-8.3H322.1z"></path> <path class="st7" d="M327.5,106.5c-0.6,0-1.1-0.1-1.7-0.3s-1-0.5-1.4-0.9s-0.6-0.9-0.7-1.6h2c0.1,0.3,0.2,0.5,0.4,0.7 s0.4,0.3,0.6,0.4s0.5,0.1,0.7,0.1c0.4,0,0.8-0.1,1.1-0.2s0.4-0.4,0.4-0.7c0-0.2-0.1-0.4-0.2-0.5c-0.2-0.1-0.4-0.2-0.8-0.3 l-1.5-0.3c-0.7-0.2-1.3-0.4-1.8-0.8c-0.4-0.4-0.7-0.9-0.7-1.6c0-0.5,0.1-0.9,0.4-1.3c0.3-0.4,0.7-0.7,1.2-0.9 c0.5-0.2,1.2-0.3,1.9-0.3c1,0,1.8,0.2,2.4,0.7c0.6,0.4,0.9,1.1,0.9,1.9h-2c-0.1-0.3-0.2-0.6-0.5-0.7c-0.3-0.2-0.6-0.3-1-0.3 s-0.7,0.1-1,0.2s-0.4,0.4-0.4,0.7c0,0.2,0.1,0.4,0.3,0.5s0.5,0.2,1,0.3l1.3,0.3c0.5,0.1,0.8,0.3,1.1,0.5s0.5,0.4,0.7,0.6 s0.3,0.5,0.3,0.7c0.1,0.2,0.1,0.4,0.1,0.6c0,0.5-0.1,1-0.4,1.4s-0.7,0.7-1.2,0.9C328.8,106.4,328.2,106.5,327.5,106.5z"></path> </g> </g> <g> <g class="st28"> <path class="st7" d="M387.9,81.6c0.1,0,0.2,0,0.5,0s0.6,0,1,0s0.7,0,1.1,0c0.4,0,0.7,0,0.9,0c1.4,0,2.5,0.3,3.4,0.8s1.5,1.1,1.9,2 c0.4,0.8,0.6,1.8,0.6,3s-0.2,2.2-0.7,3.1c-0.4,0.9-1.1,1.5-2,2s-2,0.7-3.4,0.7h-3.4V81.6H387.9z M390.3,83.5v7.8h1.1 c0.7,0,1.3-0.1,1.8-0.4s1-0.7,1.3-1.3c0.3-0.6,0.5-1.4,0.5-2.3s-0.1-1.6-0.4-2.2s-0.7-1-1.2-1.2c-0.5-0.3-1.2-0.4-1.9-0.4H390.3z"></path> <path class="st7" d="M401.6,93.3c-0.5,0-1-0.1-1.4-0.3s-0.8-0.5-1-0.9s-0.4-0.8-0.4-1.4c0-0.9,0.3-1.6,1-2.1s1.7-0.7,3.2-0.7h1 v-0.5c0-0.4-0.1-0.7-0.3-0.9c-0.2-0.2-0.6-0.3-1-0.3c-0.3,0-0.7,0.1-1,0.2c-0.3,0.2-0.5,0.4-0.6,0.8h-1.9c0-0.6,0.2-1.1,0.5-1.5 s0.7-0.7,1.3-0.9c0.5-0.2,1.2-0.3,1.8-0.3c0.8,0,1.5,0.1,2,0.3c0.5,0.2,0.9,0.5,1.1,0.9c0.2,0.4,0.3,0.9,0.3,1.4v5.8h-2l-0.2-1.4 c-0.3,0.6-0.6,1-1.1,1.2C402.6,93.2,402.1,93.3,401.6,93.3z M402.3,91.8c0.2,0,0.4,0,0.6-0.1c0.2-0.1,0.4-0.2,0.5-0.3 s0.3-0.3,0.4-0.4c0.1-0.2,0.1-0.3,0.1-0.5v-1.2h-0.8c-0.4,0-0.8,0.1-1.1,0.1s-0.6,0.2-0.8,0.4c-0.2,0.2-0.3,0.5-0.3,0.8 c0,0.4,0.1,0.7,0.4,0.9S402,91.8,402.3,91.8z"></path> <path class="st7" d="M413.4,86.5h-1.8v4.4c0,0.2,0,0.4,0.1,0.5s0.1,0.2,0.2,0.2c0.1,0,0.2,0,0.4,0h1.1V93c-0.1,0-0.3,0.1-0.5,0.1 s-0.5,0.1-0.9,0.1c-0.7,0-1.3-0.1-1.7-0.3c-0.4-0.2-0.7-0.4-0.8-0.8s-0.2-0.7-0.2-1.2v-4.5H408v-1.6h1.4l0.6-2.5h1.7v2.5h1.8 L413.4,86.5L413.4,86.5z"></path> <path class="st7" d="M417.5,93.3c-0.5,0-1-0.1-1.4-0.3s-0.8-0.5-1-0.9s-0.4-0.8-0.4-1.4c0-0.9,0.3-1.6,1-2.1s1.7-0.7,3.2-0.7h1 v-0.5c0-0.4-0.1-0.7-0.3-0.9c-0.2-0.2-0.6-0.3-1-0.3c-0.3,0-0.7,0.1-1,0.2c-0.3,0.2-0.5,0.4-0.6,0.8h-1.9c0-0.6,0.2-1.1,0.5-1.5 s0.7-0.7,1.3-0.9c0.5-0.2,1.2-0.3,1.8-0.3c0.8,0,1.5,0.1,2,0.3c0.5,0.2,0.9,0.5,1.1,0.9c0.2,0.4,0.3,0.9,0.3,1.4v5.8h-2l-0.2-1.4 c-0.3,0.6-0.6,1-1.1,1.2C418.6,93.2,418.1,93.3,417.5,93.3z M418.3,91.8c0.2,0,0.4,0,0.6-0.1c0.2-0.1,0.4-0.2,0.5-0.3 s0.3-0.3,0.4-0.4c0.1-0.2,0.1-0.3,0.1-0.5v-1.2h-0.8c-0.4,0-0.8,0.1-1.1,0.1s-0.6,0.2-0.8,0.4c-0.2,0.2-0.3,0.5-0.3,0.8 c0,0.4,0.1,0.7,0.4,0.9S417.9,91.8,418.3,91.8z"></path> <path class="st7" d="M432.3,93.3c-0.6,0-1.1-0.1-1.7-0.2c-0.5-0.1-1.1-0.4-1.5-0.6c-0.5-0.3-0.8-0.6-1.1-1.1 c-0.3-0.4-0.5-0.9-0.5-1.5h2.4c0.1,0.4,0.2,0.6,0.5,0.9s0.5,0.4,0.8,0.6s0.7,0.2,1.1,0.2c0.4,0,0.8-0.1,1.2-0.2s0.6-0.3,0.8-0.5 s0.3-0.5,0.3-0.8s-0.1-0.5-0.3-0.7s-0.4-0.3-0.7-0.5c-0.3-0.1-0.6-0.2-1-0.3l-2-0.4c-0.9-0.2-1.6-0.5-2.1-1s-0.8-1.2-0.8-2.1 c0-0.7,0.2-1.4,0.6-1.9c0.4-0.5,0.9-0.9,1.6-1.2s1.4-0.4,2.3-0.4c1,0,1.8,0.2,2.5,0.5s1.2,0.7,1.6,1.3c0.4,0.5,0.5,1.1,0.5,1.8 h-2.3c0-0.4-0.2-0.7-0.4-1c-0.2-0.2-0.5-0.4-0.8-0.5s-0.7-0.2-1.1-0.2c-0.3,0-0.6,0-0.8,0.1c-0.3,0.1-0.5,0.2-0.6,0.3 c-0.2,0.1-0.3,0.3-0.4,0.4c-0.1,0.2-0.1,0.4-0.1,0.6c0,0.3,0.1,0.6,0.3,0.8s0.6,0.4,1.3,0.5l2,0.4c0.7,0.1,1.3,0.3,1.7,0.6 c0.4,0.3,0.7,0.6,0.9,0.9s0.3,0.7,0.4,1s0.1,0.7,0.1,1c0,0.6-0.2,1.2-0.6,1.7s-0.9,0.9-1.6,1.2C434.1,93.2,433.2,93.3,432.3,93.3z "></path> <path class="st7" d="M443.8,86.5H442v4.4c0,0.2,0,0.4,0.1,0.5s0.1,0.2,0.2,0.2c0.1,0,0.2,0,0.4,0h1.1V93c-0.1,0-0.3,0.1-0.5,0.1 s-0.5,0.1-0.9,0.1c-0.7,0-1.3-0.1-1.7-0.3c-0.4-0.2-0.7-0.4-0.8-0.8s-0.2-0.7-0.2-1.2v-4.5h-1.3v-1.6h1.4l0.6-2.5h1.7v2.5h1.8 L443.8,86.5L443.8,86.5z"></path> <path class="st7" d="M449.1,93.3c-0.8,0-1.5-0.2-2.1-0.5s-1.1-0.8-1.4-1.5s-0.5-1.4-0.5-2.3s0.2-1.6,0.5-2.3 c0.3-0.7,0.8-1.2,1.4-1.5c0.6-0.4,1.3-0.5,2.1-0.5s1.5,0.2,2.1,0.5c0.6,0.4,1.1,0.9,1.4,1.5c0.3,0.6,0.5,1.4,0.5,2.3 c0,0.8-0.2,1.6-0.5,2.2s-0.8,1.1-1.4,1.5C450.6,93.1,449.9,93.3,449.1,93.3z M449.1,91.6c0.4,0,0.7-0.1,1-0.4 c0.3-0.2,0.4-0.6,0.5-0.9c0.1-0.4,0.2-0.8,0.2-1.3c0-0.4-0.1-0.9-0.2-1.2c-0.1-0.4-0.3-0.7-0.5-0.9c-0.3-0.2-0.6-0.4-1-0.4 s-0.7,0.1-1,0.3s-0.4,0.5-0.6,0.9c-0.1,0.4-0.2,0.8-0.2,1.3c0,0.4,0.1,0.8,0.2,1.2c0.1,0.4,0.3,0.7,0.5,1 C448.3,91.4,448.6,91.6,449.1,91.6z"></path> <path class="st7" d="M454.6,93.1v-8.3h2.2v2c0.1-0.4,0.3-0.8,0.6-1.1s0.5-0.6,0.9-0.7s0.7-0.3,1.2-0.3c0.1,0,0.1,0,0.2,0 c0.1,0,0.1,0,0.1,0V87c0,0-0.1,0-0.2,0c-0.1,0-0.1,0-0.2,0c-0.5,0-0.9,0-1.2,0c-0.3,0.1-0.6,0.2-0.8,0.3c-0.2,0.2-0.3,0.3-0.4,0.6 c-0.1,0.2-0.1,0.5-0.1,0.8v4.5h-2.3V93.1z"></path> <path class="st7" d="M463.5,93.3c-0.5,0-1-0.1-1.4-0.3s-0.8-0.5-1-0.9s-0.4-0.8-0.4-1.4c0-0.9,0.3-1.6,1-2.1s1.7-0.7,3.2-0.7h1 v-0.5c0-0.4-0.1-0.7-0.3-0.9c-0.2-0.2-0.6-0.3-1-0.3c-0.3,0-0.7,0.1-1,0.2c-0.3,0.2-0.5,0.4-0.6,0.8h-1.9c0-0.6,0.2-1.1,0.5-1.5 s0.7-0.7,1.3-0.9c0.5-0.2,1.2-0.3,1.8-0.3c0.8,0,1.5,0.1,2,0.3c0.5,0.2,0.9,0.5,1.1,0.9c0.2,0.4,0.3,0.9,0.3,1.4v5.8h-2l-0.2-1.4 c-0.3,0.6-0.6,1-1.1,1.2C464.6,93.2,464.1,93.3,463.5,93.3z M464.3,91.8c0.2,0,0.4,0,0.6-0.1c0.2-0.1,0.4-0.2,0.5-0.3 s0.3-0.3,0.4-0.4c0.1-0.2,0.1-0.3,0.1-0.5v-1.2h-0.8c-0.4,0-0.8,0.1-1.1,0.1s-0.6,0.2-0.8,0.4c-0.2,0.2-0.3,0.5-0.3,0.8 c0,0.4,0.1,0.7,0.4,0.9S463.9,91.8,464.3,91.8z"></path> <path class="st7" d="M474.1,95.9c-1.5,0-2.6-0.2-3.4-0.6c-0.8-0.4-1.1-0.9-1.1-1.5c0-0.3,0.1-0.5,0.2-0.7c0.1-0.2,0.3-0.3,0.5-0.5 c0.2-0.1,0.4-0.2,0.6-0.3c0.2-0.1,0.3-0.1,0.3-0.1c-0.1,0-0.2-0.1-0.4-0.2s-0.3-0.2-0.4-0.4c-0.1-0.2-0.2-0.4-0.2-0.6 c0-0.3,0.1-0.6,0.4-0.8c0.3-0.2,0.7-0.4,1.3-0.5c-0.5-0.3-1-0.6-1.2-1s-0.4-0.9-0.4-1.3c0-0.5,0.2-1,0.5-1.4s0.8-0.7,1.4-0.9 c0.6-0.2,1.3-0.3,2-0.3c0.6,0,1,0.1,1.4,0.2s0.7,0.3,1,0.5c0.1,0,0.3-0.1,0.5-0.2s0.4-0.2,0.7-0.3c0.2-0.1,0.5-0.2,0.7-0.3 c0.2-0.1,0.4-0.2,0.6-0.3v1.8l-1.4,0.2c0.1,0.1,0.1,0.3,0.1,0.5s0,0.3,0,0.4c0,0.5-0.1,0.9-0.4,1.3c-0.3,0.4-0.7,0.8-1.3,1 S474.9,90,474,90c-0.1,0-0.2,0-0.4,0s-0.3,0-0.4,0c-0.3,0-0.5,0.1-0.6,0.1c-0.1,0.1-0.2,0.1-0.2,0.2s0.1,0.2,0.4,0.3 c0.2,0,0.6,0.1,1.1,0.1c0.2,0,0.4,0,0.7,0s0.6,0,1,0.1c1,0.1,1.8,0.3,2.3,0.7c0.5,0.4,0.7,1,0.7,1.6c0,0.8-0.4,1.4-1.1,1.9 C476.7,95.6,475.6,95.9,474.1,95.9z M474.5,94.6c0.7,0,1.1-0.1,1.4-0.2c0.3-0.2,0.4-0.4,0.4-0.7c0-0.3-0.1-0.5-0.3-0.6 s-0.5-0.2-0.9-0.3l-1.9-0.1c-0.2,0-0.5,0-0.7,0.1s-0.3,0.2-0.4,0.4s-0.2,0.3-0.2,0.5c0,0.3,0.2,0.6,0.6,0.8 C473,94.5,473.6,94.6,474.5,94.6z M474.1,88.8c0.4,0,0.8-0.1,1.1-0.4c0.3-0.2,0.4-0.6,0.4-1s-0.1-0.8-0.4-1 c-0.3-0.3-0.6-0.4-1.1-0.4c-0.4,0-0.8,0.1-1.1,0.4s-0.4,0.6-0.4,1s0.1,0.7,0.4,1S473.6,88.8,474.1,88.8z"></path> <path class="st7" d="M482.3,89.5c0,0.4,0.1,0.8,0.2,1.1s0.3,0.6,0.6,0.7c0.3,0.2,0.6,0.3,1,0.3s0.8-0.1,1.1-0.3s0.5-0.5,0.6-0.8 h2.1c-0.1,0.6-0.3,1.1-0.7,1.5s-0.8,0.7-1.4,1s-1.1,0.3-1.7,0.3c-0.8,0-1.5-0.2-2.2-0.5c-0.6-0.3-1.1-0.8-1.5-1.5 c-0.3-0.6-0.5-1.4-0.5-2.2c0-0.8,0.2-1.6,0.5-2.2c0.3-0.7,0.8-1.2,1.4-1.6c0.6-0.4,1.3-0.6,2.2-0.6c0.8,0,1.6,0.2,2.1,0.5 c0.6,0.4,1,0.8,1.3,1.5c0.3,0.6,0.4,1.4,0.4,2.2v0.6H482.3z M482.3,88.1h3.4c0-0.3-0.1-0.6-0.2-0.9c-0.1-0.3-0.3-0.5-0.6-0.7 c-0.2-0.2-0.6-0.2-0.9-0.2c-0.4,0-0.7,0.1-0.9,0.3c-0.3,0.2-0.4,0.4-0.6,0.7S482.3,87.8,482.3,88.1z"></path> </g> </g> <g> <path class="st7" d="M182.9,314.4c-0.2,0-0.5,0.2-0.5,0.4c0,0.2,0.2,0.5,0.4,0.5c2.4,0.2,3.4,0.6,3.7,0.8c-0.5,0.4-2.8,0.9-6.9,0.9 s-6.4-0.6-6.9-0.9c0.3-0.2,1.4-0.6,3.8-0.8c0.3,0,0.5-0.2,0.4-0.5c0-0.2-0.2-0.5-0.5-0.4c-4.7,0.4-4.7,1.4-4.7,1.7v8.4 c0,0.6,0.7,1,2.2,1.4c0,0,0.4,0.1,0.6-0.4c0-0.2-0.1-0.5-0.4-0.6c-1.1-0.2-1.4-0.5-1.4-0.5v-1.7c1.9,0.8,6,0.9,7,0.9s5.1,0,7-0.9 v1.8c-0.3,0.3-2.7,1-7,1c-1.3,0-2.6,0-3.7-0.2c-0.3,0-0.5,0.1-0.5,0.4s0.1,0.5,0.4,0.5c1.2,0.1,2.5,0.2,3.8,0.2s7.9-0.1,7.9-1.9 v-8.4C187.6,315.8,187.6,314.8,182.9,314.4z M186.6,318.9c-0.1,0-0.4,0.3-1.5,0.6c-0.2,0-0.4,0.3-0.4,0.6c0.1,0.4,0.5,0.4,0.6,0.4 c0.6-0.1,1-0.2,1.3-0.4v1.7c-0.3,0.3-2.7,1-7,1s-6.7-0.7-7-1V320c1.9,0.8,6,0.9,7,0.9c1.4,0,2.7,0,3.9-0.2c0.2,0,0.4-0.3,0.4-0.5 s-0.2-0.4-0.5-0.4c-1.1,0.1-2.4,0.2-3.7,0.2c-4.3,0-6.7-0.7-7-1v-1.8c1.9,0.8,6,0.9,7,0.9s5.1,0,7-0.9 C186.6,317.2,186.6,318.9,186.6,318.9z"></path> <path class="st7" d="M167.5,300.3h3.7c0.3,0,0.5-0.2,0.5-0.5s-0.2-0.5-0.5-0.5h-3.7c-0.3,0-0.5,0.2-0.5,0.5 S167.2,300.3,167.5,300.3z"></path> <path class="st7" d="M167.5,302.2h3.7c0.3,0,0.5-0.2,0.5-0.5s-0.2-0.5-0.5-0.5h-3.7c-0.3,0-0.5,0.2-0.5,0.5 S167.2,302.2,167.5,302.2z"></path> <path class="st7" d="M167.5,304h3.7c0.3,0,0.5-0.2,0.5-0.5s-0.2-0.5-0.5-0.5h-3.7c-0.3,0-0.5,0.2-0.5,0.5 C167.1,303.9,167.2,304,167.5,304z"></path> <path class="st7" d="M167.5,305.9h3.7c0.3,0,0.5-0.2,0.5-0.5s-0.2-0.5-0.5-0.5h-3.7c-0.3,0-0.5,0.2-0.5,0.5 S167.2,305.9,167.5,305.9z"></path> <path class="st7" d="M175.9,305.5c0.3,0,0.5-0.2,0.5-0.5v-0.8c0-0.3-0.2-0.5-0.5-0.5s-0.5,0.2-0.5,0.5v0.8 C175.4,305.3,175.6,305.5,175.9,305.5z"></path> <path class="st7" d="M177.8,300.3h3.7c0.3,0,0.5-0.2,0.5-0.5s-0.2-0.5-0.5-0.5h-3.7c-0.3,0-0.5,0.2-0.5,0.5 S177.5,300.3,177.8,300.3z"></path> <path class="st7" d="M177.8,302.2h3.7c0.3,0,0.5-0.2,0.5-0.5s-0.2-0.5-0.5-0.5h-3.7c-0.3,0-0.5,0.2-0.5,0.5 S177.5,302.2,177.8,302.2z"></path> <path class="st7" d="M177.8,304h3.7c0.3,0,0.5-0.2,0.5-0.5s-0.2-0.5-0.5-0.5h-3.7c-0.3,0-0.5,0.2-0.5,0.5 C177.3,303.9,177.5,304,177.8,304z"></path> <path class="st7" d="M177.8,305.9h3.7c0.3,0,0.5-0.2,0.5-0.5s-0.2-0.5-0.5-0.5h-3.7c-0.3,0-0.5,0.2-0.5,0.5 S177.5,305.9,177.8,305.9z"></path> <path class="st7" d="M193.6,298.9c0.3,0,0.5-0.2,0.5-0.5V298c0-0.3-0.2-0.5-0.5-0.5h-7.5c-0.3,0-0.5,0.2-0.5,0.5v9.3 c0,0.3,0.2,0.5,0.5,0.5h3.3v2.8h-9.3v-2.8h3.3c0.3,0,0.5-0.2,0.5-0.5V298c0-0.3-0.2-0.5-0.5-0.5h-7.5c-0.3,0-0.5,0.2-0.5,0.5v4.4 c0,0.3,0.2,0.5,0.5,0.5s0.5-0.2,0.5-0.5v-3.9h6.5v8.4h-6.5l0,0c0-0.3-0.2-0.5-0.5-0.5s-0.5,0.2-0.5,0.5v0.5c0,0.3,0.2,0.5,0.5,0.5 h3.3v2.8h-9.3v-2.8h3.3c0.3,0,0.5-0.2,0.5-0.5V298c0-0.3-0.2-0.5-0.5-0.5h-7.5c-0.3,0-0.5,0.2-0.5,0.5v2.7c0,0.3,0.2,0.5,0.5,0.5 s0.5-0.2,0.5-0.5v-2.3h6.5v8.4h-6.5v-4.2c0-0.3-0.2-0.5-0.5-0.5s-0.5,0.2-0.5,0.5v4.7c0,0.3,0.2,0.5,0.5,0.5h3.3v3.3 c0,0.3,0.2,0.5,0.5,0.5h9.8v3.1l-1.1-1.1c-0.2-0.2-0.5-0.2-0.7,0s-0.2,0.5,0,0.7l1.9,1.9c0.3,0.2,0.6,0,0.7,0l1.9-1.9 c0.2-0.2,0.2-0.5,0-0.7s-0.5-0.2-0.7,0l-1.1,1.1v-3.1h9.8c0.3,0,0.5-0.2,0.5-0.5v-3.3h3.3c0.3,0,0.5-0.2,0.5-0.5v-6.9 c0-0.3-0.2-0.5-0.5-0.5s-0.5,0.2-0.5,0.5v6.5h-6.5v-8.4h6.5l0,0C193.1,298.7,193.3,298.9,193.6,298.9z"></path> <path class="st7" d="M191.7,299.4H188c-0.3,0-0.5,0.2-0.5,0.5s0.2,0.5,0.5,0.5h3.7c0.3,0,0.5-0.2,0.5-0.5S192,299.4,191.7,299.4z"></path> <path class="st7" d="M191.7,301.2H188c-0.3,0-0.5,0.2-0.5,0.5s0.2,0.5,0.5,0.5h3.7c0.3,0,0.5-0.2,0.5-0.5S192,301.2,191.7,301.2z"></path> <path class="st7" d="M191.7,303.1H188c-0.3,0-0.5,0.2-0.5,0.5s0.2,0.5,0.5,0.5h3.7c0.3,0,0.5-0.2,0.5-0.5 C192.2,303.3,192,303.1,191.7,303.1z"></path> <path class="st7" d="M191.7,305H188c-0.3,0-0.5,0.2-0.5,0.5s0.2,0.5,0.5,0.5h3.7c0.3,0,0.5-0.2,0.5-0.5S192,305,191.7,305z"></path> </g> <g> <path class="st7" d="M162.8,155.8c-1.6,0-2.8,1.3-2.8,2.8s1.3,2.8,2.8,2.8s2.8-1.3,2.8-2.8l0,0 C165.6,157.1,164.3,155.8,162.8,155.8z M162.8,160c-0.8,0-1.4-0.6-1.4-1.4s0.6-1.4,1.4-1.4s1.4,0.6,1.4,1.4l0,0 C164.2,159.4,163.6,160,162.8,160z M168.6,159.7c-1.3,0-2.3,1-2.3,2.3s1,2.3,2.3,2.3s2.3-1,2.3-2.3l0,0 C171,160.8,169.9,159.7,168.6,159.7L168.6,159.7L168.6,159.7z M168.6,162.9c-0.5,0-0.9-0.4-0.9-0.9s0.4-0.9,0.9-0.9 s0.9,0.4,0.9,0.9S169.1,162.9,168.6,162.9L168.6,162.9z M173.4,161.1c1.3,0,2.3-1,2.3-2.3s-1-2.3-2.3-2.3s-2.3,1-2.3,2.3 S172.1,161.1,173.4,161.1z M173.4,157.9c0.5,0,0.9,0.4,0.9,0.9s-0.4,0.9-0.9,0.9s-0.9-0.4-0.9-0.9 C172.5,158.3,172.9,158,173.4,157.9L173.4,157.9z M168.6,151.3c-1.7,0-3.1,1.4-3.1,3.1c0,1.7,1.4,3.1,3.1,3.1s3.1-1.4,3.1-3.1l0,0 C171.7,152.7,170.3,151.3,168.6,151.3z M168.6,156c-0.9,0-1.6-0.7-1.6-1.6s0.7-1.6,1.6-1.6s1.6,0.7,1.6,1.6 C170.3,155.3,169.5,156,168.6,156L168.6,156z M177.8,161.1c-0.3-0.2-0.7-0.1-1,0.2c-0.2,0.3-0.2,0.8,0.1,1c0,0,0,0,0.1,0 c0.5,0.3,0.7,0.6,0.7,0.8c0,0.1-0.1,0.2-0.1,0.3c-0.3,0.3-0.6,0.5-0.9,0.7c-1.4,0.8-4.3,1.5-8.5,1.5c-5.3,0-8.5-1.2-9.3-2.1 l-0.1-0.1c-0.1-0.1-0.1-0.2-0.1-0.3c0-0.2,0.3-0.5,0.7-0.8c0.3-0.2,0.4-0.5,0.3-0.9s-0.5-0.6-0.9-0.4c0,0-0.1,0-0.1,0.1 c-1.2,0.7-1.4,1.5-1.4,2.1c0,0.3,0.1,0.5,0.2,0.8c0.1,0.2,0.2,0.4,0.4,0.6l7.9,9.4v4.4c0,0.4,0.3,0.7,0.7,0.7h3.6 c0.4,0,0.7-0.3,0.7-0.7V174l7.7-9.2c0.4-0.4,0.7-0.9,0.7-1.5C179.1,162.6,178.9,161.9,177.8,161.1z M169.4,173.2 c-0.1,0.1-0.2,0.3-0.2,0.5v3.9H167v-3.9c0-0.2-0.1-0.3-0.2-0.5l-5.8-7c2.3,0.6,4.7,0.9,7.1,0.9s4.7-0.3,7-0.9L169.4,173.2z"></path> </g> <g> <g> <path class="st7" d="M294.1,61.3v-3.6l-1.8-0.4c-0.1-0.2-0.2-0.5-0.3-0.7l1-1.5l-2.5-2.5l-1.5,1c-0.2-0.1-0.5-0.2-0.7-0.3 l-0.4-1.8h-1.3V38.4H269l-4,4v20.4h14.9l-0.7,1.1l2.5,2.5l1.5-1c0.2,0.1,0.5,0.2,0.7,0.3l0.4,1.8h3.6l0.4-1.8 c0.2-0.1,0.5-0.2,0.7-0.3l1.5,1l2.5-2.5l-1-1.5c0.1-0.2,0.2-0.5,0.3-0.7L294.1,61.3z M268.8,40v2.2h-2.2L268.8,40z M265.9,43.1 h3.8v-3.8h16v12.2h-1.3l-0.4,1.8c-0.2,0.1-0.5,0.2-0.7,0.3l-1.5-1l-2.5,2.5l1,1.5c-0.1,0.2-0.2,0.5-0.3,0.7l-1.8,0.4v3.6l1.8,0.4 c0,0.1,0.1,0.1,0.1,0.2H266L265.9,43.1L265.9,43.1z M291.8,63.8l-1.5,1.5l-1.3-0.9l-0.2,0.1c-0.3,0.2-0.7,0.3-1,0.4l-0.3,0.1 l-0.3,1.6h-2.1l-0.3-1.6l-0.3-0.1c-0.4-0.1-0.7-0.3-1-0.4l-0.2-0.1l-1.3,0.9l-1.5-1.5l0.9-1.3l-0.1-0.2c-0.2-0.3-0.3-0.7-0.4-1 l-0.1-0.3l-1.6-0.3v-2.1l1.6-0.3l0.1-0.3c0.1-0.4,0.3-0.7,0.4-1l0.1-0.2l-0.9-1.3L282,54l1.3,0.9l0.2-0.1c0.3-0.2,0.7-0.3,1-0.4 l0.3-0.1l0.3-1.6h2.1l0.3,1.6l0.3,0.1c0.4,0.1,0.7,0.3,1,0.4l0.2,0.1l1.3-0.9l1.5,1.5l-0.9,1.3L291,57c0.2,0.3,0.3,0.7,0.4,1 l0.1,0.3l1.6,0.3v2.1l-1.6,0.3l-0.1,0.3c-0.1,0.4-0.3,0.7-0.4,1l-0.1,0.2L291.8,63.8z"></path> <path class="st7" d="M286.1,54.8c-2.6,0-4.7,2.1-4.7,4.7c0,2.6,2.1,4.7,4.7,4.7c2.6,0,4.7-2.1,4.7-4.7 C290.8,56.9,288.7,54.8,286.1,54.8z M286.1,63.3c-2.1,0-3.8-1.7-3.8-3.8s1.7-3.8,3.8-3.8s3.8,1.7,3.8,3.8 C289.9,61.6,288.2,63.3,286.1,63.3z"></path> <path class="st7" d="M286.1,56.7c-1.6,0-2.8,1.3-2.8,2.8s1.3,2.8,2.8,2.8s2.8-1.3,2.8-2.8S287.7,56.7,286.1,56.7z M286.1,61.4 c-1,0-1.9-0.8-1.9-1.9c0-1,0.8-1.9,1.9-1.9s1.9,0.8,1.9,1.9C288,60.6,287.2,61.4,286.1,61.4z"></path> <path class="st7" d="M279.6,50.6c2.8,0,5.2-2.3,5.2-5.2s-2.3-5.2-5.2-5.2s-5.2,2.3-5.2,5.2C274.4,48.3,276.7,50.6,279.6,50.6z M280,49.6v-3.7h3.7C283.5,47.9,282,49.4,280,49.6z M283.8,45H280v-3.7C282,41.5,283.5,43,283.8,45z M279.1,41.2v8.4 c-2.1-0.2-3.8-2-3.8-4.2C275.3,43.3,277,41.5,279.1,41.2z"></path> <path class="st7" d="M266.9,60.9h2.8v-5.6h-2.8V60.9z M267.8,56.2h0.9V60h-0.9V56.2z"></path> <path class="st7" d="M270.6,60.9h2.8v-7.5h-2.8V60.9z M271.6,54.4h0.9V60h-0.9V54.4z"></path> <path class="st7" d="M274.4,60.9h2.8v-9.4h-2.8V60.9z M275.3,52.5h0.9V60h-0.9V52.5z"></path> <rect x="266.9" y="44" class="st7" width="6.6" height="0.9"></rect> <rect x="266.9" y="45.9" class="st7" width="6.6" height="0.9"></rect> <rect x="266.9" y="47.8" class="st7" width="6.6" height="0.9"></rect> <rect x="266.9" y="49.7" class="st7" width="6.6" height="0.9"></rect> </g> </g> <g> <path class="st7" d="M433.4,48.6l-3.6-4.5c-2.7,0-5.3,0-8,0v22.2L444,66l0.2-14.2l-7.9-0.1c-0.2,0-0.5-0.1-0.6-0.3L433.4,48.6z M434.3,47.3h10v-0.9h-8c-0.3,0-0.5-0.1-0.6-0.4l-4.1-5.5h-7v2h5.6c0.3,0,0.5,0.1,0.6,0.3L434.3,47.3z M444.3,48.8h-8.7l1.1,1.4 l7.6,0.1L444.3,48.8z M433.3,36c0.3,0,0.5,0.1,0.7,0.3l3.6,5.5h7.5c0.5,0,0.8,0.4,0.8,0.9c0,8-0.3,16.1-0.3,24.1 c0,0.4-0.3,0.7-0.7,0.8l-23.7,0.3c-0.4,0-0.8-0.3-0.8-0.8V43.3c0-1,1.4-0.8,2.7-0.8c0-3.8-0.4-3.5,2.3-3.5v-2.3 c0-0.4,0.3-0.8,0.8-0.8L433.3,36z M436.6,42.9l-3.6-5.4l-6.1,0.1v1.5h5.1c0.3,0,0.5,0.1,0.6,0.4l4.1,5.5h7.7v-1.6h-7.1 C436.9,43.3,436.7,43.2,436.6,42.9z"></path> <path class="st7" d="M429.2,54.2h12c0.4,0,0.8,0.3,0.8,0.8v9.3c0,0.4-0.3,0.8-0.8,0.8h-12c-0.4,0-0.8-0.3-0.8-0.8V55 C428.5,54.6,428.8,54.2,429.2,54.2z M440.4,55.8H430v7.8h10.4V55.8z"></path> <path class="st7" d="M431.6,58.5c-1,0-1-1.5,0-1.5h2.1c1,0,1,1.5,0,1.5H431.6z"></path> <path class="st7" d="M431.6,60.6c-1,0-1-1.5,0-1.5h4.4c1,0,1,1.5,0,1.5H431.6z"></path> <path class="st7" d="M431.6,62.6c-1,0-1-1.5,0-1.5h5.8c1,0,1,1.5,0,1.5H431.6z"></path> </g> <g> <g> <path class="st7" d="M542.2,160.5c-1.5,0-2.7-1.2-2.7-2.7s1.2-2.7,2.7-2.7s2.7,1.2,2.7,2.7S543.7,160.5,542.2,160.5z M542.2,156.4 c-0.8,0-1.4,0.6-1.4,1.4c0,0.8,0.6,1.4,1.4,1.4c0.8,0,1.4-0.6,1.4-1.4C543.6,157,543,156.4,542.2,156.4z"></path> <path class="st7" d="M544.8,164.1c-0.4-1.1-1.4-1.8-2.6-1.8c-1.1,0-2.2,0.7-2.6,1.8l-1.2-0.5c0.6-1.6,2.1-2.6,3.8-2.6 s3.2,1.1,3.8,2.6L544.8,164.1z"></path> </g> <path class="st7" d="M551.5,171.7H533v-25.8h18.5V171.7z M534.2,170.4h16v-23.2h-16V170.4z"></path> <path class="st7" d="M542.2,165.5c-3.7,0-6.7-3-6.7-6.7s3-6.7,6.7-6.7s6.7,3,6.7,6.7C548.8,162.5,545.9,165.5,542.2,165.5z M542.2,153.4c-3,0-5.4,2.4-5.4,5.4s2.4,5.4,5.4,5.4s5.4-2.4,5.4-5.4S545.1,153.4,542.2,153.4z"></path> <g> <rect x="541.4" y="143.1" class="st7" width="1.5" height="1.3"></rect> <rect x="539" y="173.2" class="st7" width="6.4" height="1.3"></rect> <path class="st7" d="M550.8,178.1h-17.3c-1.8,0-3.3-1.5-3.3-3.3v-2.2h1.3v2.2c0,1.1,0.9,2,2,2h17.3c1.1,0,2-0.9,2-2v-31.9 c0-1.1-0.9-2-2-2h-17.3c-1.1,0-2,0.9-2,2v22.2h-1.3v-22.2c0-1.8,1.5-3.3,3.3-3.3h17.3c1.8,0,3.3,1.5,3.3,3.3v31.9 C554.1,176.6,552.7,178.1,550.8,178.1z"></path> </g> <g> <path class="st7" d="M534.2,173.2h-11.7v-8.7h11.7V173.2z M523.8,171.9h9.1v-6.2h-9.1V171.9z"></path> <rect x="525.8" y="169.4" class="st7" width="2.5" height="1.3"></rect> <rect x="525.8" y="166.9" class="st7" width="5" height="1.3"></rect> </g> <g> <rect x="560.6" y="164.4" class="st7" width="1.3" height="1.3"></rect> <path class="st7" d="M559.3,165.7H558v-1.3h1.3V165.7z M556.7,165.7h-1.3v-1.3h1.3V165.7z"></path> <path class="st7" d="M559.3,147.2H558v-1.3h1.3V147.2z M556.7,147.2h-1.3v-1.3h1.3V147.2z"></path> <rect x="560.6" y="145.9" class="st7" width="1.3" height="1.3"></rect> <path class="st7" d="M561.9,163.1h-1.3v-1.3h1.3V163.1z M561.9,160.5h-1.3v-1.3h1.3V160.5z M561.9,157.8h-1.3v-1.3h1.3V157.8z M561.9,155.2h-1.3v-1.3h1.3V155.2z M561.9,152.5h-1.3v-1.3h1.3V152.5z M561.9,149.9h-1.3v-1.3h1.3V149.9z"></path> </g> </g> <g> <path class="st7" d="M535.4,293.4c-0.5,0-0.9,0.4-0.9,0.9v4.9c-6.1,0.5-10.9,5.6-10.9,11.7c0,2.5,0.8,4.8,2.1,6.7l-3.3,3.3 c-0.4,0.4-0.4,0.9,0,1.3s0.9,0.4,1.3,0l0,0l3.1-3.1c2.2,2.3,5.2,3.7,8.5,3.7c3.4,0,6.4-1.4,8.6-3.7l3.1,3.1c0.3,0.4,0.9,0.4,1.3,0 s0.4-0.9,0-1.3l0,0l-3.3-3.3c1.3-1.9,2.1-4.2,2.1-6.7c0-6.2-4.8-11.3-10.9-11.7v-4.9C536.4,293.8,536,293.4,535.4,293.4 L535.4,293.4z M534.5,301v5.3l-1.6-1.7c-0.2-0.2-0.4-0.3-0.6-0.3c-0.5,0-0.9,0.4-0.9,0.9c0,0.2,0.1,0.5,0.3,0.7l3.2,3.4 c0.3,0.4,0.9,0.4,1.3,0l0,0l3.2-3.4c0.4-0.4,0.4-0.9,0-1.3s-0.9-0.4-1.3,0l0,0l-1.6,1.7V301c5.1,0.5,9,4.7,9,9.9 c0,2-0.6,3.8-1.6,5.4l-3.9-3.9l2.3,0.1c0.5,0.1,1-0.3,1-0.8s-0.3-1-0.8-1c-0.1,0-0.1,0-0.2,0l-4.6-0.1c-0.5,0-0.9,0.4-0.9,0.9 c0,0,0,0,0,0.1l0.1,4.6c0,0.5,0.4,0.9,0.9,0.9s0.9-0.4,0.9-0.9l0,0l-0.1-2.3l4,4c-1.8,1.9-4.4,3.1-7.3,3.1c-2.9,0-5.4-1.2-7.3-3.1 l4-4l-0.1,2.3c0,0.5,0.4,0.9,0.9,0.9s0.9-0.4,0.9-0.9l0,0l0.1-4.6c0-0.5-0.4-0.9-0.9-0.9c0,0,0,0-0.1,0l-4.6,0.1 c-0.5,0-0.9,0.4-1,0.9c0,0.5,0.4,0.9,0.9,1c0.1,0,0.1,0,0.2,0l2.3-0.1l-3.9,3.9c-1-1.5-1.6-3.4-1.6-5.4 C525.5,305.7,529.4,301.5,534.5,301z"></path> </g> </svg> 