<svg width="650" height="650" viewBox="0 0 650 650" fill="none" xmlns="http://www.w3.org/2000/svg">
<g clip-path="url(#clip0_1824_18720)">
<path d="M590.027 646.268H72.6094V650.287H590.027V646.268Z" fill="#C8D3FB"/>
<path d="M56.8224 365.482C77.4846 232.553 192.849 -13.2065 362.451 85.5568C507.948 170.252 407.794 273.322 527.462 315.526C731.789 387.876 554.151 692.492 306.491 639.952C58.8312 587.412 37.882 489.51 56.8224 365.482Z" fill="url(#paint0_linear_1824_18720)"/>
<path d="M291.797 90V62.7H297.92L308.528 80.25V62.7H314.261V90H308.138L297.53 72.45V90H291.797Z" fill="#4B46B8"/>
<path d="M274.122 90.3119C266.01 90.3119 260.082 84.3839 260.082 76.3499C260.082 68.3159 266.01 62.3879 274.122 62.3879C282.156 62.3879 288.084 68.3159 288.084 76.3499C288.084 84.3839 282.156 90.3119 274.122 90.3119ZM274.083 85.0079C278.646 85.0079 281.922 81.3419 281.922 76.3499C281.922 71.3579 278.646 67.6529 274.083 67.6529C269.481 67.6529 266.244 71.3579 266.244 76.3499C266.244 81.3419 269.481 85.0079 274.083 85.0079Z" fill="#4B46B8"/>
<path d="M250.149 62.7H256.35V90H250.149V78.573H239.307V90H233.145V62.7H239.307V73.308H250.149V62.7Z" fill="#4B46B8"/>
<path d="M216.607 90V67.965H208.573V62.7H230.764V67.965H222.769V90H216.607Z" fill="#4B46B8"/>
<path d="M192.591 90V78.729L183.348 62.7H189.9L195.672 72.957L201.483 62.7H207.996L198.753 78.729V90H192.591Z" fill="#4B46B8"/>
<path d="M162.496 90V62.7H173.806C179.461 62.7 183.088 66.054 183.088 71.241C183.088 76.428 179.461 79.782 173.806 79.782H168.658V90H162.496ZM168.658 74.517H173.182C175.522 74.517 176.926 73.269 176.926 71.241C176.926 69.213 175.522 67.965 173.182 67.965H168.658V74.517Z" fill="#4B46B8"/>
<path d="M19.742 378.312C12.761 378.312 6.287 373.671 6.287 364.35C6.287 355.029 12.956 350.388 20.21 350.388C27.035 350.388 31.754 353.898 32.768 359.709L26.684 360.957C26.06 357.759 23.525 355.653 20.132 355.653C15.608 355.653 12.449 358.851 12.449 364.35C12.449 369.849 15.608 373.008 20.054 373.008C23.681 373.008 26.255 370.98 26.606 368.055H19.196V363.141H32.3V378H26.684V375.153C25.553 377.064 22.784 378.312 19.742 378.312ZM49.8436 378.312C41.7316 378.312 35.8036 372.384 35.8036 364.35C35.8036 356.316 41.7316 350.388 49.8436 350.388C57.8776 350.388 63.8056 356.316 63.8056 364.35C63.8056 372.384 57.8776 378.312 49.8436 378.312ZM49.8046 373.008C54.3676 373.008 57.6436 369.342 57.6436 364.35C57.6436 359.358 54.3676 355.653 49.8046 355.653C45.2026 355.653 41.9656 359.358 41.9656 364.35C41.9656 369.342 45.2026 373.008 49.8046 373.008ZM67.5185 378V350.7H73.6805V372.696H85.9265V378H67.5185ZM106.71 378L104.721 372.384H94.9706L92.9816 378H86.5856L96.9206 350.7H102.732L113.067 378H106.71ZM96.8426 367.236H102.849L99.8456 358.773L96.8426 367.236ZM115.469 378V350.7H121.592L132.2 368.25V350.7H137.933V378H131.81L121.202 360.45V378H115.469ZM155.138 378.312C148.157 378.312 141.683 373.671 141.683 364.35C141.683 355.029 148.352 350.388 155.606 350.388C162.431 350.388 167.15 353.898 168.164 359.709L162.08 360.957C161.456 357.759 158.921 355.653 155.528 355.653C151.004 355.653 147.845 358.851 147.845 364.35C147.845 369.849 151.004 373.008 155.45 373.008C159.077 373.008 161.651 370.98 162.002 368.055H154.592V363.141H167.696V378H162.08V375.153C160.949 377.064 158.18 378.312 155.138 378.312Z" fill="#4B46B8"/>
<path d="M467.773 129.484C458.302 178.004 474.947 268.441 569.936 299.448C664.638 330.455 631.923 256.096 569.936 195.517C507.949 134.652 482.408 56.2725 467.773 129.484Z" fill="url(#paint1_linear_1824_18720)"/>
<path d="M513.457 313V285.7H524.416C529.369 285.7 533.152 288.157 533.152 292.72C533.152 295.294 531.553 297.244 529.954 298.102C532.45 299.077 534.517 301.3 534.517 304.849C534.517 310.036 530.5 313 524.728 313H513.457ZM519.502 296.035H523.948C526.366 296.035 527.458 294.982 527.458 293.305C527.458 291.589 526.366 290.536 523.831 290.536H519.502V296.035ZM519.502 307.696H524.182C527.38 307.696 528.745 306.604 528.745 304.498C528.745 302.353 527.38 301.183 524.182 301.183H519.502V307.696ZM555.581 313L553.592 307.384H543.842L541.853 313H535.457L545.792 285.7H551.603L561.938 313H555.581ZM545.714 302.236H551.72L548.717 293.773L545.714 302.236ZM572.97 313.312C567.51 313.312 562.908 309.607 562.401 304.615L567.783 303.016C568.134 306.058 570.513 308.086 573.204 308.086C575.661 308.086 577.26 306.916 577.26 305.2C577.26 300.052 563.259 303.094 563.259 293.071C563.259 288.586 567.549 285.388 572.892 285.388C578.157 285.388 582.408 288.196 583.344 292.369L577.845 294.67C577.299 292.213 575.466 290.614 572.892 290.614C570.747 290.614 569.421 291.511 569.421 293.032C569.421 297.361 583.461 293.89 583.461 305.044C583.461 309.997 579.249 313.312 572.97 313.312ZM604.043 285.7H610.244V313H604.043V301.573H593.201V313H587.039V285.7H593.201V296.308H604.043V285.7Z" fill="#4B46B8"/>
<path d="M515.702 498.41H467.203V471.709H515.702V498.41ZM469.786 495.826H512.832V474.58H469.786V495.826Z" fill="#C8D3FB"/>
<path d="M548.991 522.239H500.492V495.538H548.991V522.239ZM503.075 519.655H546.121V498.409H503.075V519.655Z" fill="#C8D3FB"/>
<path d="M395.749 269.589H347.25V242.889H395.749V269.589ZM350.12 267.005H393.166V245.76H350.12V267.005Z" fill="#C8D3FB"/>
<path d="M310.514 563.582H262.016V536.882H310.514V563.582ZM264.598 560.998H307.645V539.753H264.598V560.998Z" fill="#C8D3FB"/>
<path d="M356.429 563.582H307.93V536.882H356.429V563.582ZM310.512 560.998H353.559V539.753H310.512V560.998Z" fill="#C8D3FB"/>
<path d="M333.473 587.411H284.688V560.711H333.186V587.411H333.473ZM287.557 584.828H330.604V563.582H287.557V584.828Z" fill="#C8D3FB"/>
<path d="M239.913 410.556H191.414V383.856H239.913V410.556ZM194.284 407.685H237.33V386.44H194.284V407.685Z" fill="#C8D3FB"/>
<path d="M206.624 434.385H158.125V407.685H206.624V434.385ZM160.995 431.514H204.041V410.556H160.995V431.514Z" fill="#C8D3FB"/>
<path d="M158.702 300.883H110.203V274.183H158.702V300.883ZM113.073 298.299H156.119V277.054H113.073V298.299Z" fill="#C8D3FB"/>
<path d="M204.616 300.883H156.117V274.183H204.616V300.883ZM158.7 298.299H201.746V277.054H158.7V298.299Z" fill="#C8D3FB"/>
<path d="M181.663 324.712H133.164V298.012H181.663V324.712ZM135.747 322.129H178.793V300.883H135.747V322.129Z" fill="#C8D3FB"/>
<path d="M649.999 58.5691V229.108C649.999 232.553 647.129 235.137 643.973 235.137H406.644C403.2 235.137 400.617 232.266 400.617 229.108V58.8562C400.617 54.5497 404.061 51.1044 408.366 51.1044H642.251C646.555 50.8173 649.999 54.5497 649.999 58.5691Z" fill="white"/>
<path d="M649.999 77.805H400.617V58.8563C400.617 54.5497 404.061 51.1045 408.366 51.1045H642.251C646.555 51.1045 649.999 54.5497 649.999 58.8563V77.805Z" fill="url(#paint2_linear_1824_18720)"/>
<path d="M443.383 64.3114C443.383 62.0146 445.105 60.292 447.4 60.292C449.696 60.292 451.418 62.0146 451.418 64.3114C451.418 66.6082 449.696 68.3309 447.4 68.3309C445.392 68.3309 443.383 66.6082 443.383 64.3114Z" fill="#C8D3FB"/>
<path d="M427.594 64.3114C427.594 62.0146 429.316 60.292 431.611 60.292C433.907 60.292 435.629 62.0146 435.629 64.3114C435.629 66.6082 433.907 68.3309 431.611 68.3309C429.603 68.3309 427.594 66.6082 427.594 64.3114Z" fill="url(#paint3_linear_1824_18720)"/>
<path d="M411.812 64.3114C411.812 62.0146 413.534 60.292 415.83 60.292C418.126 60.292 419.848 62.0146 419.848 64.3114C419.848 66.6082 418.126 68.3309 415.83 68.3309C413.534 68.3309 411.812 66.6082 411.812 64.3114Z" fill="white"/>
<path d="M630.484 61.4404L632.493 59.4307L635.363 62.3017L638.233 59.4307L640.242 61.4404L637.372 64.3114L640.242 67.1824L638.233 69.1922L635.363 66.3211L632.493 69.1922L630.484 67.1824L633.354 64.3114L630.484 61.4404Z" fill="white"/>
<path d="M502.49 207.575V202.981H463.461V207.575H502.49Z" fill="#6A6AE8"/>
<path d="M433.333 194.082V189.488H410.375V194.082H433.333Z" fill="#6A6AE8"/>
<path d="M458.583 180.301V175.707H409.797L410.084 180.301H458.583Z" fill="#3B31A1"/>
<path d="M448.255 166.519V161.926H409.227L409.514 166.519H448.255Z" fill="#6A6AE8"/>
<path d="M442.799 194.082V189.488H435.625L435.912 194.082H442.799Z" fill="#6A6AE8"/>
<path d="M487.278 194.082V189.488H464.32V194.082H487.278Z" fill="#6A6AE8"/>
<path d="M512.536 180.301L512.249 175.707H463.75L464.037 180.301H512.536Z" fill="#6A6AE8"/>
<path d="M502.208 166.519V161.926H463.18V166.519H502.208Z" fill="#6A6AE8"/>
<path d="M496.753 194.082L496.466 189.488H489.578V194.082H496.753Z" fill="#6A6AE8"/>
<path d="M433.044 153.313V148.72H410.086V153.313H433.044Z" fill="#6A6AE8"/>
<path d="M458.294 139.532L458.007 134.938H409.508L409.795 139.532H458.294Z" fill="#6A6AE8"/>
<path d="M447.966 125.751V121.157H408.938V125.751H447.966Z" fill="#6A6AE8"/>
<path d="M442.51 153.313L442.223 148.72H435.336L435.623 153.313H442.51Z" fill="#6A6AE8"/>
<path d="M486.997 153.313V148.72H464.039V153.313H486.997Z" fill="#6A6AE8"/>
<path d="M511.96 139.532V134.938H463.461V139.532H511.96Z" fill="#6A6AE8"/>
<path d="M501.919 125.751L501.632 121.157H462.891V125.751H501.919Z" fill="url(#paint4_linear_1824_18720)"/>
<path d="M496.463 153.313L496.176 148.72H489.289V153.313H496.463Z" fill="#6A6AE8"/>
<path d="M432.755 112.545V107.951H409.797V112.545H432.755Z" fill="#6A6AE8"/>
<path d="M458.012 98.7636L457.725 94.1699H409.227L409.514 98.7636H458.012Z" fill="#3B31A1"/>
<path d="M442.229 112.545L441.942 107.951H435.055V112.545H442.229Z" fill="#6A6AE8"/>
<path d="M486.708 112.545V107.951H463.75V112.545H486.708Z" fill="#6A6AE8"/>
<path d="M511.679 98.7636V94.1699H463.18V98.7636H511.679Z" fill="#6A6AE8"/>
<path d="M495.887 112.545V107.951H489V112.545H495.887Z" fill="#6A6AE8"/>
<path d="M624.169 207.575V202.981H585.141L585.428 207.575H624.169Z" fill="#6A6AE8"/>
<path d="M555.005 194.082V189.488H532.047L532.334 194.082H555.005Z" fill="#6A6AE8"/>
<path d="M580.264 180.301V175.707H531.766V180.301H580.264Z" fill="#6A6AE8"/>
<path d="M569.927 166.519V161.926H530.898L531.185 166.519H569.927Z" fill="url(#paint5_linear_1824_18720)"/>
<path d="M564.479 194.082V189.488H557.305L557.592 194.082H564.479Z" fill="#6A6AE8"/>
<path d="M608.958 194.082V189.488H586V194.082H608.958Z" fill="#6A6AE8"/>
<path d="M634.216 180.301L633.929 175.707H585.43L585.717 180.301H634.216Z" fill="#6A6AE8"/>
<path d="M623.88 166.519V161.926H584.852V166.519H623.88Z" fill="#3B31A1"/>
<path d="M618.432 194.082L618.145 189.488H611.258V194.082H618.432Z" fill="#6A6AE8"/>
<path d="M554.724 153.313V148.72H531.766V153.313H554.724Z" fill="#6A6AE8"/>
<path d="M579.973 139.532L579.686 134.938H531.188L531.474 139.532H579.973Z" fill="#6A6AE8"/>
<path d="M569.646 125.751V121.157H530.617L530.904 125.751H569.646Z" fill="#6A6AE8"/>
<path d="M564.19 153.313V148.72H557.016L557.303 153.313H564.19Z" fill="#6A6AE8"/>
<path d="M608.669 153.313V148.72H585.711V153.313H608.669Z" fill="#6A6AE8"/>
<path d="M633.926 139.532L633.64 134.938H585.141V139.532H633.926Z" fill="#6A6AE8"/>
<path d="M623.599 125.751V121.157H584.57V125.751H623.599Z" fill="#6A6AE8"/>
<path d="M618.143 153.313L617.856 148.72H610.969V153.313H618.143Z" fill="#6A6AE8"/>
<path d="M554.435 112.545V107.951H531.477V112.545H554.435Z" fill="#6A6AE8"/>
<path d="M579.684 98.7636L579.397 94.1699H530.898L531.185 98.7636H579.684Z" fill="#6A6AE8"/>
<path d="M563.901 112.545L563.614 107.951H556.727V112.545H563.901Z" fill="#6A6AE8"/>
<path d="M608.388 112.545V107.951H585.43V112.545H608.388Z" fill="#6A6AE8"/>
<path d="M633.35 98.7636V94.1699H584.852V98.7636H633.35Z" fill="url(#paint6_linear_1824_18720)"/>
<path d="M617.567 112.545V107.951H610.68V112.545H617.567Z" fill="#6A6AE8"/>
<path d="M194.856 646.267H196.865L194.282 586.837L192.273 587.124L194.856 646.267Z" fill="#312890"/>
<path d="M150.945 583.679C150.945 579.659 177.347 579.372 185.382 579.372C193.418 579.372 219.819 579.659 219.819 583.679C219.819 587.698 193.418 587.985 185.382 587.985C177.347 587.985 150.945 587.698 150.945 583.679ZM185.669 581.095C167.877 581.095 156.398 582.53 153.528 583.679C156.398 584.827 167.877 586.263 185.669 586.263C203.462 586.263 214.941 584.827 217.811 583.679C214.941 582.53 203.462 581.095 185.669 581.095Z" fill="#312890"/>
<path d="M218.099 552.672C219.821 556.691 220.682 561.285 220.682 565.879C220.682 585.402 204.898 601.192 185.384 601.192C165.87 601.192 150.086 585.402 150.086 565.879C150.086 561.285 150.947 556.691 152.669 552.672H218.099Z" fill="#C8D3FB"/>
<path d="M152.953 552.672C152.953 555.543 167.589 557.84 185.668 557.84C203.748 557.84 218.384 555.543 218.384 552.672C218.384 549.801 203.748 547.504 185.668 547.504C167.589 547.504 152.953 549.801 152.953 552.672Z" fill="#BFCBF1"/>
<path d="M156.109 552.672C156.109 554.682 169.31 556.404 185.668 556.404C202.025 556.404 215.226 554.682 215.226 552.672C215.226 550.662 202.025 548.939 185.668 548.939C169.31 548.939 156.109 550.662 156.109 552.672Z" fill="#835F59"/>
<path opacity="0.42" d="M156.113 564.73C156.113 562.146 160.418 562.146 160.131 564.73C159.844 571.046 160.705 577.362 165.296 581.956C167.018 583.966 164.148 586.837 162.426 584.827C157.261 579.372 155.826 571.907 156.113 564.73Z" fill="white"/>
<path d="M185.667 587.985C193.703 587.985 220.104 587.698 220.104 583.679H218.096C218.096 583.392 218.096 583.392 218.096 583.392C216.948 584.54 204.895 586.263 185.38 586.263C165.866 586.263 153.813 584.54 152.665 583.392V583.679H150.656C150.943 587.698 177.345 587.985 185.667 587.985Z" fill="#312890"/>
<path d="M224.987 646.267L226.996 645.98L219.534 583.966L217.812 584.253L224.987 646.267Z" fill="#312890"/>
<path d="M147.79 646.267L153.817 584.54L151.808 584.253L145.781 645.98L147.79 646.267Z" fill="#312890"/>
<path d="M180.509 646.267L181.657 587.124L179.935 586.837L178.5 645.98L180.509 646.267Z" fill="#312890"/>
<path d="M156.109 552.672C156.109 554.107 163.284 555.543 173.328 556.117C173.902 556.117 174.476 556.117 175.05 556.117C175.911 556.117 176.772 556.117 177.633 556.117C178.207 556.117 178.78 556.117 179.354 556.117C180.789 556.117 181.937 556.117 183.372 556.117C183.946 556.117 184.52 556.117 185.094 556.117C187.964 556.117 190.546 556.117 192.842 556.117C193.416 556.117 193.99 556.117 194.851 556.117C206.33 555.543 214.652 554.107 214.652 552.385C214.652 550.949 207.765 549.514 197.721 548.939C197.147 548.939 196.286 548.939 195.712 548.939C192.842 548.652 189.399 548.652 186.242 548.652H184.52C182.511 548.652 180.502 548.652 178.493 548.652C177.92 548.652 177.346 548.652 176.772 548.652C175.911 548.652 174.763 548.652 173.902 548.652C173.328 548.652 172.754 548.652 172.18 548.652C162.71 550.088 156.109 551.236 156.109 552.672Z" fill="#C8D3FB"/>
<path d="M185.093 518.507C183.659 517.646 182.511 516.784 181.65 515.636C180.215 514.201 177.919 511.617 177.919 509.32C177.919 507.31 179.928 507.023 181.076 508.171C182.224 509.033 182.798 510.755 183.659 511.904C184.807 513.339 186.528 514.488 188.537 515.349C191.12 511.617 191.407 506.736 190.546 502.429C189.685 497.261 186.241 490.371 181.363 483.48C180.789 485.203 179.928 486.926 179.067 488.074C178.206 489.51 176.771 492.668 174.762 493.242C172.754 493.816 172.467 492.094 172.754 490.658V490.371V490.084C172.754 490.084 172.754 489.797 173.041 489.797C174.188 487.787 175.336 485.777 176.197 483.768C176.771 482.332 177.345 480.609 177.632 479.174C173.327 474.293 168.162 469.987 162.135 467.403C163.283 469.987 164.144 472.571 165.005 475.155C165.866 477.738 167.875 482.906 165.866 485.203C165.292 485.777 164.144 486.352 163.57 485.777C162.135 484.916 162.422 482.332 162.422 481.184C162.422 478.313 162.422 475.729 161.275 472.858C160.414 470.274 158.979 467.977 157.544 465.967C153.813 465.106 150.082 465.106 146.065 465.967C147.213 467.116 148.074 468.264 148.361 469.7C148.648 471.135 147.787 474.293 146.065 474.293C143.769 474.293 143.482 468.838 143.195 466.829C141.186 467.69 138.89 468.551 136.595 469.987C132.864 472.571 129.994 475.729 127.985 479.174C127.985 479.174 127.985 479.174 127.985 479.461C128.846 485.49 136.308 487.5 140.899 489.797C142.334 490.658 147.5 492.955 146.926 495.252C146.639 496.4 144.63 496.4 143.769 496.113C141.473 495.826 139.464 493.816 137.743 492.381C133.725 489.223 129.707 486.064 126.263 482.332C122.533 490.371 121.672 499.558 121.672 506.449H121.959C124.542 507.597 127.698 508.171 130.568 507.884C132.29 507.597 134.299 507.31 136.021 507.597C137.456 507.884 140.038 509.607 138.316 511.329C136.882 512.765 133.438 512.191 131.716 512.191C127.985 511.617 124.829 510.468 121.672 509.033C121.672 511.042 121.959 512.765 122.246 514.201C123.394 520.804 127.411 527.12 132.864 530.852C134.873 532.001 136.882 533.149 138.89 533.723C142.908 530.278 146.065 526.259 148.074 520.804C148.935 518.507 150.369 512.765 153.526 512.765C154.961 512.765 155.822 514.488 156.109 515.636C156.683 517.646 155.248 519.655 154.1 521.378C152.378 523.675 150.656 525.972 149.222 528.269C147.787 530.565 146.065 532.862 144.343 534.872C148.361 535.446 152.378 535.159 156.109 534.011C162.135 532.288 168.162 525.972 165.005 519.655C171.606 520.804 179.354 521.952 185.093 518.507ZM133.151 501.855C132.577 502.142 132.29 502.142 132.29 501.855L132.003 501.568C131.429 501.281 130.855 500.42 130.855 499.558C130.855 499.271 130.855 499.271 130.855 499.271C130.855 498.984 130.855 498.41 130.568 498.123C130.568 497.261 130.855 496.113 132.003 496.4C133.151 496.687 134.586 497.836 134.586 499.271C134.873 500.132 134.299 501.568 133.151 501.855ZM171.606 503.291C171.032 504.152 169.884 504.152 169.023 503.578C168.162 502.716 167.875 501.568 168.162 500.42C168.162 500.132 168.449 500.132 168.449 500.132C169.31 499.845 170.745 499.845 171.606 500.42C172.467 500.994 172.18 502.429 171.606 503.291Z" fill="#6A6AE8"/>
<path d="M235.319 483.767C238.476 484.916 241.92 485.777 245.364 486.064C247.372 479.461 247.085 472.57 246.224 465.68C243.929 467.977 241.346 470.273 237.902 471.709C235.319 472.857 230.441 475.154 228.145 472.283C227.858 471.996 227.858 471.709 228.145 471.709C230.728 469.412 234.171 469.699 237.328 468.838C240.485 467.977 243.642 465.68 245.937 463.096C245.937 462.522 245.937 461.947 245.651 461.373C245.077 456.493 244.216 451.325 243.068 446.444V446.731C242.781 447.592 241.92 449.315 240.772 449.602C239.624 449.889 239.337 448.454 239.624 447.592C239.911 446.444 241.059 445.296 241.633 444.147C241.92 443.286 242.207 442.712 242.494 441.85C241.633 437.831 240.772 434.099 239.911 430.079C239.911 429.792 239.624 429.792 239.337 429.792C235.606 430.366 231.589 430.94 227.571 431.515C223.266 435.821 220.397 440.702 219.823 446.731C219.823 448.454 220.684 457.641 216.666 456.493C212.361 455.344 214.37 447.018 215.231 444.434C216.666 440.128 218.675 436.395 221.545 432.663C212.648 434.386 204.039 436.97 196.004 441.276C193.134 447.592 193.421 453.909 197.439 460.225C198.3 461.66 203.178 467.69 199.16 468.551C195.717 469.125 193.134 462.522 192.56 460.225C191.699 456.493 192.273 452.76 192.56 449.028C192.847 446.731 193.134 444.721 193.708 442.712C193.708 442.712 193.421 442.712 193.421 442.999C187.394 446.444 181.655 451.325 179.933 458.215C179.072 461.373 179.072 464.531 179.359 467.69C180.794 469.986 182.516 471.996 184.525 474.006C186.534 476.016 188.829 476.877 191.125 478.312C192.847 479.461 195.43 482.906 193.134 484.629C191.125 486.064 187.681 484.341 185.673 483.48C184.812 483.193 184.238 482.906 183.377 482.332C183.09 501.281 199.734 491.519 199.734 491.519C199.734 509.032 217.527 509.032 228.432 505.013C227.284 504.726 226.136 504.726 224.988 504.439C222.692 504.152 220.684 503.864 218.388 503.577C216.092 503.003 212.648 501.568 213.222 498.697C213.509 496.113 216.953 498.122 218.388 498.984C222.692 501.281 227.571 503.577 232.45 503.29C233.024 503.003 233.598 502.716 233.885 502.429C237.615 499.845 240.772 496.113 243.068 492.093C238.763 492.093 234.745 491.806 230.441 490.945C227.284 490.371 222.692 489.509 221.258 486.351C220.971 486.064 221.258 485.777 221.545 485.49C225.275 485.203 228.719 486.064 231.876 487.787C235.606 489.796 239.624 490.658 243.929 490.083C244.503 488.935 244.79 488.074 245.077 486.925C245.077 486.925 245.077 486.925 245.077 486.638C241.633 486.351 238.476 485.49 235.319 484.341C234.458 484.629 234.745 483.48 235.319 483.767ZM228.719 447.879C228.719 447.592 228.719 447.592 229.006 447.592C229.293 446.731 229.867 446.157 230.728 445.87C233.024 445.583 234.745 448.167 232.737 449.889C231.876 450.463 231.015 450.75 229.867 450.463C228.719 450.176 228.719 449.028 228.719 447.879ZM207.483 494.677C206.909 495.251 205.761 495.251 205.187 494.677C204.9 494.39 204.9 494.103 205.187 493.816C205.187 493.242 205.474 492.38 205.761 492.093C206.335 491.519 207.483 491.519 208.057 492.38C208.344 493.242 208.057 494.103 207.483 494.677ZM209.492 457.354C209.205 458.502 208.631 460.225 207.483 460.799C206.048 461.373 205.474 459.651 205.474 458.789V458.502C204.9 457.354 204.613 455.918 204.613 454.77C204.9 453.047 206.622 452.473 208.057 453.334C209.492 454.196 209.492 455.918 209.492 457.354ZM222.405 475.728C221.832 476.303 220.684 476.59 220.11 476.015C218.962 475.441 218.675 474.58 218.675 473.432C218.675 473.144 219.249 472.857 219.536 473.144C220.11 472.283 221.258 472.283 222.119 472.857C222.692 473.432 223.266 474.867 222.405 475.728Z" fill="url(#paint7_linear_1824_18720)"/>
<path d="M151.233 558.127C152.094 560.137 152.955 562.146 153.242 564.156C148.938 565.592 144.346 565.879 139.754 565.592C141.189 563.869 142.624 562.146 143.485 560.137C144.059 558.414 145.494 555.256 143.485 553.82C143.485 553.82 143.198 553.82 142.911 553.82C141.476 555.543 142.05 557.84 141.476 559.849C140.902 561.859 139.754 564.156 138.033 565.592C137.746 565.592 137.172 565.592 136.885 565.592C133.441 565.304 130.284 565.017 126.84 564.73C126.84 564.73 126.84 564.73 127.127 564.73C127.701 564.443 128.849 563.869 128.849 563.008C128.849 562.433 127.988 562.146 127.414 562.433C126.554 562.72 125.98 563.582 125.119 563.869C124.545 564.156 124.258 564.156 123.684 564.443C121.101 564.156 118.518 563.869 115.935 563.295C115.648 563.295 115.648 563.008 115.648 563.008C115.935 560.424 115.935 558.127 116.222 555.543C118.805 552.672 121.962 550.375 125.98 549.801C127.127 549.514 133.154 549.801 132.293 547.217C131.432 544.633 125.98 546.356 124.258 546.93C121.388 548.078 119.092 549.514 116.796 551.524C117.657 545.781 118.805 540.327 121.101 534.872C125.119 532.575 129.423 532.575 133.728 534.872C134.589 535.446 138.893 538.03 139.18 535.446C139.467 533.436 134.876 532.001 133.154 531.713C130.571 531.426 128.275 532.001 125.693 532.288C124.258 532.575 122.823 532.862 121.675 533.436C121.675 533.436 121.675 533.436 121.675 533.149C123.684 529.129 126.554 525.397 131.145 523.962C133.154 523.387 135.163 523.1 137.459 523.1C138.893 523.962 140.615 524.823 142.05 525.971C143.485 527.12 144.059 528.555 145.207 529.991C146.068 530.852 148.364 532.575 149.512 530.852C150.372 529.417 148.938 527.407 148.364 526.258C148.077 525.684 147.79 525.397 147.503 524.823C160.13 523.675 154.39 534.584 154.39 534.584C165.869 533.723 167.017 544.92 164.721 552.098C164.434 551.524 164.434 550.662 164.147 550.088C163.86 548.652 163.573 547.217 163.286 546.069C162.999 544.633 161.852 542.623 159.843 543.198C158.121 543.485 159.556 545.494 160.13 546.356C161.852 548.94 163.573 552.098 163.573 555.256C163.286 555.543 163.286 555.83 162.999 556.404C161.278 558.988 159.269 560.998 156.686 562.72C156.399 560.137 156.112 557.266 155.251 554.682C154.677 552.672 154.103 549.801 151.807 548.94C151.52 548.94 151.233 548.94 151.233 549.227C151.233 551.524 152.094 553.82 153.242 555.543C154.677 557.84 155.538 560.424 155.251 563.008C154.677 563.295 153.816 563.582 153.242 563.869C152.955 561.859 152.094 559.562 151.233 557.84C151.807 557.553 150.946 557.84 151.233 558.127ZM127.127 555.83C126.267 556.117 125.98 556.404 125.98 557.266C125.98 558.701 127.701 559.562 128.562 558.414C128.849 557.84 129.136 557.266 128.849 556.691C128.849 555.83 127.988 555.83 127.127 555.83ZM157.26 540.039C157.547 539.465 157.547 538.891 157.26 538.604C156.973 538.317 156.973 538.604 156.686 538.604C156.112 538.604 155.825 538.891 155.538 539.178C155.251 539.752 155.251 540.327 155.825 540.614C156.399 540.614 156.973 540.327 157.26 540.039ZM132.58 543.198C133.441 542.91 134.589 542.623 134.876 541.762C135.163 540.901 134.015 540.614 133.441 540.614C133.441 540.614 133.441 540.614 133.154 540.614C132.293 540.327 131.432 540.039 130.858 540.326C129.71 540.614 129.423 541.762 129.997 542.623C130.284 543.198 131.432 543.198 132.58 543.198ZM145.207 550.375C145.494 550.088 145.494 549.227 145.494 548.94C145.207 548.365 144.346 548.078 143.772 548.365C143.485 548.365 143.485 548.652 143.485 548.94C142.911 549.514 142.911 550.088 143.485 550.662C143.772 550.662 144.92 550.949 145.207 550.375Z" fill="url(#paint8_linear_1824_18720)"/>
<path d="M251.104 517.358C249.956 517.358 248.808 517.071 247.66 517.071C245.364 516.784 241.921 517.358 239.912 515.636C239.625 515.349 239.625 515.061 239.912 514.774C243.642 511.616 247.66 515.061 251.391 515.348C251.965 512.19 251.678 509.032 251.678 506.448C251.391 504.151 251.104 502.142 250.243 500.132C247.947 503.003 246.225 506.161 243.355 508.458C242.208 509.319 239.338 512.19 237.616 511.042C235.894 509.894 238.764 507.884 239.625 507.31C243.355 505.013 246.799 502.429 249.669 498.984C248.234 496.113 246.225 493.816 243.068 492.38C241.06 491.232 238.764 490.658 236.181 490.083C236.755 493.816 236.181 499.271 232.737 500.132C230.442 500.706 228.72 497.835 228.72 495.826C228.433 493.242 230.155 490.945 232.163 489.509C228.433 489.222 224.702 489.222 221.258 489.509C220.684 489.509 220.11 489.509 219.249 489.796C219.249 489.796 219.249 489.796 219.249 490.083C217.528 493.529 215.519 497.261 215.232 500.993C215.232 502.429 215.806 504.152 214.945 505.587C213.797 507.597 211.501 505.874 211.214 504.152C210.64 500.993 212.075 497.261 212.936 494.39C213.223 493.242 213.797 491.806 214.371 490.658C210.066 491.519 205.762 492.954 202.031 495.826C200.883 496.687 199.735 497.835 198.587 498.697C198.013 502.429 198.3 506.161 199.735 509.606C200.596 511.903 203.466 516.497 200.883 519.081C199.161 520.803 198.013 517.358 197.439 516.21C196.291 511.903 195.717 507.023 195.431 502.429C193.422 505.013 191.987 508.171 190.839 511.329C189.691 514.487 188.83 517.645 187.969 520.803C190.265 522.526 192.848 523.1 195.431 524.536C196.578 525.11 198.874 526.545 197.726 528.268C195.431 532 190.265 527.694 187.395 524.536C187.108 527.407 188.256 529.704 190.265 532C194.857 536.594 201.744 538.03 207.197 534.01C206.91 539.465 210.927 543.772 216.38 543.197C218.389 542.91 219.823 542.049 221.258 540.614C220.11 540.614 218.676 540.901 217.528 540.614C215.806 540.614 213.223 540.326 212.649 538.604C212.075 536.881 213.797 536.594 214.945 537.168C216.38 537.743 217.241 538.604 218.963 538.604C220.684 538.604 222.693 538.03 224.415 537.455C226.424 535.159 228.433 532.862 231.015 531.426C232.163 530.852 233.311 530.278 234.459 529.991C232.163 529.704 229.007 529.417 228.146 527.407C226.998 523.962 232.163 523.962 233.885 523.962C236.181 524.249 238.477 525.11 240.773 525.11C242.781 525.11 244.79 525.11 246.512 524.536C246.799 524.249 247.373 523.962 247.66 523.674C249.382 521.952 250.53 519.942 251.104 517.358ZM209.492 519.942C208.344 519.942 208.057 518.794 207.77 517.645C207.77 516.784 207.77 515.923 208.057 515.061V514.774C208.344 514.2 208.631 513.339 209.205 513.052C209.779 512.765 210.353 513.052 210.64 513.626C211.501 514.487 211.788 515.923 211.501 517.071C211.788 518.22 210.927 519.942 209.492 519.942ZM222.693 507.31C222.119 506.161 222.406 504.726 223.554 503.864H223.841C224.702 503.29 225.85 503.29 226.424 504.439C226.998 505.587 226.424 507.023 225.563 507.884C224.128 508.745 222.98 508.458 222.693 507.31ZM220.397 530.852C219.823 532 218.389 532.288 217.528 531.426C216.954 530.565 216.954 529.704 217.241 528.555C216.954 528.268 216.954 527.981 217.241 527.694C218.963 526.545 221.832 528.842 220.397 530.852Z" fill="#6A6AE8"/>
<path d="M193.422 556.405C193.996 556.405 194.57 556.405 195.431 556.405C196.005 554.395 196.866 552.672 197.727 550.95C198.013 550.376 198.3 550.088 198.3 549.514C202.892 540.327 209.493 532.288 217.528 525.685C218.389 524.823 217.241 523.675 216.093 524.249C207.771 530.853 201.17 538.891 196.579 548.366C196.579 548.653 196.292 548.94 196.292 548.94C195.144 551.524 194.283 554.108 193.422 556.405Z" fill="#312890"/>
<path d="M183.664 556.691C184.238 556.691 184.812 556.691 185.386 556.691C185.673 554.107 186.247 551.523 186.534 548.939C187.395 544.633 188.256 540.039 189.117 535.732C191.125 526.545 193.708 517.358 196.004 508.171C198.3 499.27 200.883 490.37 206.335 482.906C206.909 482.044 205.474 481.183 204.9 482.044C199.735 489.222 196.865 497.835 194.569 506.161C191.699 516.209 189.117 526.545 186.821 536.881C185.96 540.9 185.099 544.92 184.525 548.652C184.525 551.523 183.951 554.107 183.664 556.691Z" fill="#312890"/>
<path d="M161.852 514.775C164.147 519.655 166.156 524.536 167.878 529.704C168.165 530.565 168.452 531.14 168.452 532.001C170.174 537.743 171.322 543.485 172.183 549.514C172.47 551.811 172.757 554.108 173.044 556.405C173.618 556.405 174.191 556.405 174.765 556.405C174.478 554.108 174.191 551.524 173.904 549.227C173.044 544.059 171.896 538.891 170.461 533.723C170.174 532.862 169.887 531.714 169.6 530.852C167.878 525.11 165.582 519.368 162.999 513.913C162.999 512.765 161.278 513.626 161.852 514.775Z" fill="#312890"/>
<path d="M144.917 542.624C149.509 539.466 154.387 536.307 158.979 533.149C161.562 531.427 164.145 530.278 167.301 531.427C167.588 531.427 167.875 531.714 168.162 531.714C169.023 532.288 169.884 532.862 170.458 533.436C171.319 534.298 172.18 535.446 172.754 536.307C175.05 540.04 175.911 544.346 176.484 548.653C176.771 550.95 177.058 553.534 177.058 556.117C177.632 556.117 178.206 556.117 178.78 556.117C178.493 553.534 178.493 551.237 178.206 548.653C177.345 542.337 175.911 536.595 171.893 532.288C171.032 531.427 170.458 530.852 169.31 530.278C168.736 529.704 167.875 529.417 167.014 529.13C165.005 528.556 162.997 528.556 160.988 529.13C158.118 530.278 155.535 532.288 153.239 534.011C149.796 536.307 146.639 538.317 143.195 540.614C143.195 541.762 144.056 543.198 144.917 542.624Z" fill="#312890"/>
<path d="M265.742 140.393C265.742 140.393 265.168 140.393 264.307 140.393C255.984 140.68 218.678 144.125 191.128 186.042C163.578 144.125 126.271 140.68 117.949 140.393H116.227C77.4856 143.264 46.4922 178.577 46.4922 221.643C46.4922 264.708 77.1986 300.022 116.227 302.893H117.949C126.271 302.605 163.578 299.16 191.128 257.243C218.391 299.16 255.697 302.605 264.307 302.893H266.029C304.77 300.022 335.764 264.708 335.764 221.643C335.477 178.577 304.483 143.264 265.742 140.393ZM172.761 223.939C153.534 265.569 122.828 268.44 117.662 268.44C95.565 266.431 78.0595 246.046 78.0595 221.355C78.0595 196.665 95.565 176.28 117.949 174.271C123.689 174.558 153.821 178.003 172.761 218.772L173.909 221.355L172.761 223.939ZM264.307 268.44C259.141 268.153 228.435 265.282 209.207 223.939L208.059 221.355L209.207 218.772C228.148 178.29 258.28 174.845 264.02 174.558C286.404 176.567 303.909 196.952 303.909 221.643C303.909 246.333 286.404 266.431 264.307 268.44Z" fill="#1C0A76"/>
<path d="M252.828 302.892H264.594L264.02 298.586L255.124 297.725L252.828 302.892Z" fill="#1C0A76"/>
<path d="M106.754 302.892H117.372L117.659 298.586L103.023 296.002L106.754 302.892Z" fill="#1C0A76"/>
<path d="M141.762 262.986L139.466 262.125C128.848 267.867 120.239 268.441 117.943 268.728C102.446 267.292 89.2456 256.957 82.6452 242.314H71.4531V264.708L76.9057 279.638C76.9057 279.638 121.674 289.973 122.248 289.973C122.822 289.973 141.762 262.986 141.762 262.986Z" fill="#D35600"/>
<path d="M331.168 193.794C329.446 188.913 327.15 183.745 324.281 178.864C322.846 176.281 321.124 173.984 319.689 171.687C296.731 139.244 264.016 140.393 264.016 140.393L271.764 157.619L264.016 174.845C264.016 174.845 282.095 176.281 293.574 191.21C304.766 206.139 307.062 225.088 299.888 241.453L317.967 253.798H329.159C329.159 253.798 342.36 226.236 331.168 193.794Z" fill="#D35600"/>
<path d="M252.828 140.393H264.02L268.038 143.838L263.446 145.848L258.281 143.838L252.828 140.393Z" fill="#D35600"/>
<path d="M254.259 140.393C254.259 140.393 253.685 140.393 252.824 140.393C244.502 140.68 207.195 144.125 179.646 186.042C152.383 144.125 115.076 140.68 106.754 140.393H105.032C66.2903 143.264 35.2969 178.577 35.2969 221.643C35.2969 264.708 66.0033 300.022 105.032 302.893H106.754C115.076 302.605 152.383 299.16 179.933 257.243C207.195 299.16 244.502 302.605 253.111 302.893H254.833C293.575 300.022 324.568 264.708 324.568 221.643C323.994 178.577 293.288 143.264 254.259 140.393ZM161.566 223.939C142.339 265.282 111.632 268.153 106.467 268.44C84.3697 266.431 66.8642 246.046 66.8642 221.355C66.8642 196.665 84.3697 176.28 106.754 174.271C112.493 174.558 142.626 178.003 161.566 218.772L162.714 221.355L161.566 223.939ZM253.111 268.44C247.946 268.44 217.239 265.569 198.012 223.939L196.864 221.355L198.012 218.772C216.952 178.003 247.085 174.558 252.824 174.271C275.209 176.28 292.714 196.665 292.714 221.355C292.714 246.333 275.209 266.431 253.111 268.44Z" fill="#6A6AE8"/>
<path d="M258.277 267.579C255.981 268.153 253.111 268.44 253.111 268.44L246.511 272.173L234.458 278.489C234.458 278.489 233.023 291.409 233.023 293.418C233.023 293.705 233.31 294.567 233.884 295.428C233.597 295.428 233.597 295.141 233.31 295.141C229.579 293.418 225.849 291.696 222.405 289.399C218.961 287.389 215.804 284.805 212.935 282.221C202.891 275.044 194.855 263.56 189.116 253.798C183.663 244.037 180.506 235.998 180.506 235.998C178.211 231.404 175.915 226.523 173.906 221.356C167.88 207.575 160.705 197.813 153.531 190.923C138.321 176.568 121.963 174.845 121.963 174.845L110.484 159.916L122.824 140.393C122.824 140.393 141.191 140.967 163.288 155.896C164.723 156.758 165.871 157.619 167.019 158.767C170.175 161.064 173.045 163.648 175.628 166.519C175.915 166.806 192.846 182.597 203.465 210.733C204.899 214.178 206.621 217.623 208.056 221.068C223.553 256.382 247.085 265.282 258.277 267.579Z" fill="#D35600"/>
<path d="M111.633 140.68L118.233 140.393C118.233 140.393 122.251 140.393 126.269 140.967C130.286 141.541 125.121 146.422 125.121 146.422L119.955 147.857L115.363 146.422C115.363 146.422 112.781 144.986 112.207 144.412C111.92 143.838 111.633 142.689 111.633 142.689V140.68Z" fill="#D35600"/>
<path d="M253.108 268.44C253.108 268.44 217.523 268.153 196.861 221.355C195.426 217.91 193.704 214.465 192.269 211.02C181.938 182.597 165.006 167.093 164.433 166.806C161.85 164.222 158.98 161.638 155.823 159.054C154.675 158.193 153.24 157.045 152.093 156.183C129.708 141.254 111.629 140.68 111.629 140.68L99.2891 160.203L110.768 175.132C110.768 175.132 126.839 176.855 142.335 191.21C149.51 198.1 156.684 207.862 162.711 221.643C165.007 226.81 167.015 231.691 169.311 236.285C169.311 236.285 181.364 268.153 201.452 282.508C207.479 287.676 214.079 291.983 221.828 295.141C237.037 302.605 252.534 302.893 252.534 302.893L244.499 287.102L253.108 268.44Z" fill="url(#paint9_linear_1824_18720)"/>
<path d="M106.467 268.441L115.363 284.519L106.754 302.606C106.754 302.606 66.0034 303.18 43.9062 258.966L61.4118 257.531L71.1689 241.74C71.1689 242.027 79.7782 265.283 106.467 268.441Z" fill="url(#paint10_linear_1824_18720)"/>
<path d="M319.693 193.794C317.972 188.913 315.676 183.745 312.806 178.864C311.371 176.281 309.649 173.984 308.214 171.687C285.256 139.244 252.828 140.393 252.828 140.393L260.576 157.619L252.828 174.845C252.828 174.845 270.908 176.281 282.387 191.21C293.579 206.139 295.874 225.088 288.7 241.453L317.972 253.798C317.972 253.798 331.173 226.236 319.693 193.794Z" fill="url(#paint11_linear_1824_18720)"/>
<path d="M194 181.448L197.157 177.716C197.731 176.854 198.305 176.567 198.592 176.28C198.879 175.993 199.453 175.706 199.74 175.706C200.026 175.706 200.6 175.706 201.174 175.706C201.748 175.706 202.035 175.993 202.609 176.28C202.896 176.567 203.47 177.142 203.47 177.716C203.757 178.29 203.757 178.864 203.47 179.438C204.044 179.151 204.618 178.864 205.479 178.864C206.053 178.864 206.627 179.151 207.201 179.438C207.488 179.725 208.062 180.3 208.062 180.874C208.349 181.448 208.349 182.022 208.349 182.309C208.349 182.884 208.062 183.458 207.775 184.032C207.488 184.319 206.914 185.18 206.053 186.329L203.47 189.487L194 181.448ZM196.87 180.874L198.879 182.597L200.026 181.448C200.6 180.874 200.887 180.3 201.174 180.013C201.461 179.725 201.461 179.438 201.461 178.864C201.461 178.577 201.174 178.29 200.887 178.003C200.6 177.716 200.313 177.716 200.026 177.716C199.74 177.716 199.453 178.003 199.166 178.003C198.879 178.29 198.592 178.577 197.731 179.438L196.87 180.874ZM200.6 183.745L202.896 185.755L204.331 184.032C204.905 183.458 205.192 182.884 205.479 182.597C205.766 182.309 205.766 182.022 205.766 181.735C205.766 181.448 205.479 181.161 205.192 180.874C204.905 180.587 204.618 180.587 204.331 180.587C204.044 180.587 203.757 180.587 203.47 180.874C203.183 181.161 202.609 181.448 202.035 182.309L200.6 183.745Z" fill="white"/>
<path d="M203.18 171.113L205.189 169.678L209.206 174.845C209.78 175.707 210.354 176.281 210.641 176.281C210.928 176.568 211.502 176.855 212.076 176.855C212.65 176.855 212.937 176.568 213.511 176.281C214.085 175.994 214.372 175.42 214.372 175.133C214.372 174.558 214.372 174.271 214.372 173.984C214.085 173.697 213.798 173.123 213.224 172.262L209.206 167.094L211.215 165.658L214.946 170.539C215.807 171.687 216.381 172.549 216.668 173.123C216.955 173.697 216.955 174.271 216.955 174.845C216.955 175.42 216.668 175.994 216.381 176.568C216.094 177.142 215.52 177.717 214.659 178.291C213.798 178.865 212.937 179.439 212.363 179.439C211.789 179.726 211.215 179.726 210.641 179.439C210.067 179.439 209.78 179.152 209.206 178.865C208.632 178.291 208.058 177.717 207.197 176.568L203.18 171.113Z" fill="white"/>
<path d="M219.823 173.697L213.797 163.361L215.806 162.213L221.832 172.549L219.823 173.697Z" fill="white"/>
<path d="M223.56 171.4L218.969 160.49L221.265 159.629L224.995 168.816L230.448 166.519L231.309 168.242L223.56 171.4Z" fill="white"/>
<path d="M230.156 156.184L234.461 155.322C235.322 155.035 236.183 155.035 236.757 155.035C237.618 155.035 238.192 155.322 238.766 155.609C239.339 155.896 239.913 156.471 240.2 157.332C240.487 157.906 241.061 159.055 241.061 159.916C241.348 160.777 241.348 161.639 241.348 162.5C241.348 163.361 241.061 164.222 240.487 164.797C240.2 165.371 239.626 165.658 239.053 165.945C238.479 166.232 237.905 166.519 237.044 166.519L232.452 167.668L230.156 156.184ZM232.739 157.619L234.461 165.371L236.183 165.084C236.757 165.084 237.331 164.797 237.618 164.797C237.905 164.51 238.192 164.51 238.479 164.222C238.766 163.935 238.766 163.648 238.766 163.074C238.766 162.5 238.766 161.926 238.479 160.777C238.192 159.916 238.192 159.342 237.905 158.767C237.618 158.193 237.331 157.906 237.044 157.906C236.757 157.619 236.183 157.619 235.896 157.619C235.609 157.619 235.035 157.619 233.887 157.906L232.739 157.619Z" fill="white"/>
<path d="M293.294 180.301L294.442 182.597C293.294 183.172 292.146 183.459 290.998 183.459C289.85 183.459 288.989 182.884 288.128 182.023C286.98 180.875 286.406 179.726 286.406 178.004C286.406 176.568 286.98 175.133 288.415 173.697C289.85 172.262 291.285 171.4 292.72 171.4C294.155 171.4 295.589 171.975 296.737 173.123C297.885 174.271 298.459 175.42 298.459 176.568C298.459 177.43 298.172 178.004 297.885 178.865L295.876 177.717C296.163 177.142 296.45 176.568 296.163 175.994C296.163 175.42 295.876 174.846 295.302 174.559C294.729 173.984 293.868 173.697 293.007 173.697C292.146 173.697 291.285 174.271 290.137 175.42C288.989 176.568 288.415 177.43 288.415 178.291C288.415 179.152 288.702 179.726 289.276 180.588C289.85 181.162 290.137 181.162 290.998 181.449C291.859 181.736 292.72 180.875 293.294 180.301Z" fill="white"/>
<path d="M297.593 182.597C298.741 182.022 299.602 181.448 300.463 181.448C301.037 181.448 301.898 181.448 302.472 181.448C303.046 181.448 303.619 181.735 304.193 182.022C304.767 182.597 305.341 183.171 305.915 184.032C306.776 185.468 307.063 186.903 306.776 188.339C306.489 189.774 305.341 191.21 303.906 192.071C302.185 193.219 300.75 193.507 299.315 193.219C297.88 192.932 296.732 192.071 295.584 190.636C294.723 189.2 294.149 187.764 294.723 186.329C295.01 184.893 296.158 183.745 297.593 182.597ZM299.028 184.606C297.88 185.468 297.306 186.042 297.019 187.19C296.732 188.052 297.019 188.913 297.593 189.774C298.167 190.636 298.741 190.923 299.889 191.21C300.75 191.21 301.898 190.923 303.046 190.348C304.193 189.487 304.767 188.913 305.054 188.052C305.341 187.19 305.054 186.329 304.48 185.468C303.906 184.606 303.333 184.032 302.185 184.032C301.324 183.458 300.176 184.032 299.028 184.606Z" fill="white"/>
<path d="M310.794 192.358L312.515 196.378C312.802 197.239 313.089 198.1 313.089 198.675C313.089 199.536 313.089 200.11 312.802 200.684C312.515 201.259 311.942 201.833 311.368 202.407C310.794 202.981 309.933 203.268 308.785 203.842C307.924 204.13 307.063 204.417 306.202 204.417C305.341 204.417 304.48 204.417 303.906 204.13C303.332 203.842 302.758 203.555 302.471 202.981C302.184 202.407 301.897 201.833 301.323 200.971L299.602 196.665L310.794 192.358ZM309.646 195.517L302.184 198.388L302.758 200.11C303.045 200.684 303.332 201.259 303.332 201.546C303.619 201.833 303.906 202.12 304.193 202.407C304.48 202.694 305.054 202.694 305.628 202.694C306.202 202.694 306.776 202.407 307.637 202.12C308.498 201.833 309.072 201.546 309.646 201.259C309.933 200.971 310.22 200.684 310.507 200.11C310.794 199.823 310.794 199.249 310.507 198.962C310.507 198.675 310.22 198.1 309.933 196.952L309.646 195.517Z" fill="white"/>
<path d="M303.625 207.575L315.391 205.565L316.826 214.179L314.817 214.466L313.669 208.149L311.086 208.724L312.234 214.753L310.225 215.04L309.078 209.011L305.921 209.585L307.069 216.188L305.06 216.475L303.625 207.575Z" fill="white"/>
<path d="M294.149 255.234L303.046 262.986L300.463 265.857C299.602 267.006 298.741 267.58 298.454 267.867C297.88 268.154 297.306 268.441 296.445 268.441C295.584 268.441 295.01 268.154 294.149 267.58C293.575 267.006 293.289 266.718 293.002 266.144C292.715 265.57 292.715 264.996 292.715 264.709C292.715 264.135 293.002 263.847 293.002 263.273C293.289 262.699 293.862 262.125 294.436 261.264L295.584 260.115L292.141 257.244L294.149 255.234ZM300.176 263.56L297.593 261.264L296.732 262.125C296.158 262.699 295.871 263.273 295.584 263.56C295.584 263.847 295.584 264.135 295.584 264.422C295.584 264.709 295.871 264.996 296.158 265.283C296.445 265.57 296.732 265.57 297.306 265.57C297.593 265.57 298.167 265.57 298.454 265.283C298.741 264.996 299.028 264.709 299.602 264.135L300.176 263.56Z" fill="white"/>
<path d="M286.978 263.272L294.439 272.46L292.43 273.895L286.404 266.143L281.812 269.876L280.664 268.44L286.978 263.272Z" fill="white"/>
<path d="M270.047 274.183L272.343 273.034L274.638 275.044L278.943 272.747L278.369 269.876L280.665 268.728L282.1 281.36L279.804 282.509L270.047 274.183ZM276.073 276.192L279.517 279.351L278.943 274.757L276.073 276.192Z" fill="white"/>
<path d="M269.185 274.47L272.629 285.954L270.333 286.528L263.446 280.212L265.742 287.964L263.733 288.538L260.289 277.054L262.585 276.479L269.472 282.509L267.176 275.044L269.185 274.47Z" fill="white"/>
<path d="M232.736 287.964L228.432 286.528C227.571 286.241 226.71 285.954 226.423 285.667C225.849 285.38 225.275 284.805 224.988 283.944C224.701 283.37 224.414 282.509 224.414 281.647C224.414 280.786 224.701 279.925 224.988 278.776C225.275 277.915 225.562 277.054 226.136 276.479C226.71 275.618 227.284 275.331 227.858 274.757C228.432 274.47 229.006 274.47 229.867 274.47C230.441 274.47 231.015 274.47 231.875 274.757L236.18 276.192L232.736 287.964ZM231.015 285.38L233.31 277.915L231.588 277.341C231.015 277.054 230.441 277.054 230.154 277.054C229.867 277.054 229.293 277.054 229.006 277.341C228.719 277.341 228.432 277.915 228.145 278.202C227.858 278.776 227.571 279.35 227.284 280.212C226.997 281.073 226.997 281.647 226.997 282.222C226.997 282.796 226.997 283.083 227.284 283.657C227.571 283.944 227.858 284.231 228.145 284.518C228.432 284.805 229.006 284.805 229.867 285.093L231.015 285.38Z" fill="white"/>
<path d="M225.566 273.034L219.826 283.37L212.078 279.063L212.939 277.341L218.679 280.499L219.826 278.202L214.661 275.331L215.522 273.608L220.687 276.479L222.409 273.608L216.67 270.45L217.531 268.728L225.566 273.034Z" fill="white"/>
<path d="M216.381 267.579L208.632 276.766L205.762 274.182C204.615 273.321 204.041 272.46 203.754 272.173C203.467 271.599 203.18 271.024 203.18 270.163C203.18 269.302 203.467 268.727 204.041 267.866C204.615 267.292 204.902 267.005 205.475 266.718C206.049 266.431 206.623 266.431 206.91 266.431C207.484 266.431 207.771 266.718 208.345 266.718C208.919 267.005 209.493 267.579 210.354 268.153L211.502 269.302L214.372 265.856L216.381 267.579ZM208.058 273.608L210.354 271.024L209.206 270.163C208.345 269.589 208.058 269.302 207.771 269.015C207.484 269.015 207.197 269.015 206.91 269.015C206.623 269.015 206.336 269.302 206.049 269.589C205.762 269.876 205.762 270.163 205.762 270.737C205.762 271.024 206.049 271.598 206.049 271.886C206.336 272.173 206.623 272.46 207.197 273.034L208.058 273.608Z" fill="white"/>
<path d="M208.345 260.689L199.161 268.154L197.727 266.431L205.188 260.115L201.457 255.521L202.892 254.373L208.345 260.689Z" fill="white"/>
<path d="M197.156 256.383C196.008 256.957 195.147 257.244 194.286 257.244C193.712 257.244 192.851 257.244 192.277 256.957C191.703 256.67 191.129 256.383 190.555 256.096C189.981 255.521 189.407 254.947 188.834 254.086C187.973 252.65 187.686 250.928 188.26 249.492C188.833 248.057 189.694 246.908 191.416 246.047C193.138 245.186 194.573 244.899 196.008 245.186C197.443 245.473 198.591 246.621 199.452 248.057C200.313 249.492 200.599 251.215 200.026 252.65C200.026 254.373 198.878 255.521 197.156 256.383ZM196.008 254.373C197.156 253.799 198.017 252.938 198.304 252.076C198.591 251.215 198.591 250.354 198.017 249.492C197.443 248.631 196.869 248.057 196.008 248.057C195.147 247.77 193.999 248.057 192.851 248.631C191.703 249.205 190.842 250.067 190.555 250.928C190.268 251.789 190.268 252.65 190.842 253.512C191.416 254.373 191.99 254.947 192.851 255.234C193.712 255.234 194.86 254.947 196.008 254.373Z" fill="white"/>
<path d="M195.72 239.156L190.842 240.592L185.389 246.908L184.528 244.324L188.259 240.305L182.806 239.156L181.945 236.572L189.981 238.869L194.859 237.434L195.72 239.156Z" fill="white"/>
<path d="M98.7166 276.192L96.1338 285.667L99.5775 286.528L99.0035 288.538L89.8203 286.241L90.3943 284.231L93.838 285.093L96.4208 275.618L98.7166 276.192Z" fill="white"/>
<path d="M91.828 274.183L86.9494 285.092L78.9141 281.36L79.775 279.637L85.5145 282.221L86.6624 279.925L81.2099 277.341L82.0708 275.618L87.5233 278.202L88.9582 275.331L82.9317 272.46L83.7927 270.737L91.828 274.183Z" fill="white"/>
<path d="M80.6385 273.322L78.6297 272.173C78.9166 271.312 79.2036 270.738 78.9166 270.163C78.9166 269.589 78.3427 269.015 77.7687 268.728C77.1948 268.154 76.6208 268.154 76.0469 268.154C75.4729 268.154 75.1859 268.441 74.899 268.728C74.612 269.015 74.612 269.302 74.612 269.589C74.612 269.876 74.899 270.163 74.899 270.451C75.1859 270.738 75.4729 271.312 76.0469 271.886C76.9078 273.034 77.4818 273.609 77.4818 274.47C77.7687 275.331 77.4818 276.193 76.9078 277.054C76.6208 277.628 76.0469 277.915 75.4729 278.202C74.899 278.489 74.325 278.489 73.4641 278.202C72.8901 277.915 72.0292 277.628 71.4553 277.054C70.3074 276.193 69.4464 275.331 69.1595 274.183C68.8725 273.322 69.1595 272.173 69.7334 271.312L71.7422 272.747C71.4553 273.322 71.4553 273.896 71.4553 274.183C71.4553 274.47 72.0292 275.044 72.3162 275.331C72.8901 275.618 73.4641 275.906 74.038 275.906C74.325 275.906 74.612 275.906 74.899 275.618C75.1859 275.331 75.1859 275.044 74.899 274.757C74.899 274.47 74.325 273.609 73.4641 272.747C72.6032 271.886 72.0292 271.025 71.7422 270.451C71.4553 269.876 71.4553 269.302 71.4553 268.728C71.4553 268.154 71.7422 267.58 72.3162 267.005C72.6032 266.431 73.1771 266.144 74.038 265.857C74.612 265.57 75.4729 265.57 76.0469 265.857C76.9078 266.144 77.4818 266.431 78.3427 267.005C79.4906 267.867 80.3515 268.728 80.6385 269.876C81.4994 271.025 81.2124 272.173 80.6385 273.322Z" fill="white"/>
<path d="M72.0254 261.55L64.851 268.44L67.4338 271.024L65.9989 272.173L59.3984 265.282L60.8333 263.847L63.4161 266.431L70.5905 259.54L72.0254 261.55Z" fill="white"/>
<path d="M56.2462 232.552L44.4802 233.988L43.9062 228.82C43.9062 227.672 43.9062 226.523 43.9062 225.949C44.1932 225.375 44.4802 224.801 44.7672 224.514C45.3411 224.226 45.9151 223.939 46.489 223.652C47.35 223.652 48.2109 223.652 48.7848 224.226C49.3588 224.801 49.9327 225.375 50.2197 226.523C50.5067 225.949 50.7937 225.375 51.0806 225.088C51.3676 224.801 51.9416 224.227 52.8025 223.652L55.0983 221.93L55.3853 224.801L53.0895 226.81C52.2285 227.385 51.6546 227.959 51.3676 228.246C51.0806 228.533 51.0806 228.82 51.0806 229.107C51.0806 229.394 51.0806 229.681 51.0806 230.256V230.83L55.9592 230.256L56.2462 232.552ZM49.3588 230.83L49.0718 229.107C49.0718 227.959 48.7848 227.385 48.7848 227.098C48.7848 226.81 48.4979 226.523 48.2109 226.523C47.9239 226.523 47.6369 226.236 47.35 226.236C47.063 226.236 46.776 226.523 46.489 226.523C45.9151 226.81 45.9151 227.098 45.9151 227.672C45.9151 227.959 45.9151 228.533 46.2021 229.394L46.489 231.404L49.3588 230.83Z" fill="white"/>
<path d="M55.3832 221.069L43.6172 219.921L44.4781 211.021L46.4869 211.308L45.913 217.624L48.4958 217.911L49.0697 211.882L51.0786 212.169L50.2176 218.198L53.3744 218.485L53.9483 211.882L55.9571 212.169L55.3832 221.069Z" fill="white"/>
<path d="M59.4019 200.11L58.541 202.694L55.6712 202.981L54.5233 207.575L56.8191 209.298L56.2452 211.882L45.9141 203.843L46.488 201.259L59.4019 200.11ZM53.6624 202.981L48.7838 203.556L52.5145 206.427L53.6624 202.981Z" fill="white"/>
<path d="M59.6884 199.536L49.0703 194.081L50.2182 192.071L59.1145 196.378L61.6972 190.923L63.4191 191.784L59.6884 199.536Z" fill="white"/>
<path d="M64.5676 190.923L54.5234 184.319L55.9583 182.31L65.7155 188.913L64.5676 190.923Z" fill="white"/>
<path d="M63.4166 185.181L64.8514 183.172C65.4254 183.459 66.2863 183.746 66.5733 183.746C67.1472 183.746 67.7212 183.459 68.0082 182.885C68.5821 182.31 68.8691 181.736 68.8691 181.162C68.8691 180.588 68.8691 180.301 68.2951 180.014C68.0082 179.726 67.7212 179.726 67.7212 179.726C67.4342 179.726 67.1472 179.726 66.8603 180.014C66.5733 180.301 65.9993 180.588 65.1384 181.162C63.9905 182.023 63.1296 182.31 62.5556 182.31C61.6947 182.31 60.8338 182.023 59.9728 181.449C59.3989 181.162 59.1119 180.588 59.1119 180.014C58.8249 179.439 59.1119 178.865 59.1119 178.004C59.3989 177.43 59.6859 176.568 60.2598 175.994C61.1207 174.846 62.2687 174.271 63.1296 173.984C63.9905 173.984 65.1384 174.271 65.9993 174.846L64.5645 176.855C63.9905 176.568 63.7035 176.281 63.1296 176.568C62.8426 176.568 62.2687 176.855 61.6947 177.43C61.1207 178.004 60.8338 178.578 60.8338 178.865C60.8338 179.152 60.8338 179.439 61.1207 179.726C61.4077 180.014 61.6947 180.014 61.9817 180.014C62.2687 180.014 63.1296 179.439 63.9905 178.865C64.8514 178.291 65.7124 177.717 66.2863 177.43C66.8603 177.143 67.4342 177.143 68.0082 177.143C68.5821 177.143 69.1561 177.43 69.73 178.004C70.304 178.578 70.5909 179.152 70.8779 179.726C71.1649 180.301 71.1649 181.162 70.8779 181.736C70.5909 182.31 70.304 183.172 69.443 184.033C68.5821 185.181 67.4342 185.756 66.2863 186.043C65.7124 186.33 64.5645 186.043 63.4166 185.181Z" fill="white"/>
<path d="M74.0338 179.726L66.8594 170.252L73.7468 164.797L74.8947 166.519L69.7291 170.539L71.451 172.549L76.3296 168.816L77.4775 170.539L72.5989 174.271L74.6077 176.855L79.7733 172.836L80.9212 174.558L74.0338 179.726Z" fill="white"/>
<path d="M120.523 165.658L123.68 154.174L127.124 155.035V163.361L131.142 156.184L134.585 157.045L131.429 168.529L129.133 167.955L131.429 158.767L126.837 167.093L124.541 166.519V156.758L122.245 165.945L120.523 165.658Z" fill="white"/>
<path d="M135.734 163.935C136.308 162.787 136.882 161.926 137.743 161.352C138.317 161.064 138.891 160.49 139.465 160.49C140.039 160.203 140.613 160.203 141.187 160.203C142.048 160.203 142.909 160.49 143.769 161.064C145.204 161.926 146.352 163.074 146.639 164.51C146.926 165.945 146.926 167.668 145.778 169.39C144.917 171.113 143.769 172.261 142.335 172.549C140.9 173.123 139.465 172.836 137.743 171.974C136.308 171.113 135.16 169.965 134.873 168.529C134.586 167.094 134.873 165.658 135.734 163.935ZM138.03 165.084C137.456 166.232 137.169 167.381 137.456 168.242C137.743 169.103 138.317 169.965 139.178 170.252C140.039 170.826 140.9 170.826 141.761 170.539C142.622 170.252 143.483 169.39 144.056 168.242C144.63 167.094 144.917 165.945 144.63 165.084C144.343 164.223 143.769 163.648 142.909 163.074C142.048 162.5 141.187 162.5 140.326 162.787C139.178 163.074 138.604 163.648 138.03 165.084Z" fill="white"/>
<path d="M144.062 175.42L151.811 166.232L153.533 167.668L152.098 176.855L157.263 170.826L158.985 172.262L151.237 181.449L149.515 180.013L150.95 170.826L146.071 176.855L144.062 175.42Z" fill="white"/>
<path d="M152.664 183.171L161.56 175.132L163.282 176.854L154.386 184.893L152.664 183.171Z" fill="white"/>
<path d="M157.258 188.626L165.293 182.884L163.284 180.013L165.006 178.864L170.459 186.616L168.737 187.764L166.728 184.893L158.693 190.635L157.258 188.626Z" fill="white"/>
<path d="M166.157 191.21C167.305 190.636 168.166 190.349 169.314 190.349C169.888 190.349 170.749 190.349 171.323 190.636C171.897 190.923 172.471 191.21 173.045 191.497C173.618 192.071 174.192 192.645 174.479 193.794C175.053 195.516 175.34 196.952 174.766 198.387C174.192 199.823 173.045 200.971 171.323 201.546C169.601 202.407 167.879 202.407 166.444 201.833C165.009 201.259 163.861 200.11 163.287 198.675C162.713 196.952 162.426 195.516 163 194.081C163.287 192.933 164.435 192.071 166.157 191.21ZM167.305 193.507C166.157 194.081 165.296 194.655 165.009 195.516C164.722 196.378 164.722 197.239 165.009 198.1C165.296 198.962 166.157 199.536 167.018 199.823C167.879 200.11 169.027 200.11 170.175 199.536C171.323 198.962 172.184 198.388 172.471 197.526C172.758 196.665 172.758 195.804 172.471 194.942C172.184 194.081 171.323 193.507 170.462 193.22C169.601 192.645 168.453 192.933 167.305 193.507Z" fill="white"/>
<path d="M165.867 205.278L177.633 202.981L178.781 207.862C179.068 209.011 179.068 210.159 179.068 210.733C179.068 211.307 178.781 211.882 178.207 212.456C177.633 213.03 177.059 213.317 176.485 213.317C175.624 213.604 174.763 213.317 174.189 213.03C173.616 212.743 173.042 211.882 172.755 211.02C172.468 211.595 172.181 212.169 171.894 212.456C171.607 212.743 171.033 213.317 170.172 214.178L168.163 216.188L167.589 213.317L169.885 211.02C170.746 210.159 171.033 209.585 171.32 209.298C171.607 209.011 171.607 208.723 171.607 208.436C171.607 208.149 171.607 207.862 171.607 207.288V206.714L166.728 207.862L165.867 205.278ZM173.042 206.427L173.329 208.149C173.616 209.298 173.616 209.872 173.903 210.159C174.189 210.446 174.189 210.733 174.476 210.733C174.763 210.733 175.05 210.733 175.337 210.733C175.624 210.733 175.911 210.446 176.198 210.159C176.485 209.872 176.485 209.585 176.485 209.298C176.485 209.011 176.485 208.436 176.198 207.575L175.911 205.852L173.042 206.427Z" fill="white"/>
<path d="M568.209 459.651C560.747 437.831 552.425 413.141 535.781 395.34C532.05 391.321 528.032 387.875 523.441 384.43C522.006 383.282 520.571 382.421 518.849 381.559C494.169 366.63 464.898 369.501 443.087 388.737C428.452 401.656 405.494 468.838 386.84 477.739C315.383 485.49 271.476 543.485 294.147 600.044C294.721 601.48 295.295 602.628 295.869 604.064C321.123 657.178 404.633 645.981 441.94 645.981C474.655 645.981 509.666 644.545 536.641 625.883C559.6 610.093 573.661 585.402 579.114 560.137C586.575 525.972 579.114 491.52 568.209 459.651Z" fill="#C8D3FB"/>
<path opacity="0.08" d="M568.209 459.651C560.748 437.831 552.426 413.14 535.781 395.34C561.896 443.573 581.697 523.388 543.529 595.45C527.459 625.596 491.874 634.783 416.112 634.783C379.953 634.783 309.357 617.27 296.156 604.063C321.41 657.177 404.92 645.98 442.227 645.98C474.942 645.98 509.953 644.545 536.929 625.883C559.887 610.093 573.949 585.402 579.401 560.137C586.576 525.972 579.114 491.519 568.209 459.651Z" fill="black"/>
<path opacity="0.08" d="M508.523 474.581C509.959 474.006 510.82 473.432 510.82 473.432C509.959 474.006 509.385 474.293 508.523 474.581Z" fill="black"/>
<path opacity="0.08" d="M374.789 511.042C403.487 500.706 443.95 510.181 456.003 513.339C472.074 492.955 499.91 478.887 508.233 474.867C483.266 486.925 465.76 514.487 465.76 514.487L458.873 526.546C424.436 526.259 379.668 542.623 379.668 542.623C392.295 533.149 424.149 524.249 445.385 519.081C421.853 508.745 374.789 511.042 374.789 511.042Z" fill="black"/>
<path d="M437.635 451.325C397.458 450.751 320.835 452.187 316.244 453.048C304.765 455.345 289.555 474.006 311.652 484.629C330.306 493.529 445.096 536.595 461.167 484.342C466.906 465.393 449.688 451.612 437.635 451.325Z" fill="#3B31A1"/>
<path d="M323.706 469.699C322.272 471.422 305.627 482.044 311.653 484.915C330.307 493.816 445.097 536.881 461.168 484.628C463.751 476.302 462.029 469.125 458.298 463.383C452.846 464.818 331.742 460.225 323.706 469.699Z" fill="#1C0A76"/>
<path d="M429.599 517.072C405.206 515.349 364.742 507.597 335.184 510.181C305.625 512.765 310.504 484.055 330.305 478.887C350.68 473.432 391.718 462.522 419.267 459.938C446.817 457.641 458.009 459.938 471.21 466.541C484.411 473.145 489.003 520.804 429.599 517.072Z" fill="#4135B0"/>
<path d="M467.48 315.813C470.063 323.277 466.045 331.029 458.584 333.613C451.122 336.197 443.374 332.177 440.791 324.713C438.209 317.248 442.226 309.496 449.688 306.912C457.149 304.616 464.897 308.635 467.48 315.813Z" fill="#1C0A76"/>
<path d="M443.092 318.109C451.128 317.822 460.885 315.525 474.086 327.871C487.287 340.216 481.834 352.274 488.722 365.194C495.896 378.114 507.662 391.895 504.218 419.456C501.349 442.712 493.313 459.077 455.432 456.78C417.552 454.483 418.7 410.843 424.726 396.775C431.039 382.707 437.927 378.401 425.013 365.481C410.951 351.7 420.995 319.258 443.092 318.109Z" fill="#1C0A76"/>
<path d="M438.497 397.637C433.045 410.556 402.912 439.841 394.303 445.008C385.407 450.463 374.502 445.87 377.658 437.257C380.241 430.079 417.835 386.44 420.992 382.994C427.879 375.243 444.524 383.569 438.497 397.637Z" fill="#FFD2A7"/>
<path d="M422.142 422.04C434.195 406.824 440.222 399.934 441.37 396.488C445.388 382.42 425.586 372.946 415.255 386.153C411.237 391.32 409.516 394.479 400.906 407.111C410.089 417.447 418.412 421.753 422.142 422.04Z" fill="#D35600"/>
<path d="M462.888 358.304C462.888 358.304 456.575 382.708 466.619 383.282C472.358 383.569 480.107 384.718 482.402 389.311C484.124 393.044 481.254 399.073 478.672 406.824C472.071 426.922 469.775 432.09 468.628 438.119C465.471 455.632 474.654 469.413 474.654 469.413C474.654 469.413 441.939 470.848 412.954 455.919C412.954 455.919 422.998 451.325 422.998 440.99C422.998 436.396 420.416 430.08 417.833 426.347C417.833 426.347 409.511 426.06 408.937 417.16C408.363 408.26 416.111 402.805 417.259 398.211C418.694 393.331 418.694 384.43 424.146 380.411C428.164 377.54 443.948 386.153 443.948 369.788C444.809 352.849 461.74 353.136 462.888 358.304Z" fill="#FFD2A7"/>
<path d="M477.239 472.57C477.239 472.57 422.713 472.57 410.947 451.037C410.947 451.037 425.87 437.831 418.122 426.347C418.122 426.347 409.8 426.059 409.226 417.159C408.652 408.259 416.4 402.804 417.548 398.211C418.983 393.33 418.983 384.43 424.435 380.41C425.583 379.549 427.592 379.836 430.175 379.836C429.601 388.162 432.471 395.34 438.497 398.498C447.68 403.378 461.168 396.775 468.343 383.281C473.795 383.855 480.396 385.004 482.404 389.31C484.126 393.043 469.778 432.089 468.63 438.118C466.047 455.631 477.239 472.57 477.239 472.57Z" fill="url(#paint12_linear_1824_18720)"/>
<path d="M475.23 469.125C475.23 469.125 448.255 465.967 448.255 449.889C448.255 446.157 449.69 435.247 449.69 435.247C454.281 434.386 458.299 431.514 459.734 426.634C461.742 420.317 458.299 412.279 451.411 410.556L445.672 408.833C456.29 405.675 456.29 401.656 467.195 385.578C467.769 384.717 468.63 383.855 468.63 382.994C473.795 383.568 480.683 385.004 482.692 389.023C484.414 392.756 481.544 398.785 478.961 406.537C472.361 426.634 470.065 431.802 468.917 437.831C466.047 455.631 475.23 469.125 475.23 469.125Z" fill="#D35600"/>
<path d="M462.895 404.815C467.773 414.576 482.122 453.335 486.14 460.513C491.018 469.413 502.784 465.968 503.645 456.78C504.219 449.029 487.862 393.331 483.844 388.737C476.956 380.124 460.025 398.499 462.895 404.815Z" fill="#FFD2A7"/>
<path d="M487.861 456.78C486.426 453.909 485.565 451.038 484.417 448.166C482.122 442.424 478.965 437.257 476.382 431.515C471.504 420.605 466.051 404.527 472.077 393.33C473.799 390.172 476.095 387.875 478.678 386.439C470.93 386.727 460.311 399.646 462.607 404.814C467.486 414.575 480.4 449.028 484.417 456.205C485.852 458.789 487.861 460.512 490.157 461.373C489.583 459.938 488.722 458.215 487.861 456.78Z" fill="#FFBC8E"/>
<path d="M426.446 337.919C426.446 337.919 424.438 345.384 428.168 352.561C428.168 352.561 421.568 362.897 434.195 371.51C446.822 380.123 460.309 367.778 462.605 356.007C462.605 356.007 472.362 356.294 470.928 347.681C469.78 339.068 464.327 340.216 458.875 342.8C458.875 342.8 446.248 325 439.36 326.148C432.473 327.871 427.594 329.88 426.446 337.919Z" fill="#FFD2A7"/>
<path d="M470.927 347.968C469.779 339.355 464.327 340.503 458.874 343.087C458.874 343.087 446.247 325.287 439.36 326.435C433.907 327.584 429.603 329.019 427.594 333.9C431.611 331.603 452.274 344.523 455.43 354.858C458.587 365.481 449.117 375.243 438.786 373.233C437.638 372.946 436.203 372.659 435.055 372.084C447.395 379.836 460.596 367.778 462.605 356.007C462.318 356.294 472.075 356.581 470.927 347.968Z" fill="#FFBC8E"/>
<path d="M499.05 450.464C486.136 443.573 454.569 438.405 447.394 433.525C442.803 430.367 428.454 439.841 438.211 442.138C447.968 444.435 472.935 460.799 486.71 465.967C500.198 470.848 507.659 455.057 499.05 450.464Z" fill="#FFD2A7"/>
<path d="M395.741 431.515C385.41 421.179 346.668 405.962 342.651 398.211C338.633 390.459 341.503 383.568 332.319 382.707C323.136 381.846 320.553 384.143 317.397 389.311C314.527 394.765 321.988 399.933 331.171 403.953C340.355 407.685 368.765 438.692 379.096 445.008C391.723 452.76 402.628 438.692 395.741 431.515Z" fill="#FFD2A7"/>
<path d="M442.8 328.158C442.8 328.158 439.356 327.296 433.042 334.761C427.016 342.226 415.25 345.097 415.25 345.097C415.25 345.097 422.137 320.119 442.8 328.158Z" fill="#1C0A76"/>
<path d="M438.498 325.574C436.202 328.732 437.637 335.91 447.107 341.652C456.578 347.394 456.865 357.73 461.169 350.839C465.474 343.949 465.187 343.087 463.752 335.91C462.317 328.445 443.377 318.684 438.498 325.574Z" fill="#1C0A76"/>
<path d="M414.394 448.167H299.891V454.196H414.394V448.167Z" fill="#C8D3FB"/>
<path d="M414.391 454.196H467.194V450.751C467.194 449.315 466.046 448.167 464.611 448.167H414.678V454.196H414.391Z" fill="#C8D3FB"/>
<path d="M303.329 448.167H417.259L402.336 377.827C401.762 375.817 400.327 374.382 398.318 374.382H295.581C291.563 374.382 288.407 378.401 289.268 382.708L303.329 448.167Z" fill="#C8D3FB"/>
<path d="M300.461 448.167H414.39L399.467 377.827C398.893 375.817 397.172 374.382 395.45 374.382H290.704C287.834 374.382 285.538 377.253 286.112 380.411L300.461 448.167Z" fill="url(#paint13_linear_1824_18720)"/>
<path opacity="0.34" d="M345.227 374.382L313.086 448.167H327.722L361.011 374.382H345.227Z" fill="#DAE7FF"/>
<path opacity="0.34" d="M369.337 374.382L337.195 448.167H342.935L376.224 374.382H369.337Z" fill="#DAE7FF"/>
<path d="M274.064 632.774C292.718 625.883 289.274 610.38 291.857 599.47L308.501 605.499C308.501 605.499 302.188 622.151 303.049 634.783C303.91 647.416 300.179 646.267 300.179 646.267H257.133C257.42 646.555 261.724 637.367 274.064 632.774Z" fill="#FFD2A7"/>
<path d="M274.066 632.773C277.797 631.625 280.954 628.754 283.824 625.309C285.546 622.725 294.155 625.596 295.59 630.19C295.59 630.19 299.033 632.773 303.051 632.199C303.051 633.061 303.051 633.922 303.338 634.496C305.634 646.554 300.468 645.98 300.468 645.98H257.422C257.422 646.554 261.44 637.08 274.066 632.773Z" fill="#1C0A76"/>
<path d="M345.514 504.726C344.94 519.368 307.634 615.26 307.634 615.26C307.634 615.26 296.155 617.27 288.406 609.231C288.406 609.231 309.355 498.697 311.651 490.945C313.086 484.916 346.375 480.896 345.514 504.726Z" fill="#4135B0"/>
<path d="M272.341 583.105L260.002 576.215C253.975 591.431 245.079 601.767 231.017 583.68C224.417 575.354 212.938 581.096 212.938 581.096L246.514 624.448C246.514 624.448 251.679 627.319 256.845 613.251C262.584 598.035 272.341 583.105 272.341 583.105Z" fill="#FFD2A7"/>
<path d="M243.642 601.767C243.929 597.173 251.103 596.312 248.52 592.293C243.642 594.59 237.902 592.867 230.728 583.68C224.127 575.354 212.648 581.096 212.648 581.096L246.225 624.448C246.225 624.448 251.103 627.319 256.269 614.4C252.538 610.093 243.068 608.945 243.642 601.767Z" fill="#1C0A76"/>
<path d="M307.348 536.882C293.573 556.405 271.763 594.589 271.763 594.589C271.763 594.589 262.867 596.025 253.109 587.124C253.109 587.124 294.434 469.125 305.052 460.225C315.096 451.612 368.761 449.602 307.348 536.882Z" fill="#3B31A1"/>
<path d="M416.977 442.424C420.134 440.128 423.003 437.831 420.42 439.266C417.264 441.276 413.533 438.692 416.69 436.682C420.42 434.098 424.725 430.94 429.03 429.792C433.908 428.356 444.239 431.802 448.831 434.386C450.553 435.247 449.979 443.573 448.544 444.147C443.666 446.444 437.926 444.147 437.065 444.434C435.056 445.87 434.482 447.018 432.76 448.454C430.752 450.463 426.16 449.028 428.169 447.018C429.604 445.87 428.743 445.295 426.734 447.018C424.151 449.315 419.56 447.305 422.142 445.295C423.29 444.434 423.29 443.573 421.855 444.721C418.986 447.018 414.107 444.721 416.977 442.424Z" fill="#FFD2A7"/>
<path d="M496.468 421.18C491.015 402.518 489.007 393.618 486.711 390.747C477.528 379.263 458.3 390.173 463.179 406.25C465.188 412.567 466.623 415.725 472.075 430.08C485.85 428.07 494.172 423.764 496.468 421.18Z" fill="url(#paint14_linear_1824_18720)"/>
<path d="M476.954 385.291C476.954 385.291 467.197 389.885 469.78 404.814C472.363 420.03 479.25 428.356 479.25 428.356L471.789 429.505L464.04 409.121C464.04 409.408 454.857 389.31 476.954 385.291Z" fill="#D35600"/>
</g>
<defs>
<linearGradient id="paint0_linear_1824_18720" x1="41.7748" y1="447.168" x2="727.485" y2="230.509" gradientUnits="userSpaceOnUse">
<stop stop-color="white"/>
<stop offset="1" stop-color="#D3DBEB"/>
</linearGradient>
<linearGradient id="paint1_linear_1824_18720" x1="17.633" y1="370.77" x2="703.349" y2="154.109" gradientUnits="userSpaceOnUse">
<stop stop-color="white"/>
<stop offset="1" stop-color="#D3DBEB"/>
</linearGradient>
<linearGradient id="paint2_linear_1824_18720" x1="400.591" y1="64.3411" x2="650.083" y2="64.3411" gradientUnits="userSpaceOnUse">
<stop stop-color="#6A6AE8"/>
<stop offset="1" stop-color="#312890"/>
</linearGradient>
<linearGradient id="paint3_linear_1824_18720" x1="427.65" y1="64.3407" x2="435.891" y2="64.3407" gradientUnits="userSpaceOnUse">
<stop stop-color="#FFAE00"/>
<stop offset="1" stop-color="#FF7800"/>
</linearGradient>
<linearGradient id="paint4_linear_1824_18720" x1="462.848" y1="123.437" x2="501.864" y2="123.437" gradientUnits="userSpaceOnUse">
<stop stop-color="#FFAE00"/>
<stop offset="1" stop-color="#FF7800"/>
</linearGradient>
<linearGradient id="paint5_linear_1824_18720" x1="530.988" y1="164.323" x2="570.005" y2="164.323" gradientUnits="userSpaceOnUse">
<stop stop-color="#FFAE00"/>
<stop offset="1" stop-color="#FF7800"/>
</linearGradient>
<linearGradient id="paint6_linear_1824_18720" x1="584.857" y1="96.3462" x2="633.462" y2="96.3462" gradientUnits="userSpaceOnUse">
<stop stop-color="#FFAE00"/>
<stop offset="1" stop-color="#FF7800"/>
</linearGradient>
<linearGradient id="paint7_linear_1824_18720" x1="178.744" y1="468.885" x2="246.693" y2="468.885" gradientUnits="userSpaceOnUse">
<stop stop-color="#6A6AE8"/>
<stop offset="1" stop-color="#312890"/>
</linearGradient>
<linearGradient id="paint8_linear_1824_18720" x1="115.949" y1="544.645" x2="166.133" y2="544.645" gradientUnits="userSpaceOnUse">
<stop stop-color="#6A6AE8"/>
<stop offset="1" stop-color="#312890"/>
</linearGradient>
<linearGradient id="paint9_linear_1824_18720" x1="99.1226" y1="221.724" x2="253.037" y2="221.724" gradientUnits="userSpaceOnUse">
<stop stop-color="#FFAE00"/>
<stop offset="1" stop-color="#FF7800"/>
</linearGradient>
<linearGradient id="paint10_linear_1824_18720" x1="43.8833" y1="272.402" x2="115.264" y2="272.402" gradientUnits="userSpaceOnUse">
<stop stop-color="#FFAE00"/>
<stop offset="1" stop-color="#FF7800"/>
</linearGradient>
<linearGradient id="paint11_linear_1824_18720" x1="252.761" y1="197.096" x2="324.401" y2="197.096" gradientUnits="userSpaceOnUse">
<stop stop-color="#FFAE00"/>
<stop offset="1" stop-color="#FF7800"/>
</linearGradient>
<linearGradient id="paint12_linear_1824_18720" x1="422.64" y1="464.605" x2="479.83" y2="386.392" gradientUnits="userSpaceOnUse">
<stop stop-color="#FFAE00"/>
<stop offset="1" stop-color="#FF7800"/>
</linearGradient>
<linearGradient id="paint13_linear_1824_18720" x1="289.275" y1="392.585" x2="526.764" y2="467.888" gradientUnits="userSpaceOnUse">
<stop stop-color="white"/>
<stop offset="1" stop-color="#D3DBEB"/>
</linearGradient>
<linearGradient id="paint14_linear_1824_18720" x1="432.921" y1="472.118" x2="490.109" y2="393.909" gradientUnits="userSpaceOnUse">
<stop stop-color="#FFAE00"/>
<stop offset="1" stop-color="#FF7800"/>
</linearGradient>
<clipPath id="clip0_1824_18720">
<rect width="650" height="650" fill="white"/>
</clipPath>
</defs>
</svg>
