<svg width="430" height="300" viewBox="0 0 430 300" fill="none" xmlns="http://www.w3.org/2000/svg">
<g clip-path="url(#clip0_127_85054)">
<path d="M310.418 87.7535H191.857V2.91699H310.418V87.7535ZM192.613 86.9958H309.661V3.67466H192.613V86.9958Z" fill="white"/>
<path d="M195.14 0.378906H189.322V6.2054H195.14V0.378906Z" fill="#121936"/>
<path d="M195.518 6.58416H188.944V0H195.518V6.58416ZM189.7 5.82649H194.762V0.757671H189.7V5.82649Z" fill="white"/>
<path d="M312.763 0.598633H306.945V6.42513H312.763V0.598633Z" fill="#121936"/>
<path d="M313.141 6.80389H306.567V0.219727H313.141V6.80389ZM307.323 6.04622H312.385V0.977398H307.323V6.04622Z" fill="white"/>
<path d="M195.14 84.4578H189.322V90.2843H195.14V84.4578Z" fill="#121936"/>
<path d="M195.518 90.663H188.944V84.0789H195.518V90.663ZM189.7 89.9054H194.762V84.8365H189.7V89.9054Z" fill="white"/>
<path d="M312.763 84.4575H306.945V90.284H312.763V84.4575Z" fill="#121936"/>
<path d="M313.141 90.6628H306.567V84.0786H313.141V90.6628ZM307.323 89.9051H312.385V84.8363H307.323V89.9051Z" fill="white"/>
<path d="M427.314 216.285H310.583V132.759H427.314V216.285ZM311.34 215.527H426.557V133.517H311.34V215.527Z" fill="white"/>
<path d="M313.829 130.267H308.102V136.002H313.829V130.267Z" fill="#121936"/>
<path d="M314.208 136.381H307.724V129.888H314.208V136.381ZM308.481 135.623H313.451V130.645H308.481V135.623Z" fill="white"/>
<path d="M429.621 130.479H423.894V136.214H429.621V130.479Z" fill="#121936"/>
<path d="M430 136.593H423.516V130.1H430V136.593ZM424.273 135.835H429.243V130.858H424.273V135.835Z" fill="white"/>
<path d="M313.829 213.035H308.102V218.77H313.829V213.035Z" fill="#121936"/>
<path d="M314.208 219.149H307.724V212.656H314.208V219.149ZM308.481 218.391H313.451V213.413H308.481V218.391Z" fill="white"/>
<path d="M429.621 213.035H423.894V218.77H429.621V213.035Z" fill="#121936"/>
<path d="M430 219.149H423.516V212.656H430V219.149ZM424.273 218.391H429.243V213.413H424.273V218.391Z" fill="white"/>
<path d="M351.696 299.614L234.996 299.561C224.23 299.561 215.5 291.779 215.507 282.195L215.644 32.9134C215.644 23.3289 224.382 15.5627 235.148 15.5627L351.847 15.6158C362.613 15.6158 371.337 23.3971 371.337 32.9816L371.2 282.263C371.2 291.848 362.462 299.614 351.696 299.614Z" fill="#1048C6"/>
<path d="M351.711 299.993H351.703L235.004 299.939C229.7 299.939 224.722 298.098 220.969 294.757C217.209 291.408 215.136 286.945 215.136 282.195L215.272 32.9133C215.272 23.1394 224.192 15.1838 235.147 15.1838H235.155L351.855 15.2369C357.158 15.2369 362.136 17.078 365.889 20.4193C369.649 23.7758 371.722 28.2309 371.722 32.9815L371.586 282.263C371.586 292.037 362.666 299.993 351.711 299.993ZM351.703 299.235H351.711C362.25 299.235 370.822 291.628 370.829 282.263L370.965 32.9815C370.965 28.4582 368.991 24.2001 365.39 20.9876C361.781 17.7675 356.969 15.9945 351.855 15.9945L235.155 15.9415H235.147C224.608 15.9415 216.037 23.5561 216.029 32.9133L215.893 282.195C215.893 286.718 217.867 290.984 221.469 294.189C225.077 297.409 229.889 299.182 235.004 299.182L351.703 299.235Z" fill="#121936"/>
<path d="M347.232 295.083L239.657 295.037C229.73 295.037 221.688 287.514 221.696 278.247L221.832 37.2397C221.832 27.9734 229.889 20.4648 239.815 20.4648L347.391 20.5103C357.317 20.5103 365.36 28.034 365.352 37.3003L365.216 278.308C365.216 287.574 357.158 295.083 347.232 295.083Z" fill="#121936"/>
<path opacity="0.89" d="M273.611 38.4446C273.073 38.4446 272.567 38.2551 272.181 37.9066C271.787 37.5505 271.568 37.0732 271.568 36.5655C271.568 36.0579 271.787 35.5806 272.181 35.2245C272.567 34.8835 273.073 34.6941 273.603 34.6941C274.14 34.6941 274.647 34.8835 275.033 35.232C275.426 35.5881 275.646 36.0655 275.646 36.5731H275.267H275.646C275.646 37.6035 274.73 38.4446 273.611 38.4446ZM273.611 35.4593C273.263 35.4593 272.937 35.5806 272.688 35.8003C272.453 36.0124 272.324 36.2852 272.324 36.5731C272.324 36.861 272.453 37.1414 272.688 37.3459C272.93 37.5657 273.255 37.6869 273.611 37.6869C274.314 37.6869 274.889 37.1868 274.889 36.5731C274.889 36.2852 274.761 36.0049 274.526 35.8003C274.284 35.5806 273.959 35.4593 273.603 35.4593H273.611Z" fill="white"/>
<path opacity="0.89" d="M266.295 37.5202C265.735 37.5202 265.281 37.0959 265.281 36.5731C265.281 36.0503 265.735 35.626 266.295 35.626C266.854 35.626 267.308 36.0503 267.308 36.5731C267.308 37.0959 266.854 37.5202 266.295 37.5202ZM266.295 36.3836C266.158 36.3836 266.037 36.4746 266.037 36.5731C266.037 36.7776 266.544 36.7776 266.544 36.5731C266.544 36.467 266.431 36.3836 266.287 36.3836H266.295Z" fill="white"/>
<path opacity="0.89" d="M306.317 37.952L280.858 37.9369C280.041 37.9369 279.375 37.3156 279.375 36.5579C279.375 36.1791 279.534 35.8305 279.822 35.5729C280.102 35.3229 280.465 35.1865 280.858 35.1865L306.317 35.2017C306.703 35.2017 307.073 35.3381 307.353 35.5881C307.641 35.8457 307.8 36.2018 307.8 36.5731C307.8 37.3307 307.134 37.9444 306.317 37.9444V37.952ZM280.858 35.9518C280.654 35.9518 280.465 36.02 280.329 36.1488C280.2 36.2624 280.132 36.414 280.132 36.5731C280.132 36.914 280.457 37.1944 280.858 37.1944L306.317 37.2095C306.718 37.2095 307.043 36.9292 307.043 36.5958C307.043 36.4367 306.975 36.2851 306.846 36.1715C306.71 36.0427 306.521 35.9745 306.317 35.9745L280.858 35.9593V35.9518Z" fill="white"/>
<path d="M307.248 286.794L279.648 286.779C278.423 286.779 277.265 286.301 276.395 285.43C275.525 284.559 275.048 283.399 275.048 282.172V281.975C275.048 279.437 277.114 277.376 279.648 277.376L307.248 277.391C308.473 277.391 309.631 277.868 310.501 278.74C311.371 279.611 311.848 280.77 311.848 281.998V282.195C311.848 284.733 309.782 286.794 307.248 286.794ZM279.648 278.134C277.53 278.134 275.805 279.861 275.805 281.975V282.172C275.805 283.202 276.206 284.165 276.932 284.892C277.658 285.619 278.619 286.021 279.648 286.021L307.248 286.036C309.366 286.036 311.091 284.309 311.091 282.195V281.998C311.091 280.967 310.69 280.005 309.964 279.278C309.237 278.55 308.277 278.149 307.248 278.149L279.648 278.134Z" fill="white"/>
<path d="M361.047 52.0144H226.56V266.208H361.047V52.0144Z" fill="white"/>
<path opacity="0.81" d="M365.337 52.0066H221.764V266.2H365.337V52.0066Z" fill="white"/>
<path opacity="0.69" d="M350.538 99.52L291.738 99.4291C291.526 99.4291 291.36 99.2624 291.36 99.0502C291.36 98.8381 291.526 98.6714 291.738 98.6714L350.538 98.7623C350.75 98.7623 350.916 98.929 350.916 99.1412C350.916 99.3533 350.75 99.52 350.538 99.52Z" fill="#353148"/>
<path opacity="0.69" d="M321.1 125.364L291.7 125.319C291.488 125.319 291.322 125.152 291.322 124.94C291.322 124.728 291.488 124.561 291.7 124.561L321.1 124.607C321.312 124.607 321.478 124.773 321.478 124.986C321.478 125.198 321.312 125.364 321.1 125.364Z" fill="#353148"/>
<path opacity="0.69" d="M308.806 107.225L291.716 107.195C291.504 107.195 291.337 107.028 291.337 106.816C291.337 106.604 291.504 106.438 291.716 106.438L308.806 106.468C309.018 106.468 309.185 106.635 309.185 106.847C309.185 107.059 309.018 107.225 308.806 107.225Z" fill="#353148"/>
<path opacity="0.69" d="M350.515 107.286L312.922 107.256C312.71 107.256 312.543 107.089 312.543 106.877C312.543 106.665 312.71 106.498 312.922 106.498L350.515 106.529C350.727 106.529 350.894 106.695 350.894 106.907C350.894 107.12 350.727 107.286 350.515 107.286Z" fill="#353148"/>
<path opacity="0.69" d="M324.959 116.416L291.723 116.386C291.512 116.386 291.345 116.219 291.345 116.007C291.345 115.795 291.512 115.628 291.723 115.628L324.959 115.658C325.171 115.658 325.338 115.825 325.338 116.037C325.338 116.249 325.171 116.416 324.959 116.416Z" fill="#353148"/>
<path opacity="0.69" d="M350.516 116.469L328.56 116.439C328.349 116.439 328.182 116.272 328.182 116.06C328.182 115.848 328.349 115.681 328.56 115.681L350.516 115.712C350.728 115.712 350.894 115.878 350.894 116.091C350.894 116.303 350.728 116.469 350.516 116.469Z" fill="#353148"/>
<path opacity="0.69" d="M350.538 73.9714L291.738 73.8805C291.526 73.8805 291.36 73.7138 291.36 73.5016C291.36 73.2895 291.526 73.1228 291.738 73.1228L350.538 73.2137C350.75 73.2137 350.916 73.3804 350.916 73.5926C350.916 73.8047 350.75 73.9714 350.538 73.9714Z" fill="#353148"/>
<path opacity="0.69" d="M308.806 81.6769L291.716 81.6466C291.504 81.6466 291.337 81.4799 291.337 81.2678C291.337 81.0556 291.504 80.8889 291.716 80.8889L308.806 80.9192C309.018 80.9192 309.185 81.0859 309.185 81.2981C309.185 81.5102 309.018 81.6769 308.806 81.6769Z" fill="#353148"/>
<path opacity="0.69" d="M350.515 81.7374L312.922 81.7071C312.71 81.7071 312.543 81.5404 312.543 81.3283C312.543 81.1162 312.71 80.9495 312.922 80.9495L350.515 80.9798C350.727 80.9798 350.894 81.1465 350.894 81.3586C350.894 81.5708 350.727 81.7374 350.515 81.7374Z" fill="#353148"/>
<path opacity="0.69" d="M324.959 90.8673L291.723 90.837C291.512 90.837 291.345 90.6703 291.345 90.4582C291.345 90.246 291.512 90.0793 291.723 90.0793L324.959 90.1097C325.171 90.1097 325.338 90.2763 325.338 90.4885C325.338 90.7006 325.171 90.8673 324.959 90.8673Z" fill="#353148"/>
<path opacity="0.69" d="M350.516 90.9205L328.56 90.8902C328.349 90.8902 328.182 90.7236 328.182 90.5114C328.182 90.2993 328.349 90.1326 328.56 90.1326L350.516 90.1629C350.728 90.1629 350.894 90.3296 350.894 90.5417C350.894 90.7539 350.728 90.9205 350.516 90.9205Z" fill="#353148"/>
<path d="M282.478 68.2737H239.407V130.282H282.478V68.2737Z" fill="#FFC0C0"/>
<path d="M282.478 68.2737H239.407V82.8816H282.478V68.2737Z" fill="#708CF5"/>
<path d="M312.438 196.79H239.165V141.715H312.438V196.79ZM239.921 196.032H311.681V142.473H239.921V196.032Z" fill="#121936"/>
<path d="M241.343 140.207H237.757V143.973H241.343V140.207Z" fill="#121936"/>
<path d="M313.747 140.351H310.161V144.117H313.747V140.351Z" fill="#121936"/>
<path d="M241.343 194.524H237.757V198.29H241.343V194.524Z" fill="#121936"/>
<path d="M313.747 194.524H310.161V198.29H313.747V194.524Z" fill="#121936"/>
<path d="M275.623 156.861H246.934C245.663 156.861 244.634 155.83 244.634 154.557C244.634 153.284 245.663 152.254 246.934 152.254H275.623C276.894 152.254 277.923 153.284 277.923 154.557C277.923 155.83 276.894 156.861 275.623 156.861Z" fill="#708CF5"/>
<path d="M275.623 175.711H246.934C245.663 175.711 244.634 174.681 244.634 173.408C244.634 172.135 245.663 171.105 246.934 171.105H275.623C276.894 171.105 277.923 172.135 277.923 173.408C277.923 174.681 276.894 175.711 275.623 175.711Z" fill="#F9CAD0"/>
<path d="M282.704 165.953H264.918C263.647 165.953 262.618 164.922 262.618 163.649C262.618 162.376 263.647 161.346 264.918 161.346H282.704C283.975 161.346 285.004 162.376 285.004 163.649C285.004 164.922 283.975 165.953 282.704 165.953Z" fill="#708CF5"/>
<path d="M293.281 156.861H284.044C282.773 156.861 281.744 155.83 281.744 154.557C281.744 153.284 282.773 152.254 284.044 152.254H293.281C294.552 152.254 295.581 153.284 295.581 154.557C295.581 155.83 294.552 156.861 293.281 156.861Z" fill="#F9CAD0"/>
<path d="M273.111 186.084H246.934C245.663 186.084 244.634 185.053 244.634 183.781C244.634 182.508 245.663 181.477 246.934 181.477H273.111C274.382 181.477 275.411 182.508 275.411 183.781C275.411 185.053 274.382 186.084 273.111 186.084Z" fill="#708CF5"/>
<path d="M289.438 186.084H281.245C279.974 186.084 278.945 185.054 278.945 183.781C278.945 182.508 279.974 181.478 281.245 181.478H289.438C290.709 181.478 291.738 182.508 291.738 183.781C291.738 185.054 290.709 186.084 289.438 186.084Z" fill="#F9CAD0"/>
<path d="M256.172 165.953H246.934C245.663 165.953 244.634 164.922 244.634 163.649C244.634 162.376 245.663 161.346 246.934 161.346H256.172C257.443 161.346 258.472 162.376 258.472 163.649C258.472 164.922 257.443 165.953 256.172 165.953Z" fill="#F9CAD0"/>
<path d="M305.712 211.625H240.178C239.581 211.625 239.096 212.11 239.096 212.708V248.584C239.096 249.183 239.581 249.668 240.178 249.668H305.712C306.309 249.668 306.793 249.183 306.793 248.584V212.708C306.793 212.11 306.309 211.625 305.712 211.625Z" fill="#4268FF"/>
<path d="M254.697 239.416C260.363 239.416 264.956 234.816 264.956 229.142C264.956 223.468 260.363 218.868 254.697 218.868C249.031 218.868 244.438 223.468 244.438 229.142C244.438 234.816 249.031 239.416 254.697 239.416Z" fill="white"/>
<path d="M297.314 221.391H272.521C272.31 221.391 272.143 221.225 272.143 221.012C272.143 220.8 272.31 220.634 272.521 220.634H297.314C297.526 220.634 297.692 220.8 297.692 221.012C297.692 221.225 297.526 221.391 297.314 221.391Z" fill="white"/>
<path d="M301.491 235.545H287.827C287.615 235.545 287.449 235.378 287.449 235.166C287.449 234.954 287.615 234.787 287.827 234.787H301.491C301.702 234.787 301.869 234.954 301.869 235.166C301.869 235.378 301.702 235.545 301.491 235.545Z" fill="white"/>
<path d="M284.543 240.659H270.88C270.668 240.659 270.501 240.492 270.501 240.28C270.501 240.068 270.668 239.901 270.88 239.901H284.543C284.755 239.901 284.922 240.068 284.922 240.28C284.922 240.492 284.755 240.659 284.543 240.659Z" fill="white"/>
<path d="M286.2 230.62H270.88C270.668 230.62 270.501 230.453 270.501 230.241C270.501 230.029 270.668 229.862 270.88 229.862H286.2C286.412 229.862 286.578 230.029 286.578 230.241C286.578 230.453 286.412 230.62 286.2 230.62Z" fill="white"/>
<path d="M300.704 230.62H290.641C290.43 230.62 290.263 230.453 290.263 230.241C290.263 230.029 290.43 229.862 290.641 229.862H300.704C300.916 229.862 301.082 230.029 301.082 230.241C301.082 230.453 300.916 230.62 300.704 230.62Z" fill="#9DD3FF"/>
<path d="M280.201 235.545H270.191C269.979 235.545 269.813 235.378 269.813 235.166C269.813 234.954 269.979 234.787 270.191 234.787H280.201C280.412 234.787 280.579 234.954 280.579 235.166C280.579 235.378 280.412 235.545 280.201 235.545Z" fill="#9DD3FF"/>
<path d="M380.786 206.639H316.123V255.077H380.786V206.639Z" fill="white"/>
<g opacity="0.48">
<path d="M381.171 255.456H315.751V206.261H381.171V255.456ZM316.508 254.699H380.415V207.018H316.508V254.699Z" fill="#121936"/>
<path d="M317.719 204.965H314.526V208.322H317.719V204.965Z" fill="#121936"/>
<path d="M382.284 205.086H379.091V208.443H382.284V205.086Z" fill="#121936"/>
<path d="M317.719 253.396H314.526V256.752H317.719V253.396Z" fill="#121936"/>
<path d="M382.284 253.395H379.091V256.752H382.284V253.395Z" fill="#121936"/>
</g>
<path d="M354.033 218.611H325.344C324.073 218.611 323.044 217.58 323.044 216.307C323.044 215.035 324.073 214.004 325.344 214.004H354.033C355.304 214.004 356.333 215.035 356.333 216.307C356.333 217.58 355.304 218.611 354.033 218.611Z" fill="#708CF5"/>
<path d="M354.033 237.454H325.344C324.073 237.454 323.044 236.424 323.044 235.151C323.044 233.878 324.073 232.847 325.344 232.847H354.033C355.304 232.847 356.333 233.878 356.333 235.151C356.333 236.424 355.304 237.454 354.033 237.454Z" fill="#F9CAD0"/>
<path d="M361.115 227.695H343.328C342.057 227.695 341.028 226.665 341.028 225.392C341.028 224.119 342.057 223.089 343.328 223.089H361.115C362.386 223.089 363.415 224.119 363.415 225.392C363.415 226.665 362.386 227.695 361.115 227.695Z" fill="#708CF5"/>
<path d="M371.691 218.611H362.454C361.183 218.611 360.154 217.58 360.154 216.307C360.154 215.035 361.183 214.004 362.454 214.004H371.691C372.962 214.004 373.991 215.035 373.991 216.307C373.991 217.58 372.962 218.611 371.691 218.611Z" fill="#F9CAD0"/>
<path d="M351.521 247.827H325.344C324.073 247.827 323.044 246.796 323.044 245.523C323.044 244.25 324.073 243.22 325.344 243.22H351.521C352.792 243.22 353.821 244.25 353.821 245.523C353.821 246.796 352.792 247.827 351.521 247.827Z" fill="#708CF5"/>
<path d="M367.849 247.827H359.655C358.384 247.827 357.355 246.796 357.355 245.523C357.355 244.25 358.384 243.22 359.655 243.22H367.849C369.12 243.22 370.148 244.25 370.148 245.523C370.148 246.796 369.12 247.827 367.849 247.827Z" fill="#F9CAD0"/>
<path d="M334.582 227.703H325.344C324.073 227.703 323.044 226.672 323.044 225.399C323.044 224.127 324.073 223.096 325.344 223.096H334.582C335.853 223.096 336.882 224.127 336.882 225.399C336.882 226.672 335.853 227.703 334.582 227.703Z" fill="#F9CAD0"/>
<path d="M394.517 81.1389H346.347C345.75 81.1389 345.265 81.624 345.265 82.2224V124.614C345.265 125.212 345.75 125.698 346.347 125.698H394.517C395.115 125.698 395.599 125.212 395.599 124.614V82.2224C395.599 81.624 395.115 81.1389 394.517 81.1389Z" fill="#4268FF"/>
<path d="M353.103 88.4278C353.004 88.4278 352.906 88.3899 352.838 88.3141L349.35 84.8213C349.199 84.6697 349.199 84.4349 349.35 84.2833C349.502 84.1318 349.736 84.1318 349.887 84.2833L353.375 87.7762C353.527 87.9277 353.527 88.1626 353.375 88.3141C353.3 88.3899 353.201 88.4278 353.11 88.4278H353.103Z" fill="white"/>
<path d="M349.615 88.4278C349.517 88.4278 349.418 88.3899 349.35 88.3141C349.199 88.1626 349.199 87.9277 349.35 87.7762L352.838 84.2833C352.989 84.1318 353.224 84.1318 353.375 84.2833C353.527 84.4349 353.527 84.6697 353.375 84.8213L349.887 88.3141C349.812 88.3899 349.713 88.4278 349.623 88.4278H349.615Z" fill="white"/>
<path d="M361.72 108.18L357.135 103.801L361.72 99.4365H363.906L359.307 103.801L363.906 108.18H361.72Z" fill="white"/>
<path d="M374.029 92.822L368.817 114.007H367.107L372.297 92.822H374.029Z" fill="white"/>
<path d="M376.942 99.4365H379.128L383.728 103.801L379.128 108.18H376.942L381.542 103.801L376.942 99.4365Z" fill="white"/>
<path d="M411.737 146.981H301.786C301.188 146.981 300.704 147.466 300.704 148.064V190.456C300.704 191.054 301.188 191.539 301.786 191.539H411.737C412.334 191.539 412.819 191.054 412.819 190.456V148.064C412.819 147.466 412.334 146.981 411.737 146.981Z" fill="#4268FF"/>
<path d="M308.541 154.27C308.443 154.27 308.345 154.232 308.277 154.156L304.789 150.663C304.637 150.512 304.637 150.277 304.789 150.125C304.94 149.974 305.175 149.974 305.326 150.125L308.814 153.618C308.965 153.77 308.965 154.004 308.814 154.156C308.738 154.232 308.64 154.27 308.549 154.27H308.541Z" fill="white"/>
<path d="M305.054 154.27C304.955 154.27 304.857 154.232 304.789 154.156C304.637 154.004 304.637 153.77 304.789 153.618L308.277 150.125C308.428 149.974 308.662 149.974 308.814 150.125C308.965 150.277 308.965 150.512 308.814 150.663L305.326 154.156C305.25 154.232 305.152 154.27 305.061 154.27H305.054Z" fill="white"/>
<path d="M336.943 163.361H311.984C311.772 163.361 311.606 163.195 311.606 162.983C311.606 162.77 311.772 162.604 311.984 162.604H336.943C337.155 162.604 337.322 162.77 337.322 162.983C337.322 163.195 337.155 163.361 336.943 163.361Z" fill="white"/>
<path d="M365.685 163.361H343.434C343.223 163.361 343.056 163.195 343.056 162.983C343.056 162.77 343.223 162.604 343.434 162.604H365.685C365.897 162.604 366.063 162.77 366.063 162.983C366.063 163.195 365.897 163.361 365.685 163.361Z" fill="white"/>
<path d="M334.235 177.431H311.984C311.772 177.431 311.606 177.265 311.606 177.053C311.606 176.841 311.772 176.674 311.984 176.674H334.235C334.447 176.674 334.613 176.841 334.613 177.053C334.613 177.265 334.447 177.431 334.235 177.431Z" fill="white"/>
<path d="M355.289 169.999H333.039C332.827 169.999 332.661 169.832 332.661 169.62C332.661 169.408 332.827 169.241 333.039 169.241H355.289C355.501 169.241 355.668 169.408 355.668 169.62C355.668 169.832 355.501 169.999 355.289 169.999Z" fill="white"/>
<path d="M326.594 169.999H311.992C311.78 169.999 311.614 169.832 311.614 169.62C311.614 169.408 311.78 169.241 311.992 169.241H326.594C326.806 169.241 326.972 169.408 326.972 169.62C326.972 169.832 326.806 169.999 326.594 169.999Z" fill="white"/>
<path d="M350.054 177.431H341.074C340.862 177.431 340.696 177.265 340.696 177.053C340.696 176.841 340.862 176.674 341.074 176.674H350.054C350.266 176.674 350.433 176.841 350.433 177.053C350.433 177.265 350.266 177.431 350.054 177.431Z" fill="white"/>
<path d="M385 163.362H360.041C359.829 163.362 359.663 163.195 359.663 162.983C359.663 162.771 359.829 162.604 360.041 162.604H385C385.212 162.604 385.378 162.771 385.378 162.983C385.378 163.195 385.212 163.362 385 163.362Z" fill="white"/>
<path d="M397.786 163.362H378.01C377.798 163.362 377.631 163.195 377.631 162.983C377.631 162.771 377.798 162.604 378.01 162.604H397.786C397.998 162.604 398.164 162.771 398.164 162.983C398.164 163.195 397.998 163.362 397.786 163.362Z" fill="white"/>
<path d="M382.291 177.432H360.041C359.829 177.432 359.663 177.265 359.663 177.053C359.663 176.841 359.829 176.674 360.041 176.674H382.291C382.503 176.674 382.67 176.841 382.67 177.053C382.67 177.265 382.503 177.432 382.291 177.432Z" fill="white"/>
<path d="M403.346 169.999H381.096C380.884 169.999 380.717 169.832 380.717 169.62C380.717 169.408 380.884 169.241 381.096 169.241H403.346C403.558 169.241 403.724 169.408 403.724 169.62C403.724 169.832 403.558 169.999 403.346 169.999Z" fill="white"/>
<path d="M374.65 169.999H360.049C359.837 169.999 359.67 169.832 359.67 169.62C359.67 169.408 359.837 169.241 360.049 169.241H374.65C374.862 169.241 375.029 169.408 375.029 169.62C375.029 169.832 374.862 169.999 374.65 169.999Z" fill="white"/>
<path d="M398.111 177.432H389.131C388.919 177.432 388.752 177.265 388.752 177.053C388.752 176.841 388.919 176.674 389.131 176.674H398.111C398.323 176.674 398.489 176.841 398.489 177.053C398.489 177.265 398.323 177.432 398.111 177.432Z" fill="white"/>
<path d="M106.501 170.256H65.6011V140.844H106.501V170.256ZM66.3576 169.499H105.744V141.601H66.3576V169.499Z" fill="white"/>
<path d="M66.97 140.238H64.9878V142.223H66.97V140.238Z" fill="#121936"/>
<path d="M67.3486 142.601H64.6099V139.859H67.3486V142.601ZM65.3664 141.844H66.5921V140.616H65.3664V141.844Z" fill="white"/>
<path d="M107.053 140.306H105.071V142.291H107.053V140.306Z" fill="#121936"/>
<path d="M107.432 142.67H104.693V139.927H107.432V142.67ZM105.449 141.912H106.675V140.685H105.449V141.912Z" fill="white"/>
<path d="M66.97 168.885H64.9878V170.87H66.97V168.885Z" fill="#121936"/>
<path d="M67.3486 171.249H64.6099V168.506H67.3486V171.249ZM65.3664 170.491H66.5921V169.264H65.3664V170.491Z" fill="white"/>
<path d="M107.053 168.885H105.071V170.87H107.053V168.885Z" fill="#121936"/>
<path d="M107.432 171.249H104.693V168.506H107.432V171.249ZM105.449 170.491H106.675V169.264H105.449V170.491Z" fill="white"/>
<path d="M79.333 185.812H23.022C22.447 185.812 21.925 185.486 21.6678 184.978L0.536954 142.814C0.0300567 141.806 0.763923 140.616 1.8912 140.616H58.5578C59.1327 140.616 59.6623 140.942 59.912 141.457L80.6872 183.622C81.1865 184.63 80.4527 185.812 79.333 185.812Z" fill="white"/>
<path d="M79.3328 186.19H23.0218C22.3031 186.19 21.6524 185.789 21.3347 185.145L0.203862 142.988C-0.0911978 142.397 -0.0609353 141.707 0.287084 141.147C0.635102 140.586 1.23279 140.245 1.89856 140.245H58.5575C59.2839 140.245 59.9345 140.647 60.2522 141.298L81.0275 183.455C81.315 184.046 81.2847 184.736 80.9367 185.296C80.5887 185.857 79.991 186.19 79.3328 186.19ZM1.891 141.003C1.49758 141.003 1.13443 141.207 0.922596 141.541C0.710759 141.882 0.695627 142.291 0.877203 142.647L22.008 184.804C22.2047 185.19 22.5906 185.433 23.0218 185.433H79.3328C79.7262 185.433 80.0893 185.236 80.2936 184.895C80.5054 184.561 80.5206 184.145 80.3465 183.788L59.5713 141.624C59.3822 141.23 58.9888 140.988 58.5575 140.988H1.891V141.003Z" fill="#121936"/>
<path d="M110.624 185.652C110.624 184.107 109.376 182.857 107.833 182.857H77.7064L58.013 143.352C57.8844 143.094 57.6196 142.935 57.3397 142.935H1.61128C1.05142 142.935 0.680709 143.526 0.930374 144.033L21.8418 186.069C21.9704 186.327 22.2352 186.493 22.5227 186.486L78.1679 186.243C78.1679 186.243 78.1906 186.243 78.2057 186.243H110.617V185.667L110.624 185.652Z" fill="#121936"/>
<path d="M81.2395 184.205H84.7575C84.8104 184.205 84.8558 184.251 84.8558 184.304V185.031C84.8558 185.084 84.8104 185.13 84.7575 185.13H81.2395C81.1865 185.13 81.1411 185.084 81.1411 185.031V184.304C81.1411 184.251 81.1865 184.205 81.2395 184.205Z" fill="white"/>
<path d="M87.6477 184.205H91.1657C91.2186 184.205 91.264 184.251 91.264 184.304V185.031C91.264 185.084 91.2186 185.129 91.1657 185.129H87.6477C87.5947 185.129 87.5493 185.084 87.5493 185.031V184.304C87.5493 184.251 87.5947 184.205 87.6477 184.205Z" fill="white"/>
<path d="M40.4981 168.203C38.8715 169.832 35.8301 169.438 33.7117 167.317C31.5934 165.195 31.1924 162.149 32.8265 160.52C34.4607 158.891 37.4945 159.285 39.6129 161.407C41.7313 163.528 42.1323 166.574 40.4981 168.203Z" fill="white"/>
<path d="M37.911 169.574C36.4054 169.574 34.7561 168.885 33.4397 167.574C31.1776 165.309 30.7766 162.02 32.5545 160.24C34.3324 158.459 37.6159 158.861 39.878 161.126C42.1402 163.392 42.5411 166.68 40.7632 168.461C40.0142 169.211 39.0004 169.574 37.911 169.574ZM35.4143 159.884C34.514 159.884 33.6893 160.179 33.0917 160.778C31.6088 162.263 32.0098 165.066 33.9768 167.036C35.9439 169.006 38.7508 169.408 40.2336 167.923C41.7165 166.438 41.3155 163.634 39.3484 161.657C38.1833 160.49 36.7232 159.876 35.4219 159.876L35.4143 159.884Z" fill="#121936"/>
<path d="M38.4256 170.9C36.5342 170.9 34.446 170.029 32.7816 168.362C29.9294 165.506 29.4073 161.384 31.6165 159.172C33.8257 156.959 37.9414 157.482 40.7936 160.339C43.6458 163.195 44.1679 167.317 41.9587 169.529C41.0357 170.453 39.7798 170.9 38.4256 170.9ZM35.1496 158.179C33.8559 158.179 32.7135 158.619 31.8889 159.444C29.831 161.505 30.3455 165.392 33.054 168.097C34.3704 169.415 35.997 170.256 37.6387 170.476C39.2578 170.688 40.7028 170.256 41.6939 169.264C42.685 168.271 43.1163 166.832 42.9044 165.203C42.6926 163.559 41.8452 161.93 40.5288 160.611C39.2124 159.293 37.5858 158.452 35.944 158.232C35.6717 158.194 35.4069 158.179 35.1496 158.179Z" fill="white"/>
<path d="M18.6413 299.167C17.8545 299.167 17.1055 298.863 16.5457 298.303C15.9782 297.742 15.668 296.992 15.668 296.196L15.2065 194.994C15.2065 194.199 15.5092 193.449 16.069 192.88C16.6289 192.312 17.3779 192.002 18.1723 191.994L125.907 191.501H125.922C127.556 191.501 128.895 192.827 128.903 194.472L129.364 295.674C129.364 296.469 129.062 297.219 128.502 297.788C127.942 298.356 127.193 298.667 126.399 298.674L18.664 299.167H18.6489H18.6413ZM125.907 192.267H125.899L18.1647 192.759C17.5746 192.759 17.0147 192.994 16.5986 193.418C16.1825 193.843 15.9555 194.396 15.9555 194.994L16.417 296.196C16.417 296.787 16.6516 297.348 17.0753 297.765C17.4914 298.182 18.0512 298.409 18.6338 298.409H18.6413L126.376 297.916C126.966 297.916 127.526 297.682 127.942 297.257C128.358 296.833 128.585 296.28 128.585 295.681L128.124 194.479C128.124 193.259 127.125 192.267 125.899 192.267H125.907Z" fill="#121936"/>
<path d="M124.545 199.753L124.976 293.424C124.976 294.863 123.826 296.03 122.389 296.037L22.6434 296.492C21.206 296.492 20.0409 295.34 20.0333 293.901L19.6021 200.23C19.6021 198.79 20.752 197.624 22.1895 197.616L121.935 197.161C123.372 197.161 124.537 198.313 124.545 199.753Z" fill="white"/>
<path d="M128.857 188.539L128.887 194.805L15.1382 195.328L15.1079 188.933C15.1079 187.554 16.2125 186.44 17.5819 186.433L126.232 185.933C127.677 185.933 128.85 187.092 128.857 188.539Z" fill="#4268FF"/>
<path d="M20.7367 192.623C19.7456 192.623 18.936 191.812 18.936 190.82C18.936 189.827 19.7456 189.016 20.7367 189.016C21.7278 189.016 22.5373 189.827 22.5373 190.82C22.5373 191.812 21.7278 192.623 20.7367 192.623ZM20.7367 189.592C20.0557 189.592 19.511 190.145 19.511 190.82C19.511 191.494 20.0633 192.047 20.7367 192.047C21.41 192.047 21.9623 191.494 21.9623 190.82C21.9623 190.145 21.41 189.592 20.7367 189.592Z" fill="white"/>
<path d="M27.0543 192.623C26.0632 192.623 25.2612 191.812 25.2612 190.819C25.2612 189.827 26.0708 189.016 27.0543 189.016C28.0378 189.016 28.8473 189.827 28.8473 190.819C28.8473 191.812 28.0378 192.623 27.0543 192.623ZM27.0543 189.592C26.3734 189.592 25.8287 190.145 25.8287 190.819C25.8287 191.494 26.3809 192.047 27.0543 192.047C27.7276 192.047 28.2799 191.494 28.2799 190.819C28.2799 190.145 27.7276 189.592 27.0543 189.592Z" fill="white"/>
<path d="M33.1969 192.623C32.2058 192.623 31.4038 191.812 31.4038 190.819C31.4038 189.827 32.2133 189.016 33.1969 189.016C34.1804 189.016 34.9899 189.827 34.9899 190.819C34.9899 191.812 34.1804 192.623 33.1969 192.623ZM33.1969 189.592C32.516 189.592 31.9712 190.145 31.9712 190.819C31.9712 191.494 32.5235 192.047 33.1969 192.047C33.8702 192.047 34.4225 191.494 34.4225 190.819C34.4225 190.145 33.8702 189.592 33.1969 189.592Z" fill="white"/>
<path d="M70.2163 228.196H31.2987C31.0869 228.196 30.9204 228.029 30.9204 227.817C30.9204 227.605 31.0869 227.438 31.2987 227.438H70.2163C70.4281 227.438 70.5946 227.605 70.5946 227.817C70.5946 228.029 70.4281 228.196 70.2163 228.196Z" fill="#599AF2"/>
<path d="M81.3604 211.345H31.2987C31.0869 211.345 30.9204 211.178 30.9204 210.966C30.9204 210.754 31.0869 210.587 31.2987 210.587H81.3604C81.5723 210.587 81.7387 210.754 81.7387 210.966C81.7387 211.178 81.5723 211.345 81.3604 211.345Z" fill="#708CF5"/>
<path opacity="0.69" d="M98.0506 211.345H87.6629C87.4511 211.345 87.2847 211.178 87.2847 210.966C87.2847 210.754 87.4511 210.587 87.6629 210.587H98.0506C98.2624 210.587 98.4288 210.754 98.4288 210.966C98.4288 211.178 98.2624 211.345 98.0506 211.345Z" fill="#353148"/>
<path d="M81.3604 246.645H31.2987C31.0869 246.645 30.9204 246.478 30.9204 246.266C30.9204 246.054 31.0869 245.887 31.2987 245.887H81.3604C81.5723 245.887 81.7387 246.054 81.7387 246.266C81.7387 246.478 81.5723 246.645 81.3604 246.645Z" fill="#708CF5"/>
<path d="M98.0506 246.645H87.6629C87.4511 246.645 87.2847 246.478 87.2847 246.266C87.2847 246.054 87.4511 245.887 87.6629 245.887H98.0506C98.2624 245.887 98.4288 246.054 98.4288 246.266C98.4288 246.478 98.2624 246.645 98.0506 246.645Z" fill="#599AF2"/>
<path d="M98.0506 228.196H87.6629C87.4511 228.196 87.2847 228.029 87.2847 227.817C87.2847 227.605 87.4511 227.438 87.6629 227.438H98.0506C98.2624 227.438 98.4288 227.605 98.4288 227.817C98.4288 228.029 98.2624 228.196 98.0506 228.196Z" fill="#708CF5"/>
<path opacity="0.69" d="M115.156 228.196H104.768C104.557 228.196 104.39 228.029 104.39 227.817C104.39 227.605 104.557 227.438 104.768 227.438H115.156C115.368 227.438 115.534 227.605 115.534 227.817C115.534 228.029 115.368 228.196 115.156 228.196Z" fill="#353148"/>
<path opacity="0.69" d="M64.6782 219.634H31.2987C31.0869 219.634 30.9204 219.467 30.9204 219.255C30.9204 219.043 31.0869 218.876 31.2987 218.876H64.6707C64.8825 218.876 65.049 219.043 65.049 219.255C65.049 219.467 64.8825 219.634 64.6707 219.634H64.6782Z" fill="#353148"/>
<path d="M85.4538 219.634H70.8143C70.6025 219.634 70.436 219.467 70.436 219.255C70.436 219.043 70.6025 218.876 70.8143 218.876H85.4538C85.6656 218.876 85.8321 219.043 85.8321 219.255C85.8321 219.467 85.6656 219.634 85.4538 219.634Z" fill="#F7A9B4"/>
<path opacity="0.69" d="M85.4539 237.386H52.0819C51.8701 237.386 51.7036 237.219 51.7036 237.007C51.7036 236.795 51.8701 236.628 52.0819 236.628H85.4539C85.6657 236.628 85.8322 236.795 85.8322 237.007C85.8322 237.219 85.6657 237.386 85.4539 237.386Z" fill="#353148"/>
<path d="M45.9382 237.386H31.2987C31.0869 237.386 30.9204 237.22 30.9204 237.007C30.9204 236.795 31.0869 236.629 31.2987 236.629H45.9382C46.15 236.629 46.3165 236.795 46.3165 237.007C46.3165 237.22 46.15 237.386 45.9382 237.386Z" fill="#F7A9B4"/>
<path d="M81.3604 258.548H31.2987C31.0869 258.548 30.9204 258.381 30.9204 258.169C30.9204 257.957 31.0869 257.79 31.2987 257.79H81.3604C81.5723 257.79 81.7387 257.957 81.7387 258.169C81.7387 258.381 81.5723 258.548 81.3604 258.548Z" fill="#F7A9B4"/>
<path opacity="0.69" d="M98.0506 258.548H87.6629C87.4511 258.548 87.2847 258.382 87.2847 258.169C87.2847 257.957 87.4511 257.791 87.6629 257.791H98.0506C98.2624 257.791 98.4288 257.957 98.4288 258.169C98.4288 258.382 98.2624 258.548 98.0506 258.548Z" fill="#353148"/>
<path d="M81.3604 275.391H31.2987C31.0869 275.391 30.9204 275.224 30.9204 275.012C30.9204 274.8 31.0869 274.633 31.2987 274.633H81.3604C81.5723 274.633 81.7387 274.8 81.7387 275.012C81.7387 275.224 81.5723 275.391 81.3604 275.391Z" fill="#599AF2"/>
<path d="M98.0506 275.391H87.6629C87.4511 275.391 87.2847 275.224 87.2847 275.012C87.2847 274.8 87.4511 274.633 87.6629 274.633H98.0506C98.2624 274.633 98.4288 274.8 98.4288 275.012C98.4288 275.224 98.2624 275.391 98.0506 275.391Z" fill="#708CF5"/>
<path opacity="0.69" d="M115.156 275.391H104.768C104.557 275.391 104.39 275.224 104.39 275.012C104.39 274.8 104.557 274.633 104.768 274.633H115.156C115.368 274.633 115.534 274.8 115.534 275.012C115.534 275.224 115.368 275.391 115.156 275.391Z" fill="#353148"/>
<path opacity="0.69" d="M64.6782 266.837H31.2987C31.0869 266.837 30.9204 266.67 30.9204 266.458C30.9204 266.246 31.0869 266.079 31.2987 266.079H64.6707C64.8825 266.079 65.049 266.246 65.049 266.458C65.049 266.67 64.8825 266.837 64.6707 266.837H64.6782Z" fill="#353148"/>
<path d="M85.4538 266.837H70.8143C70.6025 266.837 70.436 266.67 70.436 266.458C70.436 266.246 70.6025 266.079 70.8143 266.079H85.4538C85.6656 266.079 85.8321 266.246 85.8321 266.458C85.8321 266.67 85.6656 266.837 85.4538 266.837Z" fill="#F7A9B4"/>
<path opacity="0.69" d="M85.4539 284.589H52.0819C51.8701 284.589 51.7036 284.423 51.7036 284.21C51.7036 283.998 51.8701 283.832 52.0819 283.832H85.4539C85.6657 283.832 85.8322 283.998 85.8322 284.21C85.8322 284.423 85.6657 284.589 85.4539 284.589Z" fill="#353148"/>
<path d="M45.9382 284.589H31.2987C31.0869 284.589 30.9204 284.423 30.9204 284.21C30.9204 283.998 31.0869 283.832 31.2987 283.832H45.9382C46.15 283.832 46.3165 283.998 46.3165 284.21C46.3165 284.423 46.15 284.589 45.9382 284.589Z" fill="#F7A9B4"/>
<path d="M83.6447 299.508H152.885C154.82 299.508 156.388 297.937 156.388 296V269.042C156.388 267.104 154.82 265.534 152.885 265.534H83.6447C81.7101 265.534 80.1418 267.104 80.1418 269.042V296C80.1418 297.937 81.7101 299.508 83.6447 299.508Z" fill="#4268FF"/>
<path d="M138.511 282.657H114.399C114.187 282.657 114.021 282.49 114.021 282.278C114.021 282.066 114.187 281.899 114.399 281.899H138.511C138.723 281.899 138.889 282.066 138.889 282.278C138.889 282.49 138.723 282.657 138.511 282.657Z" fill="white"/>
<path d="M122.033 275.042H97.9217C97.7099 275.042 97.5435 274.876 97.5435 274.664C97.5435 274.451 97.7099 274.285 97.9217 274.285H122.033C122.245 274.285 122.412 274.451 122.412 274.664C122.412 274.876 122.245 275.042 122.033 275.042Z" fill="white"/>
<path d="M144.851 275.042H129.023C128.811 275.042 128.645 274.876 128.645 274.664C128.645 274.451 128.811 274.285 129.023 274.285H144.851C145.062 274.285 145.229 274.451 145.229 274.664C145.229 274.876 145.062 275.042 144.851 275.042Z" fill="#9DD3FF"/>
<path d="M122.033 289.961H97.9217C97.7099 289.961 97.5435 289.794 97.5435 289.582C97.5435 289.37 97.7099 289.203 97.9217 289.203H122.033C122.245 289.203 122.412 289.37 122.412 289.582C122.412 289.794 122.245 289.961 122.033 289.961Z" fill="white"/>
<path d="M139.449 289.961H129.023C128.811 289.961 128.645 289.794 128.645 289.582C128.645 289.37 128.811 289.203 129.023 289.203H139.449C139.661 289.203 139.827 289.37 139.827 289.582C139.827 289.794 139.661 289.961 139.449 289.961Z" fill="#9DD3FF"/>
<path d="M106.985 282.657H97.2557C97.0439 282.657 96.8774 282.49 96.8774 282.278C96.8774 282.066 97.0439 281.899 97.2557 281.899H106.985C107.197 281.899 107.363 282.066 107.363 282.278C107.363 282.49 107.197 282.657 106.985 282.657Z" fill="#9DD3FF"/>
<path d="M88.4036 273.679C88.3053 273.679 88.2069 273.641 88.1388 273.565L84.6511 270.072C84.4998 269.92 84.4998 269.686 84.6511 269.534C84.8024 269.383 85.0369 269.383 85.1882 269.534L88.676 273.027C88.8273 273.178 88.8273 273.413 88.676 273.565C88.6003 273.641 88.502 273.679 88.4112 273.679H88.4036Z" fill="white"/>
<path d="M84.9159 273.679C84.8175 273.679 84.7192 273.641 84.6511 273.565C84.4998 273.413 84.4998 273.178 84.6511 273.027L88.1388 269.534C88.2901 269.383 88.5247 269.383 88.676 269.534C88.8273 269.686 88.8273 269.92 88.676 270.072L85.1882 273.565C85.1126 273.641 85.0142 273.679 84.9234 273.679H84.9159Z" fill="white"/>
<path d="M260.402 108.582H186.622C184.738 108.582 183.209 107.294 183.209 105.695V51.6958C183.209 50.1047 184.738 48.8091 186.622 48.8091H260.402C262.285 48.8091 263.814 50.0971 263.814 51.6958V105.695C263.814 107.286 262.285 108.582 260.402 108.582Z" fill="white"/>
<path d="M260.401 108.961H186.621C184.533 108.961 182.831 107.544 182.831 105.809V59.2575L264.191 58.9014V105.809C264.191 107.551 262.489 108.961 260.401 108.961ZM183.587 60.0076V105.801C183.587 107.12 184.949 108.195 186.621 108.195H260.401C262.073 108.195 263.435 107.12 263.435 105.801V59.659L183.587 60.0076Z" fill="#121936"/>
<path d="M182.778 59.9923V51.6503C182.778 50.082 184.321 48.8167 186.22 48.8167H260.689C262.588 48.8167 264.131 50.0895 264.131 51.6503V59.6286" fill="#4268FF"/>
<path d="M189.035 56.2191C188.127 56.2191 187.393 55.4538 187.393 54.5143C187.393 53.5748 188.134 52.8096 189.035 52.8096C189.935 52.8096 190.677 53.5748 190.677 54.5143C190.677 55.4538 189.935 56.2191 189.035 56.2191ZM189.035 53.5597C188.543 53.5597 188.15 53.984 188.15 54.5068C188.15 55.0296 188.551 55.4538 189.035 55.4538C189.519 55.4538 189.92 55.0296 189.92 54.5068C189.92 53.984 189.519 53.5597 189.035 53.5597Z" fill="white"/>
<path d="M193.786 56.2191C192.878 56.2191 192.144 55.4538 192.144 54.5143C192.144 53.5748 192.885 52.8096 193.786 52.8096C194.686 52.8096 195.428 53.5748 195.428 54.5143C195.428 55.4538 194.686 56.2191 193.786 56.2191ZM193.786 53.5597C193.294 53.5597 192.901 53.984 192.901 54.5068C192.901 55.0296 193.302 55.4538 193.786 55.4538C194.27 55.4538 194.671 55.0296 194.671 54.5068C194.671 53.984 194.27 53.5597 193.786 53.5597Z" fill="white"/>
<path d="M198.446 56.2191C197.538 56.2191 196.804 55.4538 196.804 54.5143C196.804 53.5748 197.546 52.8096 198.446 52.8096C199.346 52.8096 200.088 53.5748 200.088 54.5143C200.088 55.4538 199.346 56.2191 198.446 56.2191ZM198.446 53.5597C197.954 53.5597 197.561 53.984 197.561 54.5068C197.561 55.0296 197.962 55.4538 198.446 55.4538C198.93 55.4538 199.331 55.0296 199.331 54.5068C199.331 53.984 198.93 53.5597 198.446 53.5597Z" fill="white"/>
<g opacity="0.31">
<path d="M257.889 104.877H189.14C187.672 104.877 186.477 103.68 186.477 102.21V64.0156C186.477 62.5458 187.672 61.3486 189.14 61.3486H257.889C259.357 61.3486 260.552 62.5458 260.552 64.0156V102.21C260.552 103.68 259.357 104.877 257.889 104.877ZM189.14 62.0987C188.089 62.0987 187.234 62.9549 187.234 64.0081V102.202C187.234 103.255 188.089 104.112 189.14 104.112H257.889C258.941 104.112 259.796 103.255 259.796 102.202V64.0081C259.796 62.9549 258.941 62.0987 257.889 62.0987H189.14Z" fill="#103463"/>
<path opacity="0.69" d="M213.714 98.6108H194.777V76.9263H213.714V98.6108ZM195.533 97.8531H212.957V77.6839H195.533V97.8531Z" fill="#353148"/>
<path d="M213.335 75.1156H195.155V67.7358H195.571H213.335V75.1156Z" fill="#708CF5"/>
<path d="M222.914 84.6471V67.7358H252.003V68.1223V84.6471H222.914Z" fill="#708CF5"/>
<path d="M213.252 75.1156H195.072V67.7358H195.488H213.252V75.1156Z" fill="#F9CAD0"/>
<path d="M222.83 84.6471V67.7358H251.919V68.1223V84.6471H222.83Z" fill="#F9CAD0"/>
<path opacity="0.69" d="M252.381 99.5731H222.535V89.2839H252.381V99.5731ZM223.291 98.8154H251.624V90.0416H223.291V98.8154Z" fill="#353148"/>
</g>
<path d="M213.252 75.1153H195.072V67.7356H195.488H213.252V75.1153Z" fill="#F9CAD0"/>
<path d="M222.831 84.6471V67.7358H251.92V68.1223V84.6471H222.831Z" fill="#F9CAD0"/>
<path d="M228.724 78.184C227.407 78.184 226.34 77.1157 226.34 75.7973C226.34 74.479 227.407 73.4106 228.724 73.4106C230.04 73.4106 231.107 74.479 231.107 75.7973C231.107 77.1157 230.04 78.184 228.724 78.184ZM228.724 73.9789C227.725 73.9789 226.908 74.7972 226.908 75.7973C226.908 76.7974 227.725 77.6157 228.724 77.6157C229.722 77.6157 230.539 76.7974 230.539 75.7973C230.539 74.7972 229.722 73.9789 228.724 73.9789Z" fill="white"/>
<path d="M237.492 78.184C236.176 78.184 235.109 77.1157 235.109 75.7973C235.109 74.479 236.176 73.4106 237.492 73.4106C238.808 73.4106 239.875 74.479 239.875 75.7973C239.875 77.1157 238.808 78.184 237.492 78.184ZM237.492 73.9789C236.493 73.9789 235.676 74.7972 235.676 75.7973C235.676 76.7974 236.493 77.6157 237.492 77.6157C238.491 77.6157 239.308 76.7974 239.308 75.7973C239.308 74.7972 238.491 73.9789 237.492 73.9789Z" fill="white"/>
<path d="M246.019 78.184C244.703 78.184 243.636 77.1157 243.636 75.7973C243.636 74.479 244.703 73.4106 246.019 73.4106C247.336 73.4106 248.403 74.479 248.403 75.7973C248.403 77.1157 247.336 78.184 246.019 78.184ZM246.019 73.9789C245.021 73.9789 244.204 74.7972 244.204 75.7973C244.204 76.7974 245.021 77.6157 246.019 77.6157C247.018 77.6157 247.835 76.7974 247.835 75.7973C247.835 74.7972 247.018 73.9789 246.019 73.9789Z" fill="white"/>
<path d="M148.317 244.205L145.858 246.955L131.922 263.018C130.999 264.078 129.251 263.434 129.244 262.025L129.032 226.672C129.032 225.725 129.796 224.96 130.742 224.975L147.272 224.695L148.309 244.205H148.317Z" fill="#0C2794"/>
<path d="M131.778 226.672C131.778 225.725 132.542 224.96 133.487 224.975L147.287 224.74V224.695L130.756 224.975C129.811 224.96 129.046 225.725 129.046 226.672L129.258 262.025C129.266 263.435 131.013 264.079 131.936 263.018L132.186 262.73C132.073 262.525 131.997 262.29 131.997 262.025L131.785 226.672H131.778Z" fill="#121936"/>
<path d="M132.081 258.267C131.877 258.267 131.703 258.1 131.703 257.896L131.339 224.998C131.339 224.786 131.506 224.619 131.71 224.611C131.914 224.611 132.088 224.778 132.088 224.983L132.452 257.881C132.452 258.093 132.285 258.26 132.081 258.267Z" fill="white"/>
<path d="M139.866 235.598C139.684 235.598 139.503 235.582 139.313 235.552C137.528 235.249 136.317 233.544 136.62 231.749C136.764 230.885 137.24 230.12 137.959 229.612C138.678 229.104 139.548 228.907 140.418 229.051C142.211 229.354 143.414 231.059 143.111 232.855C142.839 234.461 141.439 235.598 139.866 235.598ZM139.866 229.763C139.344 229.763 138.837 229.923 138.406 230.233C137.853 230.627 137.49 231.211 137.377 231.877C137.142 233.256 138.073 234.567 139.45 234.802C140.827 235.037 142.135 234.105 142.37 232.726C142.483 232.059 142.332 231.385 141.939 230.832C141.545 230.279 140.963 229.915 140.297 229.801C140.153 229.779 140.01 229.763 139.866 229.763Z" fill="white"/>
<path d="M145.857 247.334C145.766 247.334 145.676 247.303 145.608 247.243L142.324 244.349C142.165 244.212 142.15 243.97 142.294 243.818C142.43 243.659 142.672 243.644 142.831 243.78L146.114 246.675C146.273 246.811 146.288 247.053 146.145 247.213C146.069 247.296 145.963 247.341 145.857 247.341V247.334Z" fill="white"/>
<path d="M143.618 249.812C143.527 249.812 143.437 249.781 143.369 249.721L140.085 246.826C139.926 246.69 139.911 246.447 140.047 246.288C140.183 246.129 140.425 246.114 140.584 246.258L143.868 249.152C144.027 249.289 144.042 249.531 143.898 249.69C143.822 249.774 143.717 249.819 143.611 249.819L143.618 249.812Z" fill="white"/>
<path d="M141.417 252.137C141.326 252.137 141.235 252.107 141.167 252.047L137.884 249.152C137.725 249.016 137.71 248.773 137.853 248.614C137.99 248.455 138.232 248.44 138.391 248.584L141.674 251.478C141.833 251.615 141.848 251.857 141.704 252.016C141.629 252.1 141.523 252.145 141.417 252.145V252.137Z" fill="white"/>
<path d="M149.52 245.031C148.112 245.031 146.584 244.879 146.266 244.288C146.198 244.159 146.198 244.008 146.266 243.871C146.622 243.106 150.677 241.31 151.305 241.182C151.797 241.083 152.304 241.182 152.727 241.454C153.151 241.735 153.439 242.159 153.537 242.651C153.749 243.674 153.091 244.674 152.069 244.887C151.925 244.917 150.768 245.031 149.52 245.031ZM147.121 244.038C147.961 244.349 150.98 244.333 151.918 244.137C152.531 244.008 152.924 243.409 152.803 242.795C152.743 242.5 152.569 242.242 152.319 242.076C152.069 241.909 151.759 241.848 151.464 241.909C150.776 242.053 147.916 243.432 147.129 244.03L147.121 244.038Z" fill="white"/>
<path d="M149.187 250.266C149.043 250.266 148.891 250.251 148.748 250.213C148.256 250.092 147.84 249.796 147.575 249.364C147.363 249.016 145.653 244.364 146.417 243.879C146.531 243.811 146.72 243.735 147 243.803C148.142 244.068 150.412 246.758 150.798 247.387C151.063 247.819 151.146 248.326 151.025 248.819C150.904 249.311 150.609 249.728 150.178 249.993C149.875 250.183 149.535 250.274 149.194 250.274L149.187 250.266ZM146.94 244.561C147.015 245.447 147.832 248.349 148.218 248.963C148.377 249.22 148.627 249.402 148.922 249.471C149.217 249.539 149.519 249.493 149.777 249.334C150.306 249.008 150.473 248.304 150.147 247.773C149.656 246.97 147.681 244.856 146.94 244.561Z" fill="white"/>
<path d="M206.806 168.695L179.804 149.776C179.6 149.64 163.13 148.769 163.13 148.769C162.91 148.731 162.698 148.731 162.487 148.769L129.606 141.601L127.7 148.352C125.831 154.959 125.831 161.96 127.7 168.567L142.165 219.869L141.727 220.172C141.099 220.611 140.796 221.391 140.97 222.142L147.726 251.918C148.036 253.282 149.663 253.85 150.745 252.971L151.358 252.479L159.672 281.96C159.824 282.498 160.361 282.816 160.905 282.702L187.309 276.883C188.422 276.641 189.133 275.542 188.906 274.421L179.85 229.597L208.735 206.397C221.105 196.464 220.114 177.318 206.799 168.711L206.806 168.695ZM173.51 198.176L171.512 188.274L182.452 191.986L173.51 198.176Z" fill="#121936"/>
<path d="M180.568 233.484C180.394 233.484 180.236 233.355 180.198 233.173L167.904 169.324C167.866 169.12 167.994 168.923 168.206 168.877C168.41 168.839 168.607 168.968 168.653 169.18L180.947 233.029C180.985 233.234 180.856 233.431 180.644 233.476C180.621 233.476 180.599 233.476 180.568 233.476V233.484Z" fill="white"/>
<path d="M189.784 194.903C189.746 194.903 189.7 194.903 189.663 194.88L171.846 188.781C171.649 188.713 171.543 188.501 171.611 188.304C171.679 188.107 171.891 188.001 172.088 188.069L189.905 194.168C190.101 194.236 190.207 194.449 190.139 194.646C190.086 194.805 189.943 194.903 189.784 194.903Z" fill="white"/>
<path d="M182.415 278.005L185.532 279.975L203.674 291.044C204.877 291.779 204.529 293.613 203.145 293.855L168.373 299.97C167.442 300.136 166.565 299.5 166.421 298.568L163.387 282.293L182.422 278.005H182.415Z" fill="#0C2794"/>
<path d="M203.674 291.052L203.046 290.666C202.834 290.953 202.524 291.181 202.108 291.249L167.336 297.363C166.905 297.439 166.496 297.341 166.156 297.128L166.428 298.576C166.572 299.508 167.457 300.144 168.38 299.977L203.152 293.863C204.536 293.62 204.884 291.787 203.681 291.052H203.674Z" fill="#121936"/>
<path d="M166.27 297.984C166.089 297.984 165.93 297.856 165.899 297.674C165.862 297.469 165.998 297.272 166.202 297.234L198.53 291.377C198.727 291.347 198.931 291.476 198.969 291.681C199.007 291.885 198.87 292.082 198.666 292.12L166.338 297.977C166.338 297.977 166.293 297.977 166.27 297.977V297.984Z" fill="white"/>
<path d="M172.11 291.635C170.294 291.635 168.819 290.158 168.819 288.339C168.819 286.521 170.294 285.043 172.11 285.043C173.926 285.043 175.401 286.521 175.401 288.339C175.401 290.158 173.926 291.635 172.11 291.635ZM172.11 285.801C170.71 285.801 169.575 286.938 169.575 288.339C169.575 289.741 170.71 290.878 172.11 290.878C173.51 290.878 174.644 289.741 174.644 288.339C174.644 286.938 173.51 285.801 172.11 285.801Z" fill="white"/>
<path d="M183.231 284.081C183.163 284.081 183.095 284.066 183.035 284.02C182.853 283.914 182.8 283.679 182.914 283.498L185.214 279.77C185.319 279.588 185.554 279.535 185.736 279.649C185.917 279.755 185.97 279.99 185.857 280.171L183.557 283.899C183.489 284.013 183.36 284.081 183.239 284.081H183.231Z" fill="white"/>
<path d="M186.039 285.877C185.971 285.877 185.903 285.862 185.842 285.816C185.661 285.71 185.608 285.475 185.721 285.293L188.021 281.566C188.127 281.384 188.362 281.331 188.543 281.444C188.725 281.551 188.778 281.785 188.664 281.967L186.364 285.695C186.296 285.809 186.168 285.877 186.047 285.877H186.039Z" fill="white"/>
<path d="M188.702 287.665C188.634 287.665 188.566 287.65 188.505 287.604C188.324 287.498 188.271 287.263 188.384 287.082L190.684 283.354C190.79 283.172 191.025 283.119 191.206 283.233C191.388 283.339 191.441 283.574 191.327 283.755L189.027 287.483C188.959 287.597 188.831 287.665 188.71 287.665H188.702Z" fill="white"/>
<path d="M182.566 280.111C182.52 280.111 182.475 280.111 182.429 280.088C181.612 279.861 179.169 276.164 178.942 275.557C178.563 274.588 179.048 273.489 180.016 273.11C180.485 272.928 181 272.936 181.461 273.14C181.923 273.345 182.278 273.716 182.46 274.186C182.573 274.481 183.844 279.232 182.846 280.012C182.77 280.073 182.672 280.103 182.566 280.103V280.111ZM180.697 273.747C180.561 273.747 180.425 273.769 180.288 273.822C179.706 274.05 179.418 274.709 179.645 275.292C179.903 275.951 181.741 278.543 182.46 279.224C182.626 278.346 182.104 275.368 181.756 274.474C181.582 274.027 181.151 273.747 180.697 273.747Z" fill="white"/>
<path d="M182.771 280.058C182.604 280.058 182.483 280.02 182.408 279.944C182.317 279.846 182.218 279.672 182.233 279.384C182.302 278.217 184.571 275.527 185.131 275.035C185.918 274.345 187.113 274.429 187.794 275.209C188.483 275.997 188.399 277.194 187.62 277.876C187.355 278.111 183.989 280.05 182.771 280.05V280.058ZM186.372 275.323C186.107 275.323 185.842 275.414 185.623 275.603C184.912 276.224 183.156 278.528 182.99 279.308C183.853 279.088 186.569 277.793 187.113 277.315C187.34 277.118 187.476 276.838 187.499 276.535C187.522 276.232 187.424 275.936 187.219 275.709C186.992 275.451 186.682 275.323 186.364 275.323H186.372Z" fill="white"/>
<path d="M179.925 59.7424C179.471 58.9771 179.04 58.2801 178.631 57.6588C177.217 55.507 175.439 53.2264 175.567 50.7943C176.392 35.4666 160.27 30.8448 148.384 33.8755C148.233 33.4587 148.051 33.042 147.832 32.6329C145.887 28.9885 142.104 27.208 139.388 28.6627C137.996 29.4052 137.157 30.8523 136.93 32.5798C134.13 32.6556 131.709 33.9361 130.711 36.1864C129.364 39.2398 131.074 43.0357 134.584 45.2481C132.753 46.8544 130.643 48.2182 128.138 49.5365L127.525 49.8623C119.173 54.2568 117.38 64.493 121.677 70.1376L122.91 71.7818C123.1 72.0394 123.304 72.2818 123.508 72.5243C124.265 73.3956 124.514 74.4866 124.144 75.4944C123.455 77.3734 123.137 79.4039 123.311 81.5557C123.954 89.5567 131.293 96.4061 140.659 97.6714C147.151 98.5503 153.233 96.7167 157.448 93.2239C162.486 89.0491 168.251 85.5562 174.137 82.2528C178.949 79.5555 182.27 75.0701 182.724 69.7512C183.034 66.1371 181.968 62.6821 179.925 59.7348V59.7424Z" fill="#121936"/>
<path d="M175.226 65.6673L173.993 53.7264C171.89 50.4987 166.42 49.6577 164.385 47.3165C162.758 45.445 162.108 45.0814 162.024 43.4751C161.245 51.4382 155.495 57.4011 149.163 56.8177V56.9086L147.105 56.9768C144.321 57.0753 142.119 59.4317 142.218 62.2275V62.3411C142.316 65.1293 144.676 67.3342 147.461 67.2357L149.027 67.1826L146.613 82.6922C146.076 87.3746 165.505 88.4353 166.042 83.7529L166.715 77.8658C172.094 76.4944 175.809 71.3574 175.219 65.6597L175.226 65.6673Z" fill="#FFC0C0"/>
<path d="M146.756 63.8868C146.635 63.8868 146.514 63.8262 146.439 63.7126C146.325 63.5383 146.378 63.3034 146.552 63.1898L147.838 62.3488L146.363 60.7046C146.227 60.5455 146.234 60.3106 146.393 60.1667C146.552 60.0303 146.787 60.0379 146.93 60.197L148.701 62.1669C148.776 62.2503 148.807 62.3563 148.792 62.47C148.776 62.5761 148.716 62.6746 148.625 62.7352L146.968 63.8186C146.908 63.8565 146.832 63.8793 146.764 63.8793L146.756 63.8868Z" fill="#FF8888"/>
<path d="M174.84 59.0227C174.954 59.5531 174.614 60.0759 174.084 60.1895C173.554 60.3032 173.032 59.9622 172.919 59.4318C172.805 58.9015 173.146 58.3787 173.675 58.265C174.205 58.1514 174.727 58.4923 174.84 59.0227Z" fill="#121936"/>
<path d="M166.843 59.5909C166.821 60.1819 166.314 60.6441 165.724 60.6213C165.133 60.5986 164.672 60.091 164.695 59.5C164.717 58.909 165.224 58.4468 165.814 58.4696C166.404 58.4923 166.866 58.9999 166.843 59.5909Z" fill="#121936"/>
<path d="M165.141 63.6824C165.141 63.6824 164.861 67.1752 169.537 67.1677L165.141 63.6824Z" fill="#FFC0C0"/>
<path d="M169.514 67.5389C167.797 67.5389 166.511 67.0843 165.686 66.1903C164.657 65.0765 164.756 63.7051 164.763 63.6445C164.778 63.4323 164.967 63.2808 165.172 63.296C165.376 63.3111 165.535 63.493 165.52 63.7051C165.52 63.7203 165.452 64.8265 166.254 65.6826C166.927 66.41 168.024 66.7737 169.514 66.7737H169.529C169.741 66.7737 169.908 66.9404 169.908 67.1525C169.908 67.3647 169.719 67.5389 169.514 67.5313V67.5389Z" fill="#FF8888"/>
<path d="M167.479 72.9183C167.434 72.9335 167.388 72.9335 167.343 72.9183C167.297 72.8956 166.2 72.4562 165.429 73.3351C165.353 73.4184 165.224 73.426 165.141 73.3502C165.058 73.2744 165.05 73.1456 165.126 73.0623C166.102 71.9637 167.494 72.5395 167.509 72.5395C167.615 72.585 167.661 72.7062 167.615 72.8047C167.592 72.8653 167.539 72.9032 167.487 72.9183H167.479Z" fill="#FF8888"/>
<path d="M161.865 55.7723C162.251 55.8556 162.705 55.7268 163.151 55.6208C163.598 55.5071 164.052 55.4086 164.445 55.3328C164.846 55.2571 165.3 55.1889 165.761 55.1283C166.215 55.0601 166.692 55.0146 167.01 54.7949C167.32 54.5828 167.38 54.1433 166.881 53.7114C166.412 53.2871 165.315 52.9386 163.999 53.1886C162.69 53.4387 161.812 54.166 161.54 54.7267C161.252 55.3101 161.479 55.6965 161.85 55.7723H161.865Z" fill="#121936"/>
<path d="M175.763 54.9766C175.498 55.06 175.18 54.9766 174.87 54.9236C174.56 54.8554 174.242 54.8024 173.97 54.7569C173.697 54.719 173.372 54.6811 173.054 54.6584C172.737 54.6281 172.411 54.613 172.184 54.4614C171.965 54.3099 171.912 53.9689 172.252 53.6053C172.57 53.2492 173.319 52.9233 174.235 53.0522C175.15 53.1885 175.763 53.7113 175.967 54.1356C176.179 54.5751 176.028 54.8933 175.778 54.9691L175.763 54.9766Z" fill="#121936"/>
<path d="M164.694 60.7043C164.694 60.7043 165.632 59.9846 166.585 60.7801L164.694 60.7043Z" fill="#FFC0C0"/>
<path d="M166.586 61.159C166.502 61.159 166.412 61.1287 166.344 61.0681C165.625 60.4695 164.952 60.9848 164.921 60.9999C164.755 61.1287 164.52 61.0984 164.392 60.9317C164.263 60.765 164.293 60.5302 164.46 60.4014C164.868 60.0907 165.882 59.7043 166.828 60.4847C166.987 60.6211 167.009 60.856 166.881 61.0151C166.805 61.106 166.699 61.1514 166.593 61.1514L166.586 61.159Z" fill="#FF8888"/>
<path d="M173.358 60.0604C173.358 60.0604 173.94 59.6437 174.478 60.1892L173.358 60.0604Z" fill="#FFC0C0"/>
<path d="M174.477 60.5681C174.379 60.5681 174.281 60.5302 174.205 60.4545C173.925 60.1665 173.645 60.3181 173.57 60.3711C173.403 60.4848 173.161 60.4469 173.048 60.2726C172.926 60.1059 172.964 59.8711 173.138 59.7498C173.426 59.5377 174.137 59.3028 174.742 59.9165C174.886 60.068 174.886 60.3029 174.742 60.4545C174.667 60.5302 174.576 60.5681 174.477 60.5681Z" fill="#FF8888"/>
<path d="M166.722 77.8885C166.722 77.8885 157.477 78.6007 155.646 75.0776C153.815 71.5544 155.646 75.0776 155.646 75.0776C155.646 75.0776 155.442 80.9647 166.125 83.124L166.73 77.8885H166.722Z" fill="#FF8888"/>
<path d="M170.308 56.2568L170.209 58.5374C170.172 59.4088 170.845 60.1437 171.715 60.1816C172.146 60.2043 172.487 60.568 172.472 61.0074C172.411 62.4167 171.223 63.5077 169.816 63.4471L168.893 63.4093" fill="#FFC0C0"/>
<path d="M169.922 63.8262C169.877 63.8262 169.832 63.8262 169.794 63.8262L168.871 63.7883C168.659 63.7807 168.5 63.5989 168.508 63.3943C168.515 63.1898 168.697 63.0079 168.901 63.0306L169.824 63.0685C170.391 63.0988 170.959 62.8943 171.383 62.5003C171.814 62.1063 172.056 61.5759 172.086 60.9925C172.086 60.8864 172.056 60.7804 171.98 60.697C171.905 60.6137 171.806 60.5682 171.693 60.5606C171.171 60.5379 170.686 60.3106 170.338 59.9242C169.983 59.5378 169.801 59.0377 169.824 58.5149L169.922 56.2343C169.93 56.0222 170.111 55.8479 170.316 55.8707C170.528 55.8782 170.686 56.0601 170.679 56.2646L170.581 58.5452C170.565 58.8635 170.679 59.1741 170.891 59.409C171.11 59.6439 171.405 59.7802 171.723 59.7954C172.033 59.8105 172.321 59.9393 172.533 60.1742C172.744 60.4091 172.85 60.7046 172.835 61.0152C172.805 61.7956 172.464 62.523 171.889 63.0458C171.345 63.5459 170.649 63.8186 169.915 63.8186L169.922 63.8262Z" fill="#FF8888"/>
<path d="M146.567 69.3877C146.522 69.3877 146.477 69.3877 146.424 69.3877C145.818 69.3498 145.258 69.077 144.858 68.6224C144.457 68.1678 144.252 67.5768 144.29 66.9707C144.366 65.7129 145.47 64.7583 146.704 64.834C147.309 64.8719 147.869 65.1447 148.27 65.5993C148.671 66.0539 148.875 66.6449 148.837 67.251C148.761 68.4633 147.755 69.3952 146.56 69.3952L146.567 69.3877ZM145.047 67.0086C145.024 67.4177 145.16 67.8041 145.425 68.1148C145.697 68.4178 146.068 68.5997 146.469 68.63C147.294 68.6754 148.035 68.039 148.08 67.198C148.103 66.7888 147.967 66.4024 147.702 66.0918C147.43 65.7887 147.059 65.6069 146.651 65.5766C145.788 65.5235 145.084 66.1676 145.039 67.0086H145.047Z" fill="white"/>
<path d="M222.293 89.3295L217.467 85.6169L220.591 77.1537C220.969 76.1308 220.576 74.9868 219.645 74.4109L219.539 74.3503C219.123 74.0927 218.586 74.2215 218.321 74.6307L210.771 88.5642L210.62 88.4127L208.948 84.5334C208.607 83.7454 207.805 83.2605 206.958 83.3287L206.625 83.3515C206.035 83.3969 205.634 83.9652 205.793 84.541L207.291 89.9962L207.904 93.974C207.987 94.5271 208.214 94.9969 208.532 95.3833L208.494 95.4439L195.163 114.658L184.291 100.596L171.415 123.607L182.445 138.949C189.731 149.079 205.414 146.64 209.288 134.775L218.374 106.953L223.844 96.2091C225.047 93.8452 224.397 90.9585 222.293 89.3371V89.3295Z" fill="#FFC0C0"/>
<path d="M191.191 120.97C191.115 120.97 191.047 120.947 190.979 120.902C190.805 120.788 190.76 120.553 190.873 120.379L195.216 113.916C195.337 113.742 195.572 113.696 195.738 113.81C195.912 113.924 195.957 114.158 195.844 114.333L191.501 120.796C191.426 120.902 191.312 120.962 191.183 120.962L191.191 120.97Z" fill="#FF8888"/>
<path d="M216.604 96.3457C216.4 96.3457 216.233 96.1865 216.226 95.982C216.044 90.2691 210.915 88.9811 210.695 88.9281C210.491 88.8826 210.37 88.678 210.415 88.4735C210.461 88.2689 210.665 88.1477 210.869 88.1931C210.93 88.2083 216.786 89.6554 216.982 95.9592C216.982 96.1714 216.823 96.3457 216.619 96.3532C216.619 96.3532 216.612 96.3532 216.604 96.3532V96.3457Z" fill="#FF8888"/>
<path d="M218.102 84.8289L218.064 84.988L215.636 93.8451C215.401 94.6937 215.81 95.5878 216.604 95.9666L217.134 96.2167C217.444 96.3682 217.815 96.2091 217.928 95.8833L220.78 87.511C221.007 86.7988 220.667 86.0336 219.993 85.7229L218.102 84.8364V84.8289Z" fill="#FFC0C0"/>
<path d="M217.384 96.6562C217.24 96.6562 217.104 96.6259 216.975 96.5653L216.446 96.3153C215.485 95.8607 214.993 94.7772 215.273 93.7543L217.853 84.2986L220.168 85.3821C221.008 85.776 221.431 86.7459 221.151 87.6323L218.299 96.0122C218.208 96.2698 218.019 96.4819 217.77 96.588C217.648 96.6411 217.527 96.6638 217.399 96.6638L217.384 96.6562ZM218.352 85.3669L215.999 93.9513C215.818 94.6256 216.135 95.3303 216.763 95.6333L217.293 95.8834C217.361 95.9137 217.422 95.8985 217.459 95.8834C217.49 95.8682 217.543 95.8379 217.573 95.7622L220.425 87.3899C220.592 86.8747 220.334 86.2988 219.835 86.064L218.352 85.3669Z" fill="#FF8888"/>
<path d="M221.045 86.655L221.007 86.799L218.821 94.7545C218.609 95.5198 218.979 96.3229 219.691 96.6563L220.167 96.8836C220.447 97.02 220.78 96.8836 220.878 96.5805L223.443 89.0568C223.647 88.4204 223.345 87.7309 222.74 87.4506L221.037 86.655H221.045Z" fill="#FFC0C0"/>
<path d="M220.401 97.3153C220.273 97.3153 220.137 97.285 220.016 97.232L219.539 97.0047C218.661 96.588 218.207 95.5954 218.465 94.6559L220.795 86.1169L222.913 87.1095C223.685 87.4732 224.078 88.3596 223.821 89.1779L221.256 96.7092C221.173 96.9516 220.992 97.1486 220.757 97.2471C220.644 97.2926 220.53 97.3153 220.409 97.3153H220.401ZM221.302 87.1928L219.199 94.8529C219.04 95.4363 219.32 96.0576 219.864 96.3152L220.341 96.5425C220.394 96.5652 220.432 96.5577 220.454 96.5425C220.477 96.5349 220.515 96.5122 220.538 96.4592L223.095 88.9355C223.239 88.4885 223.019 87.996 222.588 87.7914L221.294 87.1853L221.302 87.1928Z" fill="#FF8888"/>
<path d="M223.436 88.0337L223.406 88.1625L221.431 95.3755C221.242 96.065 221.575 96.7924 222.218 97.103L222.649 97.3076C222.906 97.4288 223.209 97.3076 223.3 97.0348L225.623 90.2158C225.804 89.64 225.532 89.0187 224.987 88.7611L223.444 88.0413L223.436 88.0337Z" fill="#FFC0C0"/>
<path d="M222.846 97.732C222.717 97.732 222.596 97.7017 222.483 97.6486L222.051 97.4441C221.234 97.0577 220.818 96.1409 221.06 95.2771L223.179 87.5034L225.138 88.4202C225.857 88.7536 226.212 89.5794 225.978 90.3371L223.655 97.1637C223.58 97.391 223.406 97.5805 223.179 97.6714C223.073 97.7168 222.959 97.7396 222.846 97.7396V97.732ZM223.678 88.5717L221.786 95.4741C221.643 95.9893 221.892 96.5273 222.377 96.7546L222.808 96.9592C222.899 96.9592 222.921 96.9364 222.936 96.9061L225.259 90.0871C225.38 89.7007 225.191 89.2688 224.82 89.0945L223.685 88.5642L223.678 88.5717Z" fill="#FF8888"/>
<path d="M186.008 98.6033L173.866 87.9049C171.142 85.488 167.677 84.0863 164.038 83.9347L148.68 83.2983L148.09 83.2301C147.575 83.1695 147.068 83.1392 146.569 83.1316V83.1165H146.289C145.88 83.1165 145.479 83.1165 145.078 83.1392L134.812 83.3362C127.451 83.965 121.33 89.2763 119.673 96.4894L116.987 109.999C116.768 111.09 117.509 112.135 118.614 112.294L128.116 113.651L127.957 147.041L180.697 149.807C182.506 149.905 183.761 148.026 182.982 146.39L172.345 124.031L186.667 105.043C188.165 103.058 187.885 100.247 186.016 98.5957L186.008 98.6033Z" fill="#4268FF"/>
<path d="M120.838 185.228C120.989 184.864 121.118 184.493 121.209 184.099L143.55 116.136L121.965 112.779L106.947 180.553L101.924 179.992C98.6252 179.621 95.7427 182.204 95.7427 185.531V192.91C95.7427 193.418 96.1512 193.835 96.6657 193.835C98.262 193.835 99.5482 192.539 99.5482 190.948V192.918C99.5482 193.426 99.9567 193.842 100.471 193.842C102.068 193.842 103.354 192.547 103.354 190.956V192.926C103.354 193.433 103.762 193.85 104.277 193.85C105.843 193.85 107.106 192.6 107.152 191.047C107.636 191.418 108.241 191.653 108.899 191.653H111.381C112.796 191.653 114.021 190.872 114.672 189.721C117.433 189.493 119.771 187.743 120.83 185.281L120.838 185.25V185.228Z" fill="#FFC0C0"/>
<path d="M99.5409 191.766C99.382 191.766 99.2534 191.638 99.2534 191.479V185.531C99.2534 185.372 99.382 185.243 99.5409 185.243C99.6998 185.243 99.8284 185.372 99.8284 185.531V191.479C99.8284 191.638 99.6998 191.766 99.5409 191.766Z" fill="#FF8888"/>
<path d="M103.347 191.766C103.188 191.766 103.059 191.638 103.059 191.479V185.531C103.059 185.372 103.188 185.243 103.347 185.243C103.505 185.243 103.634 185.372 103.634 185.531V191.479C103.634 191.638 103.505 191.766 103.347 191.766Z" fill="#FF8888"/>
<path d="M146.228 116.939C146.092 116.939 145.948 116.924 145.812 116.901L140.1 115.954C139.896 115.916 139.752 115.727 139.79 115.515C139.828 115.31 140.024 115.166 140.229 115.204L145.941 116.151C146.917 116.318 147.855 115.651 148.029 114.681L150.737 99.9598C150.775 99.7552 150.964 99.6188 151.176 99.6567C151.38 99.6946 151.516 99.8916 151.479 100.096L148.77 114.818C148.543 116.053 147.446 116.932 146.228 116.932V116.939Z" fill="white"/>
<path d="M172.337 124.417C172.284 124.417 172.231 124.41 172.186 124.387C171.996 124.304 171.906 124.076 171.989 123.887L174.402 118.386C176.135 114.431 176.248 110.022 174.72 105.983L171.838 98.3686C171.762 98.1716 171.86 97.9519 172.057 97.8837C172.254 97.8079 172.473 97.9064 172.549 98.1034L175.431 105.718C177.035 109.946 176.914 114.552 175.098 118.697L172.685 124.198C172.624 124.342 172.481 124.425 172.337 124.425V124.417Z" fill="white"/>
<path d="M165.989 84.5183C165.989 84.5183 165.974 84.5183 165.967 84.5183L146.546 83.4955C146.334 83.4879 146.175 83.3061 146.19 83.0939C146.198 82.8818 146.379 82.7227 146.591 82.7378L166.012 83.7607C166.224 83.7683 166.383 83.9501 166.367 84.1622C166.36 84.3668 166.193 84.5183 165.989 84.5183Z" fill="white"/>
</g>
<defs>
<clipPath id="clip0_127_85054">
<rect width="430" height="300" fill="white" transform="translate(-0.000488281)"/>
</clipPath>
</defs>
</svg>
