<svg width="538" height="420" viewBox="0 0 538 420" fill="none" xmlns="http://www.w3.org/2000/svg">
<path d="M433.156 309.461C433.729 322.541 439.852 343.525 424.258 351.029C420.051 353.058 414.998 351.029 411.538 348.192C407.008 344.458 403.735 334.9 402.391 329.312C401.32 324.881 401.582 319.579 400.934 314.999C400.25 310.021 399.453 305.13 398.794 300.177C396.442 282.33 401.831 265.515 414.973 252.995C417.587 258.384 421.507 262.516 425.278 267.37C427.022 269.594 428.599 271.944 429.995 274.402C432.422 278.708 432.086 283.761 432.086 288.478C432.061 295.435 432.845 302.491 433.156 309.461Z" fill="#58A07D"/>
<path d="M421.346 353.457C421.322 352.582 421.273 351.705 421.224 350.828C419.565 350.526 417.997 349.849 416.638 348.849C414.418 347.389 412.442 345.587 410.786 343.509C410.694 343.402 410.88 343.253 410.973 343.347C412.671 345.108 414.595 346.637 416.695 347.892C418.067 348.788 419.565 349.473 421.14 349.924C421.066 348.883 420.979 347.841 420.892 346.799C419.222 346.272 417.675 345.413 416.346 344.273C414.079 342.567 411.95 340.686 409.978 338.646C413.142 341.308 416.603 345.028 420.781 346.092C420.648 344.834 420.497 343.476 420.329 342.178C420.326 342.112 420.331 342.045 420.343 341.98C415.542 340.384 412.517 336.322 409.006 332.948C408.943 332.943 409.016 332.799 409.075 332.853C412.592 335.978 415.781 339.49 420.236 341.211C419.971 339.357 419.694 337.503 419.392 335.647C415.196 333.747 411.58 330.768 408.911 327.014C408.916 326.952 408.921 326.877 409.004 326.933C411.881 330.209 415.364 332.898 419.262 334.851C418.995 333.022 418.716 331.193 418.413 329.349C416.501 328.437 414.663 327.378 412.915 326.181C411.233 324.875 409.839 323.237 408.821 321.367C408.81 321.358 408.802 321.346 408.797 321.333C408.791 321.32 408.789 321.306 408.791 321.292C408.792 321.277 408.797 321.264 408.805 321.252C408.813 321.24 408.824 321.231 408.836 321.224C408.849 321.217 408.863 321.214 408.877 321.214C408.891 321.213 408.905 321.217 408.917 321.223C408.93 321.23 408.941 321.239 408.949 321.251C408.957 321.263 408.962 321.276 408.964 321.29C411.189 325.02 414.832 326.407 418.31 328.531C418.072 326.816 417.872 325.105 417.697 323.383C413.847 320.883 409.626 318.518 407.662 314.108C407.662 314.108 407.668 314.034 407.724 314.113C409.85 318.185 413.949 320.166 417.619 322.566C417.641 322.255 417.551 321.949 417.535 321.649C417.402 320.042 417.281 318.448 417.171 316.856C414.933 315.71 412.813 314.349 410.84 312.791C409.34 311.834 408.058 310.572 407.078 309.087C407.066 309.066 407.063 309.042 407.069 309.019C407.076 308.996 407.091 308.976 407.111 308.965C407.132 308.953 407.157 308.95 407.18 308.956C407.203 308.963 407.222 308.978 407.234 308.998C409.157 312.245 413.746 314.362 417.121 316.166C417.014 314.548 416.906 312.943 416.786 311.325C413.094 308.712 408.633 307.078 406.567 302.699C406.502 302.569 406.697 302.458 406.762 302.588C408.966 306.616 413.2 308.12 416.74 310.573C416.662 309.582 416.598 308.579 416.521 307.575C412.448 305.745 407.848 301.893 405.924 297.96C405.909 297.918 405.909 297.872 405.925 297.83C405.941 297.788 405.971 297.753 406.011 297.732C406.05 297.711 406.096 297.704 406.14 297.714C406.183 297.723 406.222 297.748 406.249 297.784C408.686 301.727 412.237 304.858 416.453 306.784C416.321 305.164 416.175 303.557 416.006 301.935C415.981 301.891 415.963 301.843 415.954 301.794C414.112 300.928 412.388 299.83 410.825 298.527C408.886 297.275 407.272 295.58 406.117 293.582C406.008 293.362 406.371 293.176 406.479 293.408C408.101 296.857 412.284 299.394 415.917 300.93C415.847 300.338 415.79 299.748 415.721 299.156C415.61 298.275 415.499 297.393 415.375 296.523C413.96 295.385 412.096 294.751 410.686 293.551C409.477 292.484 408.363 291.314 407.358 290.053C407.255 289.933 407.441 289.772 407.545 289.879C408.902 291.438 410.46 292.81 412.179 293.958C413.169 294.592 414.325 294.987 415.275 295.655C415.092 294.219 414.897 292.783 414.727 291.335L414.616 291.327C414.572 291.336 414.527 291.333 414.486 291.316C414.445 291.3 414.41 291.272 414.385 291.236C412.386 290.579 410.961 288.717 409.69 287.152C409.69 287.152 409.696 287.065 409.69 287.152C410.965 288.728 412.579 289.996 414.412 290.863L414.549 290.873C414.421 289.704 414.295 288.521 414.18 287.353C414.144 287.347 414.111 287.334 414.081 287.315C414.05 287.296 414.024 287.271 414.004 287.241C413.984 287.212 413.971 287.179 413.964 287.144C413.957 287.109 413.958 287.072 413.965 287.038C412.949 286.207 412.013 285.283 411.171 284.277C411.113 284.211 411.183 284.103 411.29 284.174C412.143 285.043 413.086 285.819 414.105 286.486C413.879 284.057 413.785 281.618 413.823 279.179C413.84 278.955 414.162 278.978 414.171 279.204C414.212 281.565 414.379 283.911 414.621 286.249C415.935 284.918 417.07 283.424 418.001 281.802C418.002 281.782 418.011 281.764 418.026 281.751C418.041 281.738 418.061 281.732 418.081 281.733C418.1 281.734 418.119 281.744 418.132 281.759C418.145 281.774 418.151 281.793 418.15 281.813C417.697 282.802 417.127 283.732 416.452 284.585C415.937 285.422 415.354 286.214 414.708 286.954C414.841 288.212 415 289.471 415.158 290.73C416.753 290.766 418.303 290.201 419.502 289.149C420.701 288.097 421.462 286.633 421.634 285.048C421.65 284.824 422.01 284.85 421.981 285.073C421.754 286.7 421.02 288.214 419.884 289.4C418.649 290.476 417.086 291.102 415.45 291.176C415.645 292.625 415.852 294.075 416.058 295.525C417.337 294.82 418.569 294.034 419.748 293.171C421.433 291.797 423.025 290.312 424.512 288.725C424.673 288.574 424.916 288.829 424.743 288.979C423.356 290.517 421.872 291.964 420.299 293.311C419.008 294.363 417.612 295.278 416.133 296.042L416.117 296.265C416.152 296.313 416.169 296.372 416.165 296.431C416.161 296.49 416.135 296.546 416.094 296.588C416.293 297.975 416.504 299.363 416.691 300.749C416.678 300.831 416.672 300.914 416.673 300.997C419.956 299.775 424.893 297.587 425.582 293.931C425.608 293.583 426.159 293.723 426.059 294.078C424.813 298.18 420.086 299.697 416.768 301.753C416.967 303.315 417.14 304.887 417.288 306.457C419.403 305.96 421.415 305.101 423.237 303.918C424.891 302.79 427.222 301.449 428.057 299.563C428.062 299.501 428.181 299.572 428.156 299.57C427.359 301.447 425.278 302.619 423.73 303.829C421.901 305.409 419.724 306.534 417.378 307.113C417.392 307.183 417.387 307.256 417.363 307.324C417.453 308.316 417.53 309.32 417.62 310.312C421.502 310.294 427.114 307.756 429.299 304.981C427.752 306.956 425.657 308.432 423.277 309.225C421.514 310.107 419.599 310.646 417.634 310.812L418.056 316.358C419.777 315.859 421.573 315.69 423.273 315.139C425.747 314.3 427.899 312.711 429.429 310.594C429.539 310.464 429.74 310.616 429.645 310.721C426.668 314.773 422.729 315.748 418.108 317.011C418.223 318.529 418.35 320.048 418.491 321.556C422.266 321.118 427.158 319.214 429.268 316.097C429.421 315.871 429.777 316.134 429.626 316.323C428.19 318.18 426.24 319.574 424.02 320.334C422.312 321.24 420.456 321.832 418.54 322.083C418.542 322.133 418.538 322.183 418.529 322.232C418.745 324.419 419.012 326.585 419.304 328.752C423.5 328.021 426.378 325.159 429.589 322.522C429.802 322.338 430.115 322.66 429.889 322.856C426.619 325.626 423.709 328.585 419.432 329.398C419.691 331.164 419.964 332.918 420.297 334.689C424.025 333.813 427.406 331.842 430.003 329.028C430.18 328.829 430.446 329.123 430.281 329.323C427.638 332.242 424.211 334.341 420.41 335.371C420.735 337.254 421.071 339.162 421.411 341.021C424.957 340.583 428.191 338.775 430.423 335.984C430.427 335.922 430.584 335.996 430.527 336.091C428.367 338.693 425.134 341.64 421.538 341.679L421.869 343.475C421.93 343.842 422.003 344.209 422.076 344.588C424.826 344.092 427.448 343.047 429.785 341.515C429.847 341.52 429.922 341.525 429.852 341.62C427.56 343.343 424.918 344.54 422.111 345.127C422.328 346.266 422.568 347.432 422.794 348.621C423.487 348.323 424.201 348.078 424.931 347.89C426.183 347.472 427.375 346.891 428.475 346.162C428.587 346.17 428.692 346.265 428.588 346.333C427.627 347.035 426.593 347.63 425.502 348.106C424.61 348.366 423.747 348.727 422.876 349.039C423.783 353.746 424.532 358.742 423.615 363.13C423.408 364.101 421.738 364.242 421.565 363.181C421.297 359.947 421.223 356.7 421.346 353.457Z" fill="#FAFAFA"/>
<path d="M234.47 24.0698H113.062V137.387H234.47V24.0698Z" fill="#112B46"/>
<g style="mix-blend-mode:screen">
<g style="mix-blend-mode:screen">
<path d="M234.47 24.0698H113.062V36.055H234.47V24.0698Z" fill="#1D262D"/>
</g>
</g>
<path d="M208.242 30.1558C208.244 30.592 208.117 31.0191 207.876 31.383C207.636 31.7469 207.293 32.0312 206.89 32.1998C206.488 32.3685 206.045 32.4139 205.617 32.3303C205.189 32.2467 204.795 32.0379 204.486 31.7303C204.176 31.4227 203.965 31.0302 203.879 30.6026C203.793 30.1749 203.836 29.7314 204.002 29.3281C204.169 28.9249 204.451 28.5801 204.814 28.3375C205.176 28.0949 205.603 27.9653 206.039 27.9653C206.621 27.9653 207.179 28.1957 207.592 28.6061C208.005 29.0166 208.238 29.5737 208.242 30.1558Z" fill="#606BF1"/>
<path d="M217.414 30.1558C217.416 30.592 217.289 31.0191 217.048 31.383C216.808 31.7469 216.465 32.0312 216.062 32.1998C215.66 32.3685 215.217 32.4139 214.789 32.3303C214.36 32.2467 213.967 32.0379 213.657 31.7303C213.348 31.4227 213.137 31.0302 213.051 30.6026C212.965 30.1749 213.008 29.7314 213.174 29.3281C213.341 28.9249 213.623 28.5801 213.986 28.3375C214.348 28.0949 214.774 27.9653 215.211 27.9653C215.793 27.9653 216.351 28.1957 216.764 28.6061C217.177 29.0166 217.41 29.5737 217.414 30.1558Z" fill="#FBD15B"/>
<path d="M225.921 30.4422C225.921 30.8784 225.792 31.3048 225.549 31.6673C225.307 32.0298 224.962 32.3122 224.559 32.4785C224.155 32.6449 223.712 32.6878 223.284 32.6018C222.857 32.5158 222.464 32.3047 222.156 31.9954C221.849 31.6861 221.64 31.2924 221.556 30.8643C221.473 30.4361 221.518 29.9928 221.687 29.5905C221.856 29.1882 222.14 28.845 222.504 28.6045C222.868 28.3639 223.295 28.2368 223.731 28.2393C224.02 28.2393 224.306 28.2964 224.572 28.4072C224.839 28.5181 225.081 28.6805 225.284 28.8852C225.488 29.09 225.649 29.3329 225.758 29.6001C225.868 29.8673 225.923 30.1535 225.921 30.4422Z" fill="#FF8578"/>
<path d="M151.848 47.1938H134.648V48.6375H151.848V47.1938Z" fill="#FF8578"/>
<path d="M172.036 47.1938H154.836V48.6375H172.036V47.1938Z" fill="#FBD15B"/>
<path d="M166.648 54.9849H139.977V56.4286H166.648V54.9849Z" fill="#606BF1"/>
<path d="M184.6 54.9849H171.047V56.4286H184.6V54.9849Z" fill="#FF8578"/>
<path d="M160.93 62.7759H149.219V64.2196H160.93V62.7759Z" fill="#FBD15B"/>
<path d="M206.558 62.7759H167.703V64.2196H206.558V62.7759Z" fill="#FBD15B"/>
<path d="M202.726 70.5542H158.32V71.9979H202.726V70.5542Z" fill="#606BF1"/>
<path d="M160.884 78.3452H147.219V79.7889H160.884V78.3452Z" fill="#FF8578"/>
<path d="M180.4 78.3452H166.734V79.7889H180.4V78.3452Z" fill="#606BF1"/>
<path d="M154.524 118.731H134.648V120.175H154.524V118.731Z" fill="#FF8578"/>
<path d="M181.368 118.731H161.492V120.175H181.368V118.731Z" fill="#FBD15B"/>
<path d="M207.493 118.731H187.617V120.175H207.493V118.731Z" fill="#FF8578"/>
<path d="M178.832 110.953H139.977V112.397H178.832V110.953Z" fill="#606BF1"/>
<path d="M223.73 110.953H184.875V112.397H223.73V110.953Z" fill="#FF8578"/>
<path d="M187.775 103.162H149.219V104.606H187.775V103.162Z" fill="#FF8578"/>
<path d="M201.869 103.162H191.141V104.606H201.869V103.162Z" fill="#FBD15B"/>
<path d="M161.215 95.3833H146.703V96.827H161.215V95.3833Z" fill="#FBD15B"/>
<path d="M183.434 95.3833H168.922V96.827H183.434V95.3833Z" fill="#606BF1"/>
<path d="M207.277 95.3833H192.766V96.827H207.277V95.3833Z" fill="#FF8578"/>
<path d="M183.872 87.5923H163.523V89.036H183.872V87.5923Z" fill="#FBD15B"/>
<path d="M155.841 87.5923H135.492V89.036H155.841V87.5923Z" fill="#606BF1"/>
<path d="M125.253 45.8125H123.398V47.6669H125.253V45.8125Z" fill="#F9FBFC"/>
<path d="M125.225 113.703H123.383V109.97H125.225V113.703ZM125.225 104.269H123.383V100.536H125.225V104.269ZM125.225 94.8356H123.383V91.1019H125.225V94.8356ZM125.225 85.4018H123.383V81.6681H125.225V85.4018ZM125.225 75.968H123.383V72.2343H125.225V75.968ZM125.225 66.5342H123.383V62.8005H125.225V66.5342ZM125.225 57.1004H123.383V53.3667H125.225V57.1004Z" fill="#F9FBFC"/>
<path d="M125.253 119.354H123.398V121.208H125.253V119.354Z" fill="#F9FBFC"/>
<path d="M360.57 0H260.594V61.6308H360.57V0Z" fill="#3A4147"/>
<path d="M299.467 24.7919L287.581 29.8697L299.467 34.848L297.911 38.4448L283.648 32.0726V27.6668L297.911 21.2573L299.467 24.7919Z" fill="#F9FBFC"/>
<path d="M316.963 13.043L308.326 46.2107L304.219 45.2399L312.931 12.1221L316.963 13.043Z" fill="#F9FBFC"/>
<path d="M337.612 27.6668V32.085L323.337 38.4572L321.781 34.8604L333.642 29.8822L321.781 24.8043L323.337 21.2822L337.612 27.6668Z" fill="#F9FBFC"/>
<path d="M414.079 119.391H357.141V159.964H414.079V119.391Z" fill="#2D373D"/>
<path d="M380.972 128.153C379.13 128.153 378.483 128.638 378.483 130.007V136.118C378.483 138.495 377.499 139.229 375.844 139.69C377.499 140.126 378.483 140.86 378.483 143.212V149.31C378.483 150.679 379.13 151.177 380.972 151.177V153.853C376.342 153.853 375.035 152.372 375.035 149.286V143.498C375.035 141.843 374.6 141.208 373.094 141.208V138.147C374.6 138.147 375.035 137.487 375.035 135.819V130.045C375.035 126.933 376.28 125.477 380.972 125.477V128.153Z" fill="#F1F2F2"/>
<path d="M396.202 130.045V135.819C396.202 137.487 396.638 138.147 398.181 138.147V141.208C396.638 141.208 396.202 141.843 396.202 143.498V149.286C396.202 152.372 394.895 153.853 390.266 153.853V151.177C392.07 151.177 392.755 150.679 392.755 149.31V143.212C392.69 142.806 392.707 142.391 392.807 141.991C392.906 141.592 393.084 141.217 393.332 140.888C393.579 140.559 393.89 140.283 394.247 140.078C394.603 139.872 394.997 139.74 395.406 139.69C393.75 139.229 392.755 138.445 392.755 136.118V130.007C392.755 128.638 392.145 128.153 390.266 128.153V125.477C394.895 125.477 396.202 126.933 396.202 130.045Z" fill="#F1F2F2"/>
<path d="M138.305 8.83643H74.4219V51.5623H138.305V8.83643Z" fill="#2176FF"/>
<path d="M95.5682 21.108C93.9838 23.0607 93.1544 25.5182 93.2315 28.0317C93.3086 30.5453 94.2869 32.9473 95.988 34.7993C97.6891 36.6514 99.9995 37.8299 102.497 38.1199C104.995 38.4098 107.514 37.7919 109.594 36.3788L116.303 43.087C116.44 43.2193 116.623 43.2932 116.813 43.2932C117.003 43.2932 117.186 43.2193 117.323 43.087L119.215 41.1952C119.283 41.1291 119.338 41.0498 119.375 40.9621C119.412 40.8744 119.432 40.7802 119.432 40.6849C119.432 40.5897 119.412 40.4954 119.375 40.4078C119.338 40.3201 119.283 40.2408 119.215 40.1747L112.507 33.4665C114.068 31.217 114.687 28.4458 114.231 25.7459C113.775 23.046 112.28 20.6318 110.066 19.02C107.853 17.4083 105.096 16.7269 102.387 17.1218C99.6771 17.5166 97.2297 18.9564 95.5682 21.1328V21.108ZM109.047 32.8691C108.007 33.9249 106.677 34.6474 105.225 34.9449C103.774 35.2423 102.266 35.1011 100.895 34.5393C99.524 33.9775 98.351 33.0205 97.5254 31.79C96.6998 30.5595 96.2589 29.1113 96.2589 27.6295C96.2589 26.1477 96.6998 24.6994 97.5254 23.4689C98.351 22.2384 99.524 21.2814 100.895 20.7196C102.266 20.1578 103.774 20.0166 105.225 20.3141C106.677 20.6115 108.007 21.3341 109.047 22.3899C110.423 23.7868 111.194 25.6688 111.194 27.6295C111.194 29.5901 110.423 31.4721 109.047 32.8691Z" fill="#F9FBFC"/>
<path d="M324.142 140.823C323.993 142.241 322.064 157.002 306.918 157.002C291.012 157.002 293.675 141.246 293.675 141.246V141.146C295.313 140.809 296.992 140.73 298.654 140.91V133.442L316.712 123.336H317.372V140.76C319.625 140.549 321.894 140.57 324.142 140.823Z" fill="url(#paint0_radial_8924_29529)"/>
<path d="M315.373 90.0443C318.095 92.8163 319.977 96.303 320.799 100.1C322.529 107.754 320.899 115.844 318.683 123.212C318.362 124.493 317.823 125.71 317.09 126.809C316.508 127.549 315.844 128.221 315.111 128.812C311.9 131.6 308.694 134.401 305.491 137.213C303.313 139.105 289.946 140.698 287.395 138.869C277.563 131.837 275.659 111.488 277.638 101.046C280.898 83.7717 303.101 77.5986 315.373 90.0443Z" fill="url(#paint1_radial_8924_29529)"/>
<path d="M309.846 112.148C309.983 110.493 311.688 108.663 313.405 109.746C315.123 110.829 314.762 113.816 314.027 115.446C313.455 116.691 311.538 118.109 310.207 116.927C309.111 115.931 310.816 114.761 310.879 113.853C310.941 112.944 309.286 112.459 309.958 111.575" fill="#F7B094"/>
<path d="M310.156 119.839C311.331 120.027 312.535 119.797 313.558 119.19C314.581 118.583 315.359 117.637 315.757 116.516C316.239 114.774 316.469 112.972 316.442 111.165C317.049 113.069 317.203 115.089 316.89 117.064C316.417 120.698 315.147 124.17 312.297 124.208C309.447 124.245 310.156 119.839 310.156 119.839Z" fill="#F7B094"/>
<path d="M307.964 117.275C307.902 117.309 307.834 117.33 307.764 117.337C306.644 117.487 306.209 116.155 306.047 115.309C305.759 113.343 305.626 111.358 305.649 109.372C305.685 108.839 305.626 108.304 305.474 107.792C304.852 106.36 303.184 105.439 302.674 103.958C302.089 102.241 303.757 100.536 303.097 98.6566C302.077 95.7816 298.393 95.122 295.717 95.1469C291.731 95.3361 287.764 95.806 283.844 96.5533C279.675 97.2004 274.335 97.7978 270.652 95.1718C266.221 91.9982 264.429 83.6969 267.677 79.1542C268.684 77.9503 269.942 76.9812 271.363 76.3147C272.784 75.6482 274.334 75.3006 275.904 75.2961C279.077 75.2214 281.765 77.1132 284.678 78.0715C286.993 78.8307 289.245 76.6029 291.411 76.1797C294.136 75.6321 295.294 78.6066 297.708 78.6689C300.123 78.7311 302.351 76.914 304.628 76.4909C309.171 75.6695 308.909 80.2246 311.959 81.7927C313.85 82.7635 316.302 82.1661 318.181 83.1617C319.638 83.9085 319.837 85.2153 320.16 86.7087C320.319 88.0531 320.556 89.387 320.87 90.7038C321.373 91.7073 322.061 92.6068 322.898 93.3547C323.65 94.3132 324.22 95.4016 324.578 96.5657C325.418 99.2002 325.706 101.979 325.425 104.73C324.853 109.332 323.703 113.844 322.002 118.159C321.007 120.959 320.646 123.884 319.115 126.535C318.704 127.244 316.875 129.323 316.203 127.779C316.083 127.436 316.048 127.069 316.103 126.709C316.302 123.809 318.99 105.191 311.946 107.431C311.239 107.685 310.598 108.095 310.072 108.632C309.546 109.169 309.149 109.817 308.909 110.53C308.337 112.183 308.125 113.94 308.287 115.682C308.287 115.944 308.287 116.192 308.287 116.454C308.311 116.607 308.294 116.764 308.237 116.909C308.18 117.053 308.086 117.18 307.964 117.275Z" fill="black"/>
<path d="M298.645 139.179C306.672 137.935 311.962 131.55 311.962 131.55C311.21 134.671 309.452 137.458 306.961 139.482C304.469 141.506 301.381 142.655 298.172 142.751L298.645 139.179Z" fill="#F7B094"/>
<path d="M321.267 396.954H313.799C313.261 396.954 312.745 396.74 312.365 396.36C311.984 395.979 311.771 395.463 311.771 394.925V284.744H323.258L323.258 394.925C323.258 395.457 323.049 395.968 322.677 396.347C322.305 396.726 321.798 396.944 321.267 396.954Z" fill="#0A2033"/>
<path d="M341.272 295.908H293.841C291.759 295.908 289.761 295.08 288.288 293.608C286.816 292.135 285.988 290.137 285.988 288.055V286.325H349.125V288.055C349.125 290.137 348.298 292.135 346.825 293.608C345.352 295.08 343.355 295.908 341.272 295.908Z" fill="#30475E"/>
<path d="M321.267 411.44H313.799C313.261 411.44 312.745 411.227 312.365 410.846C311.984 410.466 311.771 409.95 311.771 409.412V383.886H323.258V409.424C323.255 409.954 323.045 410.461 322.673 410.838C322.3 411.214 321.796 411.431 321.267 411.44Z" fill="#0A2033"/>
<path d="M257.969 404.77C257.969 406.099 258.363 407.399 259.101 408.504C259.84 409.609 260.889 410.47 262.118 410.979C263.346 411.488 264.697 411.621 266.001 411.361C267.304 411.102 268.502 410.462 269.442 409.522C270.382 408.582 271.022 407.385 271.281 406.081C271.54 404.777 271.407 403.426 270.898 402.198C270.39 400.97 269.528 399.92 268.423 399.182C267.318 398.443 266.019 398.049 264.689 398.049C262.907 398.049 261.198 398.757 259.937 400.018C258.677 401.278 257.969 402.988 257.969 404.77Z" fill="#0A2033"/>
<path d="M363.711 404.77C363.711 406.099 364.105 407.399 364.844 408.504C365.582 409.609 366.632 410.47 367.86 410.979C369.088 411.488 370.439 411.621 371.743 411.361C373.046 411.102 374.244 410.462 375.184 409.522C376.124 408.582 376.764 407.385 377.023 406.081C377.282 404.777 377.149 403.426 376.641 402.198C376.132 400.97 375.271 399.92 374.165 399.182C373.06 398.443 371.761 398.049 370.432 398.049C368.649 398.049 366.94 398.757 365.679 400.018C364.419 401.278 363.711 402.988 363.711 404.77Z" fill="#0A2033"/>
<path d="M305.995 395.522H329.094V375.336H305.995V395.522Z" fill="#30475E"/>
<path d="M377.141 400.277H257.961V397.937C257.961 396.039 258.715 394.219 260.057 392.877C261.399 391.535 263.219 390.781 265.117 390.781H369.984C371.882 390.781 373.703 391.535 375.045 392.877C376.387 394.219 377.141 396.039 377.141 397.937V400.277Z" fill="#C9DCFF"/>
<path d="M317.545 298.173H313.562V373.531H317.545V298.173Z" fill="#30475E"/>
<path d="M362.673 204.893C362.02 204.871 361.369 204.986 360.762 205.23C360.156 205.474 359.607 205.842 359.151 206.311C358.696 206.78 358.343 207.339 358.115 207.952C357.888 208.565 357.792 209.218 357.832 209.871C358.616 223.561 355.716 256.916 342.984 268.291C327.402 282.218 283.245 280.326 283.245 280.326C283.245 280.326 275.952 289.274 290.538 291.253C305.125 293.232 346.208 291.925 356.152 282.641C365.772 273.655 371.485 250.12 367.191 209.211C367.075 208.077 366.552 207.022 365.72 206.242C364.887 205.462 363.801 205.01 362.661 204.967L362.673 204.893Z" fill="#C9DCFF"/>
<path d="M279.948 373.531L285.2 385.504L269.108 392.561L263.844 380.551L279.948 373.531Z" fill="url(#paint2_radial_8924_29529)"/>
<path d="M355.818 240.487C354.822 242.479 283.347 240.487 276.589 241.147C276.589 241.147 232.842 262.018 226.57 281.57C225.892 284.07 225.681 286.673 225.947 289.249C227.702 316.767 259.04 382.666 259.04 382.666L263.844 380.551L279.949 373.531L282.239 372.536C282.239 372.536 257.348 298.472 262.326 294.489C267.304 290.506 323.633 280.575 343.223 275.285C362.812 269.996 355.818 240.487 355.818 240.487Z" fill="#3A4147"/>
<path d="M218.615 376.605L219.873 394.589H202.324L201.055 376.568L218.615 376.605Z" fill="url(#paint3_radial_8924_29529)"/>
<path d="M276.242 240.487L275.607 240.774C275.607 240.774 202.389 251.091 190.441 271.601C182.675 284.968 197.685 382.604 197.685 382.604L223.596 382.666C223.596 382.666 219.726 301.334 221.02 296.791C222.464 291.626 224.953 289.76 225.998 289.224C225.732 286.648 225.943 284.045 226.621 281.545C232.844 261.993 276.64 241.122 276.64 241.122C276.445 240.956 276.306 240.735 276.242 240.487Z" fill="#2D373D"/>
<path d="M346.971 172.857L342.067 173.529C341.189 182.432 339.813 191.278 337.948 200.026L276.765 223.25L275.931 227.68H275.172C275.172 228.601 275.172 229.498 275.234 230.331C275.371 235.434 275.707 239.118 276.242 240.587C276.299 240.825 276.424 241.042 276.603 241.209C278.271 242.565 299.901 239.964 323.299 248.527C343.586 255.994 354.961 264.109 355.484 263.014C361.868 249.697 350.257 197.674 346.971 172.857Z" fill="#2176FF"/>
<path d="M340.532 203.15C338.901 210.991 334.695 226.573 326.418 228.664C315.615 231.414 294.744 231.265 275.179 230.219C275.179 229.386 275.179 228.489 275.117 227.568H275.876L276.71 223.138L337.893 199.914C339.759 191.166 341.134 182.32 342.013 173.417C342.013 173.417 342.013 173.505 342.013 173.641C342.199 175.77 343.021 191.625 340.532 203.15Z" fill="#0062FF"/>
<path d="M279.264 153.368C278.169 155.347 276.589 176.629 275.742 197.749L263.234 186.075C268.536 175.77 279.264 153.368 279.264 153.368Z" fill="#0062FF"/>
<path d="M271.762 213.107C261.208 214.937 251.5 216.517 251.5 216.517V217.027C239.739 207.643 221.867 181.059 221.867 181.059C221.867 181.059 227.219 174.638 228.551 172.945C228.75 172.684 257.897 192.746 259.391 192.572C259.764 192.572 261.258 189.908 263.249 186.013L275.757 197.687C275.558 202.665 275.396 207.731 275.296 212.472C274.114 212.709 272.932 212.908 271.762 213.107Z" fill="#F7B094"/>
<path d="M251.502 216.53L251.241 225.242H219.43C219.43 225.242 222.591 212.796 231.203 212.796C239.816 212.796 243.126 217.351 243.126 217.351L251.502 216.53Z" fill="url(#paint4_radial_8924_29529)"/>
<path d="M228.296 172.758L228.533 172.957C227.201 174.65 221.85 181.072 221.85 181.072L218.564 178.719C217.342 179.368 215.977 179.698 214.593 179.681C213.21 179.663 211.854 179.299 210.648 178.62C206.218 176.218 208.956 170.468 209.192 169.796C208.334 170.032 202.969 174.326 202.185 173.878C201.401 173.43 200.729 171.899 206.678 166.037C212.627 160.175 220.667 167.705 220.916 167.705L228.296 172.758Z" fill="#F7B094"/>
<path d="M211.314 177.624C211.314 177.624 210.069 180.026 212.309 181.072C215.048 182.163 217.973 182.712 220.922 182.69C222.826 182.503 224.344 179.84 224.344 179.84L218.569 174.426H213.964L211.314 177.624Z" fill="#F7B094"/>
<path d="M210.96 178.807C211.309 177.624 214.582 178.259 216.61 178.309C218.104 178.309 218.925 177.948 219.386 176.803C219.846 175.658 217.681 173.853 217.258 174.426C216.834 174.998 218.042 175.795 218.067 176.554C218.091 177.313 215.938 177.562 214.258 177.562C212.733 177.622 211.212 177.767 209.703 177.998L210.96 178.807Z" fill="#E8987C"/>
<path d="M334.832 211.315L303.718 200.275C301.44 204.519 299.013 207.743 296.611 208.328C292.977 209.286 284.166 210.941 275.317 212.485C274.147 212.709 272.965 212.908 271.795 213.119C261.241 214.949 251.533 216.529 251.533 216.529V217.04V217.376L251.297 225.241V227.233C259.271 226.926 267.257 227.055 275.217 227.618C293.886 228.95 317.968 229.747 325.946 225.988C329.68 224.221 332.667 218.409 335.019 211.252L334.832 211.315Z" fill="url(#paint5_radial_8924_29529)"/>
<path d="M303.673 200.275L334.837 211.315L333.418 215.472L302.578 202.242L303.673 200.275Z" fill="#F7B094"/>
<path d="M303.682 200.276C301.405 204.52 298.978 207.743 296.576 208.328C292.942 209.286 284.13 210.942 275.281 212.485C275.381 207.743 275.543 202.727 275.742 197.699C276.588 176.542 278.169 155.297 279.264 153.318C281.044 149.995 285.935 142.777 293.651 141.121V141.221C293.651 141.221 291.013 156.977 306.931 156.977C322.077 156.977 324.006 142.242 324.155 140.798C331.946 141.669 343.894 145.577 345.549 161.246C345.885 164.345 346.358 168.315 346.981 172.833L342.065 173.505C342.065 173.505 340.073 195.584 334.971 211.228L334.846 211.29L303.682 200.276Z" fill="#2176FF"/>
<path d="M303.344 197.4L315.789 167.282L306.617 198.62L303.344 197.4Z" fill="#0062FF"/>
<path d="M324.142 140.822H317.359C317.359 140.822 307.701 151.414 301.503 151.414C295.305 151.414 298.641 140.884 298.641 140.884H295.617C291.417 140.888 287.364 142.436 284.232 145.233C281.099 148.031 279.105 151.883 278.628 156.056C278.516 157.039 278.404 157.972 278.317 158.831C277.657 165.241 303.619 169.895 303.619 169.895L316.998 169.149L325.113 153.367L326.731 146.871L324.142 140.822Z" fill="#2176FF"/>
<path d="M242.317 406.338C242.927 409.586 245.167 411.889 248.415 411.316L291.602 403.264C292.126 403.164 292.59 402.861 292.891 402.42C293.192 401.979 293.306 401.437 293.207 400.912L292.498 397.079C292.498 397.079 247.071 405.031 242.305 406.351L242.317 406.338Z" fill="#F1F2F2"/>
<path d="M255.168 395.473L256.5 394.303L258.989 392.038C259.424 391.652 259.86 391.266 260.233 390.893L262.424 388.939L263.756 387.694L265.523 386.114C265.697 385.968 265.918 385.888 266.145 385.888C266.373 385.888 266.593 385.968 266.767 386.114C268.547 387.607 274.235 391.017 284.677 384.583C284.794 384.512 284.924 384.465 285.059 384.446C285.195 384.426 285.333 384.434 285.465 384.469C285.598 384.504 285.722 384.565 285.83 384.648C285.938 384.732 286.029 384.837 286.096 384.956L292.318 397.028C292.318 397.028 246.892 404.981 242.125 406.3C243.867 405.342 249.68 400.327 255.168 395.473Z" fill="#2176FF"/>
<path d="M174.302 405.915C174.389 409.213 176.231 411.839 179.529 411.764L223.449 410.694C223.714 410.687 223.975 410.629 224.217 410.522C224.459 410.414 224.678 410.26 224.861 410.068C225.043 409.876 225.186 409.65 225.282 409.403C225.377 409.156 225.422 408.893 225.416 408.628L225.316 404.732C225.316 404.732 179.267 405.342 174.289 405.89L174.302 405.915Z" fill="#F1F2F2"/>
<path d="M188.701 397.228L190.195 396.294L193.07 394.465L194.501 393.544L196.99 391.951L198.496 390.968L200.487 389.723C200.682 389.6 200.913 389.55 201.141 389.582C201.369 389.614 201.579 389.725 201.732 389.897C203.238 391.652 208.365 395.933 219.653 391.241C219.779 391.186 219.915 391.158 220.053 391.158C220.191 391.159 220.327 391.188 220.452 391.244C220.578 391.301 220.69 391.383 220.782 391.485C220.874 391.587 220.943 391.708 220.985 391.839L225.316 404.77C225.316 404.77 179.267 405.38 174.289 405.927C175.994 405.181 182.478 401.148 188.701 397.228Z" fill="#2176FF"/>
<path d="M143.049 227.22L119.602 164.668H186.372L209.833 227.22H143.049Z" fill="#ABB5BA"/>
<path d="M213.959 227.22H209.827L186.367 164.668L190.113 164.83L211.819 221.458L213.959 227.22Z" fill="#8495A0"/>
<path d="M212.666 227.232H256.786L256.674 223.287H211.758" fill="#8495A0"/>
<path d="M400.644 239.156H390.016V413.681H400.644V239.156Z" fill="#8495A0"/>
<path d="M342.988 239.156H332.359V413.681H342.988V239.156Z" fill="#ABB5BA"/>
<path d="M158.246 239.156H147.617V413.681H158.246V239.156Z" fill="#8495A0"/>
<path d="M100.582 239.156H89.9531V413.681H100.582V239.156Z" fill="#ABB5BA"/>
<path d="M411.277 227.22H79.7743C76.9218 227.22 74.6094 229.533 74.6094 232.385V234.65C74.6094 237.503 76.9218 239.815 79.7743 239.815H411.277C414.129 239.815 416.442 237.503 416.442 234.65V232.385C416.442 229.533 414.129 227.22 411.277 227.22Z" fill="#141B56"/>
<path d="M130.75 171.24L131.883 174.289H145.187L144.054 171.24H130.75Z" fill="#8495A0"/>
<path d="M263.219 186.013L262.273 187.867L275.727 201.769V197.687L263.219 186.013Z" fill="#E8987C"/>
<path d="M537.998 411.44H0.445312V419.404H537.998V411.44Z" fill="#A5B7C6"/>
<path d="M452.766 320.401C450.638 330.768 451.298 348.416 437.607 351.254C433.874 352 430.352 349.449 428.211 346.512C425.398 342.679 424.726 334.552 424.776 329.909C424.776 326.176 426.021 322.118 426.469 318.41C426.904 314.402 427.265 310.37 427.713 306.362C429.393 291.925 436.935 279.816 449.705 272.597C450.7 277.339 452.953 281.309 454.932 285.914C455.858 288 456.632 290.15 457.247 292.348C458.292 296.207 457.023 300.102 456.089 303.786C454.695 309.2 453.911 314.887 452.766 320.401Z" fill="#6ACE99"/>
<path d="M435.256 351.565C435.343 350.694 435.455 349.822 435.567 348.951C437.244 348.769 438.857 348.208 440.284 347.308C442.605 346.013 444.705 344.358 446.507 342.405C446.607 342.305 446.432 342.143 446.333 342.231C444.512 343.864 442.482 345.249 440.297 346.35C438.864 347.144 437.32 347.719 435.717 348.055C435.866 347.022 436.028 345.989 436.19 344.956C437.894 344.552 439.498 343.807 440.907 342.766C443.291 341.228 445.55 339.505 447.665 337.613C444.317 340.04 440.595 343.5 436.351 344.259C436.575 343.015 436.824 341.671 437.086 340.389C437.093 340.322 437.093 340.256 437.086 340.189C441.989 338.945 445.3 335.112 449.046 332C449.108 332 449.046 331.851 448.984 331.901C445.25 334.763 441.815 338.036 437.248 339.43C437.646 337.601 438.056 335.771 438.492 333.942C442.814 332.35 446.636 329.64 449.569 326.089C449.569 326.026 449.569 325.952 449.482 326.001C446.376 329.061 442.707 331.491 438.679 333.158C439.077 331.353 439.488 329.548 439.923 327.731C441.896 326.96 443.806 326.036 445.636 324.968C447.408 323.788 448.916 322.254 450.067 320.463C450.078 320.455 450.087 320.444 450.093 320.431C450.1 320.418 450.103 320.404 450.102 320.39C450.102 320.376 450.098 320.362 450.091 320.35C450.084 320.337 450.074 320.327 450.062 320.319C450.05 320.312 450.036 320.307 450.022 320.306C450.008 320.305 449.994 320.307 449.981 320.313C449.968 320.318 449.956 320.327 449.947 320.338C449.938 320.349 449.932 320.362 449.93 320.376C447.441 323.935 443.707 325.056 440.085 326.922C440.446 325.23 440.77 323.537 441.068 321.832C445.088 319.617 449.469 317.563 451.747 313.307C451.747 313.307 451.747 313.232 451.684 313.307C449.27 317.215 445.039 318.895 441.205 321.023C441.205 320.712 441.317 320.413 441.355 320.115C441.604 318.522 441.84 316.941 442.064 315.36C444.379 314.38 446.592 313.175 448.673 311.764C450.238 310.917 451.607 309.751 452.693 308.341C452.706 308.321 452.711 308.297 452.706 308.274C452.701 308.25 452.688 308.23 452.668 308.217C452.648 308.203 452.624 308.199 452.6 308.203C452.577 308.208 452.556 308.222 452.543 308.242C450.39 311.34 445.661 313.12 442.164 314.676C442.388 313.07 442.612 311.477 442.848 309.872C446.719 307.532 451.286 306.225 453.663 302.006C453.738 301.882 453.551 301.757 453.477 301.882C450.988 305.74 446.656 306.935 442.948 309.125C443.097 308.142 443.234 307.146 443.383 306.151C447.577 304.62 452.444 301.11 454.647 297.327C454.665 297.286 454.668 297.24 454.655 297.197C454.643 297.154 454.615 297.117 454.577 297.093C454.539 297.069 454.494 297.059 454.45 297.065C454.405 297.072 454.365 297.094 454.335 297.128C451.62 300.884 447.852 303.751 443.508 305.367C443.757 303.761 444.018 302.168 444.304 300.563C444.332 300.521 444.353 300.474 444.366 300.426C446.266 299.695 448.065 298.725 449.718 297.538C451.743 296.43 453.475 294.855 454.771 292.946C454.895 292.734 454.547 292.523 454.423 292.747C452.556 296.07 448.2 298.297 444.466 299.567C444.578 298.982 444.678 298.397 444.79 297.812C444.964 296.941 445.138 296.07 445.325 295.211C446.818 294.178 448.722 293.68 450.216 292.585C451.499 291.609 452.694 290.522 453.788 289.337C453.9 289.225 453.726 289.05 453.614 289.15C452.148 290.607 450.494 291.862 448.698 292.884C447.665 293.444 446.482 293.755 445.487 294.352C445.773 292.933 446.071 291.515 446.345 290.083H446.457C446.5 290.096 446.545 290.095 446.587 290.082C446.629 290.068 446.666 290.043 446.694 290.009C448.735 289.498 450.291 287.744 451.672 286.275C451.672 286.275 451.672 286.188 451.672 286.275C450.286 287.754 448.584 288.903 446.694 289.635H446.557C446.768 288.478 446.98 287.308 447.179 286.15C447.215 286.147 447.249 286.137 447.281 286.12C447.312 286.103 447.34 286.08 447.362 286.052C447.384 286.024 447.4 285.992 447.41 285.958C447.419 285.923 447.421 285.887 447.416 285.852C448.489 285.097 449.489 284.243 450.403 283.3C450.465 283.238 450.403 283.126 450.291 283.188C449.378 283.994 448.38 284.7 447.316 285.292C447.717 282.885 447.987 280.459 448.125 278.023C448.125 277.799 447.801 277.799 447.777 278.023C447.565 280.376 447.229 282.703 446.818 285.018C445.605 283.596 444.58 282.023 443.769 280.338C443.769 280.319 443.761 280.3 443.747 280.286C443.733 280.272 443.714 280.264 443.694 280.264C443.675 280.264 443.656 280.272 443.642 280.286C443.628 280.3 443.62 280.319 443.62 280.338C444 281.357 444.501 282.327 445.113 283.226C445.566 284.098 446.09 284.93 446.681 285.715C446.457 286.959 446.208 288.204 445.959 289.449C444.366 289.369 442.861 288.694 441.741 287.558C440.621 286.422 439.968 284.907 439.911 283.313C439.911 283.089 439.55 283.089 439.562 283.313C439.671 284.952 440.294 286.516 441.342 287.781C442.496 288.943 444.009 289.68 445.636 289.872C445.337 291.303 445.026 292.734 444.715 294.165C443.49 293.37 442.318 292.497 441.205 291.552C439.623 290.06 438.143 288.463 436.775 286.773C436.625 286.611 436.364 286.847 436.526 287.009C437.798 288.643 439.174 290.194 440.645 291.651C441.857 292.793 443.183 293.807 444.603 294.676V294.9C444.564 294.945 444.543 295.002 444.543 295.062C444.543 295.121 444.564 295.178 444.603 295.223C444.304 296.592 443.993 297.961 443.707 299.33C443.714 299.413 443.714 299.497 443.707 299.579C440.521 298.123 435.754 295.584 435.331 291.888C435.331 291.539 434.771 291.639 434.846 292C435.791 296.182 440.396 298.036 443.557 300.326C443.246 301.869 442.96 303.425 442.699 304.981C440.626 304.332 438.68 303.33 436.949 302.019C435.381 300.774 433.153 299.268 432.456 297.327C432.456 297.264 432.332 297.327 432.356 297.327C433.016 299.256 435.007 300.575 436.463 301.894C438.174 303.602 440.263 304.881 442.562 305.628C442.543 305.697 442.543 305.77 442.562 305.84C442.4 306.823 442.251 307.818 442.089 308.802C438.218 308.503 432.804 305.566 430.826 302.641C432.226 304.722 434.209 306.346 436.526 307.308C438.221 308.316 440.092 308.991 442.039 309.299L441.218 314.8C439.538 314.178 437.758 313.879 436.103 313.207C433.695 312.192 431.664 310.452 430.29 308.229C430.191 308.092 429.979 308.229 430.066 308.341C432.742 312.597 436.6 313.855 441.118 315.448C440.894 316.953 440.658 318.459 440.409 319.953C436.675 319.243 431.933 316.991 430.054 313.73C429.917 313.494 429.544 313.73 429.681 313.929C430.979 315.885 432.822 317.417 434.982 318.335C436.62 319.362 438.428 320.087 440.322 320.476C440.316 320.525 440.316 320.575 440.322 320.625C439.948 322.79 439.525 324.931 439.077 327.072C434.945 326.039 432.282 322.977 429.27 320.115C429.071 319.916 428.735 320.214 428.946 320.426C432.008 323.425 434.696 326.586 438.903 327.706C438.517 329.449 438.119 331.179 437.658 332.921C434.003 331.779 430.774 329.568 428.386 326.574C428.224 326.362 427.938 326.636 428.088 326.848C430.513 329.951 433.779 332.292 437.496 333.593C437.036 335.448 436.563 337.327 436.09 339.156C432.585 338.463 429.489 336.426 427.465 333.481C427.465 333.419 427.303 333.481 427.353 333.581C429.32 336.331 432.332 339.505 435.916 339.804L435.455 341.571C435.368 341.932 435.269 342.293 435.169 342.666C432.462 341.973 429.922 340.741 427.702 339.044C427.64 339.044 427.565 339.044 427.627 339.144C429.789 341.028 432.338 342.413 435.094 343.201C434.796 344.321 434.472 345.466 434.161 346.636C433.492 346.289 432.797 345.993 432.083 345.753C430.864 345.245 429.717 344.58 428.673 343.774C428.56 343.774 428.448 343.861 428.548 343.936C429.455 344.706 430.444 345.374 431.498 345.927C432.369 346.251 433.203 346.674 434.049 347.047C432.804 351.677 431.697 356.605 432.294 361.048C432.431 362.032 434.086 362.293 434.335 361.248C434.837 358.041 435.144 354.808 435.256 351.565Z" fill="#FAFAFA"/>
<path d="M409.397 317.439C411.886 327.731 419.864 343.462 408.613 351.789C405.589 354.029 401.282 353.207 398.096 351.453C393.927 349.163 389.895 342.081 387.978 337.849C386.46 334.502 385.862 330.245 384.668 326.648C383.423 322.828 381.992 319.032 380.722 315.198C376.155 301.471 377.872 287.295 386.41 275.335C389.31 279.218 393.043 281.906 396.765 285.204C398.49 286.699 400.1 288.322 401.581 290.058C404.157 293.12 404.655 297.177 405.315 300.923C406.41 306.449 408.103 311.962 409.397 317.439Z" fill="#45746A"/>
<path d="M407.477 354.793C407.254 353.946 407.007 353.103 406.76 352.26C405.075 352.344 403.394 352.042 401.844 351.377C399.349 350.462 397.015 349.157 394.929 347.51C394.815 347.427 394.962 347.24 395.074 347.311C397.129 348.639 399.351 349.688 401.681 350.433C403.221 350.993 404.836 351.318 406.472 351.399C406.163 350.402 405.841 349.407 405.519 348.412C403.773 348.28 402.071 347.796 400.517 346.988C397.921 345.843 395.419 344.496 393.035 342.959C396.722 344.831 400.939 347.665 405.25 347.749C404.834 346.555 404.377 345.267 403.918 344.042C403.9 343.977 403.89 343.911 403.887 343.845C398.849 343.385 394.978 340.118 390.79 337.632C390.729 337.642 390.767 337.485 390.836 337.524C394.972 339.766 398.878 342.46 403.608 343.12C402.928 341.376 402.235 339.634 401.518 337.895C397 337 392.8 334.923 389.347 331.876C389.337 331.814 389.326 331.74 389.419 331.776C392.967 334.311 396.971 336.135 401.211 337.15C400.534 335.43 399.846 333.712 399.131 331.986C397.061 331.533 395.03 330.92 393.056 330.153C391.121 329.265 389.391 327.986 387.973 326.398C387.961 326.391 387.95 326.382 387.942 326.37C387.934 326.359 387.928 326.345 387.927 326.331C387.925 326.317 387.927 326.303 387.932 326.29C387.937 326.276 387.945 326.265 387.955 326.255C387.966 326.246 387.979 326.239 387.993 326.236C388.006 326.232 388.021 326.232 388.034 326.236C388.048 326.239 388.061 326.246 388.071 326.256C388.082 326.265 388.09 326.277 388.095 326.29C391.111 329.416 394.974 329.936 398.844 331.212C398.222 329.597 397.637 327.976 397.075 326.339C392.757 324.781 388.109 323.44 385.192 319.594C385.192 319.594 385.18 319.52 385.253 319.584C388.251 323.065 392.693 324.061 396.813 325.562C396.764 325.254 396.607 324.977 396.523 324.688C396.027 323.153 395.546 321.629 395.077 320.104C392.637 319.498 390.262 318.655 387.986 317.587C386.308 316.997 384.772 316.06 383.479 314.838C383.463 314.82 383.454 314.797 383.455 314.773C383.456 314.749 383.467 314.727 383.484 314.711C383.502 314.695 383.525 314.686 383.549 314.687C383.572 314.688 383.595 314.698 383.611 314.716C386.223 317.439 391.173 318.455 394.871 319.443C394.398 317.893 393.927 316.354 393.442 314.806C389.252 313.102 384.536 312.527 381.527 308.733C381.434 308.622 381.599 308.47 381.692 308.581C384.755 312.001 389.22 312.502 393.226 314.084C392.925 313.136 392.633 312.174 392.33 311.215C387.947 310.36 382.591 307.657 379.822 304.266C379.798 304.228 379.787 304.183 379.793 304.139C379.799 304.094 379.821 304.054 379.854 304.024C379.888 303.994 379.931 303.977 379.976 303.977C380.02 303.976 380.064 303.991 380.098 304.02C383.369 307.304 387.54 309.545 392.084 310.46C391.586 308.913 391.079 307.381 390.544 305.84C390.51 305.803 390.482 305.761 390.461 305.714C388.47 305.291 386.542 304.615 384.723 303.702C382.55 302.924 380.592 301.641 379.012 299.959C378.856 299.769 379.167 299.506 379.325 299.707C381.69 302.696 386.342 304.214 390.228 304.882C390.026 304.322 389.836 303.76 389.633 303.2C389.325 302.366 389.016 301.533 388.697 300.715C387.06 299.928 385.101 299.735 383.455 298.888C382.034 298.125 380.683 297.239 379.418 296.24C379.289 296.147 379.434 295.947 379.56 296.028C381.237 297.237 383.066 298.218 385.001 298.945C386.109 299.336 387.326 299.458 388.403 299.892C387.897 298.535 387.38 297.181 386.885 295.81L386.775 295.828C386.735 295.847 386.69 295.853 386.646 295.847C386.603 295.84 386.562 295.821 386.529 295.791C384.433 295.607 382.622 294.118 381.027 292.884C381.027 292.884 381.013 292.798 381.027 292.884C382.628 294.128 384.489 294.995 386.471 295.422L386.606 295.401C386.215 294.291 385.823 293.169 385.445 292.057C385.409 292.06 385.374 292.055 385.34 292.043C385.306 292.031 385.275 292.013 385.249 291.989C385.223 291.964 385.202 291.935 385.187 291.903C385.173 291.87 385.165 291.835 385.165 291.799C383.986 291.222 382.864 290.535 381.814 289.748C381.743 289.696 381.787 289.575 381.908 289.619C382.936 290.272 384.031 290.812 385.175 291.23C384.402 288.916 383.755 286.563 383.236 284.179C383.201 283.958 383.521 283.907 383.581 284.124C384.158 286.414 384.855 288.66 385.624 290.882C386.599 289.287 387.365 287.573 387.902 285.782C387.898 285.762 387.903 285.742 387.915 285.726C387.926 285.71 387.944 285.7 387.964 285.697C387.983 285.693 388.003 285.698 388.019 285.71C388.035 285.722 388.046 285.739 388.049 285.759C387.834 286.825 387.49 287.861 387.027 288.844C386.717 289.777 386.329 290.681 385.868 291.549C386.285 292.743 386.726 293.933 387.167 295.123C388.728 294.794 390.109 293.892 391.036 292.594C391.964 291.297 392.372 289.698 392.178 288.115C392.143 287.894 392.5 287.837 392.523 288.06C392.672 289.696 392.302 291.338 391.465 292.752C390.508 294.081 389.129 295.046 387.553 295.49C388.072 296.857 388.604 298.222 389.135 299.586C390.22 298.609 391.241 297.563 392.192 296.455C393.52 294.733 394.732 292.924 395.818 291.04C395.941 290.857 396.236 291.049 396.101 291.235C395.101 293.048 393.985 294.795 392.761 296.465C391.743 297.783 390.592 298.992 389.326 300.073L389.361 300.294C389.406 300.333 389.436 300.386 389.446 300.444C389.455 300.503 389.443 300.563 389.412 300.614C389.922 301.919 390.444 303.222 390.941 304.529C390.947 304.612 390.96 304.695 390.98 304.775C393.898 302.838 398.208 299.583 398.046 295.866C397.992 295.521 398.56 295.532 398.543 295.9C398.265 300.179 394.008 302.732 391.244 305.489C391.794 306.965 392.32 308.456 392.822 309.952C394.768 308.986 396.532 307.691 398.037 306.125C399.39 304.65 401.355 302.813 401.738 300.786C401.729 300.725 401.861 300.767 401.837 300.771C401.488 302.779 399.728 304.395 398.497 305.926C397.075 307.88 395.212 309.471 393.059 310.569C393.089 310.635 393.1 310.707 393.092 310.778C393.406 311.724 393.71 312.684 394.024 313.63C397.8 312.728 402.686 308.978 404.182 305.779C403.125 308.055 401.421 309.968 399.284 311.282C397.768 312.543 396.026 313.504 394.151 314.114L395.825 319.418C397.387 318.54 399.098 317.966 400.627 317.042C402.845 315.662 404.579 313.625 405.587 311.214C405.663 311.063 405.894 311.166 405.825 311.29C403.85 315.913 400.237 317.76 396.025 320.041C396.482 321.493 396.952 322.944 397.432 324.38C401.008 323.094 405.338 320.125 406.683 316.61C406.781 316.355 407.187 316.53 407.083 316.748C406.107 318.883 404.527 320.685 402.537 321.931C401.081 323.202 399.409 324.201 397.6 324.882C397.613 324.93 397.621 324.98 397.623 325.03C398.331 327.11 399.085 329.158 399.863 331.202C403.782 329.534 405.932 326.092 408.458 322.793C408.624 322.565 409.002 322.807 408.827 323.049C406.273 326.492 404.114 330.035 400.135 331.801C400.789 333.462 401.454 335.108 402.182 336.756C405.612 335.055 408.455 332.365 410.344 329.034C410.47 328.799 410.796 329.025 410.682 329.257C408.772 332.702 405.914 335.526 402.447 337.395C403.192 339.154 403.954 340.936 404.708 342.669C408.061 341.434 410.799 338.937 412.336 335.711C412.327 335.65 412.496 335.686 412.463 335.792C410.952 338.817 408.475 342.423 404.982 343.28L405.713 344.954C405.856 345.296 406.011 345.637 406.168 345.99C408.733 344.881 411.048 343.267 412.975 341.243C413.036 341.233 413.11 341.221 413.064 341.329C411.225 343.529 408.924 345.296 406.326 346.507C406.796 347.567 407.295 348.647 407.786 349.753C408.392 349.305 409.032 348.905 409.7 348.555C410.824 347.863 411.852 347.026 412.758 346.066C412.868 346.048 412.993 346.117 412.906 346.206C412.131 347.109 411.259 347.924 410.305 348.635C409.496 349.091 408.738 349.64 407.961 350.141C409.916 354.519 411.783 359.213 411.889 363.695C411.908 364.687 410.315 365.205 409.905 364.211C408.907 361.123 408.096 357.978 407.477 354.793Z" fill="#EAEFF6"/>
<path d="M441.759 357.041L441.186 367.682L440.278 384.234L438.797 411.44H401.97L400.489 384.234L399.58 367.682L399.008 357.041H441.759Z" fill="#95A8B5"/>
<path d="M441.184 367.682L441.059 369.81L440.947 372.025L440.275 384.234H400.487L399.815 372.025L399.703 369.81L399.578 367.682H441.184Z" fill="#A5B7C6"/>
<path d="M441.06 369.81L440.948 372.025H399.815L399.703 369.81H441.06Z" fill="#95A8B5"/>
<defs>
<radialGradient id="paint0_radial_8924_29529" cx="0" cy="0" r="1" gradientUnits="userSpaceOnUse" gradientTransform="translate(308.822 140.15) scale(16.0922 16.0922)">
<stop stop-color="#FFC8AF"/>
<stop offset="1" stop-color="#FFBB9C"/>
</radialGradient>
<radialGradient id="paint1_radial_8924_29529" cx="0" cy="0" r="1" gradientUnits="userSpaceOnUse" gradientTransform="translate(299.513 111.043) rotate(-12.15) scale(25.3642 25.3642)">
<stop stop-color="#FFC8AF"/>
<stop offset="1" stop-color="#FFBB9C"/>
</radialGradient>
<radialGradient id="paint2_radial_8924_29529" cx="0" cy="0" r="1" gradientUnits="userSpaceOnUse" gradientTransform="translate(274.522 383.04) scale(10.1183 10.1183)">
<stop stop-color="#FFC8AF"/>
<stop offset="1" stop-color="#FFBB9C"/>
</radialGradient>
<radialGradient id="paint3_radial_8924_29529" cx="0" cy="0" r="1" gradientUnits="userSpaceOnUse" gradientTransform="translate(210.464 385.579) scale(9.20978 9.20977)">
<stop stop-color="#FFC8AF"/>
<stop offset="1" stop-color="#FFBB9C"/>
</radialGradient>
<radialGradient id="paint4_radial_8924_29529" cx="0" cy="0" r="1" gradientUnits="userSpaceOnUse" gradientTransform="translate(266.561 212.734) scale(51.5748 51.5748)">
<stop stop-color="#FFC8AF"/>
<stop offset="1" stop-color="#FFBB9C"/>
</radialGradient>
<radialGradient id="paint5_radial_8924_29529" cx="0" cy="0" r="1" gradientUnits="userSpaceOnUse" gradientTransform="translate(266.555 212.733) scale(51.5748 51.5748)">
<stop stop-color="#FFC8AF"/>
<stop offset="1" stop-color="#FFBB9C"/>
</radialGradient>
</defs>
</svg>
