<?xml version="1.0" standalone="no"?>
<!DOCTYPE svg PUBLIC "-//W3C//DTD SVG 20010904//EN"
 "http://www.w3.org/TR/2001/REC-SVG-20010904/DTD/svg10.dtd">
<svg version="1.0" xmlns="http://www.w3.org/2000/svg"
 width="740.000000pt" height="740.000000pt" viewBox="0 0 740.000000 740.000000"
 preserveAspectRatio="xMidYMid meet">

<g transform="translate(0.000000,740.000000) scale(0.100000,-0.100000)"
fill="#000000" stroke="none">
<path d="M5620 5845 c-355 -30 -351 -30 -372 -55 -16 -20 -18 -51 -18 -332 0
-302 3 -340 33 -359 5 -4 143 -10 307 -14 314 -8 359 -3 380 35 16 30 53 680
41 707 -11 24 -49 44 -79 42 -9 -1 -141 -12 -292 -24z m105 -211 c44 -20 69
-73 60 -122 -5 -28 -28 -58 -98 -129 -50 -51 -96 -93 -102 -93 -20 0 -193 185
-200 213 -10 37 0 70 31 106 21 25 33 31 65 31 22 0 54 -7 71 -16 26 -14 35
-14 57 -3 28 14 60 26 74 28 5 1 24 -6 42 -15z"/>
<path d="M2368 5843 c189 -2 495 -2 680 0 185 1 31 2 -343 2 -374 0 -526 -1
-337 -2z"/>
<path d="M1995 5830 c-3 -6 1 -7 9 -4 18 7 21 14 7 14 -6 0 -13 -4 -16 -10z"/>
<path d="M1955 5789 c-4 -6 -5 -12 -2 -15 2 -3 7 2 10 11 7 17 1 20 -8 4z"/>
<path d="M2338 5773 c45 -2 119 -2 165 0 45 1 8 3 -83 3 -91 0 -128 -2 -82 -3z"/>
<path d="M1944 5425 c0 -187 2 -262 3 -167 2 95 2 248 0 340 -1 92 -3 14 -3
-173z"/>
<path d="M3600 5561 c-22 -12 -44 -36 -60 -67 -21 -41 -25 -61 -24 -140 0 -78
4 -100 25 -140 40 -78 134 -108 205 -65 52 32 78 100 79 206 0 77 -4 98 -25
139 -28 55 -75 86 -130 86 -19 0 -51 -8 -70 -19z m114 -70 c41 -45 40 -228 -1
-273 -27 -30 -73 -20 -97 21 -38 65 -20 246 26 264 27 11 56 6 72 -12z"/>
<path d="M3980 5558 c-71 -36 -95 -89 -95 -208 1 -79 5 -102 23 -138 39 -74
114 -99 215 -71 l37 10 0 114 0 115 -65 0 -65 0 0 -35 c0 -31 3 -35 25 -35 24
0 25 -3 25 -55 l0 -55 -33 0 c-20 0 -41 7 -50 18 -23 26 -40 107 -34 163 13
107 70 148 159 114 8 -3 18 6 25 26 11 29 11 31 -22 45 -49 20 -94 17 -145 -8z"/>
<path d="M2970 5355 l0 -215 89 0 c74 0 93 3 114 21 58 45 58 159 1 189 l-25
14 24 18 c52 38 40 156 -18 178 -15 6 -62 10 -106 10 l-79 0 0 -215z m152 120
c18 -41 -3 -75 -47 -75 l-35 0 0 50 0 50 35 0 c28 0 38 -5 47 -25z m7 -176
c28 -50 -23 -115 -74 -95 -11 4 -15 21 -15 66 l0 61 37 -3 c28 -2 41 -10 52
-29z"/>
<path d="M3280 5355 l0 -215 95 0 95 0 0 30 c0 30 -1 30 -55 30 l-55 0 0 185
0 185 -40 0 -40 0 0 -215z"/>
<path d="M5164 5240 c0 -113 2 -159 3 -102 2 56 2 148 0 205 -1 56 -3 10 -3
-103z"/>
<path d="M2012 5176 c-1 -88 -4 -157 -8 -154 -4 5 -12 81 -15 153 -1 11 -3 14
-6 7 -3 -6 -8 -10 -12 -8 -4 3 -8 -10 -9 -27 -2 -18 -7 -57 -11 -87 -8 -55 -9
-55 -10 -12 l-1 43 -422 -3 c-422 -3 -423 -3 -468 -27 -61 -32 -97 -67 -128
-126 l-27 -50 0 -1320 0 -1320 23 -57 c43 -106 146 -197 257 -227 42 -11 437
-22 1455 -42 322 -6 587 -12 589 -14 5 -5 -76 -565 -83 -572 -3 -3 -87 -9
-187 -12 -179 -6 -181 -6 -203 -32 -25 -29 -52 -135 -42 -166 4 -11 18 -25 32
-31 18 -9 306 -12 1084 -12 l1059 0 28 24 28 24 -24 88 c-43 167 -42 167 -241
158 l-145 -7 -54 244 c-29 134 -55 252 -58 262 -5 17 22 18 674 11 373 -3 681
-9 684 -13 12 -11 -11 -432 -31 -591 -11 -85 -21 -164 -23 -175 -1 -14 6 -21
28 -25 59 -12 61 -8 99 148 44 183 81 386 98 531 6 61 15 111 19 111 13 0 38
-412 39 -640 0 -92 4 -140 12 -148 16 -16 53 -15 66 1 22 27 59 364 69 623 l6
174 47 0 c120 0 231 72 269 175 19 51 21 91 32 588 17 869 -8 1732 -62 2087
-8 54 -37 132 -78 210 -28 53 -143 67 -631 80 -234 5 -455 10 -492 10 l-68 0
0 -53 0 -54 152 -6 c83 -4 201 -7 262 -8 116 0 123 -12 15 -24 -94 -10 -89 7
-115 -402 -14 -227 -19 -364 -13 -375 5 -10 18 -22 29 -28 13 -7 151 -13 364
-17 333 -6 343 -6 363 14 15 15 25 58 47 199 15 98 32 188 36 199 11 24 13
-814 3 -1275 -6 -309 -7 -332 -22 -309 -23 35 -100 116 -142 150 -49 39 -176
67 -220 49 -45 -19 -103 -15 -144 9 -28 16 -53 21 -108 21 -40 0 -100 5 -135
10 -43 7 -68 7 -82 0 -29 -16 -24 -28 13 -33 l32 -4 -32 -1 c-27 -2 -33 -6
-33 -24 -1 -20 -2 -21 -11 -6 -12 22 -2 65 20 78 15 9 15 9 -1 10 -10 0 -21
-14 -28 -37 -7 -21 -26 -62 -42 -92 -30 -54 -28 -70 10 -71 7 0 10 -4 7 -10
-3 -5 -19 -10 -36 -10 -16 0 -29 -5 -29 -12 0 -16 175 -345 222 -420 l35 -53
74 0 74 0 16 -70 c10 -38 18 -99 18 -134 l1 -64 -37 7 c-21 3 -156 6 -300 6
l-263 0 0 450 0 451 -50 71 -50 71 0 -522 0 -522 -292 6 c-161 3 -617 10
-1013 15 -396 5 -948 13 -1227 16 l-508 7 0 42 c0 38 4 45 40 69 45 30 80 90
80 139 0 41 -35 145 -83 249 l-35 77 -8 214 c-3 118 -4 226 0 240 l6 25 62
-14 c130 -28 610 -135 778 -173 392 -89 593 -133 750 -167 112 -24 172 -42
186 -55 64 -60 128 29 176 246 27 123 58 364 58 456 0 61 4 81 20 102 58 73
84 209 61 318 -7 31 -27 81 -46 110 -27 43 -35 64 -35 104 0 80 -28 300 -54
425 -49 237 -112 333 -180 271 -12 -10 -55 -30 -96 -44 -41 -14 -336 -116
-655 -227 -735 -256 -1010 -350 -1024 -350 -8 0 -12 156 -14 523 -1 287 -3
450 -5 363z m-134 -192 l62 -6 0 -358 c0 -274 -3 -360 -12 -367 -7 -5 -50 -22
-95 -37 -80 -27 -84 -28 -155 -15 -40 7 -137 13 -215 13 -133 -1 -146 -3 -196
-28 -62 -30 -101 -79 -116 -146 -16 -68 -13 -344 4 -477 17 -128 33 -167 83
-198 27 -17 41 -46 108 -215 113 -286 249 -611 293 -699 63 -125 126 -170 234
-171 54 0 57 -1 57 -24 l0 -24 -342 5 c-189 3 -359 9 -378 14 -54 14 -96 44
-127 90 l-28 43 0 1255 0 1256 24 34 c13 18 42 42 65 52 38 17 65 18 356 13
173 -3 343 -7 378 -10z m1762 -234 c0 -5 -84 -36 -187 -69 -1061 -339 -1450
-461 -1463 -458 -28 6 21 24 345 127 176 56 536 171 800 255 264 84 486 154
493 154 6 1 12 -3 12 -9z m2365 -49 c98 -52 151 -166 126 -274 -53 -234 -366
-270 -477 -54 -26 49 -30 139 -9 193 57 150 218 210 360 135z m-2047 -545 c28
-14 62 -41 76 -59 30 -39 56 -108 56 -148 0 -48 -15 -32 -28 29 -16 80 -50
125 -118 158 -45 22 -72 28 -126 28 -37 1 -68 4 -68 7 0 31 136 21 208 -15z
m-2088 15 c0 -9 -77 -41 -98 -41 -25 0 -11 18 26 33 43 17 72 21 72 8z m-245
-126 l0 -40 -191 -3 c-161 -2 -193 0 -204 13 -7 8 -9 22 -6 31 7 18 21 11 21
-9 0 -9 52 -13 183 -15 l182 -2 0 25 0 25 -185 0 c-119 0 -185 4 -185 10 0 7
66 9 193 8 l192 -3 0 -40z m-37 -114 c8 -5 12 -22 10 -42 l-3 -34 -200 0
c-200 0 -200 0 -203 23 -2 12 1 22 7 22 6 0 11 -7 11 -15 0 -13 27 -15 186
-15 l185 0 -3 23 c-3 22 -5 22 -185 25 -111 1 -183 6 -183 12 0 12 359 13 378
1z m37 -216 l0 -40 -200 0 c-200 0 -200 0 -203 23 -2 14 2 22 12 22 10 0 13
-6 10 -15 -5 -13 19 -15 181 -15 l186 0 -3 23 c-3 22 -5 22 -185 25 -114 1
-183 6 -183 12 0 7 69 9 193 8 l192 -3 0 -40z m33 -167 c7 -7 12 -21 12 -33 0
-42 -15 -45 -216 -45 -166 0 -193 2 -198 16 -3 9 -4 20 0 25 8 14 24 11 24 -6
0 -13 27 -15 180 -15 l180 0 0 25 0 25 -185 0 c-117 0 -185 4 -185 10 0 15
373 13 388 -2z m187 -218 c100 -21 95 -11 95 -170 0 -87 -4 -140 -10 -140 -5
0 -10 4 -10 8 0 5 -36 76 -80 158 -44 81 -80 152 -80 157 0 5 6 7 13 4 7 -2
39 -10 72 -17z m-425 -60 c23 -45 24 -50 10 -50 -11 0 -40 53 -40 75 0 24 8
18 30 -25z m185 -410 c177 -397 175 -394 249 -432 53 -27 152 -22 195 10 41
30 60 28 31 -3 -13 -14 -49 -33 -79 -42 -105 -30 -212 20 -265 126 -48 94
-276 609 -276 622 0 34 34 -32 145 -281z m3893 253 c-10 -2 -26 -2 -35 0 -10
3 -2 5 17 5 19 0 27 -2 18 -5z m-92 -80 c-8 -15 -15 -25 -16 -21 0 12 23 58
27 54 3 -2 -2 -17 -11 -33z m294 -139 c24 -5 36 -15 45 -39 21 -48 28 -85 18
-85 -5 0 -15 22 -22 49 -7 28 -20 52 -29 56 -9 3 -81 9 -159 12 -85 4 -143 10
-143 16 0 11 227 3 290 -9z m-101 -81 c12 -23 -4 -53 -29 -53 -26 0 -45 36
-29 56 16 19 46 18 58 -3z m573 -84 c2 -4 28 1 58 11 30 10 69 20 85 22 30 3
30 2 33 -49 2 -37 -3 -67 -17 -99 -17 -38 -21 -67 -21 -159 0 -97 -3 -117 -23
-155 -28 -53 -80 -97 -126 -106 l-34 -7 7 149 7 149 -66 13 c-36 7 -96 26
-132 42 -36 17 -76 30 -88 30 -12 0 -34 9 -48 20 -14 11 -29 20 -34 19 -22 -4
-32 2 -27 16 4 8 1 15 -6 15 -6 0 -8 5 -4 11 3 6 0 15 -7 20 -19 12 -3 24 53
39 58 15 75 9 93 -33 11 -26 24 -36 67 -52 62 -23 158 -26 182 -6 12 10 16 31
16 85 1 64 2 69 15 52 8 -10 16 -22 17 -27z m-4522 -549 c289 -5 1060 -19
1715 -30 655 -11 1422 -25 1705 -30 283 -5 557 -10 608 -10 50 0 92 -3 92 -7
0 -5 -71 -7 -157 -5 -87 1 -817 13 -1623 27 -806 13 -1796 30 -2200 36 -404 7
-739 16 -744 20 -12 11 -37 11 604 -1z m2141 -101 c27 -27 21 -66 -12 -92 -23
-16 -30 -17 -50 -7 -31 17 -39 29 -39 62 0 29 31 58 62 58 10 0 27 -9 39 -21z
m2512 14 c-29 -2 -77 -2 -105 0 -29 2 -6 3 52 3 58 0 81 -1 53 -3z m-2318
-793 c4 -6 -15 -10 -50 -10 -35 0 -54 4 -50 10 3 6 26 10 50 10 24 0 47 -4 50
-10z m-219 -9 c-3 -4 -213 -10 -468 -13 l-462 -5 -23 -27 c-13 -15 -23 -40
-23 -56 0 -35 -9 -61 -20 -55 -11 7 7 94 25 122 8 12 25 25 38 28 53 12 940
19 933 6z"/>
<path d="M5795 4664 c-147 -76 -152 -280 -10 -361 53 -30 133 -31 193 -2 50
24 97 90 108 148 15 77 -34 174 -106 211 -48 25 -142 27 -185 4z m130 -122
c56 -34 80 -54 80 -68 0 -23 -149 -116 -180 -112 -18 3 -20 12 -23 102 -1 55
0 106 2 113 9 23 39 14 121 -35z"/>
<path d="M3710 2065 c-17 -20 -5 -62 20 -70 47 -15 82 23 60 65 -13 24 -61 27
-80 5z"/>
<path d="M4334 5156 l-28 -23 12 -179 c33 -489 34 -498 67 -520 21 -14 51 -14
306 1 310 17 323 20 334 77 3 18 5 167 3 331 l-3 299 -24 19 c-22 18 -43 19
-332 19 l-308 0 -27 -24z m447 -74 c73 -38 111 -93 117 -170 5 -70 -25 -150
-115 -307 -65 -112 -94 -135 -142 -115 -32 13 -97 116 -161 252 -66 141 -64
210 9 291 74 82 191 102 292 49z"/>
<path d="M4615 5069 c-78 -18 -145 -95 -145 -168 0 -44 42 -149 105 -260 60
-108 75 -125 102 -117 31 10 165 257 181 333 10 46 -2 106 -28 144 -38 53
-140 85 -215 68z m114 -56 c47 -36 66 -71 66 -123 0 -107 -109 -178 -206 -135
-45 21 -93 89 -87 127 5 36 31 28 39 -12 4 -20 21 -47 38 -62 88 -79 219 21
167 128 -30 64 -127 83 -171 34 -21 -23 -45 -26 -45 -7 0 17 38 53 70 66 34
15 98 6 129 -16z"/>
<path d="M5162 4628 l-2 -268 -37 -1 c-21 -1 -41 -1 -45 0 -5 0 -8 -3 -8 -9 0
-5 -7 -10 -15 -10 -32 0 -114 -51 -151 -93 -133 -150 -75 -397 109 -465 l52
-20 3 -180 2 -181 50 -53 49 -53 1 232 0 231 49 17 c144 48 234 222 187 363
-33 97 -120 182 -203 198 l-33 6 -3 277 -2 276 -3 -267z m6 -380 c7 -7 12 -27
12 -45 0 -31 2 -33 34 -33 54 0 66 -26 66 -137 0 -123 -9 -133 -119 -133 -58
0 -82 4 -91 15 -9 11 -16 12 -26 4 -7 -6 -25 -9 -41 -7 l-28 3 -3 128 -3 127
40 0 c22 0 43 -5 46 -10 11 -17 33 7 41 43 11 54 43 74 72 45z m-11 -651 c-2
-23 -3 -1 -3 48 0 50 1 68 3 42 2 -26 2 -67 0 -90z"/>
<path d="M4425 3679 c-160 -25 -193 -32 -207 -50 -16 -19 -18 -48 -18 -273 l0
-253 24 -22 25 -23 213 22 c117 12 221 26 230 31 35 19 38 45 38 302 0 339 26
316 -305 266z m107 -142 c24 -18 52 -50 62 -71 17 -36 18 -43 5 -80 -22 -63
-45 -55 -41 14 3 51 1 57 -28 85 l-31 30 8 -55 c4 -30 8 -84 7 -119 0 -54 -3
-66 -23 -82 -60 -49 -194 9 -162 70 6 10 27 26 46 36 31 14 41 15 66 4 40 -16
32 -33 -19 -40 -23 -3 -45 -8 -49 -12 -13 -13 15 -30 53 -31 32 -1 38 3 45 26
6 24 1 94 -17 211 -6 43 -5 47 14 47 11 0 40 -15 64 -33z"/>
<path d="M5690 3571 c-30 -58 2 -102 95 -130 60 -18 66 -25 50 -64 -6 -15 -4
-17 19 -11 35 8 36 -19 1 -42 -27 -18 -34 -44 -11 -44 8 0 35 15 59 34 25 19
56 36 69 38 27 4 36 39 14 57 -10 8 -13 23 -9 45 6 39 -23 76 -59 76 -15 0
-29 11 -40 30 -20 34 -60 41 -89 14 -17 -15 -19 -15 -34 0 -22 22 -52 20 -65
-3z"/>
<path d="M5581 984 c-61 -29 -111 -58 -111 -65 0 -9 36 -10 147 -4 80 4 152 9
160 12 14 5 18 70 5 89 -4 6 -26 13 -49 16 -36 5 -57 -1 -152 -48z"/>
<path d="M5994 1005 c-7 -11 -15 -36 -16 -55 l-3 -35 57 0 c31 0 60 3 64 7 3
4 1 29 -5 56 -12 47 -13 48 -48 48 -24 -1 -40 -7 -49 -21z"/>
</g>
</svg>
