<svg width="485" height="462" viewBox="0 0 485 462" fill="none" xmlns="http://www.w3.org/2000/svg">
<path d="M237.692 436.456C300.616 438.544 413.922 418.705 447.58 299.672C481.237 180.639 358.942 208.204 316.295 77.0585C284.728 -20.6742 1.25429 63.4845 66.4784 314.499C94.9095 424.97 183.129 434.577 237.692 436.456Z" fill="url(#paint0_linear_37_17613)"/>
<path d="M387.164 151.193C341.172 119.242 341.8 93.9738 348.698 73.7172C356.642 50.7458 443.399 91.259 461.377 164.559C479.565 238.067 411.414 168.109 387.164 151.193Z" fill="url(#paint1_linear_37_17613)"/>
<mask id="mask0_37_17613" style="mask-type:luminance" maskUnits="userSpaceOnUse" x="56" y="37" width="398" height="400">
<path d="M237.692 436.456C300.616 438.544 413.922 418.705 447.58 299.672C481.237 180.639 358.942 208.204 316.295 77.0585C284.728 -20.6742 1.25429 63.4845 66.4784 314.499C94.9095 424.97 183.129 434.577 237.692 436.456Z" fill="white"/>
</mask>
<g mask="url(#mask0_37_17613)">
<path d="M102.435 153.073V137.828H127.94V64.3199H135.047V137.828H162.433V153.073H177.276V461.307H70.8685V153.073H102.435Z" fill="#C8D3FB"/>
<path d="M71.1252 430.542H85.7589L85.7589 153.214H71.1252L71.1252 430.542Z" fill="#D5DDFB"/>
<path d="M124.049 461.423H230.247L230.247 226.697H124.049L124.049 461.423Z" fill="#C8D3FB"/>
<path d="M124.082 461.423H138.716L138.716 226.697H124.082L124.082 461.423Z" fill="#D5DDFB"/>
<path d="M200.254 242.918H215.515V236.653H200.254V242.918Z" fill="#D5DDFB"/>
<path d="M174.619 242.918H189.88V236.653H174.619V242.918Z" fill="#D5DDFB"/>
<path d="M200.254 265.983H215.515V259.719H200.254V265.983Z" fill="#D5DDFB"/>
<path d="M174.619 265.983H189.88V259.719H174.619V265.983Z" fill="#D5DDFB"/>
<path d="M148.984 265.983H164.245V259.719H148.984V265.983Z" fill="#D5DDFB"/>
<path d="M200.254 289.05H215.515V282.786H200.254V289.05Z" fill="#D5DDFB"/>
<path d="M148.984 289.05H164.245V282.786H148.984V289.05Z" fill="#D5DDFB"/>
<path d="M174.619 300.374H189.88V294.109H174.619V300.374Z" fill="#D5DDFB"/>
<path d="M200.254 311.909H215.515V305.644H200.254V311.909Z" fill="#D5DDFB"/>
<path d="M174.619 323.442H189.88V317.177H174.619V323.442Z" fill="#D5DDFB"/>
<path d="M200.254 334.974H215.515V328.709H200.254V334.974Z" fill="#D5DDFB"/>
<path d="M148.984 334.974H164.245V328.709H148.984V334.974Z" fill="#D5DDFB"/>
<path d="M200.254 356.219H215.515V349.954H200.254V356.219Z" fill="#D5DDFB"/>
<path d="M174.619 356.219H189.88V349.954H174.619V356.219Z" fill="#D5DDFB"/>
<path d="M200.254 379.284H215.515V373.019H200.254V379.284Z" fill="#D5DDFB"/>
<path d="M174.619 379.284H189.88V373.019H174.619V379.284Z" fill="#D5DDFB"/>
<path d="M148.984 379.284H164.245V373.019H148.984V379.284Z" fill="#D5DDFB"/>
<path d="M200.254 402.349H215.515V396.084H200.254V402.349Z" fill="#D5DDFB"/>
<path d="M148.984 402.349H164.245V396.084H148.984V402.349Z" fill="#D5DDFB"/>
<path d="M174.619 413.884H189.88V407.619H174.619V413.884Z" fill="#D5DDFB"/>
<path d="M148.984 413.884H164.245V407.619H148.984V413.884Z" fill="#D5DDFB"/>
<path d="M200.254 425.416H215.515V419.151H200.254V425.416Z" fill="#D5DDFB"/>
<path d="M174.619 436.74H189.88V430.475H174.619V436.74Z" fill="#D5DDFB"/>
<path d="M378.361 461.423H484.559L484.559 226.697H378.361V461.423Z" fill="#C8D3FB"/>
<path d="M378.396 461.423H393.029L393.029 226.697H378.396V461.423Z" fill="#D5DDFB"/>
<path d="M227.329 461.462H369.903L369.903 115.012H227.329L227.329 461.462Z" fill="#C8D3FB"/>
<path d="M227.425 461.462H242.059L242.059 115.012H227.425L227.425 461.462Z" fill="#D5DDFB"/>
<path d="M332.653 140.68H355.021V131.492H332.653V140.68Z" fill="#D5DDFB"/>
<path d="M295.092 140.68H317.461V131.492H295.092V140.68Z" fill="#D5DDFB"/>
<path d="M332.653 174.287H355.021V165.098H332.653V174.287Z" fill="#D5DDFB"/>
<path d="M295.092 174.287H317.461V165.098H295.092V174.287Z" fill="#D5DDFB"/>
<path d="M257.531 174.287H279.9V165.098H257.531V174.287Z" fill="#D5DDFB"/>
<path d="M332.653 207.893H355.021V198.704H332.653V207.893Z" fill="#D5DDFB"/>
<path d="M257.531 207.893H279.9V198.704H257.531V207.893Z" fill="#D5DDFB"/>
<path d="M295.092 224.801H317.461V215.613H295.092V224.801Z" fill="#D5DDFB"/>
<path d="M332.653 241.501H355.021V232.312H332.653V241.501Z" fill="#D5DDFB"/>
<path d="M295.092 258.407H317.461V249.219H295.092V258.407Z" fill="#D5DDFB"/>
<path d="M332.653 275.109H355.021V265.92H332.653V275.109Z" fill="#D5DDFB"/>
<path d="M257.531 275.109H279.9V265.92H257.531V275.109Z" fill="#D5DDFB"/>
<path d="M332.653 306.325H355.021V297.136H332.653V306.325Z" fill="#D5DDFB"/>
<path d="M295.092 306.325H317.461V297.136H295.092V306.325Z" fill="#D5DDFB"/>
<path d="M332.653 339.933H355.021V330.744H332.653V339.933Z" fill="#D5DDFB"/>
<path d="M295.092 339.933H317.461V330.744H295.092V339.933Z" fill="#D5DDFB"/>
<path d="M257.531 339.933H279.9V330.744H257.531V339.933Z" fill="#D5DDFB"/>
<path d="M332.653 373.541H355.021V364.352H332.653V373.541Z" fill="#D5DDFB"/>
<path d="M257.531 373.541H279.9V364.352H257.531V373.541Z" fill="#D5DDFB"/>
<path d="M295.092 390.238H317.461V381.049H295.092V390.238Z" fill="#D5DDFB"/>
<path d="M257.531 390.238H279.9V381.049H257.531V390.238Z" fill="#D5DDFB"/>
<path d="M332.653 407.147H355.021V397.958H332.653V407.147Z" fill="#D5DDFB"/>
<path d="M295.092 423.846H317.461V414.657H295.092V423.846Z" fill="#D5DDFB"/>
<path d="M332.653 440.752H355.021V431.564H332.653V440.752Z" fill="#D5DDFB"/>
<path d="M257.531 440.752H279.9V431.564H257.531V440.752Z" fill="#D5DDFB"/>
<path d="M451.643 461.393H591.29V140.629H451.643V461.393Z" fill="#C8D3FB"/>
<path d="M451.565 461.393H465.989L465.989 140.629H451.565L451.565 461.393Z" fill="#D5DDFB"/>
<path d="M-0.21949 461.435H89.8818L89.8818 242.789H-0.21949L-0.21949 461.435Z" fill="#C8D3FB"/>
<path d="M66.3798 259.052H80.3863V253.205H66.3798V259.052Z" fill="#D5DDFB"/>
<path d="M42.8811 259.052H56.8876V253.205H42.8811V259.052Z" fill="#D5DDFB"/>
<path d="M66.3798 280.187H80.3863V274.339H66.3798V280.187Z" fill="#D5DDFB"/>
<path d="M42.8811 280.187H56.8876V274.339H42.8811V280.187Z" fill="#D5DDFB"/>
<path d="M66.3798 301.532H80.3863V295.685H66.3798V301.532Z" fill="#D5DDFB"/>
<path d="M42.8811 312.101H56.8876V306.254H42.8811V312.101Z" fill="#D5DDFB"/>
<path d="M66.3798 322.668H80.3863V316.821H66.3798V322.668Z" fill="#D5DDFB"/>
<path d="M42.8811 333.237H56.8876V327.39H42.8811V333.237Z" fill="#D5DDFB"/>
<path d="M66.3798 343.805H80.3863V337.957H66.3798V343.805Z" fill="#D5DDFB"/>
<path d="M66.3798 363.389H80.3863V357.542H66.3798V363.389Z" fill="#D5DDFB"/>
<path d="M42.8811 363.389H56.8876V357.542H42.8811V363.389Z" fill="#D5DDFB"/>
<path d="M66.3798 384.735H80.3863V378.887H66.3798V384.735Z" fill="#D5DDFB"/>
<path d="M42.8811 384.735H56.8876V378.887H42.8811V384.735Z" fill="#D5DDFB"/>
<path d="M66.3798 405.871H80.3863V400.024H66.3798V405.871Z" fill="#D5DDFB"/>
<path d="M42.8811 416.438H56.8876V410.591H42.8811V416.438Z" fill="#D5DDFB"/>
<path d="M66.3798 427.216H80.3863V421.369H66.3798V427.216Z" fill="#D5DDFB"/>
<path d="M42.8811 437.781H56.8876V431.934H42.8811V437.781Z" fill="#D5DDFB"/>
<path opacity="0.35" d="M322.985 8.56207H-58.5345V442.93H322.985V8.56207Z" fill="white"/>
<path opacity="0.5" d="M74.8405 435.203H45.1552L204.034 13.574H233.511L74.8405 435.203Z" fill="white"/>
<path opacity="0.5" d="M22.5776 435.203H7.73492L166.405 13.574H181.248L22.5776 435.203Z" fill="white"/>
<path opacity="0.5" d="M199.226 435.203H184.593L320.476 58.8903V89.1707L199.226 435.203Z" fill="white"/>
<path opacity="0.35" d="M708.476 0H326.957V434.368H708.476V0Z" fill="white"/>
<path opacity="0.5" d="M390.091 435.203H360.405L519.075 13.574H548.761L390.091 435.203Z" fill="white"/>
<path opacity="0.5" d="M337.828 435.203H322.985L481.655 13.574H496.498L337.828 435.203Z" fill="white"/>
<path d="M724.364 86.8735V81.8616H710.567V3.55011H329.047H320.685H-60.625V13.574H-52.2629V17.1241H193.791V82.0704H-60.625V87.0824H193.582V214.678H-60.625V219.69H193.582V347.285H-60.625V352.297H193.582V435.412H-52.2629V438.336H-60.625V449.821H320.894H329.256H710.776V448.986V352.506H724.573V347.494H710.776V219.899H724.573V214.887H710.776V86.8735H724.364ZM329.256 219.481H447.998V347.077H329.256V219.481ZM329.256 214.469V86.8735H447.998V214.469H329.256ZM329.256 82.0704V17.1241H447.998V82.0704H329.256ZM329.256 352.089H447.998V435.203H329.256V438.127V352.089ZM456.36 435.203V352.089H575.101V435.203H456.36ZM456.36 347.077V219.481H575.101V347.077H456.36ZM456.36 214.469V86.8735H575.101V214.469H456.36ZM456.36 82.0704V17.1241H575.101V82.0704H456.36ZM201.944 17.1241H320.685V82.0704H201.944V17.1241ZM201.944 86.8735H320.685V214.469H201.944V86.8735ZM201.944 219.481H320.685V347.077H201.944V219.481ZM201.944 352.089H320.685V438.127V435.203H201.944V352.089Z" fill="url(#paint2_linear_37_17613)"/>
</g>
<path d="M443.399 434.159H66.4784V437.083H443.399V434.159Z" fill="#C8D3FB"/>
<path d="M417.058 15.0358C414.759 15.4535 412.459 16.4976 410.578 17.7506L406.815 14.4093L401.17 20.0477L404.306 24.0155C403.052 25.895 402.006 28.1921 401.588 30.4893L396.571 30.9069V38.8425L401.588 39.2602C402.006 41.5573 403.052 43.8544 404.306 45.7339L400.961 49.4929L406.606 55.1313L410.578 51.9988C412.459 53.2518 414.759 54.296 417.058 54.7136L417.476 59.7256H425.42L425.838 54.7136C428.138 54.296 430.437 53.2518 432.319 51.9988L436.082 55.3401L441.726 49.7017L438.591 45.7339C439.845 43.8544 440.89 41.5573 441.308 39.2602L446.325 38.8425V30.9069L441.308 30.4893C440.89 28.1921 439.845 25.895 438.591 24.0155L441.935 20.2566L436.291 14.6181L432.319 17.7506C430.437 16.4976 428.138 15.4535 425.838 15.0358L425.42 10.0239H417.476L417.058 15.0358ZM421.448 20.4654C429.392 20.4654 435.873 27.148 435.664 35.0835C435.664 43.0191 428.974 49.4929 421.03 49.284C413.086 49.284 406.606 42.6014 406.815 34.6659C407.024 26.7303 413.504 20.2566 421.448 20.4654Z" fill="#C8D3FB"/>
<path d="M278.875 255.609C278.875 255.191 278.457 254.982 278.039 254.982C269.886 255.191 259.433 255.191 252.534 260.203C246.054 265.006 245.009 273.359 245.218 280.668C245.218 281.504 246.054 281.713 246.681 281.295C264.032 287.769 281.384 273.568 278.875 255.609Z" fill="#6A6AE8"/>
<path d="M239.155 289.23C239.155 283.592 237.901 277.745 233.511 273.777C228.494 269.183 221.177 266.677 215.323 263.544C214.696 263.127 213.651 263.753 214.069 264.588C216.787 271.48 216.369 279.833 221.177 285.68C225.149 290.692 232.047 292.363 238.11 290.483C238.319 290.483 238.528 290.275 238.737 289.857C238.737 289.857 239.155 289.648 239.155 289.23Z" fill="#6A6AE8"/>
<path d="M292.254 307.816C288.282 304.684 283.056 305.102 278.039 305.31C272.603 305.519 267.168 306.355 262.151 308.652C253.58 312.828 247.517 321.808 250.653 331.414C250.653 331.832 250.653 332.25 251.28 332.458C259.433 334.964 263.405 329.535 268.422 324.105C274.694 317.214 282.847 312.202 291.836 309.278C292.463 309.069 292.881 308.234 292.254 307.816Z" fill="#6A6AE8"/>
<path d="M311.905 328.282C311.696 328.282 311.696 328.282 311.487 328.073C307.933 326.611 304.797 323.688 301.662 320.973C298.108 318.049 294.554 315.125 290.582 314.29C290.582 314.29 290.582 314.29 290.373 314.29C288.491 313.873 286.401 314.081 284.31 314.708C275.53 317.631 270.095 326.82 269.259 335.591C269.259 335.8 269.259 336.009 269.468 336.009C269.468 336.009 269.468 336.009 269.468 336.217C269.259 336.635 269.677 337.262 270.304 337.47C277.83 338.306 285.147 337.47 292.672 336.009C299.153 334.547 306.679 333.503 312.323 329.744C312.741 329.326 312.532 328.491 311.905 328.282Z" fill="#6A6AE8"/>
<path d="M298.735 344.988C289.119 343.109 269.259 338.097 268.004 353.55C268.004 353.968 268.213 354.386 268.631 354.386C277.412 364.618 294.345 356.474 299.362 346.45C299.571 345.824 299.362 345.197 298.735 344.988Z" fill="#6A6AE8"/>
<path d="M237.901 314.29C235.392 308.652 229.33 302.804 223.685 300.716C223.058 300.507 222.64 300.925 222.64 301.551C222.64 312.619 219.922 330.161 232.047 336.217H232.256C232.675 336.635 233.302 336.844 233.72 336.217C237.483 329.744 241.455 321.808 237.901 314.29Z" fill="#6A6AE8"/>
<path d="M206.334 321.39C200.481 316.587 191.073 315.543 184.175 319.093C174.558 323.896 176.44 335.382 174.976 344.153C174.767 344.988 175.813 345.615 176.44 344.988C185.847 336.635 199.017 333.503 206.125 322.643C206.752 322.435 206.961 321.808 206.334 321.39Z" fill="#6A6AE8"/>
<path d="M206.543 330.161C206.334 329.744 205.916 329.744 205.498 329.744C205.289 329.535 204.871 329.326 204.453 329.535C199.644 332.041 194.209 335.8 193.164 341.438C192.119 348.33 195.881 354.803 196.3 361.486C196.3 362.321 197.763 362.739 197.972 361.695C199.226 355.221 205.916 352.297 208.216 346.45C210.306 341.856 209.261 334.338 206.543 330.161Z" fill="#6A6AE8"/>
<path d="M235.601 369.63C229.957 361.904 224.313 355.221 214.696 352.715C214.069 352.506 213.233 353.342 213.651 353.968C215.741 357.309 215.741 360.859 217.623 364.201C218.668 366.08 220.55 367.542 222.222 368.795C226.403 371.301 231.629 373.807 236.228 371.092C237.274 370.674 236.438 369.213 235.601 369.63Z" fill="#6A6AE8"/>
<path d="M248.144 360.442V360.233C244.381 354.177 244.172 346.45 238.946 341.229C238.528 340.812 237.901 341.02 237.483 341.438C234.974 345.615 233.72 350.418 235.601 355.221C237.901 360.233 242.5 361.695 247.517 362.112C248.562 361.904 248.562 360.859 248.144 360.442Z" fill="#6A6AE8"/>
<path d="M258.806 292.363C257.761 291.528 256.297 292.363 255.252 292.781C253.162 293.616 251.28 294.66 249.399 295.913C246.054 298.419 243.754 301.76 243.545 305.937C243.545 305.937 243.545 306.146 243.545 306.355C243.545 306.563 243.545 306.563 243.545 306.772C243.545 307.816 245.009 307.816 245.218 307.19C249.399 306.355 252.744 303.64 255.461 300.298C256.925 298.628 261.315 294.66 258.806 292.363Z" fill="#6A6AE8"/>
<path d="M260.688 361.068C260.478 360.859 260.478 360.859 260.269 360.651C261.315 353.133 261.733 344.571 254.416 340.185C253.998 339.976 253.371 340.185 253.162 340.603C251.071 348.538 253.371 356.474 259.433 362.112C260.269 363.157 261.524 361.904 260.688 361.068Z" fill="#6A6AE8"/>
<path d="M311.069 327.447C307.933 325.985 304.797 323.479 301.662 321.182C298.108 318.467 294.554 315.543 290.582 314.499C290.582 314.499 290.582 314.499 290.373 314.499C288.491 314.081 286.401 314.29 284.31 314.917C275.53 317.84 270.095 327.029 269.259 335.8C269.259 336.009 269.259 336.217 269.468 336.217C269.468 336.217 269.468 336.217 269.468 336.426C269.677 336.426 270.095 336.217 270.304 336.009C270.513 336.009 270.722 336.009 270.722 335.8C273.649 332.667 276.575 329.953 279.711 327.029C281.175 325.567 282.638 323.896 284.31 322.643C287.864 320.137 290.791 320.555 294.554 321.599C298.944 322.852 302.916 325.149 306.888 327.238C308.351 328.073 309.815 329.535 311.487 328.699C311.696 328.491 311.905 328.282 311.905 327.864C311.487 327.864 311.487 327.447 311.069 327.447Z" fill="#312890"/>
<path d="M233.929 356.683C233.093 353.341 232.256 349.791 231.002 346.45C232.466 341.02 233.093 335.591 232.884 330.161C233.093 330.161 233.511 329.952 233.511 329.535C234.556 326.402 234.974 323.061 234.765 319.72C234.765 318.676 232.884 318.676 233.093 319.72C233.302 322.017 233.093 324.314 232.466 326.611C232.047 324.105 231.629 321.39 230.793 318.884C230.375 317.84 228.703 318.258 229.121 319.302C231.629 327.238 231.838 335.382 229.957 343.526C228.284 339.35 226.194 335.382 223.476 331.832C216.996 323.479 205.289 318.467 196.091 322.435C196.091 322.017 195.881 321.808 195.463 321.808C191.909 320.973 188.147 321.39 185.011 323.479C183.966 324.105 185.011 325.567 185.847 324.941C188.356 323.479 191.282 322.852 194.209 323.479C192.119 324.732 190.028 326.402 188.356 328.699C187.728 329.535 189.192 330.579 189.819 329.535C194.209 323.27 202.362 321.39 209.47 323.688C211.56 324.314 213.442 325.358 215.114 326.611C207.588 326.402 202.153 331.414 196.927 336.426C196.091 337.262 197.345 338.515 198.181 337.679C199.226 336.635 200.272 335.8 201.317 334.756C201.108 336.426 200.899 338.306 201.108 339.976C201.317 341.02 202.989 341.02 202.78 339.976C202.571 337.679 202.78 335.382 203.198 333.294C203.198 333.085 203.198 333.085 203.198 332.876C206.752 329.952 210.724 328.073 215.741 328.282C216.159 328.282 216.369 328.073 216.578 327.655C220.55 330.788 223.685 334.964 225.985 339.559C230.375 348.538 233.093 358.562 234.556 368.795C231.002 367.96 227.866 366.08 225.358 363.157C224.522 362.321 223.267 363.574 224.103 364.41C225.358 365.871 226.821 366.915 228.284 367.96C227.239 367.96 226.194 367.96 225.358 367.751C224.313 367.542 223.685 369.213 224.94 369.421C226.612 369.63 228.284 369.839 229.957 369.63C230.375 369.63 230.584 369.421 230.584 369.213C231.838 369.839 233.302 370.257 234.556 370.674H234.765C235.392 375.686 235.81 380.489 236.019 385.293C236.019 386.337 237.901 386.337 237.692 385.293C237.692 375.686 236.228 366.08 233.929 356.683Z" fill="#312890"/>
<path d="M262.987 320.764C261.315 321.808 259.851 323.061 258.597 324.314C259.433 321.182 260.688 318.258 262.569 315.752C263.196 314.917 261.733 313.873 261.106 314.917C258.806 318.049 257.343 321.808 256.506 325.567C256.506 325.776 256.506 325.985 256.716 326.194C252.744 329.952 249.608 334.338 246.89 339.141C246.472 333.085 246.054 327.029 245.636 321.182C245.427 317.005 245.009 312.202 245.009 307.19C247.099 304.475 249.19 301.76 252.325 300.299C253.371 299.881 252.534 298.419 251.489 298.837C248.772 300.09 246.89 302.178 245.009 304.475C245.009 302.178 245.009 299.881 245.218 297.584C245.427 297.375 245.427 297.166 245.218 296.748C246.054 284.427 249.817 272.942 261.524 267.512C262.569 267.094 261.733 265.633 260.687 266.05C257.761 267.512 255.252 269.183 253.162 271.271C253.162 269.6 253.371 267.93 253.998 266.259C254.416 265.215 252.744 264.797 252.325 265.841C251.489 268.139 251.28 270.436 251.698 272.942C246.681 278.998 244.591 286.933 243.963 295.078C241.455 292.154 238.946 289.23 236.438 286.307C236.647 286.098 236.856 285.889 236.856 285.68C236.647 283.174 236.019 280.877 234.556 278.998C233.929 278.162 232.466 278.998 233.093 279.833C234.138 281.295 234.765 282.966 234.974 284.636C234.138 283.592 233.093 282.548 232.256 281.295C231.42 280.46 230.375 281.713 231.002 282.548C235.392 287.56 239.573 292.572 243.963 297.584C243.754 300.716 243.754 303.64 243.754 306.772C243.754 306.772 243.754 306.772 243.545 306.981C243.336 307.399 243.336 307.816 243.754 308.025C243.754 310.949 243.963 313.873 243.963 316.587C244.591 330.37 245.636 344.362 247.099 358.145C243.963 356.474 242.291 353.133 240.619 350C240.2 348.956 238.528 349.791 239.155 350.836C241.037 354.386 242.918 358.145 246.89 359.815C247.099 359.815 247.308 359.815 247.308 359.815C248.353 368.586 249.399 377.566 250.862 386.337C251.071 387.381 252.744 386.963 252.534 385.919C250.235 371.51 248.563 356.892 247.308 342.273C247.517 342.273 247.517 342.065 247.726 341.856C251.698 334.129 257.343 327.655 264.241 322.643C264.659 321.808 263.823 320.137 262.987 320.764Z" fill="#312890"/>
<path d="M291.836 322.226C288.073 322.226 284.728 323.061 281.802 324.523C283.056 323.061 284.519 321.808 285.983 320.764C286.819 320.137 285.983 318.676 285.147 319.302C282.22 321.599 279.711 324.105 277.621 327.029C277.621 327.238 277.412 327.238 277.412 327.446C271.558 332.041 267.168 339.141 264.45 345.824C262.778 350 261.524 354.177 260.688 358.353C259.642 356.683 259.224 354.803 258.597 353.133C258.179 351.671 257.761 350.418 256.297 349.582C255.252 348.956 254.416 350.418 255.461 351.044C256.925 351.88 257.134 354.386 257.761 355.847C258.179 357.309 258.806 358.562 259.642 359.815C259.851 360.024 260.06 360.233 260.269 360.233C258.179 370.674 257.552 381.742 256.506 392.184C256.297 393.228 258.179 393.228 258.179 392.184C259.224 382.369 259.642 372.345 261.524 362.53C261.733 362.53 261.733 362.321 261.942 362.321C265.287 358.771 268.631 355.012 272.813 352.506C274.067 353.759 275.53 354.594 277.203 355.012C278.248 355.43 278.666 353.759 277.621 353.341C276.366 352.924 275.321 352.297 274.485 351.462C275.739 350.835 276.784 350.418 278.039 350C279.084 349.583 278.666 347.912 277.621 348.33C275.948 348.747 274.276 349.583 272.813 350.418C272.603 350.418 272.394 350.627 272.185 350.835C268.422 353.133 265.287 356.265 262.151 359.398C262.778 356.683 263.405 353.968 264.241 351.253C265.914 345.824 268.631 339.767 272.394 334.756C274.276 334.129 276.366 333.711 278.457 333.294C279.502 333.085 279.084 331.414 278.039 331.623C276.784 331.832 275.53 332.041 274.276 332.458C278.875 327.238 284.728 323.479 292.045 323.688C292.881 324.105 292.881 322.226 291.836 322.226Z" fill="#312890"/>
<path d="M277.203 376.522L275.739 385.084L273.231 400.537L268.004 434.159H228.284L222.849 400.537L220.341 385.084L219.086 376.522H277.203Z" fill="#C8D3FB"/>
<path opacity="0.08" d="M235.601 385.084L234.138 376.522H219.086L220.341 385.084L222.849 400.537L228.284 434.159H243.545L238.11 400.537L235.601 385.084Z" fill="black"/>
<path opacity="0.64" d="M263.196 431.444C261.942 431.444 261.315 430.818 261.315 430.191L268.213 379.028C268.213 378.401 269.259 377.984 270.304 377.984C271.349 377.984 272.185 378.61 271.976 379.237L265.078 430.4C265.078 431.027 264.241 431.444 263.196 431.444Z" fill="white"/>
<path d="M312.532 0.835337C312.532 0.835337 311.905 0.626506 311.069 0.835337H310.86C303.125 1.04417 268.84 4.17663 243.545 42.8103C218.459 4.38546 183.965 1.04417 176.231 0.835337H174.767C139.228 3.55014 111.006 35.9189 111.006 75.5967C111.006 115.066 139.437 147.643 175.185 150.149H176.649C184.384 149.94 218.668 146.808 243.963 108.174C269.05 146.599 303.543 149.94 311.278 150.149H312.741C348.489 147.434 376.92 115.066 376.92 75.5967C376.711 35.9189 348.489 3.55014 312.532 0.835337ZM227.03 77.685C209.261 115.692 181.039 118.407 176.44 118.616C155.953 116.736 140.065 98.1504 140.065 75.3879C140.065 52.6253 156.162 34.0394 176.858 32.1599C182.293 32.3688 209.888 35.7101 227.239 73.0907L228.284 75.3879L227.03 77.685ZM311.487 118.616C306.888 118.407 278.457 115.692 260.897 77.685L259.851 75.3879L260.897 73.0907C278.248 35.7101 306.052 32.3688 311.278 32.1599C331.765 34.0394 348.071 52.6253 348.071 75.3879C347.862 98.1504 331.765 116.736 311.487 118.616Z" fill="#1C0A76"/>
<path d="M300.616 150.149H311.487L311.069 146.39L302.916 145.555L300.616 150.149Z" fill="#1C0A76"/>
<path d="M166.196 150.149H176.022L176.231 146.181L162.851 143.884L166.196 150.149Z" fill="#1C0A76"/>
<path d="M198.39 113.604L196.3 112.769C186.683 117.989 178.739 118.616 176.44 118.825C162.224 117.572 149.89 107.965 144.037 94.3915H133.584V115.066L138.601 128.64C138.601 128.64 179.784 138.037 180.412 138.037C181.039 138.037 198.39 113.604 198.39 113.604Z" fill="#D35600"/>
<path d="M372.948 49.9105C371.276 45.3163 369.185 40.722 366.468 36.1277C365.004 33.8306 363.75 31.5334 362.078 29.4451C341.172 -0.208822 311.069 0.83533 311.069 0.83533L318.177 16.4976L311.069 32.1599C311.069 32.1599 327.793 33.4129 338.246 47.1957C348.698 60.9786 350.58 78.5203 344.099 93.5561L360.614 105.042H371.067C371.067 105.251 383.401 79.7733 372.948 49.9105Z" fill="#D35600"/>
<path d="M300.825 0.835327H311.069L314.832 3.96779L310.442 5.84726L305.843 3.96779L300.825 0.835327Z" fill="#D35600"/>
<path d="M302.289 0.835337C302.289 0.835337 301.662 0.626506 300.825 0.835337H300.616C292.881 1.04417 258.597 4.17663 233.302 42.8103C208.216 4.38546 173.722 1.04417 165.987 0.835337H164.524C128.776 3.55014 100.554 35.9189 100.554 75.5967C100.554 115.066 128.985 147.643 164.733 150.149H166.196C173.931 149.94 208.215 146.808 233.511 108.174C258.597 146.599 293.09 149.94 300.825 150.149H302.289C338.037 147.434 366.468 115.066 366.468 75.5967C366.468 35.9189 338.037 3.55014 302.289 0.835337ZM216.578 77.685C198.808 115.692 170.586 118.407 165.987 118.616C145.5 116.736 129.612 98.1504 129.612 75.3879C129.612 52.6253 145.709 34.0394 166.405 32.1599C171.84 32.3688 199.435 35.7101 216.787 73.0907L217.832 75.3879L216.578 77.685ZM301.034 118.616C296.435 118.407 268.004 115.692 250.444 77.685L249.399 75.3879L250.444 73.0907C267.795 35.7101 295.599 32.3688 300.825 32.1599C321.312 34.0394 337.618 52.6253 337.618 75.3879C337.409 98.1504 321.312 116.736 301.034 118.616Z" fill="#6A6AE8"/>
<path d="M305.843 117.989C303.752 118.407 301.034 118.825 301.034 118.825L294.972 122.166L283.892 127.804C283.892 127.804 282.429 139.708 282.429 141.587C282.429 142.005 282.847 142.631 283.265 143.467C283.056 143.467 282.847 143.258 282.638 143.258C279.084 141.796 275.739 139.917 272.603 138.037C269.468 136.158 266.541 133.86 263.823 131.563C254.416 124.881 247.099 114.439 241.873 105.459C236.856 96.4798 233.929 89.1707 233.929 89.1707C231.838 84.7853 229.748 80.3998 227.657 75.8055C222.013 63.0669 215.323 54.0871 208.843 47.8222C194.627 34.6659 179.784 32.9953 179.784 32.9953L169.123 19.2124L180.412 1.46182C180.412 1.46182 197.345 1.87948 217.623 15.8711C218.877 16.7065 220.131 17.5418 221.177 18.3771C221.177 18.3771 221.177 18.3771 221.386 18.3771C224.312 20.6742 226.821 22.9714 229.33 25.4773C229.748 25.6862 245.218 40.0955 254.834 66.1993C256.297 69.3318 257.761 72.4642 259.015 75.8055C273.858 107.339 295.599 115.692 305.843 117.989Z" fill="#D35600"/>
<path d="M170.586 1.04416L176.649 0.626495C176.649 0.626495 180.203 0.626495 183.965 1.25299C187.728 1.87948 182.92 6.26492 182.92 6.26492L178.112 7.72674L174.349 6.47375C174.349 6.47375 171.84 5.01194 171.422 4.59428C171.004 4.17662 170.795 2.92363 170.795 2.92363L170.586 1.04416Z" fill="#D35600"/>
<path d="M301.034 118.616C301.034 118.616 268.213 118.407 249.19 75.3879C247.726 72.0466 246.263 68.9141 245.009 65.7817C235.392 39.6778 219.713 25.4773 219.504 25.0597C216.996 22.5537 214.487 20.2566 211.56 17.9594C211.56 17.9594 211.56 17.9594 211.351 17.9594C210.097 17.1241 209.052 16.2888 207.797 15.4535C187.519 1.46182 170.586 1.04416 170.586 1.04416L159.297 18.7948L169.959 32.5776C169.959 32.5776 184.802 34.2482 199.017 47.4046C205.498 53.6695 212.187 62.6492 217.832 75.3879C219.922 79.9821 222.013 84.5764 224.103 88.753C224.103 88.753 235.183 117.989 253.789 131.146C259.224 135.949 265.496 139.708 272.603 142.84C286.61 149.523 301.034 149.94 301.034 149.94L293.718 135.322L301.034 118.616Z" fill="url(#paint3_linear_37_17613)"/>
<path d="M165.987 118.616L174.14 133.443L166.196 150.149C166.196 150.149 128.567 150.567 108.289 110.054L124.386 108.801L133.375 94.1826C133.375 94.3915 141.528 115.692 165.987 118.616Z" fill="url(#paint4_linear_37_17613)"/>
<path d="M362.496 49.9105C360.823 45.3163 358.733 40.722 356.015 36.1277C354.552 33.8306 353.297 31.5334 351.625 29.4451C330.72 -0.208822 300.616 0.83533 300.616 0.83533L307.724 16.4976L300.616 32.1599C300.616 32.1599 317.341 33.4129 327.793 47.1957C338.246 60.9786 340.127 78.5203 333.647 93.5561L360.614 105.042C360.823 105.251 372.948 79.7733 362.496 49.9105Z" fill="url(#paint5_linear_37_17613)"/>
<path d="M150.517 65.9905H158.461C160.134 65.9905 161.388 66.1993 162.224 66.617C163.269 67.0346 163.897 67.6611 164.524 68.4964C165.151 69.3318 165.569 70.1671 165.987 71.2112C166.196 72.2554 166.405 73.2996 166.405 74.5525C166.405 76.432 166.196 77.8938 165.778 78.938C165.36 79.9821 164.733 80.8175 164.106 81.4439C163.269 82.0704 162.642 82.6969 161.597 82.9058C160.343 83.3234 159.297 83.3234 158.461 83.3234H150.517V65.9905ZM155.953 69.9583V79.3556H157.207C158.252 79.3556 159.088 79.1468 159.506 78.938C159.925 78.7291 160.343 78.3115 160.552 77.685C160.761 77.0585 160.97 76.0143 160.97 74.7614C160.97 72.8819 160.761 71.6289 160.134 71.0024C159.506 70.3759 158.461 69.9583 157.207 69.9583H155.953Z" fill="#1C0A75"/>
<path d="M169.332 65.9905H183.756V69.7494H174.767V72.4642H183.129V76.0144H174.767V79.3556H183.965V83.3234H169.332V65.9905Z" fill="#1C0A75"/>
<path d="M185.22 65.9905H190.864L194.836 78.5203L198.599 65.9905H204.034L197.554 83.3234H191.7L185.22 65.9905Z" fill="#1C0A75"/>
<path d="M274.067 74.7614C274.067 71.8377 274.903 69.7494 276.366 68.0788C278.039 66.4081 280.129 65.7816 283.056 65.7816C285.983 65.7816 288.282 66.617 289.746 68.0788C291.209 69.5406 292.045 71.8377 292.045 74.5525C292.045 76.6408 291.627 78.3115 291 79.5645C290.373 80.8175 289.328 81.8616 288.073 82.6969C286.819 83.3234 285.147 83.7411 283.265 83.7411C281.384 83.7411 279.711 83.5323 278.457 82.9058C277.203 82.2793 276.157 81.2351 275.321 79.9821C274.485 78.5203 274.067 76.8497 274.067 74.7614ZM279.502 74.7614C279.502 76.432 279.92 77.685 280.547 78.5203C281.175 79.3556 282.011 79.7733 283.265 79.7733C284.519 79.7733 285.356 79.3556 285.983 78.7291C286.61 77.8938 287.028 76.6408 287.028 74.7614C287.028 73.0907 286.61 71.8377 285.983 71.2112C285.356 70.3759 284.519 70.1671 283.265 70.1671C282.22 70.1671 281.384 70.5848 280.756 71.4201C279.92 71.6289 279.502 73.0907 279.502 74.7614Z" fill="#FF7F26"/>
<path d="M294.972 65.9905H303.961C305.843 65.9905 307.306 66.4081 308.351 67.4523C309.397 68.2876 309.815 69.7494 309.815 71.4201C309.815 73.0907 309.187 74.5525 308.142 75.5967C307.097 76.6408 305.425 77.0585 303.334 77.0585H300.407V83.5323H294.972V65.9905ZM300.407 73.5084H301.662C302.707 73.5084 303.334 73.2996 303.752 72.8819C304.17 72.4642 304.379 72.0466 304.379 71.4201C304.379 70.7936 304.17 70.3759 303.752 69.9583C303.334 69.5406 302.707 69.3318 301.662 69.3318H300.198V73.5084H300.407Z" fill="#FF7F26"/>
<path d="M311.696 77.685L316.713 77.2673C316.922 78.1027 317.131 78.7292 317.34 79.1468C317.968 79.7733 318.595 80.191 319.64 80.191C320.476 80.191 320.894 79.9821 321.312 79.5645C321.731 79.1468 321.94 78.7291 321.94 78.3115C321.94 77.8938 321.731 77.4762 321.312 77.0585C320.894 76.6408 320.058 76.432 318.595 76.0144C316.295 75.3879 314.623 74.7614 313.578 73.926C312.532 73.0907 312.114 71.8377 312.114 70.5848C312.114 69.7494 312.323 68.9141 312.95 68.0788C313.369 67.2435 314.205 66.617 315.25 66.1993C316.295 65.7816 317.759 65.5728 319.431 65.5728C321.731 65.5728 323.403 65.9905 324.448 66.8258C325.703 67.6611 326.33 68.9141 326.539 70.7936L321.522 71.0024C321.312 70.1671 321.103 69.7494 320.685 69.3318C320.267 68.9141 319.64 68.7053 318.804 68.7053C318.177 68.7053 317.759 68.9141 317.34 69.1229C316.922 69.3318 316.922 69.7494 316.922 70.1671C316.922 70.3759 317.131 70.7936 317.34 71.0024C317.55 71.2112 318.177 71.4201 319.222 71.6289C321.522 72.0466 323.194 72.6731 324.239 73.0907C325.284 73.5084 325.912 74.3437 326.539 74.9702C326.957 75.8055 327.166 76.6408 327.166 77.4762C327.166 78.5203 326.957 79.5645 326.33 80.6086C325.703 81.6528 324.866 82.2793 323.821 82.6969C322.776 83.1146 321.312 83.3234 319.64 83.3234C316.713 83.3234 314.623 82.6969 313.578 81.6528C312.532 80.8175 311.905 79.3556 311.696 77.685Z" fill="#FF7F26"/>
<path d="M140.065 333.92H171.422C174.558 333.92 177.485 336.426 177.903 339.767L188.356 434.159H185.638L175.185 339.976C174.976 338.097 173.095 336.635 171.422 336.635H140.065C138.183 336.635 136.511 338.306 136.302 339.976L125.849 434.159H123.131L133.584 339.767C134.002 336.635 136.929 333.92 140.065 333.92Z" fill="url(#paint6_linear_37_17613)"/>
<path d="M136.302 333.92L165.36 334.129C168.496 334.129 175.394 336.635 175.812 339.767L185.638 434.159H181.875L171.422 339.976C171.213 338.097 166.614 336.635 164.733 336.635H136.929C135.047 336.635 135.047 338.515 134.838 340.394L124.804 434.159H119.369L129.821 339.767C130.239 336.635 133.166 333.92 136.302 333.92Z" fill="#1C0A75"/>
<path d="M74.6314 333.92H110.379C113.515 333.92 117.487 336.635 117.905 339.767L127.731 434.159H123.968L113.515 340.185C113.306 338.306 111.425 336.635 109.752 336.635H75.4676C73.5862 336.635 74.4224 337.888 74.2133 339.767L59.1616 434.159H54.3534L68.3599 339.767C68.778 336.426 71.4957 333.92 74.6314 333.92Z" fill="url(#paint7_linear_37_17613)"/>
<path d="M78.3944 333.92H113.306C116.442 333.92 119.369 336.635 119.787 339.767L130.239 434.159H127.522L117.069 340.185C116.86 338.306 114.978 336.635 113.306 336.635H78.3944C76.5129 336.635 74.6314 338.306 74.4224 340.185L60.834 434.159H58.1164L71.9138 339.559C72.3319 336.426 75.2586 333.92 78.3944 333.92Z" fill="#1C0A75"/>
<path d="M72.541 330.997H68.9871C66.6875 325.985 62.9246 306.563 61.0431 291.736C60.8341 290.066 60.625 288.604 60.625 287.769L60.416 286.516L62.9246 286.098C65.4332 301.551 72.1228 330.37 72.541 330.997Z" fill="url(#paint8_linear_37_17613)"/>
<path d="M74.4224 330.997H71.7047C69.4052 326.193 65.4332 306.563 63.3427 291.319C63.1336 289.648 62.9246 288.186 62.9246 287.56L65.4332 287.142C67.3146 307.399 74.0043 330.161 74.4224 330.997Z" fill="#1C0A75"/>
<path d="M118.95 290.901C119.578 295.287 123.34 315.543 124.595 321.599C125.64 326.611 126.476 329.326 127.103 330.997H124.386C122.295 325.567 118.323 305.937 116.233 291.319C116.024 289.857 115.606 286.516 115.606 286.516L118.114 286.098C118.323 286.098 118.741 289.23 118.95 290.901Z" fill="#1C0A75"/>
<path d="M129.612 330.997H126.894C124.595 325.985 120.623 306.563 118.741 291.319C118.532 289.439 118.323 288.186 118.323 287.351L120.832 286.933C123.55 316.378 128.985 329.952 129.612 330.997Z" fill="url(#paint9_linear_37_17613)"/>
<path d="M50.5905 232.429H102.853C107.871 232.429 112.47 236.187 113.097 240.782L119.996 288.395C119.996 288.395 103.062 291.528 81.7392 291.528C60.4159 291.528 52.472 288.395 52.472 288.395L42.8556 240.782C42.2284 236.187 45.5733 232.429 50.5905 232.429Z" fill="#1C0A75"/>
<path d="M54.9806 232.429H107.244C112.261 232.429 116.86 236.187 117.487 240.782L127.103 288.395C127.103 288.395 107.453 291.528 86.1293 291.528C64.806 291.528 56.8621 288.395 56.8621 288.395L47.2457 240.782C46.6185 236.187 50.1724 232.429 54.9806 232.429Z" fill="#4135B0"/>
<path d="M129.194 330.161C129.194 330.37 129.194 330.37 129.194 330.579C129.194 333.92 127.312 336.635 125.013 336.635H70.2414C67.9418 336.635 66.0603 333.92 66.0603 330.579C66.0603 330.37 66.0603 330.37 66.0603 330.161H129.194Z" fill="#1C0A75"/>
<path d="M182.711 330.161C182.711 330.37 182.711 330.37 182.711 330.579C182.711 333.92 180.621 336.635 177.903 336.635H113.515C110.797 336.635 108.707 333.92 108.707 330.579C108.707 330.37 108.707 330.37 108.707 330.161H182.711Z" fill="url(#paint10_linear_37_17613)"/>
<path d="M113.306 282.966C142.573 282.548 198.39 283.592 201.735 284.219C210.097 285.889 221.177 299.463 205.08 307.19C191.491 313.664 107.871 344.988 96.1638 306.981C91.9828 292.989 104.317 283.174 113.306 282.966Z" fill="#3B31A1"/>
<path d="M196.3 296.331C197.345 297.584 209.47 305.31 205.08 307.399C191.491 313.873 107.871 345.197 96.1638 307.19C94.2823 301.134 95.5367 295.913 98.2543 291.736C102.226 292.781 190.446 289.439 196.3 296.331Z" fill="#1C0A76"/>
<path d="M119.159 330.579C136.929 329.326 166.405 323.688 187.937 325.567C209.47 327.446 205.916 306.563 191.491 302.804C176.649 298.837 146.754 290.901 126.685 289.022C106.616 287.351 98.4634 289.022 88.847 293.825C79.2306 298.837 75.6767 333.503 119.159 330.579Z" fill="#4135B0"/>
<path d="M91.5647 184.398C89.6832 189.827 92.6099 195.466 98.0453 197.345C103.481 199.224 109.125 196.301 111.006 190.871C112.888 185.442 109.961 179.803 104.526 177.924C99.0905 176.253 93.4461 178.968 91.5647 184.398Z" fill="#1C0A76"/>
<path d="M109.334 186.068C103.481 185.859 96.3728 184.189 86.7565 193.168C77.1401 202.148 81.1121 210.919 76.0948 220.316C70.8685 229.714 62.2974 239.738 64.806 259.785C66.8965 276.701 72.75 288.604 100.345 286.933C127.94 285.263 127.103 253.52 122.713 243.288C118.114 233.055 113.097 229.923 122.504 220.525C132.748 210.501 125.431 186.903 109.334 186.068Z" fill="#1C0A76"/>
<path d="M113.515 241.199C114.978 251.432 130.239 277.536 135.466 282.966C140.692 288.604 149.054 287.351 148.636 280.877C148.218 275.239 130.239 237.44 128.567 234.308C125.222 227.625 112.052 230.34 113.515 241.199Z" fill="#FFD2A7"/>
<path d="M94.7004 215.304C94.7004 215.304 99.2996 233.055 91.9827 233.473C87.8017 233.682 82.1573 234.517 80.4849 237.858C79.2306 240.573 81.3211 244.958 83.2026 250.597C88.0108 265.215 89.6832 268.974 90.5194 273.359C92.819 286.098 86.1293 296.122 86.1293 296.122C86.1293 296.122 109.961 297.166 131.075 286.307C131.075 286.307 123.759 282.966 123.759 275.448C123.759 272.106 125.64 267.512 127.522 264.797C127.522 264.797 133.584 264.589 134.002 258.115C134.42 251.641 128.776 247.673 127.94 244.332C126.894 240.782 126.894 234.308 122.922 231.384C119.996 229.296 108.498 235.561 108.498 223.658C108.08 211.337 95.7457 211.546 94.7004 215.304Z" fill="#FFD2A7"/>
<path d="M84.4569 298.419C84.4569 298.419 124.177 298.419 132.748 282.757C132.748 282.757 121.877 273.151 127.522 264.797C127.522 264.797 133.584 264.589 134.002 258.115C134.42 251.641 128.776 247.673 127.94 244.332C126.894 240.782 126.894 234.308 122.922 231.384C122.086 230.758 120.623 230.967 118.741 230.967C119.159 237.023 117.069 242.244 112.679 244.541C105.989 248.091 96.1638 243.288 90.9375 233.473C86.9655 233.89 82.1573 234.726 80.6939 237.858C79.4396 240.573 89.8922 268.974 90.7284 273.359C92.6099 286.098 84.4569 298.419 84.4569 298.419Z" fill="url(#paint11_linear_37_17613)"/>
<path d="M85.9202 295.913C85.9202 295.913 105.571 293.616 105.571 281.921C105.571 279.207 104.526 271.271 104.526 271.271C101.181 270.645 98.2543 268.556 97.209 265.006C95.7457 260.412 98.2543 254.565 103.272 253.312L107.453 252.059C99.7177 249.761 93.028 243.705 90.7284 235.352C90.5194 234.726 90.3103 234.099 90.3103 233.473C86.5474 233.89 81.9483 234.935 80.4849 237.858C79.2306 240.573 81.3211 244.958 83.2026 250.597C88.0108 265.215 89.6832 268.974 90.5194 273.359C92.6099 286.098 85.9202 295.913 85.9202 295.913Z" fill="#D35600"/>
<path d="M90.7285 253.312C84.6659 258.532 63.9698 280.251 59.1616 283.801C53.3082 288.186 46.4095 282.548 48.5 276.283C50.1724 270.853 77.3491 238.485 81.3211 236.396C88.4289 232.846 94.4914 249.97 90.7285 253.312Z" fill="#FFD2A7"/>
<path d="M58.9526 280.877C60.625 279.415 62.0884 277.745 63.7608 276.074C66.8965 272.942 70.6595 270.227 73.7953 267.303C80.2759 261.456 88.6379 252.267 87.5927 242.87C87.3836 240.364 86.5474 238.067 85.084 236.188C90.3103 238.693 93.6552 250.388 90.5194 253.103C84.4569 258.324 65.8513 277.536 61.2521 281.295C59.5797 282.548 57.6983 283.174 56.0258 283.174C57.0711 282.548 58.1164 281.713 58.9526 280.877Z" fill="#FFBC8E"/>
<path d="M121.459 200.477C121.459 200.477 122.922 205.907 120.205 211.128C120.205 211.128 125.013 218.646 115.815 224.911C106.616 231.176 96.791 222.196 95.1186 213.634C95.1186 213.634 88.0108 213.843 89.056 207.578C89.8923 201.313 93.8642 202.148 97.8362 204.028C97.8362 204.028 107.034 191.08 112.052 191.915C117.069 193.168 120.623 194.63 121.459 200.477Z" fill="#FFD2A7"/>
<path d="M89.056 207.787C89.8922 201.522 93.8642 202.357 97.8362 204.236C97.8362 204.236 107.034 191.289 112.052 192.124C116.024 192.96 119.159 194.004 120.623 197.554C117.696 195.883 102.644 205.281 100.345 212.798C98.0453 220.525 104.944 227.625 112.47 226.164C113.306 225.955 114.351 225.746 115.187 225.328C106.198 230.967 96.5819 222.196 95.1185 213.634C95.1185 213.843 88.2198 214.051 89.056 207.787Z" fill="#FFBC8E"/>
<path d="M52.0539 273.359C62.2974 270.645 86.1293 273.359 91.5647 269.809C97 266.259 100.345 260.621 104.526 263.335C108.916 266.05 109.543 270.018 109.543 274.612C109.543 277.536 103.899 277.954 96.5819 277.745C89.2651 277.745 68.778 285.054 58.1164 286.307C47.8728 287.769 45.1552 275.239 52.0539 273.359Z" fill="#FFD2A7"/>
<path d="M136.929 273.359C146.127 268.139 176.44 264.797 180.621 259.994C184.802 255.191 184.175 249.97 190.864 251.223C197.554 252.476 199.017 254.356 200.062 258.741C201.108 263.127 194.836 265.424 187.728 266.259C180.412 267.094 154.489 283.383 146.127 285.889C135.884 289.022 130.657 276.909 136.929 273.359Z" fill="#FFD2A7"/>
<path d="M109.543 193.377C109.543 193.377 112.052 192.751 116.651 198.18C121.041 203.61 129.612 205.698 129.612 205.698C129.612 205.698 124.595 187.53 109.543 193.377Z" fill="#1C0A76"/>
<path d="M112.679 191.498C114.351 193.795 113.306 199.016 106.407 203.192C99.5086 207.369 99.2996 214.887 96.1638 209.875C93.028 204.863 93.2371 204.236 94.2823 199.016C95.1185 193.586 109.125 186.486 112.679 191.498Z" fill="#1C0A76"/>
<path d="M223.058 280.668H139.647V285.054H223.058V280.668Z" fill="#C8D3FB"/>
<path d="M139.647 285.054H101.181V282.548C101.181 281.504 102.017 280.668 103.062 280.668H139.437V285.054H139.647Z" fill="#C8D3FB"/>
<path d="M220.55 280.668H137.556L148.427 229.505C148.845 228.043 150.099 226.999 151.353 226.999H226.194C229.121 226.999 231.42 229.923 230.793 233.055L220.55 280.668Z" fill="#C8D3FB"/>
<path d="M222.64 280.668H139.647L150.517 229.505C150.935 228.043 152.19 226.999 153.444 226.999H229.957C232.047 226.999 233.72 229.087 233.302 231.384L222.64 280.668Z" fill="url(#paint12_linear_37_17613)"/>
<path opacity="0.34" d="M190.028 226.999L213.442 280.668H202.78L178.53 226.999H190.028Z" fill="#DAE7FF"/>
<path opacity="0.34" d="M172.468 226.999L195.881 280.668H191.7L167.45 226.999H172.468Z" fill="#DAE7FF"/>
<path d="M179.784 424.135C166.196 419.332 175.394 410.143 177.903 402.417L165.36 399.911C165.36 399.911 159.297 416.617 158.67 425.806C158.043 434.994 160.761 434.159 160.761 434.159H192.119C191.909 434.159 188.983 427.476 179.784 424.135Z" fill="#FFD2A7"/>
<path d="M179.784 424.135C177.067 423.3 174.767 421.212 172.677 418.706C171.422 416.826 165.151 418.914 164.106 422.256C164.106 422.256 161.597 424.135 158.67 423.717C158.67 424.344 158.67 424.97 158.461 425.388C156.789 434.159 160.552 433.741 160.552 433.741H191.909C191.909 434.159 188.983 427.268 179.784 424.135Z" fill="#1C0A76"/>
<path d="M180.203 317.423C175.394 326.82 162.433 406.593 162.433 406.593C162.433 406.593 169.123 412.023 176.858 409.726C176.858 409.726 205.289 326.611 206.752 320.764C207.797 316.17 188.147 301.969 180.203 317.423Z" fill="#4135B0"/>
<path d="M233.72 378.819L242.709 373.807C247.099 384.875 253.58 392.393 263.823 379.236C268.631 373.18 276.994 377.357 276.994 377.357L252.535 408.89C252.535 408.89 248.772 410.979 245.009 400.746C240.828 389.678 233.72 378.819 233.72 378.819Z" fill="#FFD2A7"/>
<path d="M254.625 392.393C254.416 389.052 249.19 388.425 251.071 385.501C254.625 387.172 258.806 385.919 264.032 379.237C268.841 373.18 277.203 377.357 277.203 377.357L252.744 408.89C252.744 408.89 249.19 410.979 245.427 401.581C247.935 398.449 255.043 397.614 254.625 392.393Z" fill="#1C0A76"/>
<path d="M208.216 345.197C218.25 359.398 234.138 387.172 234.138 387.172C234.138 387.172 240.619 388.216 247.726 381.743C247.726 381.743 217.623 295.913 209.888 289.439C202.571 282.966 163.478 281.713 208.216 345.197Z" fill="#3B31A1"/>
<path d="M415.595 293.616H410.996V434.159H415.595V293.616Z" fill="url(#paint13_linear_37_17613)"/>
<path d="M403.47 286.516C403.47 286.724 403.47 286.724 403.47 286.933C403.47 290.483 405.56 297.793 408.069 297.793H467.022C469.53 297.793 471.621 290.692 471.621 286.933C471.621 286.724 471.621 286.724 471.621 286.516H403.47Z" fill="#D35600"/>
<path d="M345.772 286.516C345.772 286.724 345.772 286.724 345.772 286.933C345.772 290.483 348.071 297.793 350.998 297.793H420.194C423.121 297.793 425.42 290.692 425.42 286.933C425.42 286.724 425.42 286.724 425.42 286.516H345.772Z" fill="#FF9A00"/>
<path d="M438.172 369.63H388.209C386.537 369.63 385.073 368.168 385.073 366.498C385.073 364.827 386.537 363.365 388.209 363.365H438.172C439.845 363.365 441.308 364.827 441.308 366.498C441.517 368.168 440.054 369.63 438.172 369.63Z" fill="#1C0A75"/>
<path d="M443.608 434.159H383.192C391.554 428.521 401.588 425.388 411.623 425.388H415.177C425.211 425.388 435.037 428.521 443.608 434.159Z" fill="#1C0A75"/>
<path d="M429.392 175.627C427.72 185.442 407.651 216.349 404.097 222.822C399.498 230.758 388.627 228.67 387.582 220.525C386.746 213.425 406.397 171.45 409.741 167.065C416.013 159.129 431.692 163.514 429.392 175.627Z" fill="#FFD2A7"/>
<path d="M417.058 207.787C423.33 196.51 430.228 175.209 431.065 170.197C433.155 157.876 417.685 153.699 411.414 161.635C409.532 164.141 399.916 181.892 394.062 197.136C395.526 201.939 407.86 210.084 417.058 207.787Z" fill="#D35600"/>
<path d="M395.944 210.501C383.819 213.843 354.552 233.055 346.817 232.429C339.082 231.802 330.511 233.264 328.002 238.693C325.284 244.123 328.002 249.97 335.528 246.629C338.873 245.167 343.263 246.838 350.58 242.452C357.897 238.067 386.537 233.473 398.034 228.461C409.323 223.449 404.097 208.204 395.944 210.501Z" fill="#FFD2A7"/>
<path d="M422.912 249.97C432.319 253.52 432.528 279.833 418.313 283.174C395.317 288.604 373.784 289.857 337.619 288.604C323.194 288.186 310.233 274.821 321.312 264.171C332.392 253.52 396.571 240.364 422.912 249.97Z" fill="#3B31A1"/>
<path d="M385.282 355.012C387.791 347.077 379.429 338.306 374.203 333.503L384.446 326.82C384.446 326.82 391.554 337.679 399.08 341.229C406.815 344.779 404.724 346.241 404.724 346.241L382.983 375.06C383.192 375.06 382.774 362.948 385.282 355.012Z" fill="#FFD2A7"/>
<path d="M385.282 355.012C386.119 352.715 385.7 350 384.655 347.494C383.819 345.824 387.373 346.45 390.718 347.077C390.718 347.077 396.362 343.526 397.616 340.394C398.034 340.603 398.662 341.02 399.08 341.229C406.815 344.779 404.724 346.241 404.724 346.241L382.983 375.06C378.802 369.63 382.774 362.53 385.282 355.012Z" fill="#1C0A76"/>
<path d="M403.888 343.944C405.769 345.615 404.724 346.241 404.724 346.241L382.983 375.06C382.983 375.06 382.356 374.433 381.728 372.972L403.888 343.944Z" fill="#1C0A76"/>
<path d="M317.131 276.283C317.55 286.098 355.597 319.511 379.847 347.077C379.847 347.077 390.927 341.229 393.853 334.129C393.853 334.129 360.405 275.865 347.235 268.347C329.675 258.115 316.713 262.918 317.131 276.283Z" fill="#3B31A1"/>
<path d="M343.263 266.259C344.517 266.886 345.772 267.512 347.235 268.347C360.405 275.865 393.853 334.129 393.853 334.129C393.435 334.964 393.017 336.009 392.39 336.844C372.112 313.872 343.89 266.886 343.263 266.259Z" fill="#1C0A76"/>
<path d="M343.263 266.259C343.263 266.259 341.172 250.179 399.289 250.179L403.261 262.291L365.004 271.062H349.116L343.263 266.259Z" fill="#1C0A76"/>
<path d="M448.416 153.282C455.524 153.282 468.485 154.952 473.084 161.217C477.683 167.482 467.858 220.525 467.858 262.5C467.858 262.5 424.166 266.886 400.543 243.079C400.543 243.079 405.56 172.076 412.668 161.217C418.731 152.029 441.308 153.282 448.416 153.282Z" fill="url(#paint14_linear_37_17613)"/>
<path d="M474.756 176.462C474.547 194.839 468.485 226.164 468.067 254.356C468.067 257.071 468.067 259.785 468.067 262.5C468.067 262.5 460.75 263.753 447.162 262.083C446.953 262.083 446.534 262.083 446.325 261.874C446.116 261.874 445.698 261.874 445.489 261.665C445.28 261.665 444.862 261.665 444.444 261.456C444.235 261.456 443.817 261.456 443.399 261.247C443.19 261.247 443.19 261.247 442.981 261.247C442.563 261.247 441.935 261.038 441.517 261.038C440.89 261.038 440.472 260.83 439.845 260.83H439.636C439.009 260.621 438.381 260.621 437.754 260.412C424.793 257.906 410.787 256.444 400.961 246.42C400.961 246.42 405.978 171.659 413.086 160.8C418.94 151.82 441.517 152.864 448.625 153.073C455.733 153.073 468.694 154.744 473.293 161.008C474.547 163.097 474.756 168.526 474.756 176.462Z" fill="url(#paint15_linear_37_17613)"/>
<path d="M474.756 176.462C474.547 194.839 468.485 226.164 468.067 254.356C468.067 256.026 468.067 257.697 468.067 259.368C467.858 260.412 467.649 261.456 467.649 262.5C465.14 262.5 458.869 263.336 447.162 262.083C446.953 262.083 446.534 262.083 446.325 261.874C446.116 261.874 445.698 261.874 445.489 261.665C445.28 261.665 444.862 261.665 444.444 261.456C444.235 261.456 443.817 261.456 443.399 261.247C443.19 261.247 443.19 261.247 442.981 261.247C442.562 261.247 441.935 261.038 441.517 261.038C440.89 261.038 440.472 260.83 439.845 260.83H439.636C439.009 260.621 438.381 260.621 437.754 260.412C426.466 258.115 412.459 255.818 402.634 248.091C417.058 239.111 466.603 205.489 470.157 178.133C470.784 173.33 472.666 173.121 474.756 176.462Z" fill="#D35600"/>
<path d="M449.879 153.282C449.879 153.282 429.392 189.827 426.884 192.96C426.884 192.96 424.375 163.932 423.957 155.161L449.879 153.282Z" fill="url(#paint16_linear_37_17613)"/>
<path d="M431.483 162.679L426.256 155.161C426.256 155.161 430.228 151.82 428.765 144.093C425.211 125.507 444.026 137.411 444.026 137.411C444.026 137.411 442.772 153.282 448.416 153.282L431.483 162.679Z" fill="#FFD2A7"/>
<path d="M431.065 158.92C440.89 159.129 439.009 147.017 439.218 144.72C439.427 142.631 444.026 137.411 444.026 137.411C444.026 137.411 442.772 153.282 448.416 153.282L431.483 162.679L428.556 158.294C429.183 158.711 430.019 158.92 431.065 158.92Z" fill="#FFBC8E"/>
<path d="M445.071 150.149C442.562 155.37 431.483 162.679 431.483 162.679C431.483 162.679 435.037 161.426 439.009 165.812C440.681 167.691 442.981 168.109 442.981 168.109C442.981 168.109 449.67 161.635 449.879 153.491L445.071 150.149Z" fill="#C8D3FB"/>
<path d="M428.138 152.446C428.138 157.458 431.483 162.679 431.483 162.679C431.483 162.679 428.347 161.217 425.838 164.976C424.793 166.438 423.539 166.647 423.539 166.647C423.539 166.647 423.121 162.679 424.166 154.952L428.138 152.446Z" fill="#C8D3FB"/>
<path d="M421.842 124.979L416.021 125.594L416.087 126.217L421.908 125.602L421.842 124.979Z" fill="#1C0A76"/>
<path d="M418.103 114.439L420.403 136.366C421.03 142.84 427.093 147.434 433.991 146.599C440.89 145.764 445.698 140.125 445.071 133.652V133.025C445.071 133.025 451.97 131.772 451.343 124.672C450.506 117.572 446.116 120.913 446.116 120.913L445.071 111.516L418.103 114.439Z" fill="#FFD2A7"/>
<path d="M446.116 120.913L445.071 111.516L435.455 112.56V112.769L438.172 137.411C438.591 141.796 435.037 145.764 430.856 145.973C429.601 145.973 428.347 145.764 427.093 145.346C429.183 146.39 431.483 146.808 433.991 146.599C440.89 145.764 445.698 140.125 445.071 133.652V133.025C445.071 133.025 451.97 131.772 451.343 124.672C450.506 117.572 446.116 120.913 446.116 120.913Z" fill="#FFBC8E"/>
<path d="M445.907 121.122C445.907 121.122 444.444 127.804 442.353 120.078C440.054 112.351 437.754 112.977 429.183 114.648C420.612 116.11 407.86 114.23 411.414 102.954C414.968 91.8855 434.409 97.7328 434.409 97.7328C434.409 97.7328 447.58 92.0943 451.134 102.536C454.478 113.186 445.907 121.122 445.907 121.122Z" fill="#1C0A76"/>
<path d="M451.761 166.438C449.879 176.253 457.614 212.798 458.66 220.316C460.123 229.296 469.321 232.429 473.293 225.119C476.638 218.855 475.802 169.153 474.129 163.932C471.412 154.326 454.269 154.326 451.761 166.438Z" fill="#FFD2A7"/>
<path d="M452.388 200.895C450.506 186.695 450.088 171.45 451.134 165.812C453.642 152.446 472.457 153.491 475.593 163.932C476.429 166.438 477.265 181.265 477.474 195.674C467.858 201.522 454.478 201.73 452.388 200.895Z" fill="url(#paint17_linear_37_17613)"/>
<path d="M465.976 213.843C454.06 215.513 420.403 231.593 413.086 229.923C405.769 228.252 393.644 229.714 390.718 234.726C387.582 239.738 391.554 242.244 396.989 243.497C400.543 244.332 404.306 244.75 411.832 241.408C419.358 238.067 454.478 235.143 465.976 231.802C477.474 228.461 473.92 212.798 465.976 213.843Z" fill="#FFD2A7"/>
<path d="M435.455 130.519C433.364 130.728 431.901 129.684 431.065 128.64C430.019 127.596 429.392 125.925 429.183 124.463C428.974 121.957 430.647 120.495 434.409 120.078C437.963 119.66 440.054 120.913 440.472 123.419C440.681 125.925 439.218 130.101 435.455 130.519ZM429.81 124.463C430.019 125.925 430.647 127.387 431.483 128.431C432.319 129.266 433.573 130.31 435.455 130.101C435.455 130.101 435.455 130.101 435.664 130.101C439.009 129.684 440.054 125.925 439.845 123.419C439.636 120.704 436.709 120.495 434.409 120.704H434.2C431.901 120.913 429.392 121.748 429.81 124.463Z" fill="#1C0A76"/>
<path d="M422.075 131.981C418.312 132.399 416.013 128.64 415.804 125.925C415.595 123.419 417.267 121.748 421.03 121.539C424.584 121.122 426.675 122.375 427.093 124.881C427.302 127.387 426.047 131.563 422.075 131.981ZM416.431 125.716C416.64 128.222 418.731 131.563 422.075 131.355C425.42 130.937 426.675 127.178 426.466 124.672C426.256 121.957 423.33 121.748 421.03 121.957H420.821C418.522 122.375 416.013 123.21 416.431 125.716Z" fill="#1C0A76"/>
<path d="M429.366 123.487L426.664 123.783L426.733 124.406L429.434 124.11L429.366 123.487Z" fill="#1C0A76"/>
<path d="M445.659 122.465L439.84 123.1L439.908 123.723L445.727 123.088L445.659 122.465Z" fill="#1C0A76"/>
<path d="M463.677 258.115C472.666 262.291 465.558 283.801 451.343 285.889C427.929 289.439 406.188 290.483 370.649 283.801C363.332 282.548 344.517 267.721 356.433 258.115C368.349 248.509 438.381 246.211 463.677 258.115Z" fill="#3B31A1"/>
<path d="M382.565 273.568C398.244 267.721 467.858 270.853 466.603 261.247C470.366 268.974 463.259 284.219 451.134 285.889C427.72 289.439 405.978 290.483 370.44 283.801C365.004 282.966 377.966 275.239 382.565 273.568Z" fill="#1C0A76"/>
<path d="M318.386 368.795C326.539 367.542 330.72 356.056 332.81 349.374L343.263 355.639C343.263 355.639 336.573 366.707 336.782 375.269C336.991 383.831 334.692 382.578 334.692 382.578L299.362 375.895C299.362 375.478 310.024 370.048 318.386 368.795Z" fill="#FFD2A7"/>
<path d="M318.386 368.795C320.894 368.586 322.985 366.915 324.866 365.036C326.121 363.574 326.957 366.915 327.793 370.257C327.793 370.257 333.438 373.807 336.782 373.389C336.782 374.016 336.782 374.642 336.782 375.06C336.991 383.622 334.692 382.369 334.692 382.369L299.362 375.686C302.289 369.213 310.442 369.63 318.386 368.795Z" fill="#1C0A76"/>
<path d="M336.364 380.489C335.737 382.995 334.692 382.369 334.692 382.369L299.362 375.686C299.362 375.686 299.571 374.851 300.616 373.807L336.364 380.489Z" fill="#1C0A76"/>
<path d="M355.806 258.115C344.099 264.38 337.2 325.149 324.448 363.992C324.448 363.992 335.737 368.795 343.472 367.124C343.472 367.124 379.22 301.134 379.429 284.636C379.638 262.291 368.349 251.223 355.806 258.115Z" fill="#3B31A1"/>
<path d="M378.802 275.239C378.802 276.701 379.429 280.251 379.429 284.427C379.429 300.925 343.472 366.915 343.472 366.915C342.427 367.124 341.381 367.333 340.336 367.333C346.817 359.398 378.593 276.283 378.802 275.239Z" fill="#1C0A76"/>
<path d="M393.017 250.179H309.606V254.565H393.017V250.179Z" fill="#C8D3FB"/>
<path d="M393.017 254.565H431.483V252.059C431.483 251.014 430.647 250.179 429.601 250.179H393.017V254.565Z" fill="#C8D3FB"/>
<path d="M311.905 250.179H395.108L384.237 199.016C383.819 197.554 382.774 196.51 381.31 196.51H306.47C303.543 196.51 301.244 199.433 301.871 202.566L311.905 250.179Z" fill="#C8D3FB"/>
<path d="M310.024 250.179H393.017L382.147 199.016C381.728 197.554 380.474 196.51 379.22 196.51H302.916C300.825 196.51 299.153 198.598 299.571 200.895L310.024 250.179Z" fill="url(#paint18_linear_37_17613)"/>
<path opacity="0.34" d="M342.636 196.51L319.222 250.179H329.884L354.134 196.51H342.636Z" fill="#DAE7FF"/>
<path opacity="0.34" d="M359.987 196.51L336.573 250.179H340.754L365.213 196.51H359.987Z" fill="#DAE7FF"/>
<path d="M21.5323 117.989C19.2327 120.078 17.3513 122.584 15.8879 125.298L9.40732 124.045L6.48059 134.278L12.7521 136.575C12.5431 139.708 12.9612 142.84 13.7974 145.764L8.36206 149.523L13.5884 158.711L19.6509 155.997C21.7414 158.294 24.25 160.173 26.9677 161.635L25.7133 168.109L35.9569 171.032L38.2565 164.767C41.3922 164.976 44.528 164.559 47.4547 163.723L51.2177 169.153L60.4159 163.932L57.6983 157.876C59.9978 155.788 61.8793 153.282 63.3427 150.567L69.8233 151.82L72.75 141.587L66.4784 139.29C66.6875 136.158 66.2694 133.025 65.4332 130.102L70.8685 126.343L65.6422 117.154L59.5797 119.869C57.4892 117.572 54.9806 115.692 52.2629 114.23L53.5172 107.757L43.2737 104.833L40.9741 111.098C37.8383 110.889 34.7026 111.307 31.7759 112.142L28.0129 106.712L18.8146 111.933L21.5323 117.989ZM30.1034 121.539C39.3017 116.319 50.7996 119.66 56.0258 128.849C61.2521 138.037 57.9073 149.523 48.709 154.744C39.5108 159.964 28.0129 156.623 22.7866 147.434C17.7694 138.246 20.9052 126.551 30.1034 121.539Z" fill="#C8D3FB"/>
<defs>
<linearGradient id="paint0_linear_37_17613" x1="56.7048" y1="236.953" x2="453.54" y2="236.953" gradientUnits="userSpaceOnUse">
<stop stop-color="white"/>
<stop offset="1" stop-color="#D3DBEB"/>
</linearGradient>
<linearGradient id="paint1_linear_37_17613" x1="41.5645" y1="226.341" x2="587.117" y2="86.147" gradientUnits="userSpaceOnUse">
<stop stop-color="white"/>
<stop offset="1" stop-color="#D3DBEB"/>
</linearGradient>
<linearGradient id="paint2_linear_37_17613" x1="-60.625" y1="226.586" x2="724.293" y2="226.586" gradientUnits="userSpaceOnUse">
<stop stop-color="white"/>
<stop offset="1" stop-color="#D3DBEB"/>
</linearGradient>
<linearGradient id="paint3_linear_37_17613" x1="159.208" y1="75.6151" x2="300.965" y2="75.6151" gradientUnits="userSpaceOnUse">
<stop stop-color="#FFAE00"/>
<stop offset="1" stop-color="#FF7800"/>
</linearGradient>
<linearGradient id="paint4_linear_37_17613" x1="108.329" y1="122.219" x2="174.072" y2="122.219" gradientUnits="userSpaceOnUse">
<stop stop-color="#FFAE00"/>
<stop offset="1" stop-color="#FF7800"/>
</linearGradient>
<linearGradient id="paint5_linear_37_17613" x1="300.704" y1="52.9668" x2="366.684" y2="52.9668" gradientUnits="userSpaceOnUse">
<stop stop-color="#FFAE00"/>
<stop offset="1" stop-color="#FF7800"/>
</linearGradient>
<linearGradient id="paint6_linear_37_17613" x1="123.167" y1="384.126" x2="188.142" y2="384.126" gradientUnits="userSpaceOnUse">
<stop stop-color="#6A6AE8"/>
<stop offset="1" stop-color="#312890"/>
</linearGradient>
<linearGradient id="paint7_linear_37_17613" x1="54.2575" y1="384.033" x2="127.654" y2="384.033" gradientUnits="userSpaceOnUse">
<stop stop-color="#6A6AE8"/>
<stop offset="1" stop-color="#312890"/>
</linearGradient>
<linearGradient id="paint8_linear_37_17613" x1="60.4065" y1="308.524" x2="72.5882" y2="308.524" gradientUnits="userSpaceOnUse">
<stop stop-color="#6A6AE8"/>
<stop offset="1" stop-color="#312890"/>
</linearGradient>
<linearGradient id="paint9_linear_37_17613" x1="118.251" y1="308.998" x2="129.561" y2="308.998" gradientUnits="userSpaceOnUse">
<stop stop-color="#6A6AE8"/>
<stop offset="1" stop-color="#312890"/>
</linearGradient>
<linearGradient id="paint10_linear_37_17613" x1="108.739" y1="333.459" x2="182.714" y2="333.459" gradientUnits="userSpaceOnUse">
<stop stop-color="#6A6AE8"/>
<stop offset="1" stop-color="#312890"/>
</linearGradient>
<linearGradient id="paint11_linear_37_17613" x1="80.3939" y1="264.529" x2="133.967" y2="264.529" gradientUnits="userSpaceOnUse">
<stop stop-color="#FFAE00"/>
<stop offset="1" stop-color="#FF7800"/>
</linearGradient>
<linearGradient id="paint12_linear_37_17613" x1="126.651" y1="274.836" x2="279.574" y2="222.181" gradientUnits="userSpaceOnUse">
<stop stop-color="white"/>
<stop offset="1" stop-color="#D3DBEB"/>
</linearGradient>
<linearGradient id="paint13_linear_37_17613" x1="412.941" y1="422.612" x2="413.636" y2="292.093" gradientUnits="userSpaceOnUse">
<stop stop-color="#6A6AE8"/>
<stop offset="1" stop-color="#312890"/>
</linearGradient>
<linearGradient id="paint14_linear_37_17613" x1="400.714" y1="208.04" x2="496.988" y2="208.04" gradientUnits="userSpaceOnUse">
<stop stop-color="#FF9900"/>
<stop offset="1" stop-color="#FFC200"/>
</linearGradient>
<linearGradient id="paint15_linear_37_17613" x1="416.033" y1="251.876" x2="471.868" y2="159.939" gradientUnits="userSpaceOnUse">
<stop stop-color="#FFAE00"/>
<stop offset="1" stop-color="#FF7800"/>
</linearGradient>
<linearGradient id="paint16_linear_37_17613" x1="423.989" y1="173.206" x2="449.888" y2="173.206" gradientUnits="userSpaceOnUse">
<stop stop-color="white"/>
<stop offset="1" stop-color="#D3DBEB"/>
</linearGradient>
<linearGradient id="paint17_linear_37_17613" x1="419.45" y1="253.951" x2="475.285" y2="162.014" gradientUnits="userSpaceOnUse">
<stop stop-color="#FFAE00"/>
<stop offset="1" stop-color="#FF7800"/>
</linearGradient>
<linearGradient id="paint18_linear_37_17613" x1="405.943" y1="244.39" x2="253.02" y2="191.735" gradientUnits="userSpaceOnUse">
<stop stop-color="white"/>
<stop offset="1" stop-color="#D3DBEB"/>
</linearGradient>
</defs>
</svg>
